<svg width="18" height="14" viewBox="0 0 18 14" fill="none" xmlns="http://www.w3.org/2000/svg">
<path d="M16 1.5H2C1.6875 1.52083 1.52083 1.6875 1.5 2V3H16.5V2C16.4792 1.6875 16.3125 1.52083 16 1.5ZM16.5 6H1.5V12C1.52083 12.3125 1.6875 12.4792 2 12.5H16C16.3125 12.4792 16.4792 12.3125 16.5 12V6ZM2 0H16C16.5625 0.0208333 17.0312 0.21875 17.4062 0.59375C17.7812 0.96875 17.9792 1.4375 18 2V12C17.9792 12.5625 17.7812 13.0312 17.4062 13.4062C17.0312 13.7812 16.5625 13.9792 16 14H2C1.4375 13.9792 0.96875 13.7812 0.59375 13.4062C0.21875 13.0312 0.0208333 12.5625 0 12V2C0.0208333 1.4375 0.21875 0.96875 0.59375 0.59375C0.96875 0.21875 1.4375 0.0208333 2 0ZM3.75 9.5H5.25C5.70833 9.54167 5.95833 9.79167 6 10.25C5.95833 10.7083 5.70833 10.9583 5.25 11H3.75C3.29167 10.9583 3.04167 10.7083 3 10.25C3.04167 9.79167 3.29167 9.54167 3.75 9.5ZM7.75 9.5H11.25C11.7083 9.54167 11.9583 9.79167 12 10.25C11.9583 10.7083 11.7083 10.9583 11.25 11H7.75C7.29167 10.9583 7.04167 10.7083 7 10.25C7.04167 9.79167 7.29167 9.54167 7.75 9.5Z" fill="#FF7A00"/>
</svg>
