<svg width="24" height="24" viewBox="0 0 24 24" fill="none" xmlns="http://www.w3.org/2000/svg">
<path d="M20 16.375C19.9494 17.2344 19.5446 17.8203 18.7857 18.1328V20.75H19.3929C19.7723 20.776 19.9747 20.9844 20 21.375C19.9747 21.7656 19.7723 21.974 19.3929 22H5.42857C4.74554 21.974 4.17634 21.7266 3.72098 21.2578C3.26563 20.7891 3.0253 20.2031 3 19.5V5.125C3.0253 4.23958 3.31622 3.4974 3.87277 2.89844C4.45461 2.32552 5.1756 2.02604 6.03571 2H18.1786C18.6845 2.02604 19.1146 2.20833 19.4688 2.54688C19.7976 2.91146 19.9747 3.35417 20 3.875V16.375ZM4.21429 5.125V17.3516C4.56845 17.1172 4.97321 17 5.42857 17H6.64286V3.25H6.03571C5.52976 3.27604 5.0997 3.45833 4.74554 3.79688C4.41667 4.16146 4.23958 4.60417 4.21429 5.125ZM17.5714 20.75V18.25H5.42857C5.0744 18.25 4.78348 18.3672 4.5558 18.6016C4.32812 18.8359 4.21429 19.1354 4.21429 19.5C4.21429 19.8646 4.32812 20.1641 4.5558 20.3984C4.78348 20.6328 5.0744 20.75 5.42857 20.75H17.5714ZM18.1786 17C18.558 16.974 18.7604 16.7656 18.7857 16.375V3.875C18.7604 3.48438 18.558 3.27604 18.1786 3.25H7.85714V17H18.1786ZM16.3571 7C16.7366 7.02604 16.939 7.23438 16.9643 7.625C16.939 8.01563 16.7366 8.22396 16.3571 8.25H10.2857C9.90625 8.22396 9.70387 8.01563 9.67857 7.625C9.70387 7.23438 9.90625 7.02604 10.2857 7H16.3571ZM16.3571 10.75C16.7366 10.776 16.939 10.9844 16.9643 11.375C16.939 11.7656 16.7366 11.974 16.3571 12H10.2857C9.90625 11.974 9.70387 11.7656 9.67857 11.375C9.70387 10.9844 9.90625 10.776 10.2857 10.75H16.3571Z" fill="#97A2B0"/>
</svg>
