<svg width="24" height="25" viewBox="0 0 24 25" fill="none" xmlns="http://www.w3.org/2000/svg">
<path d="M14.2966 8.07471L5.26127 23.7244" stroke="white" stroke-width="1.25" stroke-linecap="round" stroke-linejoin="round"/>
<path d="M12.3256 21.0304C10.5466 21.4418 7.6405 19.9728 7.6405 19.9728C7.6405 19.9728 9.34686 16.9306 11.3421 16.6188C13.1041 16.3435 15.7894 18.0883 15.7894 18.0883C15.7894 18.0883 14.1046 20.619 12.3256 21.0304Z" stroke="white" stroke-width="1.25" stroke-linecap="round" stroke-linejoin="round"/>
<path d="M16.1315 14.4376C14.3525 14.8491 11.4464 13.38 11.4464 13.38C11.4464 13.38 13.1528 10.3379 15.1481 10.0261C16.91 9.75072 19.5954 11.4955 19.5954 11.4955C19.5954 11.4955 17.9105 14.0262 16.1315 14.4376Z" stroke="white" stroke-width="1.25" stroke-linecap="round" stroke-linejoin="round"/>
<path d="M18.1866 5.66149C17.3057 7.18727 14.2968 8.07505 14.2968 8.07505C14.2968 8.07505 13.2004 4.6273 14.2981 3.02817C15.2675 1.61601 18.3319 1.08598 18.3319 1.08598C18.3319 1.08598 19.0676 4.13571 18.1866 5.66149Z" stroke="white" stroke-width="1.25" stroke-linecap="round" stroke-linejoin="round"/>
<path d="M3.94081 16.1892C4.47401 17.9356 7.19925 19.7178 7.19925 19.7178C7.19925 19.7178 8.98067 16.719 8.25306 14.8351C7.61053 13.1715 4.75685 11.7183 4.75685 11.7183C4.75685 11.7183 3.40761 14.4429 3.94081 16.1892Z" stroke="white" stroke-width="1.25" stroke-linecap="round" stroke-linejoin="round"/>
<path d="M7.74696 9.59693C8.28017 11.3433 11.0054 13.1255 11.0054 13.1255C11.0054 13.1255 12.7868 10.1267 12.0592 8.24282C11.4167 6.57923 8.563 5.12606 8.563 5.12606C8.563 5.12606 7.21376 7.85057 7.74696 9.59693Z" stroke="white" stroke-width="1.25" stroke-linecap="round" stroke-linejoin="round"/>
</svg>
