<svg width="323" height="279" viewBox="0 0 323 279" fill="none" xmlns="http://www.w3.org/2000/svg">
<g clip-path="url(#clip0_491_3833)">
<path d="M155.748 152.266C155.748 152.266 184.392 189.301 228.906 180.981C273.42 172.661 289.019 65.8074 289.019 65.8074L309.884 96.3063C309.884 96.3063 289.632 196.623 259.262 225.366C228.891 254.11 144.302 218.43 144.302 218.43L155.734 152.266H155.748Z" fill="white" stroke="#0A2533" stroke-width="1.78398" stroke-miterlimit="10"/>
<path d="M299.009 140.278C305.488 117.4 309.898 96.2921 309.898 96.2921L289.033 65.7932C289.033 65.7932 284.295 98.2331 272.592 128.761L299.023 140.278H299.009Z" fill="white" stroke="#0A2533" stroke-width="1.78398" stroke-miterlimit="10"/>
<path d="M266.641 142.675L294.756 153.922C296.426 148.641 297.981 143.46 299.409 138.494L273.391 126.634C271.364 132.086 269.124 137.495 266.641 142.675Z" fill="#FCD9E7" stroke="#0A2533" stroke-width="1.78398" stroke-miterlimit="10"/>
<path d="M186.633 187.09C186.633 189.488 184.692 191.428 182.294 191.428C179.896 191.428 177.955 189.488 177.955 187.09C177.955 184.692 179.896 182.751 182.294 182.751C184.692 182.751 186.633 184.692 186.633 187.09Z" fill="#FCD9E7"/>
<path d="M196.666 204.23C198.179 204.23 199.406 203.003 199.406 201.49C199.406 199.977 198.179 198.75 196.666 198.75C195.152 198.75 193.925 199.977 193.925 201.49C193.925 203.003 195.152 204.23 196.666 204.23Z" fill="#FCD9E7"/>
<path d="M206.799 190.101C206.799 191.756 205.457 193.098 203.802 193.098C202.146 193.098 200.805 191.756 200.805 190.101C200.805 188.445 202.146 187.104 203.802 187.104C205.457 187.104 206.799 188.445 206.799 190.101Z" fill="#FCD9E7"/>
<path d="M226.993 192.912C226.993 194.739 225.523 196.209 223.696 196.209C221.87 196.209 220.4 194.739 220.4 192.912C220.4 191.085 221.87 189.615 223.696 189.615C225.523 189.615 226.993 191.085 226.993 192.912Z" fill="#FCD9E7"/>
<path d="M260.09 190.957C260.09 191.799 259.405 192.498 258.548 192.498C257.692 192.498 257.007 191.813 257.007 190.957C257.007 190.101 257.692 189.416 258.548 189.416C259.405 189.416 260.09 190.101 260.09 190.957Z" fill="#FCD9E7"/>
<path d="M260.09 176.257C260.09 177.984 258.691 179.383 256.964 179.383C255.237 179.383 253.839 177.984 253.839 176.257C253.839 174.53 255.237 173.132 256.964 173.132C258.691 173.132 260.09 174.53 260.09 176.257Z" fill="#FCD9E7"/>
<path d="M276.046 186.419C276.046 188.446 274.404 190.087 272.378 190.087C270.351 190.087 268.71 188.446 268.71 186.419C268.71 184.392 270.351 182.751 272.378 182.751C274.404 182.751 276.046 184.392 276.046 186.419Z" fill="#FCD9E7"/>
<path d="M272.378 172.747C272.378 174.331 271.093 175.615 269.509 175.615C267.925 175.615 266.641 174.331 266.641 172.747C266.641 171.162 267.925 169.878 269.509 169.878C271.093 169.878 272.378 171.162 272.378 172.747Z" fill="#FCD9E7"/>
<path d="M267.511 159.188C268.961 159.188 270.137 158.012 270.137 156.562C270.137 155.111 268.961 153.936 267.511 153.936C266.061 153.936 264.885 155.111 264.885 156.562C264.885 158.012 266.061 159.188 267.511 159.188Z" fill="#FCD9E7"/>
<path d="M288.12 164.668C288.12 166.452 286.664 167.908 284.88 167.908C283.096 167.908 281.64 166.452 281.64 164.668C281.64 162.884 283.096 161.429 284.88 161.429C286.664 161.429 288.12 162.884 288.12 164.668Z" fill="#FCD9E7"/>
<path d="M279.385 155.692C280.631 155.692 281.64 154.682 281.64 153.437C281.64 152.191 280.631 151.182 279.385 151.182C278.14 151.182 277.13 152.191 277.13 153.437C277.13 154.682 278.14 155.692 279.385 155.692Z" fill="#FCD9E7"/>
<path d="M277.787 34.4441L273.253 37.0947L317.232 112.327L321.766 109.676L277.787 34.4441Z" fill="#E3D5F8" stroke="#0A2533" stroke-width="1.78398" stroke-miterlimit="10"/>
<path d="M279.214 16.8124C286.122 28.6295 286.793 41.0888 280.713 44.6424C274.633 48.1961 264.1 41.5026 257.193 29.6856C250.285 17.8685 249.614 5.40919 255.694 1.85551C261.774 -1.69818 272.307 4.99531 279.214 16.8124Z" fill="#E3D5F8" stroke="#0A2533" stroke-width="1.78398" stroke-miterlimit="10"/>
<path d="M275.104 19.2099C279.443 26.617 279.856 34.438 276.046 36.6644C272.235 38.8908 265.627 34.6949 261.289 27.2878C256.95 19.8807 256.536 12.0598 260.347 9.83335C264.157 7.60695 270.765 11.8029 275.104 19.2099Z" stroke="#0A2533" stroke-width="1.78398" stroke-miterlimit="10"/>
<path d="M302.862 69.9746C301.392 75.1696 298.909 78.9944 297.296 78.5377C295.684 78.081 295.555 73.514 297.025 68.3191C298.495 63.1241 300.979 59.2993 302.591 59.756C304.204 60.2127 304.332 64.7797 302.862 69.9746Z" fill="white" stroke="#0A2533" stroke-width="1.78398" stroke-miterlimit="10"/>
<path d="M307.358 74.7983C305.888 79.9933 303.405 83.8181 301.792 83.3614C300.179 82.9047 300.051 78.3378 301.521 73.1428C302.991 67.9479 305.474 64.123 307.087 64.5797C308.7 65.0364 308.828 69.6034 307.358 74.7983Z" fill="white" stroke="#0A2533" stroke-width="1.78398" stroke-miterlimit="10"/>
<path d="M311.868 79.3799C310.398 84.5748 307.915 88.3997 306.302 87.943C304.689 87.4863 304.561 82.9193 306.031 77.7244C307.501 72.5294 309.984 68.7046 311.597 69.1613C313.21 69.618 313.338 74.1849 311.868 79.3799Z" fill="white" stroke="#0A2533" stroke-width="1.78398" stroke-miterlimit="10"/>
<path d="M316.021 85.6594C314.551 90.8544 312.068 94.6792 310.455 94.2225C308.842 93.7658 308.714 89.1988 310.184 84.0039C311.654 78.8089 314.137 74.9841 315.75 75.4408C317.363 75.8975 317.491 80.4645 316.021 85.6594Z" fill="white" stroke="#0A2533" stroke-width="1.78398" stroke-miterlimit="10"/>
<path d="M284.395 85.5026C284.395 85.5026 289.433 57.4442 292.644 56.645C295.841 55.8458 293.614 73.0005 293.614 73.0005L292.644 89.7699" fill="white"/>
<path d="M284.195 90.1836C284.195 90.1836 289.433 57.5724 292.644 56.6448C295.841 55.7314 293.614 75.6263 293.614 75.6263L292.644 95.0931" stroke="#0A2533" stroke-width="1.78398" stroke-miterlimit="10"/>
<path d="M186.447 269.295C186.561 266.098 186.633 262.858 186.633 259.59C186.633 192.227 161.015 137.609 129.403 137.609C97.7905 137.609 72.1726 192.227 72.1726 259.59C72.1726 262.858 72.2297 266.098 72.3581 269.295H186.447Z" fill="white" stroke="#0A2533" stroke-width="1.78398" stroke-miterlimit="10"/>
<path d="M84.018 219.229C86.0831 219.229 87.7572 217.555 87.7572 215.49C87.7572 213.425 86.0831 211.751 84.018 211.751C81.9529 211.751 80.2788 213.425 80.2788 215.49C80.2788 217.555 81.9529 219.229 84.018 219.229Z" fill="#FCD9E7"/>
<path d="M112.847 203.474C112.847 205.143 111.506 206.485 109.836 206.485C108.166 206.485 106.825 205.143 106.825 203.474C106.825 201.804 108.166 200.462 109.836 200.462C111.506 200.462 112.847 201.804 112.847 203.474Z" fill="#FCD9E7"/>
<path d="M97.8189 195.21C97.8189 196.637 96.6629 197.793 95.2357 197.793C93.8085 197.793 92.6525 196.637 92.6525 195.21C92.6525 193.783 93.8085 192.627 95.2357 192.627C96.6629 192.627 97.8189 193.783 97.8189 195.21Z" fill="#FCD9E7"/>
<path d="M139.978 243.349C139.978 245.761 138.023 247.716 135.611 247.716C133.199 247.716 131.244 245.761 131.244 243.349C131.244 240.937 133.199 238.982 135.611 238.982C138.023 238.982 139.978 240.937 139.978 243.349Z" fill="#FCD9E7"/>
<path d="M119.726 260.703C119.726 262.602 118.185 264.143 116.287 264.143C114.389 264.143 112.847 262.602 112.847 260.703C112.847 258.805 114.389 257.264 116.287 257.264C118.185 257.264 119.726 258.805 119.726 260.703Z" fill="#FCD9E7"/>
<path d="M82.3483 264C82.3483 266.127 80.6214 267.854 78.4949 267.854C76.3684 267.854 74.6415 266.127 74.6415 264C74.6415 261.874 76.3684 260.147 78.4949 260.147C80.6214 260.147 82.3483 261.874 82.3483 264Z" fill="#FCD9E7"/>
<path d="M153.522 266.583C155.918 266.583 157.861 264.641 157.861 262.245C157.861 259.848 155.918 257.906 153.522 257.906C151.126 257.906 149.183 259.848 149.183 262.245C149.183 264.641 151.126 266.583 153.522 266.583Z" fill="#FCD9E7"/>
<path d="M172.304 243.92C172.304 245.875 170.719 247.459 168.764 247.459C166.809 247.459 165.225 245.875 165.225 243.92C165.225 241.964 166.809 240.38 168.764 240.38C170.719 240.38 172.304 241.964 172.304 243.92Z" fill="#FCD9E7"/>
<path d="M182.522 259.562C182.522 261.046 181.323 262.259 179.825 262.259C178.326 262.259 177.127 261.06 177.127 259.562C177.127 258.063 178.326 256.864 179.825 256.864C181.323 256.864 182.522 258.063 182.522 259.562Z" fill="#FCD9E7"/>
<path d="M181.438 223.796C181.438 226.322 179.397 228.363 176.871 228.363C174.345 228.363 172.304 226.322 172.304 223.796C172.304 221.27 174.345 219.229 176.871 219.229C179.397 219.229 181.438 221.27 181.438 223.796Z" fill="#FCD9E7"/>
<path d="M119.056 188.017C120.553 188.017 121.767 186.803 121.767 185.305C121.767 183.808 120.553 182.594 119.056 182.594C117.558 182.594 116.344 183.808 116.344 185.305C116.344 186.803 117.558 188.017 119.056 188.017Z" fill="#FCD9E7"/>
<path d="M146.757 175.529C146.757 177.513 145.144 179.126 143.161 179.126C141.177 179.126 139.564 177.513 139.564 175.529C139.564 173.545 141.177 171.933 143.161 171.933C145.144 171.933 146.757 173.545 146.757 175.529Z" fill="#FCD9E7"/>
<path d="M165.924 189.344C165.924 191.571 164.112 193.383 161.885 193.383C159.659 193.383 157.846 191.571 157.846 189.344C157.846 187.118 159.659 185.305 161.885 185.305C164.112 185.305 165.924 187.118 165.924 189.344Z" fill="#FCD9E7"/>
<path d="M160.786 173.931C160.786 175.03 159.887 175.929 158.788 175.929C157.689 175.929 156.79 175.03 156.79 173.931C156.79 172.832 157.689 171.933 158.788 171.933C159.887 171.933 160.786 172.832 160.786 173.931Z" fill="#FCD9E7"/>
<path d="M128.689 165.624C128.689 166.581 127.918 167.351 126.962 167.351C126.006 167.351 125.235 166.581 125.235 165.624C125.235 164.668 126.006 163.897 126.962 163.897C127.918 163.897 128.689 164.668 128.689 165.624Z" fill="#FCD9E7"/>
<path d="M147.014 157.461C147.014 158.945 145.815 160.144 144.331 160.144C142.847 160.144 141.648 158.945 141.648 157.461C141.648 155.977 142.847 154.778 144.331 154.778C145.815 154.778 147.014 155.977 147.014 157.461Z" fill="#FCD9E7"/>
<path d="M144.317 219.272C144.317 219.272 141.734 225.338 146.458 228.992C151.182 232.645 156.862 225.11 156.862 225.11L144.317 219.272Z" fill="#FDE084" stroke="#0A2533" stroke-width="1.78398" stroke-miterlimit="10"/>
<path d="M147.685 185.491L142.504 183.079C142.504 183.079 128.946 207.526 141.691 220.228C154.421 232.93 176.414 228.877 184.121 202.431L147.685 185.491Z" fill="#FDE084" stroke="#0A2533" stroke-width="1.78398" stroke-miterlimit="10"/>
<path d="M184.107 202.432C183.036 204.744 172.846 202.275 161.357 196.937C149.869 191.599 141.42 185.391 142.504 183.079C143.589 180.767 153.765 183.236 165.254 188.574C176.742 193.926 185.191 200.119 184.107 202.432Z" fill="white" stroke="#0A2533" stroke-width="1.78398" stroke-miterlimit="10"/>
<path d="M175.036 198.23C175.642 196.929 170.878 193.43 164.396 190.415C157.914 187.399 152.169 186.009 151.563 187.309C150.958 188.61 155.722 192.109 162.204 195.125C168.686 198.14 174.431 199.531 175.036 198.23Z" fill="#FDE084" stroke="#0A2533" stroke-width="0.713591" stroke-miterlimit="10"/>
<path d="M151.981 187.432L175.044 198.221" stroke="#0A2533" stroke-width="0.713591" stroke-miterlimit="10"/>
<path d="M162.214 195.11L164.64 190.5" stroke="#0A2533" stroke-width="0.713591" stroke-miterlimit="10"/>
<path d="M158.489 188.017L169.05 197.793" stroke="#0A2533" stroke-width="0.713591" stroke-miterlimit="10"/>
<path d="M156.148 191.856L170.006 193.369" stroke="#0A2533" stroke-width="0.713591" stroke-miterlimit="10"/>
<path d="M143.047 204.786C143.047 204.786 143.047 204.815 143.033 204.815C142.961 204.915 142.933 205.029 142.933 205.143C142.904 205.257 142.918 205.386 142.947 205.5C142.975 205.614 143.033 205.714 143.104 205.8C143.161 205.899 143.247 205.971 143.361 206.028L143.575 206.114C143.732 206.156 143.889 206.156 144.046 206.114L144.26 206.028C144.388 205.942 144.503 205.842 144.574 205.714C144.66 205.514 144.759 205.314 144.845 205.115L143.304 204.215C143.19 204.472 143.075 204.715 142.947 204.972C142.876 205.072 142.847 205.186 142.847 205.3C142.818 205.414 142.833 205.543 142.861 205.657C142.89 205.771 142.947 205.871 143.018 205.957C143.075 206.056 143.161 206.128 143.275 206.185L143.489 206.271C143.646 206.313 143.803 206.313 143.96 206.271L144.174 206.185C144.303 206.099 144.417 205.999 144.488 205.871C144.602 205.614 144.717 205.371 144.845 205.115C144.916 205.015 144.945 204.9 144.945 204.786C144.973 204.672 144.959 204.544 144.931 204.43C144.902 204.315 144.845 204.215 144.774 204.13C144.717 204.03 144.631 203.959 144.517 203.901L144.303 203.816C144.146 203.773 143.989 203.773 143.832 203.816L143.618 203.901C143.489 203.987 143.375 204.087 143.304 204.215C143.218 204.415 143.118 204.615 143.033 204.815L144.574 205.714C144.574 205.714 144.574 205.685 144.588 205.685C144.66 205.586 144.688 205.471 144.688 205.357C144.717 205.243 144.702 205.115 144.674 205C144.645 204.886 144.588 204.786 144.517 204.701C144.46 204.601 144.374 204.529 144.26 204.472L144.046 204.387C143.889 204.344 143.732 204.344 143.575 204.387L143.361 204.472C143.232 204.558 143.118 204.658 143.047 204.786Z" fill="#0A2533"/>
<path d="M147.228 196.323C147.085 196.637 146.943 196.951 146.8 197.265L148.456 197.722C148.456 197.593 148.456 197.451 148.456 197.322L148.427 197.565C148.456 197.379 148.498 197.194 148.584 197.008L148.498 197.222C148.541 197.108 148.613 196.994 148.67 196.894L147.128 195.995C146.971 196.337 146.8 196.68 146.643 197.037C146.572 197.137 146.543 197.251 146.543 197.365C146.515 197.479 146.529 197.608 146.557 197.722C146.615 197.922 146.771 198.15 146.971 198.25C147.185 198.364 147.428 198.421 147.656 198.335C147.87 198.264 148.099 198.136 148.184 197.922C148.341 197.579 148.513 197.237 148.67 196.88C148.741 196.78 148.77 196.666 148.77 196.552C148.798 196.437 148.784 196.309 148.755 196.195C148.698 195.995 148.541 195.767 148.341 195.667C148.127 195.552 147.885 195.495 147.656 195.581C147.428 195.667 147.257 195.795 147.128 195.995C146.971 196.238 146.843 196.537 146.757 196.823C146.672 197.108 146.643 197.422 146.657 197.722L146.686 197.964C146.714 198.079 146.771 198.178 146.843 198.264C146.886 198.335 146.943 198.378 147 198.421C147.085 198.507 147.185 198.55 147.3 198.578C147.457 198.621 147.614 198.621 147.771 198.578C147.885 198.55 147.985 198.492 148.07 198.421C148.17 198.364 148.241 198.278 148.299 198.164C148.441 197.85 148.584 197.536 148.727 197.222C148.798 197.122 148.827 197.008 148.827 196.894C148.855 196.78 148.841 196.651 148.812 196.537C148.755 196.337 148.598 196.109 148.398 196.009C148.184 195.895 147.942 195.838 147.713 195.924L147.499 196.009C147.371 196.095 147.257 196.195 147.185 196.323H147.228Z" fill="#0A2533"/>
<path d="M143.346 200.019C143.503 199.677 143.675 199.32 143.832 198.978C143.903 198.878 143.932 198.764 143.932 198.649C143.96 198.535 143.946 198.407 143.917 198.293C143.889 198.178 143.832 198.079 143.76 197.993C143.703 197.893 143.618 197.822 143.503 197.765C143.289 197.65 143.047 197.593 142.818 197.679L142.604 197.765C142.476 197.85 142.362 197.95 142.29 198.079C142.219 198.221 142.148 198.378 142.09 198.521C142.019 198.621 141.991 198.735 141.991 198.849C141.962 198.963 141.976 199.092 142.005 199.206C142.033 199.32 142.09 199.42 142.162 199.506C142.219 199.606 142.305 199.677 142.419 199.734C142.633 199.848 142.875 199.905 143.104 199.82L143.318 199.734C143.446 199.648 143.56 199.549 143.632 199.42C143.703 199.277 143.775 199.12 143.832 198.978L142.29 198.079C142.133 198.421 141.962 198.778 141.805 199.12C141.734 199.22 141.705 199.334 141.705 199.449C141.677 199.563 141.691 199.691 141.719 199.805C141.748 199.92 141.805 200.02 141.876 200.105C141.933 200.205 142.019 200.276 142.133 200.333C142.347 200.448 142.59 200.505 142.818 200.419L143.032 200.333C143.161 200.248 143.275 200.148 143.346 200.019Z" fill="#0A2533"/>
<path d="M172.789 215.476C172.789 215.476 172.846 215.604 172.875 215.676C172.86 215.619 172.846 215.576 172.832 215.519L172.86 215.761C172.86 215.761 172.86 215.633 172.86 215.576L172.832 215.818C172.832 215.818 172.86 215.704 172.875 215.647L172.789 215.861C172.789 215.861 172.803 215.833 172.818 215.818L171.276 214.919C171.148 215.19 171.019 215.476 170.891 215.747C170.82 215.847 170.791 215.961 170.791 216.075C170.763 216.189 170.777 216.318 170.805 216.432C170.834 216.546 170.891 216.646 170.962 216.732C171.019 216.832 171.105 216.903 171.219 216.96C171.433 217.074 171.676 217.131 171.904 217.046L172.118 216.96C172.247 216.874 172.361 216.775 172.432 216.646C172.604 216.275 172.789 215.89 172.96 215.519C173.032 215.419 173.06 215.305 173.06 215.19C173.089 215.076 173.075 214.948 173.046 214.834C173.017 214.719 172.96 214.62 172.889 214.534C172.832 214.434 172.746 214.363 172.632 214.306C172.418 214.191 172.175 214.134 171.947 214.22C171.733 214.291 171.505 214.42 171.419 214.634C171.248 215.005 171.062 215.39 170.891 215.761L172.432 216.66C172.561 216.389 172.689 216.104 172.818 215.833C172.889 215.733 172.918 215.619 172.918 215.504C172.946 215.39 172.932 215.262 172.903 215.148C172.875 215.033 172.818 214.934 172.746 214.848C172.689 214.748 172.604 214.677 172.489 214.62C172.275 214.505 172.033 214.448 171.804 214.534C171.59 214.605 171.376 214.734 171.276 214.948C171.234 215.033 171.191 215.133 171.162 215.219C171.162 215.248 171.148 215.276 171.134 215.29C171.134 215.319 171.134 215.347 171.119 215.376C171.105 215.476 171.091 215.576 171.077 215.676C171.077 215.804 171.091 215.933 171.119 216.061C171.148 216.189 171.205 216.304 171.262 216.418C171.319 216.518 171.39 216.603 171.49 216.675C171.576 216.76 171.676 216.803 171.79 216.832C171.904 216.874 172.033 216.874 172.147 216.846C172.261 216.846 172.375 216.803 172.475 216.746C172.661 216.618 172.832 216.446 172.889 216.218L172.918 215.975C172.918 215.818 172.875 215.661 172.789 215.519V215.476Z" fill="#0A2533"/>
<path d="M169.407 211.665C169.492 211.48 169.578 211.294 169.664 211.123C169.735 211.023 169.763 210.909 169.763 210.795C169.792 210.681 169.778 210.552 169.749 210.438C169.721 210.324 169.664 210.224 169.592 210.138C169.535 210.038 169.449 209.967 169.335 209.91C169.121 209.796 168.879 209.739 168.65 209.824L168.436 209.91C168.308 209.996 168.194 210.095 168.122 210.224C167.951 210.581 167.78 210.952 167.623 211.309L169.164 212.208C169.335 211.837 169.521 211.451 169.692 211.08C169.763 210.98 169.792 210.866 169.792 210.752C169.821 210.638 169.806 210.509 169.778 210.395C169.749 210.281 169.692 210.181 169.621 210.095C169.564 209.996 169.478 209.924 169.364 209.867C169.15 209.753 168.907 209.696 168.679 209.781C168.465 209.853 168.236 209.981 168.151 210.195C167.979 210.566 167.794 210.952 167.623 211.323C167.551 211.423 167.523 211.537 167.523 211.651C167.494 211.765 167.508 211.894 167.537 212.008C167.566 212.122 167.623 212.222 167.694 212.308C167.751 212.407 167.837 212.479 167.951 212.536C168.165 212.65 168.408 212.707 168.636 212.622C168.85 212.55 169.078 212.422 169.164 212.208C169.335 211.851 169.507 211.48 169.664 211.123L168.122 210.224C168.037 210.409 167.951 210.595 167.865 210.766C167.794 210.866 167.765 210.98 167.765 211.094C167.737 211.209 167.751 211.337 167.78 211.451C167.808 211.565 167.865 211.665 167.937 211.751C167.994 211.851 168.079 211.922 168.194 211.979C168.408 212.093 168.65 212.151 168.879 212.065C169.093 211.994 169.321 211.865 169.407 211.651V211.665Z" fill="#0A2533"/>
<path d="M174.045 206.856C173.86 207.27 173.66 207.669 173.474 208.083L175.016 208.982C175.144 208.697 175.287 208.411 175.415 208.112L173.874 207.213C173.717 207.555 173.56 207.898 173.389 208.24C173.317 208.34 173.289 208.454 173.289 208.568C173.26 208.683 173.274 208.811 173.303 208.925C173.36 209.125 173.517 209.353 173.717 209.453C173.931 209.567 174.174 209.624 174.402 209.539C174.616 209.468 174.844 209.339 174.93 209.125C175.087 208.782 175.244 208.44 175.415 208.097C175.487 207.997 175.515 207.883 175.515 207.769C175.544 207.655 175.529 207.527 175.501 207.412C175.444 207.213 175.287 206.984 175.087 206.884C174.873 206.77 174.63 206.713 174.402 206.799C174.188 206.87 173.96 206.998 173.874 207.213C173.745 207.498 173.603 207.783 173.474 208.083C173.403 208.183 173.374 208.297 173.374 208.411C173.346 208.526 173.36 208.654 173.389 208.768C173.446 208.968 173.603 209.196 173.803 209.296C174.017 209.41 174.259 209.468 174.488 209.382C174.702 209.311 174.93 209.182 175.016 208.968C175.201 208.554 175.401 208.154 175.587 207.741C175.658 207.641 175.686 207.527 175.686 207.412C175.715 207.298 175.701 207.17 175.672 207.056C175.615 206.856 175.458 206.627 175.258 206.528C175.044 206.413 174.802 206.356 174.573 206.442C174.359 206.513 174.131 206.642 174.045 206.856Z" fill="#0A2533"/>
<path d="M160.658 219.515C160.572 219.7 160.487 219.872 160.401 220.057C160.33 220.157 160.301 220.271 160.301 220.385C160.273 220.499 160.287 220.628 160.316 220.742C160.344 220.856 160.401 220.956 160.473 221.042C160.53 221.142 160.615 221.213 160.729 221.27L160.944 221.356C161.101 221.399 161.258 221.399 161.415 221.356L161.629 221.27C161.757 221.185 161.871 221.085 161.943 220.956C162.028 220.771 162.114 220.599 162.199 220.414C162.271 220.314 162.299 220.2 162.299 220.086C162.328 219.971 162.314 219.843 162.285 219.729C162.257 219.615 162.199 219.515 162.128 219.429C162.071 219.329 161.985 219.258 161.871 219.201L161.657 219.115C161.5 219.072 161.343 219.072 161.186 219.115L160.972 219.201C160.844 219.286 160.729 219.386 160.658 219.515C160.572 219.7 160.487 219.872 160.401 220.057C160.33 220.157 160.301 220.271 160.301 220.385C160.273 220.499 160.287 220.628 160.316 220.742C160.344 220.856 160.401 220.956 160.473 221.042C160.53 221.142 160.615 221.213 160.729 221.27L160.944 221.356C161.101 221.399 161.258 221.399 161.415 221.356L161.629 221.27C161.757 221.185 161.871 221.085 161.943 220.956C162.028 220.771 162.114 220.599 162.199 220.414C162.271 220.314 162.299 220.2 162.299 220.086C162.328 219.971 162.314 219.843 162.285 219.729C162.257 219.615 162.199 219.515 162.128 219.429C162.071 219.329 161.985 219.258 161.871 219.201L161.657 219.115C161.5 219.072 161.343 219.072 161.186 219.115L160.972 219.201C160.844 219.286 160.729 219.386 160.658 219.515Z" fill="#0A2533"/>
<path d="M158.617 208.64L158.417 209.296C158.375 209.41 158.375 209.539 158.403 209.653C158.403 209.767 158.446 209.881 158.503 209.981C158.56 210.081 158.631 210.167 158.731 210.238C158.817 210.324 158.917 210.367 159.031 210.395L159.274 210.424C159.431 210.424 159.588 210.381 159.73 210.295L159.916 210.153C160.03 210.038 160.101 209.91 160.144 209.753L160.344 209.096C160.387 208.982 160.387 208.854 160.358 208.74C160.358 208.625 160.315 208.511 160.258 208.411C160.201 208.312 160.13 208.226 160.03 208.155C159.944 208.069 159.845 208.026 159.73 207.998L159.488 207.969C159.331 207.969 159.174 208.012 159.031 208.097L158.846 208.24C158.731 208.354 158.66 208.483 158.617 208.64Z" fill="#0A2533"/>
<path d="M110.036 221.413C92.0105 226.779 60.2557 231.632 60.9693 213.221C61.8541 190.971 102.243 183.364 102.243 183.364L136.196 137.623C136.196 137.623 116.001 131.258 61.8399 152.209C7.69256 173.146 -9.27665 222.583 13.8437 247.559C36.9641 272.535 81.7633 265.327 105.355 256.664C110.364 254.823 116.515 252.269 123.08 249.357L110.036 221.413Z" fill="white"/>
<path d="M176.614 219.643C175.444 215.833 158.175 226.265 158.175 226.265C158.175 226.265 177.199 214.662 175.158 212.907C173.103 211.152 156.976 221.099 156.976 221.099C156.976 221.099 172.818 210.267 171.733 207.983C171.091 206.627 164.611 209.624 159.431 212.308C164.568 209.382 170.705 205.5 169.735 204.087C168.122 201.704 143.332 212.907 143.332 212.907C143.332 212.907 153.493 202.96 151.838 202.003C150.197 201.061 131.529 212.607 119.113 218.173C115.759 219.672 109.922 221.613 103.2 223.226L110.45 254.695C135.311 244.776 177.713 223.183 176.614 219.629V219.643Z" fill="white" stroke="#0A2533" stroke-width="1.78398" stroke-miterlimit="10"/>
<path d="M102.257 183.35C102.257 183.35 61.8539 190.957 60.9833 213.207C60.0985 235.457 106.696 223.739 119.112 218.188C131.529 212.622 150.197 201.076 151.838 202.018C153.479 202.96 143.332 212.921 143.332 212.921C143.332 212.921 168.108 201.718 169.735 204.101C171.347 206.485 152.908 215.847 152.908 215.847C152.908 215.847 170.648 205.728 171.733 207.998C172.817 210.281 156.976 221.113 156.976 221.113C156.976 221.113 173.103 211.166 175.158 212.921C177.213 214.677 158.174 226.28 158.174 226.28C158.174 226.28 175.443 215.847 176.614 219.658C177.784 223.468 128.96 248.016 105.369 256.664C81.7631 265.327 36.9781 272.535 13.8578 247.559C-9.2626 222.583 7.7066 173.16 61.8682 152.209C116.03 131.258 136.224 137.623 136.224 137.623" stroke="#0A2533" stroke-width="1.78398" stroke-miterlimit="10"/>
<path d="M111.063 221.099C106.81 222.412 101.687 223.711 96.3634 224.681L104.784 256.864C104.969 256.793 105.169 256.736 105.355 256.665C109.451 255.166 114.332 253.168 119.555 250.899L111.063 221.099Z" fill="#FCD9E7" stroke="#0A2533" stroke-width="1.78398" stroke-miterlimit="10"/>
<path d="M42.7585 251.969C42.7585 253.482 41.5311 254.709 40.0183 254.709C38.5055 254.709 37.2781 253.482 37.2781 251.969C37.2781 250.456 38.5055 249.229 40.0183 249.229C41.5311 249.229 42.7585 250.456 42.7585 251.969Z" fill="#FCD9E7"/>
<path d="M28.929 238.981C30.466 238.981 31.712 237.735 31.712 236.198C31.712 234.661 30.466 233.415 28.929 233.415C27.392 233.415 26.146 234.661 26.146 236.198C26.146 237.735 27.392 238.981 28.929 238.981Z" fill="#FCD9E7"/>
<path d="M48.0247 238.982C48.7972 238.982 49.4234 238.355 49.4234 237.583C49.4234 236.811 48.7972 236.184 48.0247 236.184C47.2523 236.184 46.6261 236.811 46.6261 237.583C46.6261 238.355 47.2523 238.982 48.0247 238.982Z" fill="#FCD9E7"/>
<path d="M68.5048 252.939C68.5048 255.108 66.7493 256.864 64.58 256.864C62.4107 256.864 60.6553 255.108 60.6553 252.939C60.6553 250.77 62.4107 249.014 64.58 249.014C66.7493 249.014 68.5048 250.77 68.5048 252.939Z" fill="#FCD9E7"/>
<path d="M76.2259 242.706C78.1807 242.706 79.7653 241.122 79.7653 239.167C79.7653 237.212 78.1807 235.628 76.2259 235.628C74.2712 235.628 72.6865 237.212 72.6865 239.167C72.6865 241.122 74.2712 242.706 76.2259 242.706Z" fill="#FCD9E7"/>
<path d="M89.3275 251.912C89.3275 252.854 88.5711 253.61 87.6291 253.61C86.6872 253.61 85.9308 252.854 85.9308 251.912C85.9308 250.97 86.6872 250.213 87.6291 250.213C88.5711 250.213 89.3275 250.97 89.3275 251.912Z" fill="#FCD9E7"/>
<path d="M91.8394 235.613C93.2266 235.613 94.3512 234.489 94.3512 233.101C94.3512 231.714 93.2266 230.59 91.8394 230.59C90.4521 230.59 89.3275 231.714 89.3275 233.101C89.3275 234.489 90.4521 235.613 91.8394 235.613Z" fill="#FCD9E7"/>
<path d="M60.6411 231.303C61.7525 231.303 62.6534 230.403 62.6534 229.291C62.6534 228.18 61.7525 227.279 60.6411 227.279C59.5297 227.279 58.6288 228.18 58.6288 229.291C58.6288 230.403 59.5297 231.303 60.6411 231.303Z" fill="#FCD9E7"/>
<path d="M45.1561 217.16C45.1561 219.343 43.3864 221.099 41.2171 221.099C39.0478 221.099 37.2781 219.329 37.2781 217.16C37.2781 214.99 39.0478 213.221 41.2171 213.221C43.3864 213.221 45.1561 214.99 45.1561 217.16Z" fill="#FCD9E7"/>
<path d="M24.3907 250.399C25.2025 250.399 25.8607 249.741 25.8607 248.929C25.8607 248.117 25.2025 247.459 24.3907 247.459C23.5788 247.459 22.9207 248.117 22.9207 248.929C22.9207 249.741 23.5788 250.399 24.3907 250.399Z" fill="#FCD9E7"/>
<path d="M16.2271 224.196C16.2271 225.908 14.8427 227.293 13.1301 227.293C11.4174 227.293 10.0331 225.908 10.0331 224.196C10.0331 222.483 11.4174 221.099 13.1301 221.099C14.8427 221.099 16.2271 222.483 16.2271 224.196Z" fill="#FCD9E7"/>
<path d="M29.4714 213.406C29.4714 215.219 28.0014 216.674 26.2032 216.674C24.4049 216.674 22.9349 215.204 22.9349 213.406C22.9349 211.608 24.4049 210.138 26.2032 210.138C28.0014 210.138 29.4714 211.608 29.4714 213.406Z" fill="#FCD9E7"/>
<path d="M48.7241 203.744C49.8827 203.744 50.822 202.805 50.822 201.646C50.822 200.488 49.8827 199.548 48.7241 199.548C47.5654 199.548 46.6261 200.488 46.6261 201.646C46.6261 202.805 47.5654 203.744 48.7241 203.744Z" fill="#FCD9E7"/>
<path d="M17.5116 200.947C17.5116 201.718 16.8837 202.346 16.113 202.346C15.3423 202.346 14.7144 201.718 14.7144 200.947C14.7144 200.176 15.3423 199.548 16.113 199.548C16.8837 199.548 17.5116 200.176 17.5116 200.947Z" fill="#FCD9E7"/>
<path d="M38.6911 187.717C38.6911 189.644 37.1212 191.214 35.1945 191.214C33.2678 191.214 31.6979 189.644 31.6979 187.717C31.6979 185.791 33.2678 184.221 35.1945 184.221C37.1212 184.221 38.6911 185.791 38.6911 187.717Z" fill="#FCD9E7"/>
<path d="M62.3964 191.199C63.3581 191.199 64.1376 190.42 64.1376 189.458C64.1376 188.497 63.3581 187.717 62.3964 187.717C61.4348 187.717 60.6553 188.497 60.6553 189.458C60.6553 190.42 61.4348 191.199 62.3964 191.199Z" fill="#FCD9E7"/>
<path d="M55.1891 179.254C56.7261 179.254 57.9721 178.008 57.9721 176.471C57.9721 174.934 56.7261 173.688 55.1891 173.688C53.6521 173.688 52.4061 174.934 52.4061 176.471C52.4061 178.008 53.6521 179.254 55.1891 179.254Z" fill="#FCD9E7"/>
<path d="M67.6914 160.429C68.9605 160.429 69.9892 159.4 69.9892 158.131C69.9892 156.862 68.9605 155.833 67.6914 155.833C66.4224 155.833 65.3937 156.862 65.3937 158.131C65.3937 159.4 66.4224 160.429 67.6914 160.429Z" fill="#FCD9E7"/>
<path d="M39.9611 174.444C40.6547 174.444 41.217 173.882 41.217 173.188C41.217 172.495 40.6547 171.932 39.9611 171.932C39.2675 171.932 38.7052 172.495 38.7052 173.188C38.7052 173.882 39.2675 174.444 39.9611 174.444Z" fill="#FCD9E7"/>
<path d="M83.7186 180.767C85.6734 180.767 87.258 179.182 87.258 177.227C87.258 175.272 85.6734 173.688 83.7186 173.688C81.7638 173.688 80.1792 175.272 80.1792 177.227C80.1792 179.182 81.7638 180.767 83.7186 180.767Z" fill="#FCD9E7"/>
<path d="M96.3778 163.897C96.3778 165.81 94.8364 167.351 92.924 167.351C91.0116 167.351 89.4702 165.81 89.4702 163.897C89.4702 161.985 91.0116 160.443 92.924 160.443C94.8364 160.443 96.3778 161.985 96.3778 163.897Z" fill="#FCD9E7"/>
<path d="M106.025 147.756C106.025 148.955 105.055 149.925 103.856 149.925C102.657 149.925 101.687 148.955 101.687 147.756C101.687 146.557 102.657 145.587 103.856 145.587C105.055 145.587 106.025 146.557 106.025 147.756Z" fill="#FCD9E7"/>
<path d="M110.764 166.595C110.764 168.094 109.551 169.292 108.066 169.292C106.582 169.292 105.369 168.079 105.369 166.595C105.369 165.111 106.582 163.898 108.066 163.898C109.551 163.898 110.764 165.111 110.764 166.595Z" fill="#FCD9E7"/>
<path d="M119.569 155.491C119.569 157.09 118.285 158.374 116.687 158.374C115.088 158.374 113.804 157.09 113.804 155.491C113.804 153.893 115.088 152.608 116.687 152.608C118.285 152.608 119.569 153.893 119.569 155.491Z" fill="#FCD9E7"/>
<path d="M148.199 55.1606H134.012C124.579 55.1606 116.858 63.9521 116.858 74.6845V96.6774C116.858 97.2911 116.886 97.9048 116.943 98.5185C116.786 99.1607 116.701 99.8457 116.701 100.531V128.047C116.701 132.899 120.683 136.881 125.535 136.881H131.158C136.01 136.881 139.992 132.914 139.992 128.047V116.201H148.199C157.632 116.201 165.353 107.41 165.353 96.6774V74.6845C165.353 63.9521 157.632 55.1606 148.199 55.1606Z" fill="white" stroke="black" stroke-width="1.78398" stroke-miterlimit="10"/>
<path d="M125.834 93.6376C125.834 98.0334 129.388 101.587 133.784 101.587C138.18 101.587 141.733 98.0334 141.733 93.6376C141.733 89.2419 138.18 85.6882 133.784 85.6882C129.388 85.6882 125.834 89.2419 125.834 93.6376Z" fill="#FCD9E7"/>
<path d="M162.527 88.2429C163.013 88.2429 163.484 88.3 163.926 88.4142V96.6633C163.926 97.8907 163.883 99.0895 163.626 100.246C163.298 100.303 162.87 100.345 162.513 100.345C159.173 100.345 156.462 97.6338 156.462 94.2942C156.462 90.9546 159.173 88.2429 162.513 88.2429H162.527Z" fill="#FCD9E7"/>
<path d="M136.952 81.8778C136.952 83.6475 138.38 85.0747 140.149 85.0747C141.919 85.0747 143.346 83.6475 143.346 81.8778C143.346 80.1081 141.919 78.6809 140.149 78.6809C138.38 78.6809 136.952 80.1081 136.952 81.8778Z" fill="#0C0C0C"/>
<path d="M157.889 81.4068C157.889 82.9196 159.117 84.1327 160.615 84.1327C162.114 84.1327 163.341 82.9054 163.341 81.4068C163.341 79.9083 162.114 78.6809 160.615 78.6809C159.117 78.6809 157.889 79.9083 157.889 81.4068Z" fill="#0C0C0C"/>
<path d="M155.32 96.1064C155.32 96.1064 153.708 100.788 150.311 101.116C146.914 101.444 144.245 97.6763 144.06 94.7363L155.306 96.1207L155.32 96.1064Z" fill="#FFFDFD"/>
<path d="M154.55 95.8927C154.507 96.0068 154.464 96.121 154.421 96.2352C154.507 96.0354 154.335 96.435 154.293 96.5064C154.207 96.6919 154.121 96.8774 154.022 97.0487C153.579 97.8907 153.037 98.6757 152.337 99.3036C151.538 100.031 150.525 100.445 149.426 100.288C148.227 100.117 147.214 99.3465 146.443 98.4473C145.573 97.4198 144.959 96.0639 144.859 94.7081L144.06 95.5073C147.342 95.9069 150.625 96.3065 153.907 96.7204L155.306 96.8917C155.734 96.9488 156.105 96.4921 156.105 96.0925C156.105 95.6215 155.734 95.3503 155.306 95.2932C152.023 94.8936 148.741 94.494 145.458 94.0801L144.06 93.9089C143.646 93.8661 143.232 94.3085 143.261 94.7081C143.475 97.6481 145.458 100.759 148.37 101.673C151.281 102.586 153.65 100.731 155.063 98.4045C155.463 97.748 155.82 97.0344 156.077 96.2923C156.419 95.3218 154.878 94.9079 154.535 95.8641L154.55 95.8927Z" fill="#0C0C0C"/>
<path d="M151.253 78.6809L150.596 89.5703L155.791 86.402L151.253 78.6809Z" fill="#F76A59"/>
<path d="M121.582 73.6427C121.582 73.6427 138.108 80.3076 140.506 74.8272C142.904 69.3468 138.066 66.9492 138.066 66.9492C138.066 66.9492 154.792 76.2401 158.474 70.6741C162.156 65.1081 153.708 61.4545 153.708 61.4545C153.708 61.4545 167.58 69.4182 178.598 64.9083C189.615 60.3984 181.181 47.04 162.47 43.001C143.774 38.9478 105.355 37.121 107.524 79.751C107.524 79.751 109.593 94.2369 114.588 93.6089C119.584 92.981 121.596 73.6141 121.596 73.6141L121.582 73.6427Z" fill="#0A2533" stroke="#0A2533" stroke-width="1.78398" stroke-miterlimit="10"/>
<path d="M108.023 61.269C107.139 65.3365 103.456 67.9768 99.8028 67.1918C96.1492 66.3926 93.9085 62.4536 94.7934 58.3861C95.6782 54.3186 99.3604 51.6783 103.014 52.4633C106.668 53.2625 108.908 57.2015 108.023 61.269Z" fill="#0A2533" stroke="#0A2533" stroke-width="1.78398" stroke-miterlimit="10"/>
<path d="M91.4695 56.2929C95.5112 41.0067 78.4452 23.2363 53.3517 16.6016C28.2582 9.96692 4.6395 16.9804 0.597845 32.2666C-3.44381 47.5529 13.6221 65.3233 38.7156 71.958C63.8091 78.5926 87.4278 71.5792 91.4695 56.2929Z" fill="#0A2533"/>
<path d="M110.278 77.2536C112.391 77.2536 114.389 77.7817 116.158 78.6808V82.1489C114.517 80.9358 112.491 80.1936 110.278 80.1936C104.869 80.1936 100.459 84.5608 100.459 89.9128C100.459 95.2647 104.869 99.6461 110.278 99.6461C112.476 99.6461 114.517 98.9183 116.158 97.6909V101.159C114.403 102.072 112.405 102.586 110.278 102.586C103.242 102.586 97.5051 96.8917 97.5051 89.8985C97.5051 82.9053 103.228 77.2251 110.278 77.2251V77.2536Z" fill="black"/>
<path d="M100.145 89.9269C100.145 95.4786 104.684 99.9885 110.293 99.9885C115.901 99.9885 120.44 95.4786 120.44 89.9269C120.44 84.3751 115.901 79.8652 110.293 79.8652C104.684 79.8652 100.145 84.3751 100.145 89.9269Z" fill="white"/>
<path d="M117.372 91.4114C117.429 90.4694 117.272 89.4561 117.015 88.557C116.501 86.7445 115.345 85.0889 113.589 84.2897C112.177 83.6332 110.607 83.5048 109.065 83.6618C108.537 83.7188 108.081 84.0756 108.081 84.6465C108.081 85.1318 108.537 85.6884 109.065 85.6313C109.736 85.5599 110.421 85.5456 111.092 85.6027C111.163 85.6027 111.235 85.617 111.306 85.6313C111.063 85.6027 111.335 85.6313 111.363 85.6313C111.492 85.6598 111.62 85.6741 111.748 85.7026C112.005 85.7597 112.262 85.8453 112.519 85.931C112.562 85.9452 112.605 85.9595 112.648 85.9881C112.405 85.8882 112.619 85.9881 112.662 85.9881C112.762 86.0309 112.862 86.088 112.962 86.1308C113.161 86.245 113.361 86.3734 113.547 86.5018C113.304 86.3306 113.575 86.5304 113.632 86.5732C113.704 86.6446 113.775 86.7017 113.846 86.773C114.003 86.9157 114.132 87.087 114.275 87.244C114.075 87.0014 114.275 87.244 114.317 87.3153C114.374 87.3867 114.417 87.4723 114.474 87.5437C114.574 87.715 114.674 87.8862 114.76 88.0717C114.803 88.1574 114.831 88.2573 114.888 88.3429C114.96 88.4571 114.788 88.1003 114.86 88.2716C114.874 88.3144 114.888 88.3572 114.902 88.3857C114.974 88.5713 115.031 88.7568 115.088 88.9423C115.188 89.2563 115.259 89.5703 115.316 89.8985C115.316 89.9699 115.345 90.0413 115.345 90.1126C115.388 90.3552 115.316 89.8557 115.345 90.0841C115.345 90.2125 115.373 90.3552 115.388 90.4837C115.416 90.7834 115.431 91.0831 115.402 91.3685C115.373 91.8966 115.873 92.3533 116.387 92.3533C116.943 92.3533 117.329 91.8966 117.372 91.3685V91.4114Z" fill="#020202"/>
<path d="M137.666 126.049H118.756C113.869 126.049 109.907 130.01 109.907 134.897V136.738C109.907 141.625 113.869 145.587 118.756 145.587H137.666C142.553 145.587 146.515 141.625 146.515 136.738V134.897C146.515 130.01 142.553 126.049 137.666 126.049Z" fill="#FCD9E7" stroke="#0A2533" stroke-width="1.78398" stroke-miterlimit="10"/>
<path d="M10.0474 269.295H287.221" stroke="#0A2533" stroke-width="1.78398" stroke-miterlimit="10"/>
<path d="M195.938 226.394C195.938 226.394 188.816 223.097 191.942 214.534C195.067 205.971 208.911 216.076 208.911 216.076C208.911 216.076 203.431 207.398 208.911 201.747C214.391 196.095 222.541 201.575 222.541 201.575C222.541 201.575 225.181 193.426 232.631 192.898C240.081 192.37 240.523 199.577 240.523 199.577C240.523 199.577 244.105 190.5 251.641 191.542C259.176 192.584 257.863 203.003 257.863 203.003C257.863 203.003 263.572 192.67 270.594 198.122C277.616 203.573 273.234 209.91 273.234 209.91C273.234 209.91 277.944 205.743 280.855 209.054C283.767 212.365 283.167 214.548 283.167 214.548C283.167 214.548 290.132 210.824 294.314 216.09C298.481 221.356 285.565 235.913 278.629 238.311C271.693 240.709 202.546 234.315 195.952 226.408L195.938 226.394Z" fill="#FDE084" stroke="#0A2533" stroke-width="1.78398" stroke-miterlimit="10"/>
<path d="M241.708 197.679C241.708 197.679 223.226 184.135 231.46 174.83C239.695 165.525 247.859 189.858 247.859 189.858C247.859 189.858 251.156 178.655 255.58 180.31C260.004 181.966 252.683 203.944 241.708 197.679Z" fill="#46B7A1" stroke="#0A2533" stroke-width="1.78398" stroke-miterlimit="10"/>
<path d="M220.528 214.534C221.624 214.534 222.512 213.646 222.512 212.55C222.512 211.454 221.624 210.566 220.528 210.566C219.433 210.566 218.545 211.454 218.545 212.55C218.545 213.646 219.433 214.534 220.528 214.534Z" fill="#46B7A1" stroke="#0A2533" stroke-width="1.78398" stroke-miterlimit="10"/>
<path d="M262.473 212.222C262.473 213.506 261.431 214.534 260.161 214.534C258.891 214.534 257.849 213.492 257.849 212.222C257.849 210.952 258.891 209.91 260.161 209.91C261.431 209.91 262.473 210.952 262.473 212.222Z" fill="#46B7A1" stroke="#0A2533" stroke-width="1.78398" stroke-miterlimit="10"/>
<path d="M249.472 218.972C249.472 220.257 248.43 221.284 247.16 221.284C245.889 221.284 244.848 220.242 244.848 218.972C244.848 217.702 245.889 216.66 247.16 216.66C248.43 216.66 249.472 217.702 249.472 218.972Z" fill="#46B7A1" stroke="#0A2533" stroke-width="1.78398" stroke-miterlimit="10"/>
<path d="M285.465 219.543C285.465 220.828 284.423 221.856 283.153 221.856C281.883 221.856 280.841 220.814 280.841 219.543C280.841 218.273 281.883 217.231 283.153 217.231C284.423 217.231 285.465 218.273 285.465 219.543Z" fill="#46B7A1" stroke="#0A2533" stroke-width="1.78398" stroke-miterlimit="10"/>
<path d="M245.775 203.73C245.775 204.829 244.89 205.714 243.791 205.714C242.692 205.714 241.807 204.829 241.807 203.73C241.807 202.631 242.692 201.746 243.791 201.746C244.89 201.746 245.775 202.631 245.775 203.73Z" fill="#46B7A1" stroke="#0A2533" stroke-width="1.78398" stroke-miterlimit="10"/>
<path d="M217.003 219.6C217.003 223.354 213.963 226.408 210.195 226.408C206.428 226.408 203.388 223.368 203.388 219.6C203.388 215.833 206.428 212.793 210.195 212.793C213.963 212.793 217.003 215.833 217.003 219.6Z" fill="#F76A59" stroke="#0A2533" stroke-width="1.78398" stroke-miterlimit="10"/>
<path d="M240.495 212.693C240.495 216.132 237.712 218.915 234.272 218.915C230.833 218.915 228.05 216.132 228.05 212.693C228.05 209.253 230.833 206.47 234.272 206.47C237.712 206.47 240.495 209.253 240.495 212.693Z" fill="#F76A59" stroke="#0A2533" stroke-width="1.78398" stroke-miterlimit="10"/>
<path d="M278.615 219.229C278.615 222.783 275.732 225.666 272.178 225.666C268.624 225.666 265.741 222.783 265.741 219.229C265.741 215.676 268.624 212.793 272.178 212.793C275.732 212.793 278.615 215.676 278.615 219.229Z" fill="#F76A59" stroke="#0A2533" stroke-width="1.78398" stroke-miterlimit="10"/>
<path d="M262.473 201.575C262.473 204.572 260.047 206.998 257.05 206.998C254.053 206.998 251.627 204.572 251.627 201.575C251.627 198.578 254.053 196.152 257.05 196.152C260.047 196.152 262.473 198.578 262.473 201.575Z" fill="#F76A59" stroke="#0A2533" stroke-width="1.78398" stroke-miterlimit="10"/>
<path d="M226.565 200.933C226.565 203.573 224.425 205.714 221.784 205.714C219.144 205.714 217.003 203.573 217.003 200.933C217.003 198.293 219.144 196.152 221.784 196.152C224.425 196.152 226.565 198.293 226.565 200.933Z" fill="#F76A59" stroke="#0A2533" stroke-width="1.78398" stroke-miterlimit="10"/>
<path d="M190.286 228.378C191.613 256.022 213.035 278.015 239.296 278.015C265.556 278.015 286.978 256.036 288.305 228.378H190.3H190.286Z" fill="#5DE3E0"/>
<path d="M277.43 228.378H276.088V239.353H267.083V228.378H265.741V239.353H254.795V228.378H253.453V239.353H243.163V228.378H241.822V239.353H232.631V228.378H231.289V239.353H221.884V228.378H220.543V239.353H208.94V228.378H207.598V239.353H199.292V228.378H197.95V239.353H191.985C192.099 239.81 192.213 240.252 192.327 240.694H197.936V250.756H196.28C196.509 251.213 196.737 251.655 196.98 252.098H197.936V253.753C198.364 254.481 198.821 255.195 199.278 255.894V252.098H207.584V260.661L202.888 260.704C203.274 261.16 203.659 261.603 204.044 262.045L207.584 262.017V265.57C208.026 265.97 208.469 266.37 208.925 266.755V261.988L220.528 261.888V271.365H215.419C216.218 271.836 217.017 272.292 217.831 272.706H220.514V274.005C220.956 274.205 221.413 274.39 221.856 274.562V272.692H231.261V277.259C231.703 277.345 232.16 277.416 232.602 277.473V272.692H241.793V277.901C242.25 277.873 242.692 277.83 243.135 277.801V272.692H253.425V275.76C253.882 275.618 254.324 275.446 254.766 275.289V272.692H260.746C261.56 272.264 262.373 271.821 263.158 271.35H254.766V261.574L265.713 261.474V269.723C266.17 269.409 266.612 269.081 267.054 268.753V261.46L275.089 261.389C275.889 260.475 276.674 259.519 277.416 258.549V252.069H281.64C281.883 251.627 282.111 251.17 282.34 250.728H277.416V240.666H286.293C286.421 240.224 286.521 239.767 286.635 239.324H277.416V228.349L277.43 228.378ZM207.555 250.756H199.249V240.694H207.555V250.756ZM220.514 260.547L208.911 260.647V252.098H220.514V260.547ZM220.514 250.756H208.911V240.694H220.514V250.756ZM231.275 271.379H221.87V261.888L231.275 261.803V271.379ZM231.275 260.461L221.87 260.547V252.112H231.275V260.461ZM231.275 250.756H221.87V240.694H231.275V250.756ZM241.808 271.379H232.617V261.788L241.808 261.703V271.365V271.379ZM241.808 260.361L232.617 260.447V252.112H241.808V260.375V260.361ZM241.808 250.756H232.617V240.694H241.808V250.756ZM253.439 271.379H243.149V261.703L253.439 261.617V271.379ZM253.439 260.261L243.149 260.347V252.098H253.439V260.261ZM253.439 250.756H243.149V240.694H253.439V250.756ZM265.727 260.161L254.781 260.261V252.112H265.727V260.161ZM265.727 250.756H254.781V240.694H265.727V250.756ZM276.074 260.076L267.069 260.147V252.098H276.074V260.061V260.076ZM276.074 250.756H267.069V240.694H276.074V250.756Z" fill="white"/>
<path d="M190.286 228.378C191.613 256.022 213.035 278.015 239.296 278.015C265.556 278.015 286.978 256.036 288.305 228.378H190.3H190.286Z" stroke="#0A2533" stroke-width="1.78398" stroke-miterlimit="10"/>
<path d="M293.414 232.773H187.589C185.163 232.773 183.193 230.804 183.193 228.378C183.193 225.951 185.163 223.982 187.589 223.982H293.414C295.841 223.982 297.81 225.951 297.81 228.378C297.81 230.804 295.841 232.773 293.414 232.773Z" fill="white" stroke="#0A2533" stroke-width="1.78398" stroke-miterlimit="10"/>
</g>
<defs>
<clipPath id="clip0_491_3833">
<rect width="323" height="278.9" fill="white"/>
</clipPath>
</defs>
</svg>
