<svg width="87" height="80" viewBox="0 0 87 80" fill="none" xmlns="http://www.w3.org/2000/svg">
<path d="M30.1017 0.79113C26.8218 -0.389629 23.1484 -0.258426 19.9341 1.25032C13.1119 4.53021 1.56671 10.8276 0.123559 17.1906C-1.90997 26.3742 21.5084 37.985 44.4676 57.2708C67.4268 76.5565 69.9195 84.297 74.0522 77.6717C78.1849 71.0463 94.5843 53.6629 81.5959 33.262C71.3627 17.125 42.0405 5.12058 30.1017 0.79113Z" fill="#ECB579"/>
<path d="M74.0521 77.6717C76.348 73.9982 82.5142 66.9137 85.2037 57.8612C81.5959 61.3379 77.0696 64.2242 71.7562 62.7154C59.227 59.1732 35.0215 29.195 16.9165 17.9122C11.0127 14.1731 6.22408 12.9268 2.5506 12.9268C1.36985 14.3699 0.517075 15.8131 0.189086 17.2562C-1.84444 26.4399 21.5739 38.0507 44.5332 57.3364C67.3612 76.5566 69.9195 84.2971 74.0521 77.6717Z" fill="#DFA164"/>
<path d="M28.6586 41.3305C31.1513 40.6089 33.8408 40.6089 36.4647 40.5433C37.1207 40.5433 37.7767 40.5433 38.4327 40.5433C49.0595 40.2809 57.7184 36.9354 62.9006 31.0316C64.0158 29.7197 64.9997 28.3421 65.9837 26.9646C66.3773 26.3742 66.7709 25.7838 67.2301 25.1934C68.1484 23.8815 69.198 22.6351 70.2475 21.3888C69.7884 21.0608 69.3292 20.7328 68.87 20.4048C67.8204 21.6512 66.8365 22.8975 65.8525 24.2095C65.4589 24.7999 64.9997 25.3902 64.6061 25.9806C63.6878 27.2926 62.7038 28.6701 61.6542 29.9165C56.8 35.4923 48.5347 38.641 38.4327 38.9034C37.7767 38.9034 37.1863 38.9034 36.5303 38.9034C33.7752 38.9034 31.0201 38.969 28.265 39.7561C26.7563 40.2153 25.3787 40.8057 24.0667 41.5929C24.5915 41.9209 25.0507 42.3144 25.5755 42.6424C26.4939 42.1176 27.5434 41.6585 28.6586 41.3305Z" fill="#F2D0A4"/>
<path d="M16.3918 26.0462C17.5725 26.3742 18.7533 26.6365 19.8685 26.9645C25.5755 28.4077 32.2664 29.5884 38.5638 27.4893C43.2868 25.915 47.2227 22.7007 50.765 19.3552C52.9953 17.3217 55.0944 15.1569 57.1936 13.0578C56.6688 12.7954 56.2096 12.4674 55.6848 12.205C53.7169 14.2386 51.6834 16.2065 49.6498 18.1088C46.2387 21.2575 42.4997 24.4062 38.039 25.8494C32.2008 27.7517 25.7723 26.6365 20.262 25.259C19.0813 24.9966 17.9661 24.6686 16.7854 24.3406C11.9967 23.0943 7.0113 21.7823 1.96028 21.7823C1.63229 21.7823 1.3043 21.7823 0.976313 21.7823C1.3043 22.3071 1.63229 22.8975 2.02588 23.4223C6.88011 23.5535 11.7343 24.7998 16.3918 26.0462Z" fill="#F2D0A4"/>
<path d="M19.7372 35.0986C24.2635 33.6555 29.0521 33.7211 32.7912 33.9179C33.1192 33.9179 33.4472 33.9835 33.8408 33.9835C36.3335 34.1147 38.8918 34.2459 41.4501 33.7211C44.6644 32.9995 47.4195 31.1628 49.9778 29.3917C53.9793 26.571 58.1119 23.4223 61.195 19.1584C61.851 18.24 62.3758 17.3873 62.9005 16.4033C62.4414 16.0753 61.9822 15.8129 61.4574 15.5505C60.9982 16.4689 60.4734 17.3217 59.8175 18.1744C56.9312 22.2415 52.9297 25.3246 48.9938 28.0141C46.5667 29.7196 43.9428 31.4252 40.9909 32.0812C38.695 32.6059 36.2023 32.4747 33.8408 32.3436C33.5128 32.3436 33.1848 32.278 32.7912 32.278C28.9209 32.0812 23.8699 32.0156 19.1469 33.5243C17.7037 33.9835 16.3918 34.5739 15.1454 35.2299C15.6046 35.6234 16.1294 35.9514 16.6541 36.345C17.6381 35.8202 18.6877 35.4266 19.7372 35.0986Z" fill="#F2D0A4"/>
<path d="M35.1527 13.3204C32.0696 14.6979 28.1993 14.6979 23.3451 13.3204C18.5565 11.9428 14.0302 9.7125 10.0288 6.76061C9.50397 7.0886 9.04479 7.41658 8.52 7.74457C12.7839 10.9589 17.7037 13.4516 22.8859 14.9603C28.1337 16.4691 32.3976 16.4691 35.8743 14.8947C39.6133 13.1892 42.0404 9.9749 44.1396 6.49822C43.6148 6.23583 43.09 6.03904 42.5652 5.84224C40.5317 8.99093 38.4326 11.8772 35.1527 13.3204Z" fill="#F2D0A4"/>
<path d="M13.7679 4.46462C17.7037 6.62934 22.0988 8.53167 26.7562 8.99086C28.8553 9.18765 30.6265 9.05646 32.1352 8.46608C34.3655 7.67891 36.2679 5.97336 37.6454 3.67744C37.1207 3.48064 36.5959 3.21825 36.0711 3.02146C34.8903 4.85819 33.3816 6.23576 31.6104 6.82614C30.3641 7.28532 28.8553 7.4165 26.953 7.21971C22.9515 6.82612 19.0813 5.25178 15.539 3.41505C14.9486 3.80863 14.3582 4.13663 13.7679 4.46462Z" fill="#F2D0A4"/>
<path d="M40.5317 18.0433C33.8408 22.5039 24.7883 23.0943 17.5725 19.552C15.867 18.6993 14.1614 17.6497 12.5871 16.6001C9.70079 14.7634 6.74889 12.7955 3.27221 12.0739C2.81303 12.5331 2.35385 13.0578 1.96026 13.5826C2.28825 13.6482 2.55064 13.6482 2.87863 13.7138C6.02732 14.3698 8.78242 16.1409 11.6687 17.9777C13.3087 19.0272 15.0798 20.1424 16.8509 21.0608C24.5915 24.8654 34.2999 24.2095 41.4501 19.4208C45.1892 16.9281 48.2067 13.3858 50.109 9.31877C49.5842 9.05638 49.125 8.85959 48.6002 8.5972C46.8291 12.4019 44.074 15.6817 40.5317 18.0433Z" fill="#F2D0A4"/>
<path d="M67.0988 73.6703C69.1324 67.3729 71.0347 61.4691 75.3641 56.8772C76.5449 55.6309 77.9225 54.5157 79.2344 53.4006C79.7592 52.9414 80.284 52.4822 80.8744 52.023C82.8423 50.3175 84.679 48.4807 86.4502 46.5784C86.3846 45.8568 86.2534 45.1352 86.1222 44.3481C84.2198 46.644 82.0551 48.8087 79.7592 50.7767C79.2344 51.2358 78.7096 51.695 78.1848 52.0886C76.8073 53.2038 75.3641 54.3845 74.1178 55.6965C69.5259 60.5507 67.4924 66.9137 65.4589 73.1455C65.1965 73.9982 64.9341 74.851 64.6061 75.7038C65.0653 76.163 65.5245 76.5566 65.9837 76.9501C66.3772 75.835 66.7052 74.7854 67.0988 73.6703Z" fill="#F2D0A4"/>
<path d="M75.4953 75.5069C75.8889 74.9165 76.3481 74.3261 76.8073 73.6702C76.5449 72.0958 76.4137 70.4559 76.6761 68.8815C77.1353 65.7328 78.7752 62.7809 80.4808 60.0914C82.2519 57.2707 84.2198 54.5156 86.319 51.9573C86.3846 51.0389 86.4502 50.1206 86.4502 49.1366C83.7607 52.3509 81.2679 55.6964 79.0376 59.1731C77.2009 62.0594 75.4297 65.1425 74.9706 68.6191C74.7082 70.9807 74.9706 73.2766 75.4953 75.5069Z" fill="#F2D0A4"/>
<path d="M61.5231 64.2897C63.9502 60.9442 66.9021 57.9923 69.7884 55.106C71.8875 52.9413 74.1178 50.7766 76.0858 48.415C79.2345 44.676 81.7272 40.7401 83.4983 36.6074C83.1703 35.9515 82.8423 35.3611 82.4487 34.7051C80.7432 39.0346 78.1193 43.364 74.7738 47.2999C72.8059 49.5958 70.6411 51.8261 68.542 53.9252C65.6557 56.8771 62.6382 59.8946 60.1455 63.3057C58.8992 65.0113 57.8496 66.7824 57.0624 68.4879C57.5216 68.8815 57.9152 69.3407 58.3744 69.7343C59.1615 67.8976 60.2111 66.0608 61.5231 64.2897Z" fill="#F2D0A4"/>
<path d="M51.093 47.4312C51.8801 47.0376 52.7329 46.644 53.5201 46.1848C58.0463 43.9545 62.7038 41.6586 66.574 38.3131C70.3131 35.0988 73.3962 30.9005 75.5609 26.0463C75.1673 25.6527 74.7082 25.2591 74.249 24.8655C72.1498 29.7198 69.1979 33.8524 65.4589 37.0667C61.7198 40.281 57.128 42.5113 52.7329 44.7416C51.9457 45.1352 51.093 45.5288 50.3058 45.988C46.4355 47.9559 42.4997 50.1862 39.2198 53.1381C39.679 53.4661 40.0726 53.8597 40.5317 54.1877C43.6804 51.4326 47.4195 49.3335 51.093 47.4312Z" fill="#F2D0A4"/>
<path d="M48.9283 61.0098C51.8146 58.3203 55.16 56.0244 58.3743 53.8597C61.7198 51.5637 65.1965 49.2022 68.214 46.3815C73.0026 41.9209 76.5449 36.3451 79.956 30.9661C79.628 30.5069 79.2344 30.0477 78.8408 29.5885C75.4297 35.0331 71.8219 40.7401 67.0988 45.2008C64.1469 47.9559 60.7358 50.3174 57.456 52.5477C54.1761 54.778 50.765 57.074 47.8131 59.8947C47.7475 59.9603 47.6819 60.0258 47.6163 60.0914C48.0099 60.3538 48.4691 60.7474 48.9283 61.0098C48.8627 61.0754 48.8627 61.0754 48.9283 61.0098Z" fill="#F2D0A4"/>
</svg>
