<svg width="11" height="15" viewBox="0 0 11 15" fill="none" xmlns="http://www.w3.org/2000/svg">
<path d="M10.8453 8.04051C10.3778 10.3779 8.69494 12.2477 6.63807 13.4632C4.67469 14.5851 2.52433 14.7721 0.280471 14.6786C0.186977 14.6786 0.0934942 14.6786 0 14.6786C0 14.5851 0 14.4916 0 14.3981C0.186988 11.4063 1.2154 8.60147 2.8983 6.07712C4.4877 3.73977 6.63808 1.86988 8.78845 0C10.3779 2.33735 11.4063 5.42267 10.8453 8.04051Z" fill="#AEDC90"/>
<path d="M10.8453 8.04051C10.3778 10.3779 8.69494 12.2477 6.63807 13.4632C4.67469 14.5851 2.52433 14.7721 0.280471 14.6786C0.186977 14.6786 0.0934942 14.6786 0 14.6786C9.7234 9.25592 8.78845 0 8.78845 0C10.3779 2.33735 11.4063 5.42267 10.8453 8.04051Z" fill="#7CA661"/>
<path d="M8.41466 4.67471C7.94718 6.91857 6.63827 9.16243 5.14236 10.8453C3.83344 12.3412 2.24403 13.7436 0.374149 14.6786C0.280655 14.6786 0.187143 14.6786 0.0936492 14.6786C0.0936492 14.5851 0.0936492 14.4916 0.0936492 14.3981C1.87004 13.3697 3.55294 12.2477 4.86186 10.5648C5.60981 9.6299 6.26428 8.69495 6.82524 7.66652C7.38621 6.63808 7.66668 5.60966 8.04066 4.58122C8.13415 4.39423 8.41466 4.48772 8.41466 4.67471Z" fill="#39700B"/>
</svg>
