<svg width="48" height="43" viewBox="0 0 48 43" fill="none" xmlns="http://www.w3.org/2000/svg">
<path d="M0.535087 35.4034C0.535087 35.4034 3.62724 36.5527 5.39419 34.3978C7.16114 32.2429 9.81158 26.1374 15.775 24.1262C17.3211 23.6234 18.6463 23.1924 19.8243 22.8333C22.4011 22.0432 24.4626 20.1038 25.3461 17.5897C26.3032 15.0039 28.3646 11.6997 32.8556 9.68848C41.0277 6.097 40.8805 3.08017 41.8376 0.49431C42.7947 -2.09155 49.1999 5.80969 47.8011 16.225C46.4023 26.6402 36.1686 33.6077 36.1686 33.6077C36.1686 33.6077 31.8249 39.0667 22.2539 41.7244C12.7565 44.3821 8.41275 38.8512 6.71942 37.9893C5.09971 37.1273 2.08115 39.6414 0.608692 38.3484C-0.716523 37.1273 0.535087 35.4034 0.535087 35.4034Z" fill="#D4E86D"/>
<path d="M47.8011 16.2968C49.1999 5.88151 42.7947 -2.09157 41.8376 0.566118C41.2486 2.2182 41.1014 4.01394 38.9663 6.02516C40.1443 7.96456 41.3223 11.0532 41.175 15.794C40.8805 25.2755 31.8985 24.0544 29.0272 27.2149C26.1559 30.3754 26.6712 37.9175 16.8794 38.6358C11.0632 39.0667 7.6765 36.2654 5.90955 33.7513C5.68868 34.0387 5.54142 34.2541 5.39418 34.4696C3.62722 36.6245 0.535073 35.4752 0.535073 35.4752C0.535073 35.4752 -0.716532 37.1273 0.682306 38.4203C2.08114 39.7132 5.0997 37.1992 6.79303 38.0611C8.41274 38.9231 12.7565 44.4539 22.3275 41.7963C31.8249 39.1386 36.2423 33.6795 36.2423 33.6795C36.2423 33.6795 46.3286 26.7121 47.8011 16.2968Z" fill="#B5CD5A"/>
</svg>
