<svg width="12" height="11" viewBox="0 0 12 11" fill="none" xmlns="http://www.w3.org/2000/svg">
<path d="M3.5625 3.72656H9.9375L6.9375 1.14844C6.70312 0.898437 6.6875 0.632812 6.89062 0.351562C7.14062 0.117188 7.40625 0.101562 7.6875 0.304688L11.8125 3.84375C11.9219 3.96875 11.9844 4.11719 12 4.28906C12 4.46094 11.9375 4.60156 11.8125 4.71094L7.6875 8.25C7.57812 8.34375 7.45312 8.39062 7.3125 8.39062C7.14062 8.39062 7 8.32812 6.89062 8.20312C6.6875 7.92188 6.70312 7.65625 6.9375 7.40625L9.9375 4.82812H3.5625C2.875 4.84375 2.29688 5.08594 1.82812 5.55469C1.375 6.00781 1.14062 6.57031 1.125 7.24219V10.0312C1.09375 10.4375 0.90625 10.6484 0.5625 10.6641C0.21875 10.6328 0.03125 10.4453 0 10.1016V7.3125C0.03125 6.29688 0.382812 5.45312 1.05469 4.78125C1.71094 4.10938 2.54688 3.75781 3.5625 3.72656Z" fill="#0A2533"/>
</svg>
