<svg width="11" height="15" viewBox="0 0 11 15" fill="none" xmlns="http://www.w3.org/2000/svg">
<path d="M0.154696 8.04051C0.622166 10.3779 2.30506 12.2477 4.36193 13.4632C6.32531 14.5851 8.47567 14.7721 10.7195 14.6786C10.813 14.6786 10.9065 14.6786 11 14.6786C11 14.5851 11 14.4916 11 14.3981C10.813 11.4063 9.7846 8.60147 8.1017 6.07712C6.5123 3.73977 4.36192 1.86988 2.21155 0C0.622149 2.33735 -0.40627 5.42267 0.154696 8.04051Z" fill="#AEDC90"/>
<path d="M0.154696 8.04051C0.622166 10.3779 2.30506 12.2477 4.36193 13.4632C6.32531 14.5851 8.47567 14.7721 10.7195 14.6786C10.813 14.6786 10.9065 14.6786 11 14.6786C1.2766 9.25592 2.21155 0 2.21155 0C0.622149 2.33735 -0.40627 5.42267 0.154696 8.04051Z" fill="#7CA661"/>
<path d="M2.58534 4.67471C3.05282 6.91857 4.36173 9.16243 5.85764 10.8453C7.16656 12.3412 8.75597 13.7436 10.6259 14.6786C10.7193 14.6786 10.8129 14.6786 10.9064 14.6786C10.9064 14.5851 10.9064 14.4916 10.9064 14.3981C9.12996 13.3697 7.44706 12.2477 6.13814 10.5648C5.39019 9.6299 4.73572 8.69495 4.17476 7.66652C3.61379 6.63808 3.33332 5.60966 2.95934 4.58122C2.86585 4.39423 2.58534 4.48772 2.58534 4.67471Z" fill="#39700B"/>
</svg>
