<svg width="15" height="23" viewBox="0 0 15 23" fill="none" xmlns="http://www.w3.org/2000/svg">
<path d="M9.25391 2.15625C9.22396 2.75521 9.01432 3.26432 8.625 3.68359C8.20573 4.07292 7.69661 4.28255 7.09766 4.3125C6.4987 4.28255 5.98958 4.07292 5.57031 3.68359C5.18099 3.26432 4.97135 2.75521 4.94141 2.15625C4.97135 1.55729 5.18099 1.04818 5.57031 0.628906C5.98958 0.239583 6.4987 0.0299479 7.09766 0C7.69661 0.0299479 8.20573 0.239583 8.625 0.628906C9.01432 1.04818 9.22396 1.55729 9.25391 2.15625ZM6.37891 15.8125V21.9219C6.31901 22.5807 5.95964 22.9401 5.30078 23C4.64193 22.9401 4.28255 22.5807 4.22266 21.9219V10.0625L2.29102 13.4766C1.90169 14.0156 1.40755 14.1504 0.808594 13.8809C0.269531 13.4915 0.134766 12.9974 0.404297 12.3984L3.05469 7.77148C3.83333 6.48372 4.97135 5.8099 6.46875 5.75H7.72656C9.22396 5.8099 10.362 6.48372 11.1406 7.77148L13.791 12.3984C14.0605 12.9974 13.9258 13.4915 13.3867 13.8809C12.7878 14.1504 12.2936 14.0156 11.9043 13.4766L9.97266 10.0625V21.9219C9.91276 22.5807 9.55339 22.9401 8.89453 23C8.23568 22.9401 7.8763 22.5807 7.81641 21.9219V15.8125H6.37891ZM6.37891 13.6562H7.81641V7.90625C7.78646 7.90625 7.75651 7.90625 7.72656 7.90625H6.46875C6.4388 7.90625 6.40885 7.90625 6.37891 7.90625V13.6562Z" fill="white"/>
</svg>
