<svg width="16" height="12" viewBox="0 0 16 12" fill="none" xmlns="http://www.w3.org/2000/svg">
<path d="M4.96875 0C6.34375 0.03125 7.49219 0.4375 8.41406 1.21875C9.33594 1.98438 9.8125 2.95312 9.84375 4.125C9.8125 5.29688 9.33594 6.26562 8.41406 7.03125C7.49219 7.8125 6.34375 8.21875 4.96875 8.25C4.53125 8.25 4.10938 8.20312 3.70312 8.10938C3.34375 8.34375 2.90625 8.54688 2.39062 8.71875C1.89062 8.89062 1.32031 8.98438 0.679688 9C0.429688 8.98438 0.25 8.86719 0.140625 8.64844C0.046875 8.41406 0.0859375 8.20312 0.257812 8.01562C0.273438 8 0.375 7.875 0.5625 7.64062C0.765625 7.39062 0.96875 7.07812 1.17188 6.70312C0.46875 5.98438 0.109375 5.125 0.09375 4.125C0.125 2.95312 0.601563 1.98438 1.52344 1.21875C2.44531 0.4375 3.59375 0.03125 4.96875 0ZM3.96094 6.98438C4.30469 7.07812 4.64062 7.125 4.96875 7.125C6.03125 7.10938 6.91406 6.8125 7.61719 6.23438C8.32031 5.67188 8.6875 4.96875 8.71875 4.125C8.6875 3.28125 8.32031 2.57812 7.61719 2.01562C6.91406 1.4375 6.03125 1.14063 4.96875 1.125C3.90625 1.14063 3.02344 1.4375 2.32031 2.01562C1.61719 2.57812 1.25 3.28125 1.21875 4.125C1.23438 4.53125 1.32031 4.89062 1.47656 5.20312C1.63281 5.5 1.80469 5.74219 1.99219 5.92969L2.53125 6.51562L2.15625 7.21875C2.125 7.28125 2.09375 7.34375 2.0625 7.40625C2 7.5 1.94531 7.60156 1.89844 7.71094C2.30469 7.58594 2.71094 7.39062 3.11719 7.125L3.49219 6.91406L3.96094 6.98438ZM10.4531 3C11.7656 3.07812 12.8594 3.5 13.7344 4.26562C14.6094 5.03125 15.0625 5.98438 15.0938 7.125C15.0781 8.125 14.7188 8.98438 14.0156 9.70312C14.2188 10.0781 14.4219 10.3906 14.625 10.6406C14.8125 10.875 14.9141 11 14.9297 11.0156C15.1016 11.2031 15.1328 11.4141 15.0234 11.6484C14.9297 11.8672 14.7578 11.9844 14.5078 12C13.8672 11.9844 13.2969 11.8906 12.7969 11.7188C12.2812 11.5469 11.8438 11.3438 11.4844 11.1094C11.0781 11.2031 10.6562 11.25 10.2188 11.25C9.25 11.2344 8.38281 11.0234 7.61719 10.6172C6.83594 10.1953 6.24219 9.64062 5.83594 8.95312C6.24219 8.89062 6.63281 8.79688 7.00781 8.67188C7.33594 9.10938 7.78125 9.46094 8.34375 9.72656C8.90625 9.99219 9.53125 10.125 10.2188 10.125C10.5469 10.125 10.8828 10.0781 11.2266 9.98438L11.6953 9.91406L12.0703 10.125C12.4766 10.3906 12.8906 10.5859 13.3125 10.7109C13.25 10.6172 13.1875 10.5156 13.125 10.4062C13.0938 10.3438 13.0625 10.2812 13.0312 10.2188L12.6562 9.51562L13.1953 8.92969C13.3828 8.74219 13.5547 8.5 13.7109 8.20312C13.8672 7.89062 13.9531 7.53125 13.9688 7.125C13.9531 6.32812 13.625 5.65625 12.9844 5.10938C12.3594 4.5625 11.5547 4.24219 10.5703 4.14844L10.5938 4.125C10.5938 3.73438 10.5469 3.35938 10.4531 3Z" fill="#0A2533"/>
</svg>
