<svg width="24" height="24" viewBox="0 0 24 24" fill="none" xmlns="http://www.w3.org/2000/svg">
<path fill-rule="evenodd" clip-rule="evenodd" d="M6.98978 4.09863C7.55867 4.09863 8.01984 4.55981 8.01984 5.1287V7.64977C8.01984 8.21866 7.55867 8.67983 6.98978 8.67983C6.42089 8.67983 5.95972 8.21866 5.95972 7.64977V5.1287C5.95972 4.55981 6.42089 4.09863 6.98978 4.09863Z" fill="#C6E3E5"/>
<path fill-rule="evenodd" clip-rule="evenodd" d="M12 2.09863C12.5689 2.09863 13.0301 2.55981 13.0301 3.1287V7.64977C13.0301 8.21866 12.5689 8.67983 12 8.67983C11.4311 8.67983 10.97 8.21866 10.97 7.64977V3.1287C10.97 2.55981 11.4311 2.09863 12 2.09863Z" fill="#C6E3E5"/>
<path fill-rule="evenodd" clip-rule="evenodd" d="M17.0103 3.09863C17.5792 3.09863 18.0404 3.55981 18.0404 4.1287V7.64977C18.0404 8.21866 17.5792 8.67983 17.0103 8.67983C16.4414 8.67983 15.9802 8.21866 15.9802 7.64977V4.1287C15.9802 3.55981 16.4414 3.09863 17.0103 3.09863Z" fill="#C6E3E5"/>
<path d="M2.56519 13.4187C2.56519 12.4759 2.56519 12.0045 2.85808 11.7116C3.15097 11.4187 3.62238 11.4187 4.56519 11.4187H19.4348C20.3776 11.4187 20.849 11.4187 21.1419 11.7116C21.4348 12.0045 21.4348 12.4759 21.4348 13.4187V13.9013C21.4348 17.6725 21.4348 19.5581 20.2632 20.7297C19.0917 21.9013 17.2061 21.9013 13.4348 21.9013H10.5652C6.79395 21.9013 4.90833 21.9013 3.73676 20.7297C2.56519 19.5581 2.56519 17.6725 2.56519 13.9013V13.4187Z" fill="#FF7A00"/>
</svg>
