<svg width="48" height="48" viewBox="0 0 48 48" fill="none" xmlns="http://www.w3.org/2000/svg">
<circle cx="24" cy="24" r="20" fill="#042628"/>
<path fill-rule="evenodd" clip-rule="evenodd" d="M20 16.5C20.8284 16.5 21.5 17.1716 21.5 18V30C21.5 30.8284 20.8284 31.5 20 31.5C19.1716 31.5 18.5 30.8284 18.5 30V18C18.5 17.1716 19.1716 16.5 20 16.5Z" fill="white"/>
<path fill-rule="evenodd" clip-rule="evenodd" d="M28 16.5C28.8284 16.5 29.5 17.1716 29.5 18V30C29.5 30.8284 28.8284 31.5 28 31.5C27.1716 31.5 26.5 30.8284 26.5 30V18C26.5 17.1716 27.1716 16.5 28 16.5Z" fill="white"/>
</svg>
