<svg width="24" height="24" viewBox="0 0 24 24" fill="none" xmlns="http://www.w3.org/2000/svg">
<path d="M17.9591 20.0373C16.3671 21.6146 14.2532 22.4803 12 22.4803C9.74683 22.4803 7.63298 21.6146 6.04092 20.0373C4.45479 18.4631 3.5802 16.3759 3.5802 14.1553C3.5802 12.8657 3.87074 11.6294 4.44294 10.4791C5.0003 9.35542 5.83043 8.35038 6.83843 7.57659C7.4813 7.08502 8.06438 6.51984 8.57576 5.89262C9.31694 4.98838 9.89803 3.98037 10.3012 2.89825C10.4666 2.45187 10.5868 1.99003 10.66 1.51965C11.3745 2.17782 11.9733 2.97237 12.4744 3.90329C13.4646 5.75921 13.9212 7.41056 13.8322 8.81584C13.811 9.14681 13.865 9.47829 13.9903 9.78537C14.1156 10.0924 14.3089 10.3671 14.5556 10.5887C14.7694 10.7819 15.0195 10.9306 15.2913 11.0263C15.563 11.122 15.8511 11.1627 16.1388 11.1461C16.7228 11.1165 17.2594 10.8585 17.6508 10.4227C18.0451 9.98098 18.386 9.53034 18.6706 9.07081C19.0857 9.60149 19.4326 10.1796 19.7083 10.8022C20.1797 11.8636 20.4198 12.9931 20.4198 14.1553C20.4198 16.3759 19.5452 18.466 17.9591 20.0373Z" stroke="#0A2533" stroke-width="1.5" stroke-linejoin="round"/>
<path d="M13.6455 18.3089C13.0066 18.9419 12.1582 19.2894 11.2539 19.2894C10.3496 19.2894 9.50119 18.9419 8.86223 18.3089C8.22565 17.6771 7.87463 16.8394 7.87463 15.9482C7.87463 15.4306 7.99124 14.9344 8.22089 14.4728C8.44458 14.0218 8.77775 13.6184 9.1823 13.3079C9.44031 13.1106 9.67433 12.8837 9.87957 12.632C10.177 12.2691 10.4103 11.8645 10.5721 11.4302C10.6385 11.2511 10.6867 11.0657 10.7161 10.877C11.0028 11.1411 11.2432 11.46 11.4443 11.8336C11.8417 12.5785 12.0249 13.2412 11.9892 13.8052C11.9807 13.9381 12.0024 14.0711 12.0527 14.1943C12.103 14.3176 12.1805 14.4278 12.2795 14.5168C12.3654 14.5943 12.4657 14.654 12.5748 14.6924C12.6839 14.7308 12.7995 14.7471 12.9149 14.7405C13.1493 14.7286 13.3647 14.6251 13.5218 14.4501C13.68 14.2729 13.8169 14.092 13.9311 13.9076C14.0977 14.1205 14.2369 14.3526 14.3475 14.6024C14.5367 15.0284 14.6331 15.4818 14.6331 15.9482C14.6331 16.8394 14.2821 17.6783 13.6455 18.3089Z" stroke="#0A2533" stroke-width="1.5" stroke-linejoin="round"/>
</svg>
