<svg width="265" height="342" viewBox="0 0 265 342" fill="none" xmlns="http://www.w3.org/2000/svg">
<g clip-path="url(#clip0_491_3982)">
<path d="M23.7717 211.584L18.8968 198.182C18.8968 198.182 38.5858 173.55 67.06 159.424C95.5342 145.282 129.572 141.268 159.373 150.967C189.173 160.665 209.706 177.408 205.073 184.918C200.439 192.429 147.47 237.888 147.47 237.888L46.3202 235.889L23.7717 211.584Z" fill="#B3EDEE"/>
<path d="M94.6212 150.398C95.069 164.678 95.5169 178.976 95.9648 193.256C96.0337 195.254 96.0853 197.269 96.1542 199.267C96.2748 203.057 102.166 203.074 102.063 199.267C101.615 184.987 101.167 170.69 100.719 156.41C100.65 154.412 100.598 152.396 100.53 150.398C100.409 146.608 94.5178 146.591 94.6212 150.398Z" fill="white" stroke="#0A2533" stroke-width="2.15032" stroke-miterlimit="10"/>
<path d="M144.438 150.398C144.886 164.678 145.334 178.976 145.782 193.256C145.851 195.254 145.902 197.269 145.971 199.267C146.092 203.057 151.983 203.074 151.88 199.267C151.432 184.987 150.984 170.69 150.536 156.41C150.467 154.412 150.415 152.396 150.346 150.398C150.226 146.608 144.335 146.591 144.438 150.398Z" fill="white" stroke="#0A2533" stroke-width="2.15032" stroke-miterlimit="10"/>
<path d="M185.625 293.509L176.013 257.887C176.013 257.887 154.67 232.72 156.513 189.001H91.572C91.572 189.001 87.8513 245.587 69.9021 259.936L63.8214 294.75L185.607 293.509H185.625Z" fill="white" stroke="#0A2533" stroke-width="2.15032" stroke-miterlimit="10"/>
<path d="M137.995 138.116C131.122 135.739 124.335 135.997 119.995 138.34C115.654 135.98 108.867 135.721 101.994 138.116C91.8477 141.63 85.3881 149.536 87.5413 155.772C89.6945 162.008 99.6682 164.23 109.814 160.716C113.931 159.286 117.411 157.133 119.995 154.67C122.561 157.133 126.058 159.286 130.175 160.716C140.321 164.23 150.295 162.008 152.448 155.772C154.618 149.536 148.141 141.63 137.995 138.116Z" fill="white" stroke="#0A2533" stroke-width="2.15032" stroke-miterlimit="10"/>
<path d="M181.783 124.421C181.783 76.1203 154.308 36.9662 120.408 36.9662C86.5077 36.9662 59.0326 76.1203 59.0326 124.421C59.0326 126.695 59.1188 128.934 59.2393 131.174H181.594C181.714 128.952 181.801 126.695 181.801 124.421H181.783Z" fill="#0A2533"/>
<path d="M118.393 35.5884C128.22 35.5884 136.187 27.6217 136.187 17.7942C136.187 7.96673 128.22 0 118.393 0C108.565 0 100.598 7.96673 100.598 17.7942C100.598 27.6217 108.565 35.5884 118.393 35.5884Z" fill="#0A2533"/>
<path d="M109.457 122.076L109.016 140.916C108.898 145.976 112.904 150.174 117.964 150.292L121.856 150.383C126.916 150.502 131.113 146.496 131.232 141.436L131.672 122.596C131.791 117.536 127.785 113.339 122.725 113.22L118.833 113.129C113.773 113.011 109.576 117.017 109.457 122.076Z" fill="#FFFEFD" stroke="#0A2533" stroke-width="2.15032" stroke-miterlimit="10"/>
<path d="M165.402 91.1071C165.126 95.9819 160.923 99.6855 156.014 99.4099C151.104 99.1343 147.349 94.9484 147.642 90.0907C147.935 85.2331 152.121 81.5123 157.03 81.7879C161.939 82.0635 165.695 86.2494 165.402 91.1071Z" fill="#FFFEFD" stroke="#0A2533" stroke-width="2.15032" stroke-miterlimit="10"/>
<path d="M152.465 91.4861C152.465 91.2966 152.465 91.1243 152.5 90.9349C152.5 90.8832 152.5 90.8487 152.5 90.7971C152.5 91.1071 152.482 90.9349 152.5 90.8487C152.517 90.7454 152.534 90.6248 152.568 90.5214C152.62 90.2803 152.689 90.0391 152.758 89.798C152.792 89.6774 152.844 89.5568 152.896 89.4362C152.982 89.2295 152.81 89.6085 152.896 89.4018C152.93 89.3329 152.965 89.264 152.999 89.1951C153.068 89.0745 153.137 88.9539 153.206 88.8333C153.24 88.7644 153.292 88.7127 153.326 88.6438C153.361 88.6094 153.516 88.4027 153.43 88.506C153.344 88.6094 153.481 88.4371 153.516 88.4027C153.568 88.351 153.619 88.2821 153.671 88.2304C153.723 88.1787 153.791 88.1098 153.843 88.0582C153.86 88.0409 153.895 88.0065 153.912 87.9893C153.929 87.9893 154.102 87.8342 153.981 87.9204C153.878 88.0065 154.067 87.8687 154.102 87.8342C154.17 87.7826 154.239 87.7481 154.325 87.6964C154.412 87.6447 154.481 87.6103 154.549 87.5758C154.584 87.5586 154.636 87.5414 154.67 87.5242C154.859 87.438 154.549 87.5586 154.704 87.5242C154.911 87.4553 155.101 87.3864 155.307 87.3347C155.411 87.3002 155.531 87.283 155.652 87.2658C155.704 87.2658 155.859 87.2486 155.652 87.2658C155.721 87.2658 155.79 87.2658 155.859 87.2486C156.117 87.2313 156.375 87.2313 156.651 87.2486C156.806 87.2486 156.961 87.2486 157.116 87.283C157.168 87.283 157.219 87.283 157.271 87.3002C157.374 87.3002 157.374 87.3002 157.306 87.3002C157.357 87.3002 157.426 87.3175 157.478 87.3347C157.908 87.4036 158.356 87.2141 158.494 86.7662C158.597 86.37 158.356 85.8188 157.926 85.7499C155.979 85.4398 153.86 85.6466 152.448 87.1624C151.587 88.0926 151.087 89.3156 150.915 90.5559C150.863 90.8832 150.829 91.2105 150.829 91.5205C150.829 92.5713 152.482 92.5885 152.482 91.5205L152.465 91.4861Z" fill="#020202"/>
<path d="M77.9295 92.6575C77.6539 97.5324 81.3919 101.701 86.3012 101.977C91.2106 102.252 95.4137 98.5487 95.6893 93.6738C95.9649 88.7989 92.2269 84.6303 87.3176 84.3547C82.4082 84.0791 78.2051 87.7826 77.9295 92.6575Z" fill="#FFFEFD" stroke="#0A2533" stroke-width="2.15032" stroke-miterlimit="10"/>
<path d="M92.382 94.6038C92.4681 93.863 92.382 93.0534 92.227 92.33C91.8997 90.8658 91.0212 89.5222 89.6776 88.8159C88.5923 88.2475 87.3349 88.0752 86.1291 88.1441C85.6812 88.1613 85.3022 88.5058 85.3022 88.9709C85.3022 89.4016 85.6812 89.815 86.1291 89.7978C86.4047 89.7978 86.6975 89.7978 86.9731 89.7978C87.0937 89.7978 87.2143 89.7978 87.3349 89.815C87.4038 89.815 87.4727 89.815 87.5416 89.8322C87.4038 89.815 87.5071 89.8322 87.576 89.8322C87.7827 89.8667 88.0067 89.9184 88.2134 89.97C88.3167 90.0045 88.4201 90.0389 88.5234 90.0734C88.5579 90.0734 88.5923 90.1078 88.6268 90.1078C88.7129 90.1423 88.6957 90.1423 88.5751 90.0906C88.6096 90.0906 88.644 90.1251 88.6785 90.1423C88.8335 90.2112 88.9885 90.2973 89.1263 90.3835C89.1952 90.4351 89.2641 90.4696 89.333 90.5213C89.3847 90.5557 89.5225 90.6246 89.333 90.5213C89.3847 90.5385 89.4192 90.5902 89.4536 90.6246C89.5742 90.728 89.6948 90.8485 89.7981 90.9691C89.8498 91.0208 89.9015 91.0897 89.9359 91.1414C90.0393 91.262 89.8154 90.9863 89.9187 91.1069C89.936 91.1414 89.9704 91.1758 89.9876 91.2103C90.0738 91.3309 90.1599 91.4687 90.2288 91.5892C90.2632 91.6582 90.2977 91.7271 90.3321 91.796C90.3321 91.8132 90.3494 91.8476 90.3666 91.8649C90.3666 91.8821 90.3838 91.9165 90.401 91.9338C90.4355 92.0199 90.4183 91.9854 90.3666 91.8476C90.3666 91.951 90.4699 92.1233 90.5044 92.2266C90.5561 92.3644 90.5905 92.5194 90.625 92.6572C90.6594 92.7778 90.6767 92.9156 90.7111 93.0362C90.7111 93.0879 90.7283 93.1568 90.7456 93.2085C90.78 93.3463 90.7283 92.9845 90.7456 93.1223C90.7456 93.1568 90.7456 93.1912 90.7456 93.2257C90.7628 93.4496 90.78 93.6563 90.78 93.8803C90.78 94.1042 90.78 94.3454 90.7456 94.5865C90.6939 95.0344 91.159 95.4134 91.5724 95.4134C92.0547 95.4134 92.3476 95.0344 92.3992 94.5865L92.382 94.6038Z" fill="#020202"/>
<path d="M93.0406 97.1257L94.3 75.2163C95.0563 62.0603 106.35 51.9947 119.506 52.7509L127.348 53.2017C140.504 53.958 150.569 65.2515 149.813 78.4074L148.554 100.317C147.797 113.473 136.504 123.538 123.348 122.782L115.506 122.331C102.35 121.575 92.2843 110.282 93.0406 97.1257Z" fill="white" stroke="#0A2533" stroke-width="2.15032" stroke-miterlimit="10"/>
<path d="M121.941 77.068L118.393 89.8323L125.128 89.9356L121.941 77.068Z" fill="#F76A59"/>
<path d="M107.024 82.1668C106.903 83.9583 105.335 85.3191 103.544 85.1986C101.752 85.078 100.392 83.5104 100.512 81.719C100.633 79.9275 102.2 78.5666 103.992 78.6872C105.783 78.8078 107.144 80.3753 107.024 82.1668Z" fill="#0C0C0C"/>
<path d="M141.561 82.1668C141.441 83.9583 139.873 85.3191 138.082 85.1986C136.29 85.078 134.929 83.5104 135.05 81.719C135.17 79.9275 136.738 78.5666 138.529 78.6872C140.321 78.8078 141.682 80.3753 141.561 82.1668Z" fill="#0C0C0C"/>
<path d="M108.626 95.6201C108.178 99.5131 104.681 102.304 100.788 101.856C96.8948 101.408 94.1042 97.9111 94.5521 94.0181C95 90.1251 98.4968 87.3345 102.39 87.7824C106.283 88.2302 109.073 91.7271 108.626 95.6201Z" fill="#FCD9E7"/>
<path d="M147.435 95.6201C146.987 99.5131 143.491 102.304 139.598 101.856C135.705 101.408 132.914 97.9111 133.362 94.0181C133.81 90.1251 137.306 87.3345 141.2 87.7824C145.093 88.2302 147.883 91.7271 147.435 95.6201Z" fill="#FCD9E7"/>
<path d="M117.514 101.46C118.1 102.855 119.771 103.785 121.114 104.25C123.612 105.094 126.609 104.922 128.504 102.906C129.055 102.321 129.606 101.563 129.779 100.77C130.02 99.6336 128.28 99.1513 128.039 100.288C128.022 100.409 127.97 100.512 127.936 100.615C128.022 100.357 127.832 100.822 127.781 100.908C127.539 101.339 127.402 101.511 127.005 101.873C126.127 102.7 124.835 103.01 123.577 102.924C122.32 102.838 120.787 102.372 119.908 101.597C119.753 101.46 119.598 101.304 119.461 101.149C119.426 101.115 119.237 100.874 119.392 101.081C119.357 101.029 119.305 100.96 119.271 100.908C119.202 100.805 119.116 100.684 119.064 100.564C118.875 100.116 118.22 100.013 117.841 100.236C117.376 100.512 117.325 101.012 117.514 101.46Z" fill="#0C0C0C"/>
<path d="M82.4425 77.0678C82.4425 77.0678 98.6691 79.5138 115.585 68.7477C132.5 57.9817 133.31 54.3298 133.31 54.3298C133.31 54.3298 137.651 71.6417 156.513 73.6915C175.375 75.7414 143.077 46.871 135.05 44.3044C127.023 41.7378 101.27 46.871 94.5005 55.0705C87.7308 63.27 78.4978 71.211 82.4425 77.0678Z" fill="#0A2533"/>
<path d="M115.051 264.639C137.41 296.455 194.479 292.803 215.029 280.453C246.449 261.573 256.423 212.876 234.098 181.043L115.068 264.622L115.051 264.639Z" fill="#E3D5F8"/>
<path d="M189.401 243.946C222.271 220.861 242.278 192.694 234.087 181.031C225.897 169.369 192.611 178.628 159.741 201.712C126.871 224.796 106.864 252.964 115.055 264.626C123.245 276.289 156.531 267.03 189.401 243.946Z" fill="#FCD9E7" stroke="#0A2533" stroke-width="2.15032" stroke-miterlimit="10"/>
<path d="M115.051 264.639C137.41 296.455 194.479 292.803 215.029 280.453C246.449 261.573 256.423 212.876 234.098 181.043" stroke="#0A2533" stroke-width="2.15032" stroke-miterlimit="10"/>
<path d="M226.208 275.802C225.967 277.335 221.557 277.903 216.355 277.076C211.153 276.25 207.157 274.32 207.398 272.787C207.639 271.254 212.049 270.686 217.251 271.512C222.453 272.339 226.449 274.269 226.208 275.802Z" fill="white" stroke="#0A2533" stroke-width="2.15032" stroke-miterlimit="10"/>
<path d="M221.351 281.297C221.11 282.83 216.7 283.398 211.498 282.571C206.295 281.745 202.299 279.815 202.54 278.282C202.781 276.749 207.191 276.181 212.393 277.007C217.596 277.834 221.592 279.764 221.351 281.297Z" fill="white" stroke="#0A2533" stroke-width="2.15032" stroke-miterlimit="10"/>
<path d="M211.584 284.897C211.411 286.447 207.036 287.222 201.8 286.637C196.58 286.051 192.48 284.329 192.653 282.778C192.825 281.228 197.2 280.453 202.437 281.038C207.656 281.624 211.756 283.347 211.584 284.897Z" fill="white" stroke="#0A2533" stroke-width="2.15032" stroke-miterlimit="10"/>
<path d="M232.392 268.171C232.272 269.256 229.809 269.876 226.897 269.549C223.986 269.221 221.712 268.067 221.85 266.982C221.988 265.897 224.434 265.277 227.345 265.604C230.256 265.931 232.53 267.085 232.392 268.171Z" fill="white" stroke="#0A2533" stroke-width="2.15032" stroke-miterlimit="10"/>
<path d="M198.217 287.86C198.096 288.945 195.633 289.565 192.722 289.238C189.81 288.91 187.537 287.756 187.674 286.671C187.812 285.586 190.258 284.966 193.169 285.293C196.081 285.62 198.354 286.774 198.217 287.86Z" fill="white" stroke="#0A2533" stroke-width="2.15032" stroke-miterlimit="10"/>
<path d="M234.236 195.495C230.239 190.414 223.246 189.518 217.027 191.327C206.278 194.479 204.142 208.931 204.142 208.931C204.142 208.931 189.862 194.066 175.238 208.931C161.629 222.764 171.81 233.099 173.274 234.46C171.655 233.03 159.114 222.419 152.844 232.961C146.143 244.227 156.272 253.029 156.272 253.029C156.272 253.029 145.506 250.463 138.581 260.454C136.273 263.795 135.929 266.586 136.514 268.842C150.915 266.19 170.208 257.456 189.397 243.986C212.376 227.845 229.051 209.224 234.219 195.495H234.236Z" fill="#FDE084" stroke="#0A2533" stroke-width="2.15032" stroke-miterlimit="10"/>
<path d="M216.183 221.299C216.924 220.524 217.647 219.766 218.336 219.008C214.753 216.149 207.915 212.118 201.369 211.55C197.7 211.239 194.617 212.049 192.171 213.978C192.136 213.944 192.084 213.909 192.05 213.858L189.879 216.132C189.879 216.132 189.948 216.2 190 216.235C183.558 224.934 190.655 239.714 191.912 242.16C192.773 241.522 193.635 240.902 194.479 240.265C193.204 237.647 189.104 228.362 190.93 221.489C191.481 227.328 195.03 235.132 196.718 238.559C197.579 237.905 198.423 237.233 199.268 236.561C196.356 230.515 194.065 223.745 193.945 220.111C198.889 225.054 202.816 229.361 205.004 231.807C205.796 231.118 206.588 230.429 207.364 229.74C205.09 227.19 200.956 222.643 195.753 217.458C196.046 217.458 196.374 217.458 196.77 217.458C200.732 217.768 207.725 220.679 212.394 225.037C213.151 224.297 213.892 223.573 214.616 222.832C210.24 218.733 203.953 215.615 199.095 214.633C199.733 214.598 200.387 214.598 201.076 214.65C206.744 215.132 212.996 218.836 216.149 221.265L216.183 221.299Z" fill="#AE89F0" stroke="#0A2533" stroke-width="0.860129" stroke-miterlimit="10"/>
<path d="M194.875 215.132C188.553 207.45 182.231 199.767 175.909 192.102C165.832 179.871 155.755 167.624 145.678 155.394C143.37 152.586 141.062 149.778 138.754 146.97C137.737 145.73 136.066 145.248 134.654 146.178C133.414 146.987 132.862 149.054 133.861 150.277C140.183 157.96 146.505 165.643 152.827 173.308C162.904 185.539 172.981 197.786 183.058 210.016C185.366 212.824 187.675 215.632 189.983 218.44C190.999 219.68 192.67 220.162 194.083 219.232C195.323 218.423 195.874 216.355 194.875 215.132Z" fill="#AE89F0" stroke="#0A2533" stroke-width="2.15032" stroke-miterlimit="10"/>
<path d="M189.414 243.968C192.877 241.539 196.184 239.041 199.354 236.526C194.065 235.596 182.421 234.614 175.255 241.866C170.862 246.311 169.656 251.702 169.605 256.233C176.082 252.753 182.765 248.653 189.414 243.968Z" fill="#FDE084" stroke="#0A2533" stroke-width="2.15032" stroke-miterlimit="10"/>
<path d="M210.189 217.165C203.057 220.024 202.058 229.585 202.006 234.356C209.93 227.81 216.752 221.092 222.143 214.667C220.076 214.512 216.183 214.753 210.189 217.165Z" fill="#FDE084" stroke="#0A2533" stroke-width="2.15032" stroke-miterlimit="10"/>
<path d="M57.1207 222.229C57.1207 222.229 86.3011 220.92 94.6211 218.922C102.924 216.924 108.936 215.012 108.936 215.012L126.179 243.538C126.179 243.538 102.752 262.882 75.9484 271.736C75.9484 271.736 49.9892 279.746 35.0889 276.766C20.1887 273.786 7.26936 268.618 3.73808 256.853C0.189577 245.071 -0.654486 219.835 18.914 198.199C38.4824 176.564 54.0889 212.049 57.1379 222.247L57.1207 222.229Z" fill="#B3EDEE"/>
<path d="M112.381 234.615L104.061 220.49C104.061 220.49 100.909 217.768 105.68 216.114C110.452 214.461 116.291 211.859 116.291 211.859C116.291 211.859 118.444 210.516 120.701 213.754C122.958 216.993 134.723 232.72 134.723 232.72C134.723 232.72 136.859 236.389 134.723 237.629C132.587 238.869 121.235 247.413 121.235 247.413C121.235 247.413 120.081 248.275 118.1 244.692C116.102 241.109 112.381 234.615 112.381 234.615Z" fill="white"/>
<path d="M121.855 215.098C121.855 215.098 116.98 211.791 120.408 209.534C123.836 207.278 140.338 194.789 145.592 190.207C150.846 185.642 163.438 174.583 163.438 174.583C163.438 174.583 168.399 170.018 169.846 170.173C171.31 170.311 171.103 173.033 169.846 174.755C168.588 176.478 167.951 178.39 167.951 178.39C167.951 178.39 172.981 171.896 174.928 171.93C176.874 171.948 175.324 175.531 174.307 177.322C173.291 179.114 171.965 183.179 171.965 183.179C171.965 183.179 179.372 174.583 181.163 175.531C182.955 176.478 176.943 185.367 176.943 185.367C176.943 185.367 182.3 180.371 184.212 180.647C186.124 180.922 180.819 187.899 173.171 197.648C165.522 207.398 143.577 229.861 143.577 229.861L138.977 233.392C138.977 233.392 136.79 236.131 135.171 233.392C133.551 230.653 123.009 216.373 121.872 215.081L121.855 215.098Z" fill="white"/>
<path d="M54.5368 222.178C54.5368 222.178 97.7734 223.883 120.408 209.534C143.043 195.185 167.641 168.52 170.38 170.242C173.119 171.947 162.353 185.28 162.353 185.28C162.353 185.28 173.808 170.242 175.858 171.947C177.908 173.653 166.969 188.691 166.969 188.691C166.969 188.691 179.889 173.653 181.801 175.703C183.713 177.753 170.397 193.807 170.397 193.807C170.397 193.807 182.352 178.769 184.746 180.819C187.141 182.869 153.516 222.161 131.708 239.593C109.9 257.025 57.9647 290.168 18.6728 272.064C-19.4305 254.51 4.78888 180.715 87.7653 150.398" stroke="#0A2533" stroke-width="2.15032" stroke-miterlimit="10"/>
<path d="M118.1 210.912C118.1 210.912 130.123 223.452 136.394 235.7" stroke="#0A2533" stroke-width="2.15032" stroke-miterlimit="10"/>
<path d="M102.063 217.165C102.063 217.165 116.239 240.73 119.977 248.292" stroke="#0A2533" stroke-width="2.15032" stroke-miterlimit="10"/>
<path d="M151.656 148.71C151.656 148.71 191.86 158.684 205.09 178.683" stroke="#0A2533" stroke-width="2.15032" stroke-miterlimit="10"/>
<path d="M1.06796 295.387L264.708 292.7" stroke="#0A2533" stroke-width="2.15032" stroke-miterlimit="10"/>
<path d="M56.0871 324.395C67.0562 324.395 75.9484 316.367 75.9484 306.463C75.9484 296.56 67.0562 288.531 56.0871 288.531C45.118 288.531 36.2258 296.56 36.2258 306.463C36.2258 316.367 45.118 324.395 56.0871 324.395Z" fill="#F76A59" stroke="#0A2533" stroke-width="2.15032" stroke-miterlimit="10"/>
<path d="M52.0907 294.663C52.0907 294.663 43.564 302.208 47.1986 304.947C50.0925 307.118 57 298.642 57 298.642C57 298.642 58.6882 308.117 62.4434 306.239C66.1986 304.361 62.2022 296.903 62.2022 296.903C62.2022 296.903 71.3146 300.262 73.2095 295.99C75.0871 291.718 65.0272 291.597 65.0272 291.597C65.0272 291.597 72.3482 287.894 69.3164 283.587C66.9221 280.176 56.5866 290.839 56.5866 290.839C56.5866 290.839 42.0481 282.14 40.8595 287.876C39.7054 293.509 52.0735 294.681 52.0735 294.681L52.0907 294.663Z" fill="#46B7A1" stroke="#0A2533" stroke-width="2.15032" stroke-miterlimit="10"/>
<path d="M58.7743 292.045C58.0336 288.927 57.2757 285.81 56.535 282.692C56.4316 282.261 56.3282 281.813 56.2249 281.383C56.001 280.47 54.8468 279.798 53.8477 280.056C52.797 280.332 52.1768 281.228 52.4008 282.209L54.6401 291.563C54.7435 291.994 54.8468 292.442 54.9502 292.872C55.1741 293.785 56.3282 294.457 57.3273 294.199C58.3781 293.923 58.9982 293.027 58.7743 292.045Z" fill="#46B7A1" stroke="#0A2533" stroke-width="1.29019" stroke-miterlimit="10"/>
<path d="M119.674 326.217C125.08 318.88 122.881 308.082 114.762 302.101C106.643 296.12 95.6788 297.219 90.2729 304.557C84.8671 311.894 87.0665 322.692 95.1854 328.673C103.304 334.654 114.268 333.555 119.674 326.217Z" fill="#F76A59" stroke="#0A2533" stroke-width="2.15032" stroke-miterlimit="10"/>
<path d="M112.743 302.139C112.743 302.139 103.182 297.867 102.269 301.95C101.546 305.205 111.278 307.772 111.278 307.772C111.278 307.772 103.992 312.785 106.989 315.214C109.987 317.642 114.724 311.476 114.724 311.476C114.724 311.476 115.378 320.399 119.667 320.347C123.957 320.295 120.253 311.82 120.253 311.82C120.253 311.82 126.144 316.557 128.608 312.371C130.554 309.064 117.704 304.465 117.704 304.465C117.704 304.465 119.461 288.979 114.207 290.167C109.039 291.339 112.76 302.139 112.76 302.139H112.743Z" fill="#46B7A1" stroke="#0A2533" stroke-width="2.15032" stroke-miterlimit="10"/>
<path d="M117.48 306.738C119.805 304.93 122.131 303.121 124.456 301.312C124.784 301.054 125.111 300.796 125.438 300.554C126.127 300.02 126.248 298.797 125.645 298.057C125.025 297.282 124.026 297.092 123.302 297.661C120.977 299.469 118.651 301.278 116.326 303.087C115.998 303.345 115.671 303.603 115.344 303.845C114.655 304.379 114.534 305.602 115.137 306.342C115.757 307.117 116.756 307.307 117.48 306.738Z" fill="#46B7A1" stroke="#0A2533" stroke-width="1.29019" stroke-miterlimit="10"/>
<path d="M172.688 339.261C172.688 339.261 161.543 345.79 150.26 332.974C147.246 329.563 145.144 324.602 145.144 324.602L148.727 316.695L155.652 319.779L158.752 313.371L164.489 310.804L167.813 315.404L172.688 309.65L176.529 311.821C176.529 311.821 185.762 331.303 172.688 339.244V339.261Z" fill="#FAE9EF" stroke="#0A2533" stroke-width="2.15032" stroke-miterlimit="10"/>
<path d="M152.327 327.978C152.706 328.443 153.085 328.926 153.464 329.391C153.567 329.494 153.671 329.563 153.808 329.615C153.929 329.684 154.067 329.718 154.222 329.701C154.377 329.701 154.515 329.684 154.635 329.615C154.773 329.563 154.876 329.494 154.98 329.391C155.169 329.184 155.307 328.908 155.29 328.633L155.255 328.34C155.204 328.151 155.118 327.996 154.98 327.858C154.601 327.393 154.222 326.91 153.843 326.445C153.74 326.342 153.636 326.273 153.498 326.221C153.378 326.152 153.24 326.118 153.085 326.135C152.93 326.135 152.792 326.152 152.672 326.221C152.534 326.273 152.43 326.342 152.327 326.445C152.138 326.652 152 326.928 152.017 327.203L152.051 327.496C152.103 327.685 152.189 327.84 152.327 327.978Z" fill="#C9727B"/>
<path d="M160.664 334.61C160.819 334.748 160.974 334.903 161.095 335.058L160.923 334.834C161.043 334.989 161.147 335.144 161.233 335.317C161.302 335.437 161.388 335.54 161.508 335.627C161.612 335.73 161.732 335.782 161.87 335.816C162.008 335.868 162.163 335.868 162.301 335.833C162.439 335.833 162.576 335.782 162.697 335.713L162.921 335.54C163.059 335.403 163.145 335.248 163.197 335.058L163.231 334.765C163.231 334.576 163.179 334.386 163.076 334.214C162.938 333.956 162.766 333.732 162.594 333.508C162.473 333.353 162.335 333.198 162.18 333.077C162.077 332.974 161.973 332.905 161.836 332.853C161.715 332.784 161.577 332.75 161.422 332.767C161.267 332.767 161.129 332.784 161.009 332.853C160.871 332.905 160.768 332.974 160.664 333.077L160.492 333.301C160.389 333.473 160.354 333.646 160.337 333.852L160.371 334.145C160.423 334.335 160.509 334.49 160.647 334.627L160.664 334.61Z" fill="#C9727B"/>
<path d="M160.595 324.688C160.768 325.033 160.923 325.377 161.095 325.722C161.164 325.842 161.25 325.946 161.371 326.032C161.474 326.135 161.595 326.187 161.732 326.221C161.87 326.273 162.025 326.273 162.163 326.238C162.301 326.238 162.439 326.187 162.559 326.118L162.783 325.946C162.921 325.808 163.007 325.653 163.059 325.463L163.093 325.17C163.093 324.981 163.042 324.791 162.938 324.619C162.766 324.275 162.611 323.93 162.439 323.586C162.37 323.465 162.284 323.362 162.163 323.276C162.06 323.172 161.939 323.121 161.801 323.086C161.663 323.034 161.508 323.034 161.371 323.069C161.233 323.069 161.095 323.12 160.974 323.189L160.751 323.362C160.613 323.499 160.527 323.655 160.475 323.844L160.44 324.137C160.44 324.326 160.492 324.516 160.595 324.688Z" fill="#C9727B"/>
<path d="M169.553 334.042C169.553 334.042 169.622 334.18 169.639 334.248L169.536 333.99C169.742 334.49 169.897 335.024 170.001 335.558C170.052 335.816 170.276 336.074 170.5 336.195C170.724 336.333 171.069 336.384 171.327 336.298C171.585 336.212 171.844 336.057 171.964 335.799L172.068 335.54C172.119 335.351 172.119 335.161 172.068 334.972C171.947 334.266 171.706 333.594 171.413 332.939C171.31 332.715 171 332.509 170.776 332.44C170.517 332.371 170.173 332.405 169.949 332.543C169.725 332.681 169.518 332.905 169.449 333.18L169.415 333.473C169.415 333.663 169.467 333.852 169.57 334.025L169.553 334.042Z" fill="#C9727B"/>
<path d="M172.119 326.566C172.119 326.669 172.119 326.773 172.119 326.876C172.137 327.065 172.171 327.255 172.206 327.444C172.274 327.72 172.395 327.996 172.516 328.254C172.585 328.375 172.671 328.478 172.791 328.564C172.895 328.667 173.015 328.719 173.153 328.753C173.291 328.805 173.446 328.805 173.584 328.771C173.721 328.771 173.859 328.719 173.98 328.65C174.204 328.495 174.41 328.288 174.479 328.013L174.514 327.72C174.514 327.53 174.462 327.341 174.359 327.169C174.324 327.117 174.307 327.065 174.273 326.996L174.376 327.255C174.29 327.065 174.238 326.859 174.204 326.635L174.238 326.928C174.238 326.807 174.221 326.686 174.221 326.566C174.221 326.411 174.204 326.273 174.135 326.152C174.083 326.015 174.014 325.911 173.911 325.808C173.808 325.705 173.704 325.636 173.566 325.584C173.446 325.515 173.308 325.481 173.153 325.498L172.86 325.532C172.671 325.584 172.516 325.67 172.378 325.808C172.188 326.015 172.068 326.273 172.068 326.566H172.119Z" fill="#C9727B"/>
<path d="M168.95 319.296C169.088 319.813 169.225 320.313 169.381 320.829C169.449 321.088 169.639 321.329 169.88 321.467C170.001 321.553 170.138 321.587 170.276 321.587C170.414 321.622 170.569 321.605 170.707 321.57C170.965 321.484 171.224 321.329 171.344 321.071C171.465 320.812 171.534 320.519 171.448 320.244C171.31 319.727 171.172 319.227 171.017 318.711C170.948 318.452 170.759 318.211 170.517 318.073C170.397 317.987 170.259 317.953 170.121 317.953C169.983 317.918 169.828 317.935 169.691 317.97C169.432 318.056 169.174 318.211 169.053 318.47C168.933 318.728 168.864 319.021 168.95 319.296Z" fill="#C9727B"/>
<path d="M174.204 321.984C174.29 322.242 174.376 322.501 174.462 322.759C174.497 322.897 174.566 323.017 174.652 323.121C174.721 323.241 174.824 323.328 174.962 323.396C175.082 323.483 175.22 323.517 175.358 323.517C175.496 323.551 175.651 323.534 175.789 323.5L176.047 323.396C176.202 323.293 176.34 323.173 176.426 323.017L176.529 322.759C176.581 322.57 176.581 322.38 176.529 322.191C176.443 321.932 176.357 321.674 176.271 321.415C176.236 321.278 176.168 321.157 176.081 321.054C176.012 320.933 175.909 320.847 175.771 320.778C175.651 320.692 175.513 320.658 175.375 320.658C175.237 320.623 175.082 320.64 174.944 320.675L174.686 320.778C174.531 320.881 174.393 321.002 174.307 321.157L174.204 321.415C174.152 321.605 174.152 321.794 174.204 321.984Z" fill="#C9727B"/>
<path d="M165.763 327.875C165.849 328.133 165.935 328.392 166.022 328.65C166.056 328.788 166.125 328.908 166.211 329.012C166.28 329.132 166.383 329.218 166.521 329.287C166.642 329.374 166.78 329.408 166.917 329.408C167.055 329.442 167.21 329.425 167.348 329.391L167.606 329.287C167.761 329.184 167.899 329.063 167.985 328.908L168.089 328.65C168.14 328.461 168.14 328.271 168.089 328.082C168.003 327.823 167.916 327.565 167.83 327.306C167.796 327.169 167.727 327.048 167.641 326.945C167.572 326.824 167.469 326.738 167.331 326.669C167.21 326.583 167.072 326.549 166.935 326.549C166.797 326.514 166.642 326.531 166.504 326.566L166.246 326.669C166.091 326.772 165.953 326.893 165.867 327.048L165.763 327.306C165.712 327.496 165.712 327.685 165.763 327.875Z" fill="#C9727B"/>
<path d="M197.028 298.729C197.028 298.729 221.713 298.333 223.849 312.234C225.554 323.345 212.566 329.15 208.983 330.683C205.4 332.216 196.218 334.3 195.392 333.508C194.565 332.733 190.965 326.583 190.965 326.583L186.434 322.104L187.967 313.095L185.401 306.481L190.965 300.796C190.965 300.796 193.101 298.574 197.028 298.746V298.729Z" fill="#FAE9EF" stroke="#0A2533" stroke-width="2.15032" stroke-miterlimit="10"/>
<path d="M196.46 333.68L204.142 321.708L199.526 314.611C199.526 314.611 204.556 308.393 205.073 306.464C205.589 304.534 195.409 298.798 195.409 298.798" fill="#FAE9EF"/>
<path d="M196.46 333.68L204.142 321.708L199.526 314.611C199.526 314.611 204.556 308.393 205.073 306.464C205.589 304.534 195.409 298.798 195.409 298.798" stroke="#0A2533" stroke-width="2.15032" stroke-miterlimit="10"/>
<path d="M208.518 327.324C209.138 326.979 209.775 326.635 210.395 326.29C210.636 326.169 210.826 325.894 210.895 325.653C210.964 325.412 210.929 325.05 210.791 324.826C210.654 324.602 210.43 324.395 210.154 324.326C209.878 324.257 209.586 324.292 209.327 324.43C208.707 324.774 208.07 325.119 207.45 325.463C207.208 325.584 207.019 325.859 206.95 326.101C206.881 326.342 206.916 326.703 207.053 326.927C207.191 327.151 207.415 327.358 207.691 327.427C207.966 327.496 208.259 327.461 208.518 327.324Z" fill="#C9727B"/>
<path d="M216.889 319.142C217.113 319.021 217.337 318.918 217.578 318.797C217.699 318.728 217.802 318.642 217.888 318.521C217.992 318.418 218.044 318.297 218.078 318.16C218.13 318.022 218.13 317.867 218.095 317.729C218.095 317.591 218.044 317.453 217.975 317.333L217.802 317.109C217.665 316.971 217.51 316.885 217.32 316.833L217.027 316.799C216.838 316.799 216.648 316.851 216.476 316.954C216.252 317.074 216.028 317.178 215.787 317.298C215.666 317.367 215.563 317.453 215.477 317.574C215.374 317.677 215.322 317.798 215.287 317.936C215.236 318.074 215.236 318.229 215.27 318.366C215.27 318.504 215.322 318.642 215.391 318.763L215.563 318.987C215.701 319.124 215.856 319.21 216.045 319.262L216.338 319.297C216.528 319.297 216.717 319.245 216.889 319.142Z" fill="#C9727B"/>
<path d="M207.76 315.352C208.432 315.111 209.121 314.87 209.792 314.646C210.068 314.56 210.292 314.405 210.43 314.146C210.568 313.922 210.619 313.578 210.533 313.319C210.447 313.061 210.292 312.803 210.034 312.682C209.775 312.562 209.482 312.475 209.207 312.579C208.535 312.82 207.846 313.061 207.174 313.285C206.898 313.371 206.675 313.526 206.537 313.785C206.399 314.008 206.347 314.353 206.433 314.611C206.519 314.87 206.674 315.128 206.933 315.249C207.191 315.369 207.484 315.455 207.76 315.352Z" fill="#C9727B"/>
<path d="M218.509 312.579C218.956 312.458 219.422 312.355 219.869 312.234C220.007 312.2 220.128 312.131 220.231 312.045C220.352 311.976 220.438 311.873 220.507 311.735C220.593 311.614 220.627 311.476 220.627 311.339C220.662 311.201 220.645 311.046 220.61 310.908C220.524 310.65 220.369 310.391 220.111 310.271C219.852 310.15 219.577 310.098 219.284 310.167C218.836 310.288 218.371 310.391 217.923 310.512C217.785 310.546 217.665 310.615 217.561 310.701C217.441 310.77 217.354 310.873 217.286 311.011C217.199 311.132 217.165 311.27 217.165 311.407C217.131 311.545 217.148 311.7 217.182 311.838C217.268 312.096 217.423 312.355 217.682 312.475C217.94 312.596 218.216 312.648 218.509 312.579Z" fill="#C9727B"/>
<path d="M211.67 309.323C212.066 309.219 212.462 309.099 212.876 308.995C213.014 308.961 213.134 308.892 213.238 308.806C213.358 308.737 213.444 308.634 213.513 308.496C213.599 308.375 213.634 308.237 213.634 308.1C213.668 307.962 213.651 307.807 213.617 307.669C213.53 307.411 213.375 307.152 213.117 307.032C212.859 306.911 212.566 306.842 212.29 306.928C211.894 307.032 211.498 307.152 211.084 307.256C210.947 307.29 210.826 307.359 210.723 307.445C210.602 307.514 210.516 307.617 210.447 307.755C210.361 307.876 210.326 308.014 210.326 308.151C210.292 308.289 210.309 308.444 210.344 308.582C210.43 308.84 210.585 309.099 210.843 309.219C211.102 309.34 211.394 309.409 211.67 309.323Z" fill="#C9727B"/>
<path d="M210.395 320.347C210.516 320.295 210.619 320.227 210.74 320.175C210.86 320.106 210.964 320.02 211.05 319.899C211.153 319.796 211.205 319.675 211.239 319.538C211.291 319.4 211.291 319.245 211.256 319.107C211.256 318.969 211.205 318.831 211.136 318.711L210.964 318.487C210.826 318.349 210.671 318.263 210.481 318.211L210.188 318.177C209.999 318.177 209.809 318.228 209.637 318.332C209.517 318.383 209.413 318.452 209.293 318.504C209.172 318.573 209.069 318.659 208.983 318.78C208.879 318.883 208.828 319.004 208.793 319.141C208.742 319.279 208.742 319.434 208.776 319.572C208.776 319.71 208.828 319.848 208.897 319.968L209.069 320.192C209.207 320.33 209.362 320.416 209.551 320.468L209.844 320.502C210.033 320.502 210.223 320.45 210.395 320.347Z" fill="#C9727B"/>
<path d="M207.45 303.724H208.483C208.638 303.724 208.776 303.707 208.897 303.638C209.034 303.587 209.138 303.518 209.241 303.414C209.344 303.311 209.413 303.208 209.465 303.07C209.534 302.949 209.568 302.811 209.551 302.656L209.517 302.364C209.465 302.174 209.379 302.019 209.241 301.881L209.017 301.709C208.845 301.606 208.673 301.571 208.466 301.554H207.432C207.277 301.554 207.14 301.571 207.019 301.64C206.881 301.692 206.778 301.761 206.675 301.864C206.571 301.967 206.502 302.071 206.451 302.209C206.382 302.329 206.347 302.467 206.364 302.622L206.399 302.915C206.451 303.104 206.537 303.259 206.675 303.397L206.898 303.569C207.071 303.673 207.243 303.707 207.45 303.724Z" fill="#C9727B"/>
</g>
<defs>
<clipPath id="clip0_491_3982">
<rect width="264.369" height="341.54" fill="white" transform="scale(1.00135)"/>
</clipPath>
</defs>
</svg>
