<svg width="80" height="72" viewBox="0 0 80 72" fill="none" xmlns="http://www.w3.org/2000/svg">
<path d="M60.0062 69.9937C65.2287 67.8351 70.0333 64.0749 73.2365 60.3843C79.7123 52.864 80.7568 41.7923 78.5982 32.1134C77.4841 27.0301 75.5343 22.0166 72.4009 17.8386C64.4627 6.97585 50.6754 0.987409 37.3058 0.0821801C29.0195 -0.474884 19.9672 1.823 13.0039 6.27951C1.65375 13.6606 -3.42945 29.3977 2.48936 42.5583C7.92073 54.6048 16.7641 52.3765 26.5127 57.7383C34.5205 62.1252 39.3252 71.0382 49.3524 71.9434C52.9036 72.2219 56.5942 71.456 60.0062 69.9937Z" fill="#F4F4F4"/>
<path d="M2.55899 42.4887C7.99036 54.5352 16.8337 52.3069 26.5824 57.6687C34.5902 62.0556 39.3948 70.9686 49.422 71.8738C52.9036 72.1523 56.5245 71.3864 60.0062 69.9241C62.0952 69.0885 64.0449 67.9744 65.925 66.721C42.5979 65.5372 15.4411 47.5719 10.7061 32.8793C7.36367 22.4344 11.2631 11.9198 15.1626 4.88689C14.3966 5.30469 13.7003 5.72248 13.0039 6.14028C1.72339 13.591 -3.35982 29.3281 2.55899 42.4887Z" fill="#E3E3E3"/>
<path d="M55.1319 55.0922C63.6309 55.0922 70.5208 48.2024 70.5208 39.7033C70.5208 31.2043 63.6309 24.3144 55.1319 24.3144C46.6328 24.3144 39.743 31.2043 39.743 39.7033C39.743 48.2024 46.6328 55.0922 55.1319 55.0922Z" fill="#EBB64A"/>
<path d="M59.101 52.0283C50.6057 52.0283 43.7121 45.1347 43.7121 36.6394C43.7121 32.6007 45.3136 28.9102 47.89 26.1248C43.0854 28.7013 39.743 33.7845 39.743 39.7033C39.743 48.1985 46.6366 55.0922 55.1319 55.0922C59.5884 55.0922 63.5575 53.2121 66.3428 50.2179C64.1842 51.4016 61.6774 52.0283 59.101 52.0283Z" fill="#E3A63B"/>
<path d="M66.6213 40.6781C64.5323 42.2796 64.8108 37.4749 62.0951 33.9933C59.3794 30.5116 54.6444 29.6064 56.7334 28.0048C58.8224 26.4033 62.7218 27.8656 65.4375 31.3472C68.2228 34.8985 68.7103 39.0069 66.6213 40.6781Z" fill="white"/>
</svg>
