<svg width="40" height="40" viewBox="0 0 40 40" fill="none" xmlns="http://www.w3.org/2000/svg">
<circle cx="20" cy="20" r="15.9167" fill="#FF7A00" stroke="black" stroke-width="1.5" stroke-linecap="round" stroke-linejoin="round"/>
<path d="M22.8893 15.7695C21.7364 14.9781 20.7755 14.3186 19.9772 13.9031C19.1726 13.4844 18.2503 13.1567 17.2749 13.4381C16.854 13.5595 16.4599 13.7604 16.1148 14.0306C15.3079 14.6625 15.049 15.6089 14.9367 16.5013C14.8256 17.3842 14.8256 18.5369 14.8257 19.9141V20.0859C14.8256 21.463 14.8256 22.6158 14.9367 23.4987C15.049 24.3911 15.3079 25.3375 16.1148 25.9694C16.4599 26.2396 16.854 26.4405 17.2749 26.5619C18.2503 26.8433 19.1726 26.5156 19.9772 26.0969C20.7755 25.6814 21.7363 25.0219 22.8892 24.2306L23.0224 24.1392C23.9036 23.5344 24.6582 23.0166 25.2027 22.5363C25.7692 22.0366 26.2932 21.4229 26.4422 20.5749C26.5091 20.1945 26.5091 19.8055 26.4422 19.4251C26.2932 18.5771 25.7692 17.9634 25.2027 17.4637C24.6582 16.9834 23.9036 16.4655 23.0223 15.8608L22.8893 15.7695Z" fill="black"/>
</svg>
