<svg width="261" height="274" viewBox="0 0 261 274" fill="none" xmlns="http://www.w3.org/2000/svg">
<g clip-path="url(#clip0_455_3949)">
<path d="M0.62207 273.243C84.0235 272.449 177.599 272.436 261 273.243C177.599 274.049 84.0235 274.037 0.62207 273.243Z" fill="#606060"/>
<path d="M143.784 222.298C143.052 218.963 145.126 215.616 145.016 212.219C143.26 212.757 141.247 212.769 139.478 212.256C139.283 212.195 139.039 212.134 138.88 212.256C138.771 212.329 138.746 212.439 138.722 212.549C138.185 215.115 137.929 217.79 136.453 220.112C136.197 220.515 135.941 221.052 136.368 221.345" fill="#E89C82"/>
<path d="M167.047 229.959C161.448 230.276 156.849 230.533 151.25 230.85C149.53 230.948 147.737 231.034 146.187 230.325C145.333 229.934 144.492 229.299 143.565 229.494C142.845 229.641 142.357 230.252 141.71 230.569C141.137 230.85 140.478 230.875 139.832 230.899C137.868 230.985 135.916 231.058 133.952 231.144C133.306 231.168 132.598 231.18 132.098 230.789C131.512 230.337 131.464 229.531 131.476 228.81C131.549 226 132.037 223.19 132.915 220.503C133.11 219.892 133.415 219.208 134.062 219C134.66 218.817 135.294 219.11 135.843 219.391C138.087 220.515 141.027 221.272 143.04 219.819C143.565 219.44 143.992 218.927 144.602 218.682C145.272 218.401 146.041 218.499 146.761 218.609C152.994 219.55 159.093 221.26 164.851 223.679C166.156 224.229 167.51 224.864 168.303 225.976C169.096 227.088 169.072 228.822 167.889 229.58" fill="#00021C"/>
<path d="M48.233 70.6258C44.3661 65.3237 45.8055 57.5049 51.0997 55.0371C56.2474 60.1071 55.235 69.4164 49.2821 71.8597" fill="#6EA652"/>
<path d="M61.688 70.7602C56.8086 68.2679 50.6727 70.9312 49.8188 75.8913C49.7456 76.3189 49.709 76.8075 49.9652 77.2107C50.197 77.5894 50.5995 77.8093 51.0021 77.9926C55.1984 79.874 60.2486 77.7971 61.3342 73.7289" fill="#6EA652"/>
<path d="M41.2433 68.8301C44.3784 72.6417 44.5735 78.3348 41.6703 81.5356C41.4751 81.7555 41.2189 81.9754 40.8896 81.9266C40.548 81.8777 40.2796 81.5356 40.0967 81.218C37.7667 77.3697 38.0717 72.3852 40.8164 69.5142" fill="#6EA652"/>
<path d="M22.3355 119.127C22.8479 110.99 28.0932 104.613 33.2776 98.7856C35.9125 95.8169 38.584 92.8848 40.9017 89.6596C43.439 86.1289 45.5737 82.3172 47.2815 78.3223C49.2455 73.741 50.6483 68.9642 51.5144 64.053C51.6486 63.2833 50.4654 62.9413 50.3312 63.7231C48.7576 72.6415 45.3664 81.181 40.1576 88.5967C35.5831 95.0961 29.4107 100.337 25.1778 107.105C22.8844 110.758 21.3718 114.802 21.1035 119.127C21.0547 119.921 22.2867 119.909 22.3355 119.127Z" fill="#2D6E56"/>
<path d="M46.3545 79.8126C49.1967 78.6764 51.8072 77.0393 54.0518 74.938C54.6251 74.3883 53.759 73.5209 53.1857 74.0706C51.1119 76.0253 48.6844 77.5769 46.0373 78.6397C45.7323 78.7619 45.5128 79.0551 45.6104 79.3972C45.6957 79.6904 46.0617 79.9469 46.3667 79.8248L46.3545 79.8126Z" fill="#2D6E56"/>
<path d="M41.1214 75.989C39.2916 78.9088 40.0235 82.7449 42.0607 85.3593C42.268 85.6281 42.7072 85.567 42.9268 85.3593C43.1829 85.1028 43.1341 84.7485 42.9268 84.4919C41.219 82.3173 40.67 79.031 42.1826 76.612C42.5974 75.9401 41.5361 75.317 41.1214 75.989Z" fill="#2D6E56"/>
<path d="M47.6684 74.8194C49.0237 62.8321 46.7957 52.7371 42.6921 52.2718C38.5885 51.8064 34.1632 61.1469 32.8079 73.1343C31.4527 85.1217 33.6806 95.2166 37.7842 95.6819C41.8878 96.1473 46.3131 86.8068 47.6684 74.8194Z" fill="#C37134"/>
<path d="M36.1809 68.2315C37.1324 69.8074 39.1817 71.4445 41.0115 71.53C42.8413 71.6277 44.6955 70.7603 45.8056 69.2943C42.9389 69.9174 39.0476 69.331 36.3273 68.2192" fill="#F59052"/>
<path d="M35.4368 75.9277C36.4127 77.4793 38.4864 79.0919 40.3162 79.153C42.146 79.2263 43.9879 78.3223 45.0736 76.844C42.2192 77.5159 38.3156 76.9906 35.5832 75.9155" fill="#F59052"/>
<path d="M34.9001 83.6733C35.7053 85.0172 37.4618 86.4099 39.0111 86.4832C40.5603 86.5565 42.1461 85.8357 43.0854 84.5896C40.6457 85.1271 37.3277 84.6263 35.0099 83.6733" fill="#F59052"/>
<path d="M37.5105 61.1699C38.3156 62.5138 40.0722 63.9065 41.6214 63.9798C43.1706 64.0531 44.7564 63.3323 45.6957 62.0862C43.256 62.6237 39.938 62.1228 37.6203 61.1699" fill="#F59052"/>
<path d="M26.8245 57.9202L26.8001 53.3511L32.57 53.3145L32.5944 57.6392C32.5944 59.1297 33.2409 60.5468 34.3632 61.5364L36.1564 63.1246C37.8276 64.6028 38.8034 66.7286 38.8156 68.9643L39.023 104.857C39.023 105.859 38.2179 106.678 37.2176 106.69L22.7624 106.775C21.7621 106.775 20.9448 105.969 20.9326 104.967L20.7252 69.233C20.713 66.8996 21.7377 64.6884 23.5065 63.1857L24.9581 61.964C26.1414 60.9622 26.8245 59.484 26.8123 57.9324L26.8245 57.9202Z" fill="#F2E2C8"/>
<path d="M16.1143 77.919C15.0164 69.4894 8.28281 62.086 0 60.2168C3.57417 67.779 9.06352 74.425 15.8215 79.3484" fill="#6EA652"/>
<path d="M18.8345 78.8231C21.8475 69.5017 19.2004 58.5798 12.2595 51.6772C12.0399 60.5589 13.4183 69.4894 16.2972 77.8947" fill="#6EA652"/>
<path d="M18.7858 76.8438C22.7503 73.2765 24.2629 67.2291 22.4575 62.208C18.1636 66.5328 15.5044 72.4457 15.1018 78.5297" fill="#83BA63"/>
<path d="M17.5416 79.1898C18.1027 72.1773 14.9921 64.9816 9.50276 60.5835C8.95382 66.8385 10.9178 73.2768 14.8579 78.1636" fill="#83BA63"/>
<path d="M16.395 77.6992C17.627 75.4757 21.1768 75.7078 22.9578 77.5282C24.7266 79.3485 25.1779 82.0606 25.5073 84.5773C26.9711 95.9756 27.6298 107.472 28.2763 118.943C27.1175 119.371 26.1172 118.076 25.5683 116.964C20.2375 106.164 15.8582 94.8883 12.4792 83.3312C12.1499 82.2194 11.8327 81.0222 12.1499 79.8982C12.467 78.7743 13.6991 77.8336 14.7848 78.2612" fill="#FF9B4B"/>
<path d="M16.2486 81.0586C15.1019 81.3763 13.9431 81.6939 12.7964 81.9993C12.3573 82.1215 12.0523 82.6224 12.1865 83.0622C12.3207 83.502 12.7842 83.7952 13.2477 83.673C14.3944 83.3554 15.5533 83.0378 16.6999 82.7323C17.1391 82.6102 17.444 82.1093 17.3099 81.6695C17.1757 81.2297 16.7121 80.9365 16.2486 81.0586Z" fill="#E0853D"/>
<path d="M24.4583 84.113C23.397 84.4185 22.3358 84.7239 21.2745 85.0415C20.8353 85.1637 20.5182 85.6646 20.6646 86.1044C20.8109 86.5442 21.2623 86.8496 21.7258 86.7152C22.7871 86.4098 23.8484 86.1044 24.9097 85.7868C25.3488 85.6646 25.666 85.1637 25.5196 84.7239C25.3732 84.2841 24.9219 83.9787 24.4583 84.113Z" fill="#E0853D"/>
<path d="M17.9319 90.2704C17.1146 90.4659 16.3095 90.7224 15.5288 91.0279C15.3092 91.1134 15.1384 91.2233 15.0164 91.431C14.9066 91.6143 14.8579 91.8953 14.931 92.103C15.0042 92.3106 15.1262 92.5183 15.3336 92.6161C15.541 92.7138 15.7849 92.7871 16.0045 92.7016C16.7852 92.3962 17.5903 92.1396 18.4076 91.9441C18.8468 91.8342 19.1517 91.3089 19.0176 90.8813C18.8712 90.417 18.4198 90.1605 17.9563 90.2704H17.9319Z" fill="#E0853D"/>
<path d="M25.7878 93.7033C24.9949 93.9721 24.1898 94.2287 23.3969 94.4974C23.1774 94.5707 22.9944 94.6929 22.8846 94.9006C22.7748 95.0838 22.726 95.3648 22.7992 95.5725C22.9334 96.0001 23.4091 96.33 23.8605 96.1834C24.6534 95.9146 25.4585 95.658 26.2514 95.3893C26.471 95.316 26.6539 95.1938 26.7637 94.9861C26.8735 94.8028 26.9223 94.5219 26.8491 94.3142C26.7149 93.8866 26.2392 93.5567 25.7878 93.7033Z" fill="#E0853D"/>
<path d="M20.9207 100.716C20.3595 100.814 19.7984 100.911 19.2373 101.009C19.0299 101.046 18.8225 101.241 18.7249 101.412C18.6151 101.596 18.5663 101.877 18.6395 102.084C18.7127 102.292 18.8347 102.5 19.0421 102.597L19.2495 102.683C19.408 102.72 19.5544 102.72 19.713 102.683C20.2741 102.585 20.8353 102.487 21.3964 102.39C21.6038 102.353 21.8112 102.158 21.9087 101.987C22.0185 101.803 22.0673 101.522 21.9941 101.315C21.9209 101.107 21.799 100.899 21.5916 100.801L21.3842 100.716C21.2256 100.679 21.0792 100.679 20.9207 100.716Z" fill="#E0853D"/>
<path d="M26.6417 103.746C26.1416 103.941 25.6293 104.076 25.1047 104.149L25.3365 104.112C25.2633 104.112 25.1779 104.137 25.1047 104.137C24.9827 104.137 24.873 104.161 24.7754 104.21C24.6656 104.247 24.5802 104.308 24.4948 104.393C24.3484 104.54 24.2264 104.796 24.2386 105.004C24.2508 105.212 24.324 105.456 24.4948 105.615C24.6534 105.762 24.8852 105.896 25.1047 105.872C25.7878 105.798 26.4588 105.664 27.1053 105.407C27.2151 105.383 27.3127 105.334 27.3981 105.248C27.4956 105.187 27.5688 105.102 27.6176 105.004C27.7274 104.821 27.7762 104.54 27.703 104.332C27.6298 104.124 27.5078 103.917 27.3005 103.819C27.0931 103.721 26.8491 103.648 26.6295 103.734L26.6417 103.746Z" fill="#E0853D"/>
<path d="M18.798 75.317C18.4198 75.5857 18.0295 75.8178 17.6147 76.0377C17.2 76.2576 16.9438 76.3554 16.4559 76.5142C16.0167 76.6608 15.5654 76.7708 15.114 76.8441C15.114 76.8441 14.8334 76.8807 14.9798 76.8685C14.8578 76.8807 14.7359 76.8929 14.6139 76.9051C14.3699 76.9296 14.1259 76.9418 13.882 76.9418C13.4306 76.9418 12.9915 77.3327 13.0159 77.8092C13.0403 78.2856 13.394 78.6888 13.882 78.6766C15.9435 78.6522 17.9929 78.0169 19.6763 76.8196C20.0422 76.5631 20.2496 76.05 19.9812 75.6346C19.7495 75.2681 19.1883 75.0482 18.798 75.3292V75.317Z" fill="#E0853D"/>
<path d="M69.178 116.036H11.7229V158.697H69.178V116.036Z" fill="#EDC2AF"/>
<path d="M61.1269 75.8423H1.37842V116.451H61.1269V75.8423Z" fill="#D2AB94"/>
<path d="M20.6764 75.5492C24.1286 87.1186 27.7516 98.6513 31.4111 110.16C35.0829 121.668 38.8035 133.164 42.4874 144.672C44.5246 151.037 46.5495 157.402 48.5379 163.779C48.7697 164.525 49.9529 164.207 49.7089 163.45C46.147 152.027 42.4752 140.641 38.8157 129.255C35.1561 117.868 31.3989 106.189 27.7882 94.6319C25.7754 88.1692 23.787 81.7065 21.8475 75.2315C21.6279 74.4741 20.4446 74.8039 20.6764 75.5614V75.5492Z" fill="#00021C"/>
<path d="M31.8382 164.036C34.4243 152.503 36.9494 140.946 39.4623 129.401C41.9752 117.856 44.4027 106.568 46.9034 95.1695C48.3306 88.6335 49.7822 82.0975 51.246 75.5615C51.4168 74.7918 50.2458 74.4742 50.075 75.2316C47.4889 86.7643 44.9638 98.3215 42.4509 109.866C39.9746 121.277 37.5105 132.7 35.0098 144.098C33.5826 150.634 32.1309 157.17 30.6671 163.706C30.4963 164.476 31.6674 164.794 31.8382 164.036Z" fill="#00021C"/>
<path d="M77.3144 158.697H7.79492V163.584H77.3144V158.697Z" fill="#2A232D"/>
<path d="M48.9372 181.97L26.7261 159.726L24.4144 162.041L46.6255 184.285L48.9372 181.97Z" fill="#2A232D"/>
<path d="M190.98 229.286H86.4146V241.943H190.98V229.286Z" fill="#00021C"/>
<path d="M31.7652 228.089C29.2157 198.427 45.6105 181.616 55.5157 172.6C63.9449 164.928 76.4606 159.65 82.0719 158.282C100.846 153.676 109.555 155.497 126.499 157.769C117.558 167.994 113.361 171.293 108.372 183.595C103.651 195.226 102.236 201.75 105.054 212.488C107.604 222.201 116.033 225.194 121.656 225.536C147.444 227.075 156.141 223.972 171.194 209.935C185.357 196.729 191.481 175.288 190.822 155.924C190.212 137.831 184.357 120.361 177.05 103.758C175.989 101.351 177.184 98.5416 179.66 97.6497C180.173 97.4665 180.953 97.1977 182.21 96.7212C184.43 95.8905 186.931 95.1941 189.09 96.1715C190.639 96.8678 191.7 98.3094 192.652 99.7144C206.058 119.665 218.208 157.573 216.402 181.543C214.597 205.512 209.144 212.855 201.849 235.761C157.679 238.889 101.943 237.741 36.4494 237.166" fill="#38303B"/>
<path d="M33.2654 210.668L82.8524 237.618C88.8053 237.68 94.6728 237.728 100.431 237.765C100.638 235.297 100.857 232.829 101.065 230.374C101.687 223.154 102.297 215.848 101.162 208.689C100.028 201.53 97.1247 193.784 91.5134 189.203C86.6706 185.257 78.0828 181.946 71.8494 181.531C61.4074 180.834 53.2832 182.252 43.8415 186.161C39.2061 192.563 35.0952 200.614 33.2654 210.68V210.668Z" fill="#2A232D"/>
<path d="M208.998 166.052C208.29 181.69 204.631 197.401 196.641 210.864L208.412 216.911C212.328 206.148 215.17 197.559 216.366 181.555C217.525 166.076 212.877 144.795 205.826 126.286C208.119 139.431 209.583 152.748 208.986 166.064L208.998 166.052Z" fill="#2A232D"/>
<path d="M77.0705 164.598C84.0847 166.479 91.2453 167.872 98.4546 168.752C101.846 169.167 105.359 169.509 108.323 171.207C110.007 172.172 111.458 173.724 112.227 175.483C115.886 169.082 119.9 165.307 126.487 157.757C109.543 155.484 100.821 153.664 82.0597 158.27C79.5712 158.881 75.7043 160.261 71.447 162.289C73.0694 163.425 75.1188 164.073 77.0583 164.598H77.0705Z" fill="#2A232D"/>
<path d="M215.109 111.247C220.123 111.443 224.929 106.849 224.709 101.84C224.551 98.175 221.562 94.8398 218.073 93.7525C216.878 93.3371 215.573 93.215 214.28 93.3738C216.841 92.5186 219.744 93.2638 221.928 94.8154C230.138 100.484 224.49 112.762 215.109 111.259V111.247Z" fill="#2A232D"/>
<path d="M198.69 119.335C198.91 116.952 200.337 114.729 202.386 113.519C204.436 112.31 207.083 112.151 209.266 113.116C210.571 113.691 211.694 114.619 212.999 115.193C215.024 116.085 216.744 116.415 218.72 115.425C219.025 115.279 219.33 115.095 219.513 114.814C219.745 114.46 220.086 113.519 220.086 113.092C220.086 106.837 220.147 100.68 219.525 94.4612C219.391 93.1173 219.732 91.7368 218.94 90.6495C218.366 89.8676 217.525 89.3179 216.622 88.9514C214.255 87.9984 210.913 88.255 208.79 89.6722C205.424 91.8956 204.143 96.3548 200.91 98.7493C197.531 101.254 194.811 102.146 190.029 96.7824C188.565 95.1453 184.32 99.0303 182.271 99.8244" fill="#38303B"/>
<path d="M220.05 104.931C217.512 106.788 214.304 107.729 211.169 107.484C209.461 107.35 207.754 106.898 206.046 107.081C203.899 107.326 202.008 108.56 200.203 109.769C199.898 109.977 199.568 110.209 199.446 110.563C199.312 110.979 199.519 111.418 199.715 111.797C200.178 112.701 200.63 113.593 201.093 114.497C201.483 114.13 201.91 113.801 202.374 113.52C204.423 112.31 207.07 112.151 209.254 113.116C210.559 113.691 211.681 114.619 212.987 115.193C215.012 116.085 216.732 116.415 218.708 115.425C219.013 115.279 219.318 115.096 219.501 114.815C219.732 114.46 220.074 113.52 220.074 113.092C220.074 110.355 220.074 107.643 220.037 104.943L220.05 104.931Z" fill="#2A232D"/>
<path d="M34.9855 227.967H21.7745C18.7615 227.967 16.3218 225.523 16.3218 222.506C16.3218 219.488 18.7615 217.045 21.7745 217.045H34.9855C37.9986 217.045 40.4383 219.488 40.4383 222.506C40.4383 225.523 37.9986 227.967 34.9855 227.967Z" fill="#00021C"/>
<path d="M77.9208 266.85C89.3667 256.55 90.3084 238.908 80.0241 227.445C69.7399 215.981 52.1241 215.038 40.6782 225.338C29.2323 235.638 28.2906 253.28 38.5749 264.743C48.8591 276.206 66.4749 277.149 77.9208 266.85Z" fill="#38303B"/>
<path d="M76.2898 246.085C76.2898 255.48 68.6901 263.091 59.3095 263.091C49.9288 263.091 42.3291 255.48 42.3291 246.085C42.3291 236.69 49.9288 229.079 59.3095 229.079C68.6901 229.079 76.2898 236.69 76.2898 246.085Z" fill="white"/>
<path d="M72.8303 248.284C74.0332 240.837 68.9808 233.824 61.5454 232.619C54.1101 231.415 47.1074 236.475 45.9044 243.921C44.7015 251.368 49.7539 258.381 57.1892 259.586C64.6246 260.79 71.6273 255.73 72.8303 248.284Z" fill="#2A232D"/>
<path d="M98.918 242.871C96.8809 253.097 23.592 251.509 23.592 240.208C23.592 223.459 31.8871 189.19 69.9343 189.19C105.932 189.19 102.321 225.817 98.918 242.871Z" fill="#F2E2C8"/>
<path d="M234.322 252.432C237.823 237.425 228.514 222.418 213.53 218.912C198.546 215.406 183.561 224.729 180.06 239.736C176.56 254.742 185.869 269.749 200.853 273.255C215.837 276.761 230.822 267.438 234.322 252.432Z" fill="#38303B"/>
<path d="M224.227 250.09C226.433 240.67 220.597 231.243 211.191 229.034C201.785 226.824 192.372 232.67 190.166 242.089C187.96 251.509 193.796 260.937 203.202 263.146C212.608 265.355 222.021 259.51 224.227 250.09Z" fill="white"/>
<path d="M221.245 246.085C221.245 253.855 214.963 260.147 207.205 260.147C199.446 260.147 193.164 253.855 193.164 246.085C193.164 238.315 199.446 232.023 207.205 232.023C214.963 232.023 221.245 238.315 221.245 246.085Z" fill="#2A232D"/>
<path d="M242.836 240.209C242.836 250.312 170.755 251.509 170.755 240.209C170.755 223.46 183.466 205.244 203.35 204.255C229.137 202.972 242.836 223.46 242.836 240.209Z" fill="#F2E2C8"/>
<path d="M29.5938 237.533C30.8502 223.459 36.5103 208.237 49.2212 200.76C51.0144 199.746 52.8686 198.867 54.8081 198.207C39.499 205.22 32.6434 221.908 29.5938 237.533Z" fill="#2A232D"/>
<path d="M38.2668 230.252C38.6694 222.25 42.8535 213.844 50.0262 209.898C43.927 215.298 40.4382 222.494 38.2668 230.252Z" fill="#2A232D"/>
<path d="M236.042 238.926C234.883 230.215 230.54 221.822 223.685 216.251C231.65 220.405 236.652 230.032 236.042 238.926Z" fill="#2A232D"/>
<path d="M229.747 240.099C228.759 235.236 227.283 230.484 224.014 226.709C228.503 229.152 230.54 235.224 229.747 240.099Z" fill="#2A232D"/>
<path d="M187.113 109.965C185.601 108.682 183.405 108.706 181.905 110.001C176.318 114.827 172.195 119.164 166.022 124.185C165.632 124.503 165.315 124.93 165.132 125.407C164.705 126.457 165.193 127.655 165.766 128.632C166.693 130.184 168.34 131.735 170.048 131.185C170.621 131.002 171.109 130.587 171.56 130.196C176.903 125.59 182.136 120.862 187.284 116.024C189.041 114.375 188.955 111.528 187.113 109.977V109.965Z" fill="#00021C"/>
<path d="M182.295 116.427C180.209 112.677 174.915 111.321 171.109 113.288C170.072 113.825 169.145 114.558 168.096 115.059C166.449 115.829 164.595 115.975 162.789 116.097C161.606 116.183 160.472 116.171 159.349 116.097C159.289 118.59 159.227 121.094 159.167 123.586C161.789 123.721 164.412 123.843 166.327 123.843C166.791 123.843 167.364 123.22 167.73 122.951C168.157 122.633 169.108 121.497 169.523 121.155C171.06 119.872 171.499 118.871 173.683 119.653C175.866 120.434 177.184 123.049 176.525 125.272C176.403 125.663 176.244 126.079 176.366 126.47C176.598 127.227 177.672 127.264 178.428 127.007C182.49 125.651 184.381 120.166 182.295 116.415V116.427Z" fill="#83BA63"/>
<path d="M128.316 221.749C128.78 219.44 129.439 217.155 130.305 214.932C130.366 214.785 130.427 214.626 130.573 214.516C130.756 214.37 131.024 214.345 131.281 214.321C133.586 214.101 135.892 213.942 138.209 213.832C137.514 217.265 137.112 220.747 137.026 224.241" fill="#F7B094"/>
<path d="M89.2811 152.296C84.3407 147.397 83.1086 132.932 88.5004 128.522C95.6731 122.645 107.652 126.127 114.154 127.703C124.535 130.208 138.405 132.675 149.92 135.925C157.617 138.1 163.009 140.58 166.547 144.856C171.243 150.537 168.474 157.94 164.839 168.129C158.386 186.185 153.275 198.085 145.834 215.176C145.504 215.933 144.748 216.434 143.918 216.447C141.662 216.483 139.82 216.556 137.295 216.251C136.441 216.153 135.465 215.982 134.989 215.262C134.525 214.553 134.769 213.637 134.952 212.818C139.649 190.449 138.368 177.951 147.273 160.921C130.463 161.507 115.41 159.858 99.3449 154.849" fill="#408463"/>
<path d="M181.905 116.611C182.027 116.989 181.588 116.049 181.209 116.122C172.219 117.845 168.498 117.881 160.911 118.235C154.421 118.529 145.089 117.112 140.381 116.098C136.002 115.145 129.707 112.811 126.499 107.656C120.9 98.6396 116.277 91.6882 111.897 82.0125C108.921 75.4276 105.847 69.7467 107.579 62.5021C107.982 60.804 110.043 58.1529 112.751 56.2227C117.057 53.1562 122.242 55.0621 125.474 57.6398C129.817 61.0972 131.281 66.8513 132.647 70.7485C135.55 78.9827 136.892 85.9463 139.795 94.1805C141.088 97.8455 142.601 101.792 145.943 103.759C147.859 104.882 150.127 105.188 152.323 105.481C161.216 106.642 169.792 106.874 178.672 108.01C178.928 108.047 179.136 108.218 179.221 108.462L181.892 116.611H181.905Z" fill="#EA8F18"/>
<path d="M139.954 102.329C141.344 102.28 142.613 102.329 143.992 102.268L139.954 102.329Z" fill="#EA8F18"/>
<path d="M143.369 101.95C140.832 99.4335 140.295 95.6951 139.246 92.2744L143.369 101.95Z" fill="#EA8F18"/>
<path d="M82.3889 138.943C83.5356 119.078 87.5245 112.799 86.7926 92.9098C86.4144 82.5499 84.2309 72.8741 87.5611 64.1391C90.1716 57.2854 97.6859 50.7616 105.237 50.8227C109.531 50.8593 117.313 52.0077 122.754 56.1248C131.769 62.9663 131.037 74.4013 131.61 85.6163C132.61 105.005 129.317 123.977 131.61 144.306" fill="#F2E2C8"/>
<path d="M84.4994 153.126C79.6322 148.142 78.6563 133.665 84.1212 129.34C91.4038 123.586 103.31 127.275 109.787 128.961C120.131 131.649 133.952 134.349 145.407 137.782C153.067 140.079 158.423 142.657 161.875 146.994C166.474 152.748 163.583 160.114 159.764 170.23C153.116 187.859 147.066 199.697 139.49 216.19C138.917 217.424 137.661 218.193 136.307 218.132C134.733 218.071 133.562 218.169 131.427 217.876C130.573 217.754 129.61 217.57 129.146 216.85C128.695 216.141 128.963 215.225 129.146 214.406C134.221 192.123 133.159 179.6 142.345 162.717C125.523 163.01 110.494 161.104 94.5266 155.826" fill="#4C9374"/>
<path d="M116.569 41.5254C109.909 42.0752 101.858 39.5707 100.199 34.8672C98.0641 28.8199 96.6002 26.2665 96.3075 21.8563C96.0513 18.0446 95.5512 15.6134 97.6859 11.9362C99.8207 8.25888 104.054 4.86259 109.592 3.4943C113.337 2.56581 117.362 2.6269 121.144 3.04227C123.608 3.32326 124.45 6.47521 122.778 7.79464C95.3682 29.614 122.815 12.1316 125.511 12.1683C128.158 12.2049 123.047 13.732 123.925 15.2225C124.937 16.9329 125.011 18.0079 123.486 19.8771C122.62 20.9278 125.938 23.2245 123.876 26.4742C122.022 29.4063 124.547 39.8517 120.156 41.0856" fill="#38303B"/>
<path d="M107.042 52.9237C105.859 51.9707 104.981 51.7753 105.164 50.1138C105.603 45.9356 106.213 43.4678 106.518 40.6457C106.64 39.4851 106.774 38.3245 106.945 37.1639C106.981 36.9073 107.03 36.6141 107.201 36.4309C107.347 36.2721 107.542 36.2232 107.725 36.1865C109.592 35.8689 111.275 37.0539 113.044 37.5915C115.215 38.2512 117.569 37.9458 119.765 38.5077C120.034 38.581 120.314 38.6788 120.436 38.9598C120.509 39.1186 120.497 39.3141 120.497 39.4973C120.412 42.857 120.046 46.2899 119.899 50.5169C119.863 51.4698 119.924 53.058 119.533 53.9254L118.35 54.8783C117.24 55.8801 113.068 55.5991 110.958 54.634C110.958 54.634 108.311 53.9377 107.03 52.9114L107.042 52.9237Z" fill="#F7B094"/>
<path d="M107.201 36.4309C107.347 36.2721 107.542 36.2232 107.725 36.1865C109.592 35.8689 111.275 37.0539 113.044 37.5915C115.215 38.2512 117.57 37.9458 119.765 38.5077C120.034 38.581 120.314 38.6788 120.436 38.9598C120.509 39.1186 120.497 39.3141 120.497 39.4973C120.448 41.3787 120.4 43.2601 120.351 45.1293C118.301 46.2777 116.094 46.9618 113.886 46.9007C110.86 46.8152 107.896 45.1415 106.335 42.2828C106.396 41.733 106.457 41.1832 106.518 40.6213C106.64 39.4607 106.774 38.3001 106.945 37.1395C106.981 36.8829 107.03 36.5897 107.201 36.4064V36.4309Z" fill="#E89C82"/>
<path d="M102.785 29.9318C100.504 29.04 98.2226 27.2686 98.3324 25.436C98.4422 23.5913 100.845 22.0397 103.297 22.5162" fill="#F7B094"/>
<path d="M102.919 31.422C104.236 40.6458 110.543 42.3805 117.008 45.1293C118.155 45.618 120.131 45.9601 121.412 45.9357C124.571 45.8746 126.377 43.0891 127.328 40.658C128.987 36.4431 130.122 32.0817 130.707 27.6837C131.11 24.6539 131.927 19.8649 130.793 16.945C129.658 14.0252 126.352 12.9868 122.729 12.0583C118.228 10.8977 113.324 12.7058 109.86 15.2591C104.737 19.0219 101.614 24.7638 102.76 30.2981" fill="#F7B094"/>
<path d="M121.62 20.5245C121.51 20.5856 121.607 20.7322 121.754 20.7566C121.9 20.7933 122.047 20.7566 122.193 20.7078C123.901 20.2802 125.938 20.4268 127.548 21.0743C127.792 21.172 128.048 21.2942 128.329 21.3186C128.609 21.3431 128.939 21.2453 128.963 21.0499C128.963 20.9643 128.927 20.891 128.878 20.8177C128.646 20.5001 128.219 20.268 127.768 20.0969C126.316 19.5105 124.474 19.4128 122.949 19.8159C122.376 19.9626 121.839 20.2069 121.571 20.5734" fill="#38303B"/>
<path opacity="0.47" d="M113.934 29.3329C112.605 31.2021 113.105 33.8043 114.959 35.307C116.825 36.8097 119.411 36.5042 120.741 34.6351C122.071 32.7659 121.632 30.0293 119.765 28.5266C117.899 27.024 115.252 27.4638 113.934 29.3329Z" fill="#ED825D"/>
<path d="M124.059 25.2527C123.803 26.3155 124.12 27.2807 124.754 27.4273C125.389 27.5739 126.121 26.8286 126.377 25.7658C126.633 24.7029 126.316 23.7378 125.682 23.5912C125.047 23.4446 124.315 24.1898 124.059 25.2527Z" fill="#38303B"/>
<path d="M122.669 8.91868C130.964 4.41065 118.948 2.90798 112.8 3.05458C111.336 3.09123 108.799 6.36535 107.335 6.43865C103.383 6.64634 100.138 9.96933 99.1986 13.6222C98.2593 17.275 98.6375 17.7515 100.15 21.1966L103.224 22.064C103.224 22.064 103.151 23.3468 103.224 24.7029C103.224 24.8495 103.163 26.2544 103.48 26.8408C103.919 27.6471 105.115 27.525 105.395 26.6454C106.993 21.7464 109.262 17.5071 113.788 15.5769C115.008 15.2104 116.264 14.9538 117.545 14.8316C120.412 14.5507 119.668 14.4041 122.547 14.2575C125.425 14.1108 125.047 13.7077 127.158 11.8141C129.475 9.74943 120.009 10.3481 122.644 8.91868H122.669Z" fill="#38303B"/>
<path d="M128.036 24.0186C127.377 23.42 126.45 23.1268 125.596 22.9924C124.742 22.858 123.669 22.8336 122.864 23.2734C122.376 23.5421 122.815 24.2874 123.303 24.0186C123.913 23.6765 124.791 23.7254 125.45 23.8353C126.109 23.9453 126.902 24.153 127.426 24.6172C127.841 24.9959 128.451 24.3851 128.036 24.0064V24.0186Z" fill="#38303B"/>
<mask id="mask0_455_3949" style="mask-type:luminance" maskUnits="userSpaceOnUse" x="122" y="35" width="7" height="7">
<path d="M128.121 40.3161C128.329 39.5953 128.634 38.447 128.792 37.4696C128.817 37.323 128.829 37.1642 128.768 37.0298C128.695 36.871 128.524 36.7855 128.365 36.7122C127.475 36.309 126.535 36.0158 125.572 35.857C124.986 35.7593 124.364 35.7104 123.815 35.9181C123.254 36.1258 122.778 36.6389 122.778 37.2375C122.778 37.4696 122.852 37.6895 122.949 37.8972C123.095 38.2271 123.291 38.5325 123.535 38.8013C123.986 39.3021 124.572 39.6564 125.157 39.9985C126.109 40.5483 127.084 41.0858 128.146 41.4157" fill="white"/>
</mask>
<g mask="url(#mask0_455_3949)">
<path d="M133.611 38.0313C131.512 39.7538 129.475 40.1081 126.95 39.2896C126.169 39.033 124.376 37.567 124.096 36.7974C127.121 38.3367 130.39 38.8254 133.672 37.9213" fill="#E66E60"/>
<path d="M133.611 38.0313C131.427 38.7399 128.902 38.7277 125.645 37.7504C124.913 37.5305 124.193 37.1762 123.864 36.6997C126.938 37.7748 130.707 38.239 133.928 37.8603L133.611 38.0313Z" fill="white"/>
</g>
<path d="M106.469 31.7518C106.701 33.5354 106.92 35.3069 107.152 37.0905C107.274 38.0312 107.396 38.9842 107.799 39.8393C108.701 41.7818 110.799 42.8325 112.751 43.7365C116.728 45.5813 121.339 47.426 125.316 45.5813C127.133 44.7383 127.999 43.5533 128.817 41.7207C129.646 39.8393 129.805 38.4833 130.268 36.7118C130.671 35.1603 133.708 33.7065 133.428 32.1305C133.342 31.6418 132.537 30.3835 132.257 29.9803C131.61 29.003 130.939 27.2315 130.622 27.9768C130.256 28.8319 127.487 30.75 126.645 31.1409C124.279 32.2771 121.534 32.1794 118.924 32.0572C115.008 31.8739 110.677 31.5074 108.03 28.6242C105.713 26.1076 106.103 23.7986 103.261 22.2837C104.005 23.0656 105.359 27.3048 106.481 31.2997" fill="#F2E2C8"/>
<path d="M149.444 18.2156V17.3482C149.42 16.7496 148.944 16.2732 148.347 16.2609L131.818 16.0044C130.854 8.47879 125.426 2.06493 117.753 0.403438C107.957 -1.7223 98.235 4.69156 96.0637 14.746C95.7953 15.9922 95.6489 17.2383 95.6245 18.4722L131.964 19.1197C131.964 19.1197 131.964 19.083 131.964 19.0708L148.334 19.3396C148.957 19.3396 149.457 18.8387 149.457 18.2156H149.444Z" fill="#4C9374"/>
<path d="M148.347 16.2733L131.818 16.0168C131.818 15.9557 131.793 15.8824 131.781 15.8213L95.6489 17.6783C95.6367 17.947 95.6245 18.2158 95.6123 18.4846L131.952 19.1321C131.952 19.1321 131.952 19.0954 131.952 19.0832L148.322 19.352C148.944 19.352 149.444 18.8511 149.444 18.228V17.3606C149.42 16.762 148.944 16.2855 148.347 16.2733Z" fill="#408463"/>
<path d="M104.102 51.7022C107.103 54.2067 110.751 55.746 114.642 56.1492C116.789 56.3691 121.193 56.9799 121.18 53.6936C121.18 52.3131 119.033 52.3131 119.046 53.6936C119.046 53.8646 118.96 53.9786 118.79 54.0356C118.363 54.17 117.911 54.1822 117.472 54.17C116.301 54.17 115.069 54.0845 113.91 53.9012C110.873 53.4126 107.969 52.1542 105.603 50.1873C104.554 49.3077 103.029 50.8226 104.09 51.7022H104.102Z" fill="#EA8F18"/>
<path d="M72.2642 162.619C64.6523 161.752 59.0654 155.668 58.1017 151.367C57.6992 149.608 57.9187 147.629 59.407 146.273C61.2489 144.587 64.5547 144.33 67.275 144.941C70.0075 145.552 72.374 146.847 74.8747 147.898C86.7439 152.894 101.016 152.1 114.496 152.1C116.838 152.1 119.253 152.137 121.437 152.809C124.84 153.872 127.231 156.388 128.451 159.088C129.671 161.788 129.866 164.684 130.061 167.542C130.134 168.654 129.866 169.925 128.743 170.621C127.487 171.403 125.791 170.939 124.681 170.022C123.571 169.118 122.998 167.897 122.095 166.858C118.57 162.778 111.214 162.301 104.908 162.411C94.7949 162.582 72.252 162.631 72.252 162.631L72.2642 162.619Z" fill="#00021C"/>
<path d="M152.165 123.342C155.946 123.342 162.546 123.855 166.339 123.855C166.803 123.855 167.376 123.232 167.742 122.963C168.169 122.646 169.121 121.51 169.535 121.167C171.072 119.885 171.512 118.883 173.695 119.665C175.879 120.447 177.196 123.061 176.537 125.285C176.415 125.675 176.257 126.091 176.379 126.482C176.611 127.239 177.684 127.276 178.44 127.019C182.502 125.663 184.393 120.178 182.307 116.427C180.221 112.677 174.927 111.321 171.121 113.288C170.084 113.825 169.157 114.558 168.108 115.059C166.461 115.829 164.607 115.975 162.802 116.097C159.935 116.305 157.386 115.951 154.604 115.535C152.055 115.157 148.944 114.558 147.834 113.996" fill="#F7B094"/>
<path d="M152.799 123.171C152.86 123.561 152.555 123.916 152.165 123.928C143.016 124.148 136.587 123.647 129.048 122.743C122.595 121.961 116.313 120.287 111.848 118.504C107.689 116.842 101.943 110.832 99.6255 105.212C95.5755 95.3894 92.1599 87.7783 89.4275 77.5161C87.5733 70.5281 85.4751 64.4196 88.3784 57.5537C89.0615 55.9411 91.5256 53.6688 94.5021 52.2028C99.2473 49.8815 104.188 51.4209 106.627 54.7561C109.067 58.0913 111.031 65.739 111.751 69.8195C113.263 78.4202 113.446 85.5059 114.959 94.1188C115.63 97.9427 116.484 102.096 119.46 104.576C121.168 106.006 123.352 106.678 125.474 107.325C134.05 109.94 142.479 111.577 151.055 114.155C151.298 114.228 151.481 114.435 151.518 114.692L152.823 123.171H152.799Z" fill="#EFB93F"/>
<path d="M153.079 123.672C153.079 121.595 152.933 119.518 152.653 117.453C152.482 116.256 152.323 115.022 151.481 114.094C150.591 113.116 149.274 112.579 148.054 112.163C146.639 111.687 145.163 111.382 143.699 111.113C139.856 110.392 136.075 109.488 132.305 108.45C130.085 107.839 127.877 107.191 125.694 106.47C123.657 105.798 121.595 105.017 119.863 103.709C116.996 101.559 114.813 97.2955 110.726 97.5399C109.945 97.5887 109.945 98.8104 110.726 98.7615C114.13 98.5539 116.24 102.256 118.533 104.186C121.583 106.764 125.694 107.79 129.451 108.889C133.428 110.062 137.465 111.186 141.54 111.944C144.187 112.432 147.102 112.75 149.493 114.081C150.737 114.778 151.152 115.609 151.384 116.977C151.762 119.176 151.884 121.436 151.896 123.66C151.896 124.441 153.116 124.441 153.116 123.66L153.079 123.672Z" fill="#EA8F18"/>
<path d="M113.568 102.536C114.874 102.707 116.228 102.964 117.569 103.135C117.887 103.172 118.192 102.83 118.179 102.524C118.167 102.158 117.911 101.962 117.569 101.913C116.264 101.742 114.91 101.486 113.568 101.315C113.251 101.278 112.946 101.62 112.958 101.926C112.971 102.292 113.227 102.488 113.568 102.536Z" fill="#EA8F18"/>
<path d="M117.533 101.803C116.386 100.166 115.898 98.2605 115.63 96.2936C115.362 94.3266 115.191 92.3475 114.935 90.3806C114.398 86.0803 113.971 81.7677 113.422 77.4796C112.873 73.1915 112.214 69.0744 111.153 64.9695C110.324 61.732 109.36 58.2747 107.542 55.4403C105.725 52.606 102.724 50.8468 99.2108 50.6513C98.4301 50.6025 98.4301 51.8241 99.2108 51.873C102.358 52.0441 104.92 53.5345 106.591 56.21C108.36 59.0565 109.275 62.4773 110.08 65.6903C112.117 73.8267 112.678 82.2197 113.727 90.515C114.227 94.461 114.105 99.0179 116.472 102.414C116.923 103.049 117.972 102.439 117.521 101.803H117.533Z" fill="#EA8F18"/>
<path d="M159.959 231.853C154.348 232.036 149.749 232.17 144.138 232.341C142.418 232.39 140.613 232.427 139.1 231.682C138.258 231.266 137.429 230.606 136.502 230.777C135.782 230.912 135.282 231.51 134.611 231.804C134.038 232.06 133.367 232.085 132.72 232.085C130.756 232.121 128.792 232.146 126.84 232.182C126.194 232.182 125.474 232.182 124.998 231.779C124.425 231.315 124.389 230.496 124.437 229.788C124.584 226.978 125.145 224.193 126.084 221.517C126.304 220.906 126.621 220.234 127.267 220.039C127.865 219.868 128.487 220.185 129.036 220.479C131.256 221.651 134.172 222.494 136.221 221.089C136.758 220.723 137.197 220.222 137.807 219.99C138.49 219.733 139.246 219.843 139.966 219.966C146.175 221.053 152.226 222.922 157.922 225.488C159.215 226.074 160.545 226.746 161.314 227.882C162.082 229.018 162.009 230.741 160.813 231.474" fill="#2A232D"/>
</g>
<defs>
<clipPath id="clip0_455_3949">
<rect width="261" height="274" fill="white"/>
</clipPath>
</defs>
</svg>
