<svg width="10" height="3" viewBox="0 0 10 3" fill="none" xmlns="http://www.w3.org/2000/svg">
<path d="M7.69231 1.15385C7.70833 0.833333 7.82051 0.560897 8.02885 0.336538C8.25321 0.128205 8.52564 0.0160256 8.84615 0C9.16667 0.0160256 9.4391 0.128205 9.66346 0.336538C9.87179 0.560897 9.98397 0.833333 10 1.15385C9.98397 1.47436 9.87179 1.74679 9.66346 1.97115C9.4391 2.17949 9.16667 2.29167 8.84615 2.30769C8.52564 2.29167 8.25321 2.17949 8.02885 1.97115C7.82051 1.74679 7.70833 1.47436 7.69231 1.15385ZM3.84615 1.15385C3.86218 0.833333 3.97436 0.560897 4.18269 0.336538C4.40705 0.128205 4.67949 0.0160256 5 0C5.32051 0.0160256 5.59295 0.128205 5.81731 0.336538C6.02564 0.560897 6.13782 0.833333 6.15385 1.15385C6.13782 1.47436 6.02564 1.74679 5.81731 1.97115C5.59295 2.17949 5.32051 2.29167 5 2.30769C4.67949 2.29167 4.40705 2.17949 4.18269 1.97115C3.97436 1.74679 3.86218 1.47436 3.84615 1.15385ZM2.30769 1.15385C2.29167 1.47436 2.17949 1.74679 1.97115 1.97115C1.74679 2.17949 1.47436 2.29167 1.15385 2.30769C0.833333 2.29167 0.560897 2.17949 0.336538 1.97115C0.128205 1.74679 0.0160256 1.47436 0 1.15385C0.0160256 0.833333 0.128205 0.560897 0.336538 0.336538C0.560897 0.128205 0.833333 0.0160256 1.15385 0C1.47436 0.0160256 1.74679 0.128205 1.97115 0.336538C2.17949 0.560897 2.29167 0.833333 2.30769 1.15385Z" fill="#48525F"/>
</svg>
