<svg width="24" height="24" viewBox="0 0 24 24" fill="none" xmlns="http://www.w3.org/2000/svg">
<path d="M20.9133 16.3147L20.1444 10.1201C19.676 7.90964 18.3503 7 17.0865 7H6.93171C5.65022 7 4.28034 7.84597 3.88264 10.1201L3.1049 16.3147C2.46858 20.8629 4.81062 22 7.86853 22H16.1585C19.2075 22 21.4789 20.3535 20.9133 16.3147Z" fill="#FF7A00"/>
<path d="M9.09692 12.1486C8.60882 12.1486 8.21313 11.7414 8.21313 11.239C8.21313 10.7366 8.60882 10.3293 9.09692 10.3293C9.58503 10.3293 9.98071 10.7366 9.98071 11.239C9.98071 11.7414 9.58503 12.1486 9.09692 12.1486Z" fill="#BDDDDF"/>
<path d="M14.886 12.1486C14.3979 12.1486 14.0022 11.7414 14.0022 11.239C14.0022 10.7366 14.3979 10.3293 14.886 10.3293C15.3741 10.3293 15.7698 10.7366 15.7698 11.239C15.7698 11.7414 15.3741 12.1486 14.886 12.1486Z" fill="#BDDDDF"/>
<path d="M16.9739 6.77432C16.977 6.85189 16.9621 6.92913 16.9303 7H15.4932C15.4654 6.92794 15.4506 6.85153 15.4497 6.77432C15.4497 4.85682 13.8899 3.30238 11.9658 3.30238C10.0416 3.30238 8.48184 4.85682 8.48184 6.77432C8.49502 6.84898 8.49502 6.92535 8.48184 7H7.00989C6.9967 6.92535 6.9967 6.84898 7.00989 6.77432C7.12172 4.10591 9.325 2 12.0049 2C14.6849 2 16.8882 4.10591 17 6.77432H16.9739Z" fill="#BDDDDF"/>
</svg>
