<svg width="75" height="75" viewBox="0 0 75 75" fill="none" xmlns="http://www.w3.org/2000/svg">
<path d="M37.4989 74.9984C58.209 74.9984 74.9978 58.2095 74.9978 37.4992C74.9978 16.789 58.209 0 37.4989 0C16.7888 0 0 16.789 0 37.4992C0 58.2095 16.7888 74.9984 37.4989 74.9984Z" fill="#3DA0A7"/>
<path d="M74.6293 32.2823C74.5266 33.5818 74.3688 34.8802 74.1188 36.1681C72.8426 42.7207 69.676 48.9662 66.037 54.5285C62.8534 59.3961 58.8553 64.2827 52.8429 65.4403C51.0107 65.793 49.4475 65.3566 48.2868 64.4734C45.4908 65.2497 42.6779 65.6415 39.6351 65.5896C31.8032 65.4573 23.5212 64.6661 16.4497 61.0144C9.43437 57.3912 4.94387 52.064 2.2824 44.7065C1.45843 42.4295 0.646115 40.0454 0.00537108 37.6148C0.0678569 58.2724 16.8299 74.9997 37.5011 74.9997C58.2114 74.9997 75 58.211 75 37.5004C74.9979 35.7275 74.8665 33.9874 74.6293 32.2823Z" fill="#2B8C93"/>
<path d="M37.499 73.8312C57.5645 73.8312 73.8308 57.5648 73.8308 37.4991C73.8308 17.4334 57.5645 1.16699 37.499 1.16699C17.4335 1.16699 1.16723 17.4334 1.16723 37.4991C1.16723 57.5648 17.4335 73.8312 37.499 73.8312Z" fill="white"/>
<path d="M37.4989 73.1614C57.1947 73.1614 73.1613 57.1947 73.1613 37.4987C73.1613 17.8027 57.1947 1.83593 37.4989 1.83593C17.803 1.83593 1.83642 17.8027 1.83642 37.4987C1.83642 57.1947 17.803 73.1614 37.4989 73.1614Z" fill="#BCE5E8"/>
<path d="M22.6325 69.9142C27.159 71.9943 32.1918 73.1625 37.4999 73.1625C57.1956 73.1625 73.1623 57.1956 73.1623 37.4997C73.1623 26.1081 67.815 15.9726 59.5002 9.44333C60.3178 13.6702 60.6048 18.0304 60.8738 22.3399C61.1672 27.0475 61.4574 31.8113 60.5953 36.448C59.5309 42.1745 56.7529 47.4477 53.5291 52.2994C50.0108 57.5949 45.8327 62.5853 40.4928 66.0369C35.2419 69.4302 28.7402 71.2053 22.6325 69.9142Z" fill="#8FD2D7"/>
<path d="M37.4988 66.1206C53.3062 66.1206 66.1205 53.3061 66.1205 37.4987C66.1205 21.6912 53.3062 8.87674 37.4988 8.87674C21.6915 8.87674 8.87717 21.6912 8.87717 37.4987C8.87717 53.3061 21.6915 66.1206 37.4988 66.1206Z" fill="#FFF6FA"/>
<path d="M37.4987 64.8937C52.6281 64.8937 64.8929 52.6288 64.8929 37.4993C64.8929 22.3697 52.6281 10.1048 37.4987 10.1048C22.3693 10.1048 10.1045 22.3697 10.1045 37.4993C10.1045 52.6288 22.3693 64.8937 37.4987 64.8937Z" fill="#ADDFE2"/>
<path d="M55.0203 55.0213C64.6979 45.3436 64.6979 29.6529 55.0203 19.9751C45.3426 10.2974 29.652 10.2974 19.9744 19.9751C10.2967 29.6529 10.2967 45.3436 19.9744 55.0213C29.652 64.6991 45.3426 64.6991 55.0203 55.0213Z" fill="#FFF6FA"/>
<path d="M60.8001 39.1115C61.3021 25.8397 51.2785 14.6861 38.4118 14.1994C25.5451 13.7127 14.7076 24.0771 14.2056 37.349C13.7036 50.6209 23.7271 61.7744 36.5938 62.2612C49.4605 62.7479 60.298 52.3834 60.8001 39.1115Z" fill="#F8D581"/>
<path d="M53.3311 29.5034C54.9583 29.5034 56.2774 28.575 56.2774 27.4297C56.2774 26.2845 54.9583 25.3561 53.3311 25.3561C51.7039 25.3561 50.3848 26.2845 50.3848 27.4297C50.3848 28.575 51.7039 29.5034 53.3311 29.5034Z" fill="#FFA25F"/>
<path d="M20.4446 44.748C20.2762 45.9596 21.0196 47.2379 22.155 47.6922C21.7409 48.7386 21.5809 49.8834 21.6911 51.0028C22.7385 51.3206 23.8738 51.3396 24.9307 51.059C24.9148 52.0609 25.2781 53.0627 25.9315 53.8221C27.5519 53.355 28.9996 52.2536 29.7939 50.7656C30.5892 49.2787 30.692 47.4179 29.9792 45.8897C29.8077 45.5233 29.5831 45.1664 29.2485 44.9397C28.8174 44.6485 28.2678 44.6104 27.7478 44.604C26.7523 44.5924 25.7557 44.6644 24.7719 44.8179L20.4446 44.748Z" fill="#7AAE56"/>
<path d="M29.0335 44.3828C26.3032 43.2041 23.0371 43.3492 20.4223 44.7641C21.2071 45.9471 22.2619 46.95 23.4851 47.6723C22.7226 48.5831 22.2185 49.7078 22.0458 50.8834C23.2987 51.0856 24.6087 50.9162 25.7695 50.4015C25.6053 51.4182 25.8648 52.4963 26.4727 53.3266C28.0136 52.6562 29.2527 51.3229 29.8066 49.7364C30.3615 48.1499 30.2228 46.3347 29.4348 44.8509L29.0335 44.3828Z" fill="#85BB61"/>
<path d="M28.5348 41.9353C30.8627 41.9353 32.7498 40.6256 32.7498 39.0101C32.7498 37.3946 30.8627 36.085 28.5348 36.085C26.2069 36.085 24.3197 37.3946 24.3197 39.0101C24.3197 40.6256 26.2069 41.9353 28.5348 41.9353Z" fill="#FFA25F"/>
<path d="M42.3348 33.1023C43.7818 33.1023 44.9549 32.4603 44.9549 31.6683C44.9549 30.8764 43.7818 30.2344 42.3348 30.2344C40.8878 30.2344 39.7147 30.8764 39.7147 31.6683C39.7147 32.4603 40.8878 33.1023 42.3348 33.1023Z" fill="#FFA25F"/>
<path d="M33.7254 59.6414C37.033 59.6414 39.7144 58.5826 39.7144 57.2765C39.7144 55.9704 37.033 54.9116 33.7254 54.9116C30.4178 54.9116 27.7365 55.9704 27.7365 57.2765C27.7365 58.5826 30.4178 59.6414 33.7254 59.6414Z" fill="#FFA25F"/>
<path d="M17.9049 36.9155C19.2946 36.9155 20.4212 36.062 20.4212 35.0092C20.4212 33.9563 19.2946 33.1029 17.9049 33.1029C16.5152 33.1029 15.3886 33.9563 15.3886 35.0092C15.3886 36.062 16.5152 36.9155 17.9049 36.9155Z" fill="#FFA25F"/>
<path d="M54.7945 47.9987C56.4632 47.9987 57.816 47.0119 57.816 45.7947C57.816 44.5776 56.4632 43.5908 54.7945 43.5908C53.1258 43.5908 51.773 44.5776 51.773 45.7947C51.773 47.0119 53.1258 47.9987 54.7945 47.9987Z" fill="#FFA25F"/>
<path d="M29.1406 44.4424C26.7154 44.3503 24.2838 44.4636 21.8776 44.7802C23.1908 45.6614 24.8122 46.0734 26.3871 45.924C25.3566 47.4459 24.2404 48.9095 23.0457 50.3054C24.4003 49.8087 25.4932 48.8015 26.5491 47.8187C26.5682 49.2728 26.5883 50.7279 26.6073 52.182C26.7927 52.2191 26.9219 52.0083 26.9918 51.8336C27.7998 49.796 28.6089 47.752 29.1734 45.6338L29.1406 44.4424Z" fill="#98C779"/>
<path d="M36.0659 47.7192C37.2637 47.4703 38.2179 46.3414 38.2645 45.1192C39.3892 45.1573 40.5213 44.9244 41.5391 44.4446C41.4861 43.3516 41.1239 42.2756 40.5033 41.3744C41.4522 41.0524 42.274 40.3736 42.7697 39.503C41.7858 38.1336 40.2618 37.1402 38.5938 36.8914C36.9258 36.6425 35.1381 37.1699 33.9393 38.355C33.6512 38.6388 33.3907 38.9714 33.2901 39.3622C33.1598 39.8663 33.3092 40.3958 33.4786 40.8883C33.8027 41.8298 34.2041 42.7437 34.6796 43.6196L36.0659 47.7192Z" fill="#7AAE56"/>
<path d="M32.8379 39.7511C32.6452 42.7186 33.8779 45.7464 36.0892 47.7343C36.9407 46.5979 37.5295 45.2666 37.7996 43.8729C38.9137 44.286 40.1422 44.3823 41.3072 44.1504C41.0774 42.9028 40.4769 41.7252 39.6021 40.8059C40.6146 40.6184 41.5423 40.0126 42.1205 39.1612C40.9715 37.9348 39.2992 37.2157 37.6196 37.2263C35.9388 37.2368 34.2761 37.9761 33.1429 39.2173L32.8379 39.7511Z" fill="#85BB61"/>
<path d="M32.8583 39.6311C33.5859 41.9462 34.5104 44.1988 35.6161 46.3593C36.0058 44.8268 35.848 43.1609 35.1797 41.727C36.9589 42.1866 38.7127 42.7458 40.4284 43.4024C39.506 42.2936 38.1906 41.602 36.9102 40.938C38.2732 40.4317 39.6373 39.9245 41.0003 39.4182C40.9738 39.2318 40.7313 39.1799 40.5428 39.1736C38.3516 39.0973 36.1551 39.0211 33.9703 39.2011L32.8583 39.6311Z" fill="#98C779"/>
<path d="M32.6007 10.9207C33.4003 10.9207 34.0484 10.4632 34.0484 9.89872C34.0484 9.33429 33.4003 8.87674 32.6007 8.87674C31.8011 8.87674 31.153 9.33429 31.153 9.89872C31.153 10.4632 31.8011 10.9207 32.6007 10.9207Z" fill="white"/>
<path d="M42.1166 9.73058C42.1166 10.1531 41.5786 10.4963 40.9157 10.4963C40.2527 10.4963 39.7147 10.1531 39.7147 9.73058C39.7147 9.30801 40.2527 8.96488 40.9157 8.96488C41.5786 8.96488 42.1166 9.30695 42.1166 9.73058Z" fill="white"/>
<path d="M25.4031 62.7109C25.239 63.1706 24.5676 63.3506 23.9035 63.1123C23.2395 62.874 22.8349 62.3095 22.9991 61.8499C23.1632 61.3903 23.8347 61.2102 24.4987 61.4485C25.1627 61.6858 25.5673 62.2513 25.4031 62.7109Z" fill="white"/>
<path d="M28.4533 27.703C28.8499 27.703 29.1713 27.1776 29.1713 26.5295C29.1713 25.8814 28.8499 25.3561 28.4533 25.3561C28.0567 25.3561 27.7353 25.8814 27.7353 26.5295C27.7353 27.1776 28.0567 27.703 28.4533 27.703Z" fill="#C1554D"/>
<path d="M21.8765 31.5337C21.8765 31.9467 21.5503 32.2814 21.1489 32.2814C20.7475 32.2814 20.4213 31.9467 20.4213 31.5337C20.4213 31.1206 20.7475 30.786 21.1489 30.786C21.5513 30.786 21.8765 31.1206 21.8765 31.5337Z" fill="#C1554D"/>
<path d="M22.9621 39.4915C22.9621 39.9088 22.7196 40.2477 22.4199 40.2477C22.1201 40.2477 21.8776 39.9098 21.8776 39.4915C21.8776 39.0732 22.1201 38.7353 22.4199 38.7353C22.7196 38.7364 22.9621 39.0742 22.9621 39.4915Z" fill="#C1554D"/>
<path d="M51.0796 36.9159C51.4633 36.9159 51.7743 36.4891 51.7743 35.9627C51.7743 35.4363 51.4633 35.0096 51.0796 35.0096C50.6959 35.0096 50.3848 35.4363 50.3848 35.9627C50.3848 36.4891 50.6959 36.9159 51.0796 36.9159Z" fill="#C1554D"/>
<path d="M51.0796 49.9274C51.0796 50.3214 50.8816 50.6412 50.638 50.6412C50.3944 50.6412 50.1964 50.3214 50.1964 49.9274C50.1964 49.5335 50.3944 49.2136 50.638 49.2136C50.8816 49.2126 51.0796 49.5324 51.0796 49.9274Z" fill="#C1554D"/>
<path d="M40.9157 49.9274C40.9157 50.3214 40.6467 50.6412 40.3152 50.6412C39.9837 50.6412 39.7147 50.3214 39.7147 49.9274C39.7147 49.5335 39.9837 49.2136 40.3152 49.2136C40.6467 49.2126 40.9157 49.5324 40.9157 49.9274Z" fill="#C1554D"/>
<path d="M32.6621 49.9269C33.2493 49.9269 33.7254 49.5983 33.7254 49.1929C33.7254 48.7876 33.2493 48.459 32.6621 48.459C32.0748 48.459 31.5988 48.7876 31.5988 49.1929C31.5988 49.5983 32.0748 49.9269 32.6621 49.9269Z" fill="#C1554D"/>
<path d="M33.1357 20.114C33.1357 20.5048 32.8857 20.8215 32.5775 20.8215C32.2694 20.8215 32.0194 20.5048 32.0194 20.114C32.0194 19.7232 32.2694 19.4066 32.5775 19.4066C32.8857 19.4076 33.1357 19.7232 33.1357 20.114Z" fill="#C1554D"/>
<path d="M50.1973 29.0301C50.1973 29.2927 49.9039 29.5045 49.5428 29.5045C49.1816 29.5045 48.8883 29.2917 48.8883 29.0301C48.8883 28.7685 49.1816 28.5556 49.5428 28.5556C49.9039 28.5556 50.1973 28.7674 50.1973 29.0301Z" fill="#C1554D"/>
<path d="M45.7564 40.5113C45.0553 40.99 43.9179 41.1203 43.8289 42.0003C43.759 42.6898 44.4601 43.159 45.0712 43.4078C45.6812 43.6567 46.4088 43.9914 46.4977 44.6787C46.5835 45.347 45.9862 45.922 45.9703 46.5967C45.9513 47.3804 46.7053 47.9311 47.4149 48.1493C49.1528 48.682 51.0114 48.1482 52.7144 47.499C54.4321 46.8434 56.1415 46.047 57.4992 44.7539C57.9831 44.2932 58.4385 43.7256 58.5106 43.0393C58.5635 42.5331 58.3972 42.0226 58.1346 41.5958C57.137 39.9754 55.0104 39.6408 53.2079 39.9267C51.4043 40.2126 49.6495 40.955 47.8268 40.8809L45.7564 40.5113Z" fill="#EFA285"/>
<path d="M31.2281 56.4197C30.9019 56.103 30.3163 56.5246 30.329 56.9874C30.3417 57.4502 30.7145 57.8134 31.0957 58.057C31.477 58.3006 31.908 58.4955 32.1759 58.8661C32.3475 59.1034 32.4386 59.3946 32.6091 59.6329C33.0253 60.2154 33.8048 60.3541 34.5048 60.3732C36.3751 60.424 38.2168 59.9538 40.032 59.4868C41.4384 59.1246 42.9137 58.7242 43.9568 57.6842C44.2883 57.3538 44.5775 56.8349 44.3434 56.425C43.9833 55.7959 42.8215 56.1401 42.5186 55.4793C42.4339 55.295 42.4456 55.0694 42.3333 54.901C42.1808 54.6733 41.8726 54.6426 41.6047 54.6373C38.6245 54.5801 35.6369 54.99 32.7754 55.8489L31.2281 56.4197Z" fill="#EFA285"/>
<path d="M45.7564 40.4719C45.0553 40.923 43.9179 41.0459 43.8289 41.8751C43.759 42.5254 44.4601 42.967 45.0712 43.2011C45.6812 43.4351 46.4088 43.7507 46.4977 44.3988C46.5835 45.029 45.9862 45.5712 45.9703 46.2056C45.9513 46.9438 46.7053 47.4638 47.4149 47.6682C49.1528 48.1702 51.0114 47.6671 52.7144 47.056C54.4321 46.4386 56.1415 45.6877 57.4992 44.4688C57.9831 44.0345 58.4385 43.4997 58.5106 42.8537C58.5635 42.3771 58.3972 41.8952 58.1346 41.4938C57.137 39.9677 55.0104 39.6522 53.2079 39.9212C51.4043 40.1902 49.6495 40.8902 47.8268 40.8203L45.7564 40.4719Z" fill="#E28D6D"/>
<path d="M48.1301 37.1032L53.2453 43.8886L49.4316 46.0925L45.1764 41.5978L48.1301 37.1032Z" fill="#C1554D"/>
<path d="M48.13 37.1034L53.2452 35.0097L56.0993 41.6849L53.2452 43.8888L48.13 37.1034Z" fill="#E28D6D"/>
<path d="M56.0993 41.6857L54.3497 43.8896L49.4315 46.0935L53.2451 43.8896L56.0993 41.6857Z" fill="#943402"/>
<path d="M48.13 37.1032L53.5036 43.0435L56.0993 41.6847L53.2452 43.8886L49.4315 46.0925L52.3895 43.8886L48.13 37.1032Z" fill="#EE9C7D"/>
<path d="M53.2452 43.1386C53.2452 43.5527 52.992 43.8884 52.6796 43.8884C52.3672 43.8884 52.1141 43.5527 52.1141 43.1386C52.1141 42.7245 52.3672 42.3887 52.6796 42.3887C52.992 42.3887 53.2452 42.7245 53.2452 43.1386Z" fill="#FFB78F"/>
<path d="M22.8656 32.1172C21.779 32.5239 20.6914 32.9317 19.6048 33.3383C18.9831 33.5713 18.2651 33.9198 18.1793 34.5795C18.0914 35.2605 18.7692 35.8059 19.43 35.987C20.0072 36.1448 20.8089 36.3588 20.7496 36.9561C20.7295 37.1637 20.5908 37.3448 20.5664 37.5523C20.5071 38.0776 21.1478 38.372 21.6657 38.4748C25.1193 39.1568 28.7815 38.7385 31.9936 37.2939C32.3251 37.1446 32.6777 36.9582 32.8165 36.6214C33.0643 36.0188 32.4776 35.4046 31.9067 35.0921C31.3359 34.7797 30.6443 34.4747 30.4876 33.8424C30.4029 33.4983 30.5035 33.1244 30.3923 32.7876C30.1381 32.0145 29.0706 31.9849 28.2678 32.1067C26.872 32.3174 25.4762 32.5292 24.0803 32.74L22.8656 32.1172Z" fill="#EFA285"/>
<path d="M33.5167 20.9153C32.9872 21.3654 32.2522 21.3887 31.5829 21.5211C30.9136 21.6535 30.1701 22.0347 30.061 22.7401C29.9371 23.5365 30.688 24.1656 31.3817 24.5108C32.0753 24.8571 32.8919 25.2108 33.1217 25.9808C33.3335 26.6935 32.9448 27.5334 33.289 28.1868C33.5284 28.6433 34.0452 28.8434 34.526 28.9747C37.7519 29.8601 41.1578 29.3031 44.4483 28.7418C44.9651 28.6539 45.5221 28.5437 45.8759 28.1381C46.4573 27.473 46.1586 26.3356 45.5158 25.7372C44.8729 25.1378 44.0013 24.9111 43.1912 24.6082C41.7064 24.0522 40.3434 23.187 38.8872 22.5505C37.431 21.914 35.8043 21.5084 34.2792 21.9299L33.5167 20.9153Z" fill="#EFA285"/>
<path d="M22.8656 31.5821C21.779 31.9877 20.6914 32.3944 19.6048 32.8C18.9831 33.032 18.2651 33.3804 18.1793 34.0381C18.0914 34.7169 18.7692 35.2623 19.43 35.4424C20.0072 35.6002 20.8089 35.813 20.7496 36.4082C20.7295 36.6158 20.5908 36.7959 20.5664 37.0034C20.5071 37.5277 21.1478 37.8221 21.6657 37.9238C25.1193 38.6037 28.7815 38.1864 31.9936 36.7461C32.3251 36.5978 32.6777 36.4114 32.8165 36.0757C33.0643 35.4742 32.4776 34.862 31.9067 34.5496C31.3359 34.2371 30.6443 33.9332 30.4876 33.302C30.4029 32.9589 30.5035 32.5861 30.3923 32.2504C30.1381 31.4794 29.0706 31.4497 28.2678 31.5704C26.872 31.7812 25.4762 31.9919 24.0803 32.2016L22.8656 31.5821Z" fill="#E28D6D"/>
<path d="M20.3705 30.7542L28.7 32.437L27.3084 36.6161L21.1426 36.077L20.3705 30.7542Z" fill="#C1554D"/>
<path d="M20.3703 30.7527L22.8093 25.7921L29.3733 28.893L28.6997 32.4356L20.3703 30.7527Z" fill="#E28D6D"/>
<path d="M29.3737 28.8938L29.5262 31.7035L27.3085 36.6154L28.7001 32.4364L29.3737 28.8938Z" fill="#943402"/>
<path d="M20.3705 30.7535L28.3325 31.6336L29.3735 28.8938L28.7 32.4364L27.3084 36.6154L28.0593 33.0051L20.3705 30.7535Z" fill="#EE9C7D"/>
<path d="M28.2022 31.876C28.4765 32.1863 28.5103 32.6047 28.2763 32.8122C28.0422 33.0198 27.6303 32.9362 27.356 32.6259C27.0817 32.3155 27.0478 31.8972 27.2818 31.6897C27.5159 31.4821 27.9279 31.5668 28.2022 31.876Z" fill="#FFB78F"/>
<path d="M31.2281 55.8697C30.9019 55.5636 30.3163 55.9703 30.329 56.4183C30.3417 56.8663 30.7145 57.2168 31.0957 57.4529C31.477 57.6881 31.908 57.8766 32.1759 58.2356C32.3475 58.4644 32.4386 58.7461 32.6091 58.977C33.0253 59.5404 33.8048 59.6749 34.5048 59.6929C36.3751 59.7416 38.2168 59.2873 40.032 58.8361C41.4384 58.4866 42.9137 58.099 43.9568 57.0929C44.2883 56.773 44.5775 56.271 44.3434 55.875C43.9833 55.2671 42.8215 55.5996 42.5186 54.961C42.4339 54.7831 42.4456 54.5638 42.3333 54.4018C42.1808 54.1815 41.8726 54.1519 41.6047 54.1466C38.6245 54.0915 35.6369 54.4876 32.7754 55.3179L31.2281 55.8697Z" fill="#E28D6D"/>
<path d="M35.9704 58.8286C36.7096 58.9843 37.3397 58.9949 37.901 58.9059L38.8044 58.1444L32.5782 52.363L31.1178 55.77C32.2415 57.3269 34.1118 58.4389 35.9704 58.8286Z" fill="#C1554D"/>
<path d="M32.5783 52.3627L37.2466 49.4026L41.2275 55.4742L38.8044 58.1441L32.5783 52.3627Z" fill="#E28D6D"/>
<path d="M38.9602 58.5848L39.8922 57.9504L41.2287 55.4733L38.8056 58.1442L37.9022 58.9057C38.2835 58.8453 38.6351 58.7373 38.9602 58.5848Z" fill="#943402"/>
<path d="M37.3387 58.9575C37.5346 58.9522 37.721 58.9342 37.9011 58.9056L38.8044 58.1441L41.2275 55.4731L38.9103 57.2672L32.5783 52.3616L37.9614 58.2934L37.3387 58.9575Z" fill="#EE9C7D"/>
<path d="M38.6732 57.4054C38.7463 57.8131 38.5557 58.188 38.2485 58.2431C37.9414 58.2982 37.6332 58.0122 37.5602 57.6045C37.4871 57.1968 37.6777 56.8218 37.9848 56.7668C38.292 56.7117 38.6001 56.9976 38.6732 57.4054Z" fill="#FFB78F"/>
<path d="M33.5167 20.9153C32.9872 21.3431 32.2522 21.3654 31.5829 21.4925C30.9136 21.6185 30.1701 21.9807 30.061 22.6532C29.9371 23.4115 30.688 24.0099 31.3817 24.3392C32.0753 24.6686 32.8919 25.0054 33.1217 25.7382C33.3335 26.4171 32.9448 27.2156 33.289 27.8384C33.5284 28.2726 34.0452 28.4632 34.526 28.5893C37.7519 29.4323 41.1578 28.9017 44.4483 28.3679C44.9651 28.2842 45.5221 28.1794 45.8759 27.7939C46.4573 27.1606 46.1586 26.0782 45.5158 25.5084C44.8729 24.9387 44.0013 24.7226 43.1912 24.4335C41.7064 23.904 40.3434 23.0811 38.8872 22.4753C37.431 21.8695 35.8043 21.4829 34.2792 21.8843L33.5167 20.9153Z" fill="#E28D6D"/>
<path d="M48.6668 19.6128C48.115 19.7134 47.5855 19.9401 47.1333 20.2705C46.9892 20.3753 46.8473 20.494 46.6747 20.5416C46.5158 20.585 46.3474 20.5638 46.1833 20.5427C45.6178 20.4685 45.0522 20.3933 44.4856 20.3192C44.3596 20.3023 44.2272 20.2874 44.1107 20.3351C43.9847 20.387 43.8979 20.5035 43.8216 20.6168C43.3323 21.3476 42.9945 22.18 42.8367 23.0452C42.7753 23.381 42.7414 23.7273 42.806 24.063C42.8568 24.3278 42.968 24.5756 43.0813 24.8202C43.5293 25.784 44.0345 26.7371 44.7578 27.5155C45.4822 28.2929 46.4523 28.8859 47.5113 28.9696C47.8248 28.994 48.1701 28.9622 48.3988 28.7462C48.5736 28.581 48.6466 28.3363 48.706 28.1033C49.0756 26.6471 49.1719 25.121 48.9898 23.6298C48.8786 22.7254 48.6668 21.8114 48.8193 20.9133L48.6668 19.6128Z" fill="#7AAE56"/>
<path d="M48.4192 29.114C51.2034 28.0708 53.4571 25.7006 54.3604 22.8676C52.9752 22.5584 51.519 22.5679 50.1369 22.8952C50.0554 21.7101 49.6392 20.5494 48.9476 19.5835C47.9045 20.3058 47.0773 21.3373 46.5987 22.5128C46.0119 21.6667 45.0779 21.0693 44.0633 20.8925C43.4173 22.444 43.4501 24.2635 44.1501 25.7917C44.8502 27.3189 46.2079 28.5315 47.8049 29.0547L48.4192 29.114Z" fill="#85BB61"/>
<path d="M48.3162 28.9114C47.2784 28.0726 46.2299 27.2244 45.4081 26.1727C44.5863 25.1211 43.9974 23.8332 44.0239 22.4988C44.2474 23.4467 45.0342 24.1404 45.7788 24.7684C46.2935 25.2015 46.8071 25.6347 47.3218 26.0689C47.1005 25.7014 47.235 25.2312 47.3758 24.8256C47.7136 23.8481 48.0525 22.8695 48.3904 21.892C48.5694 23.2942 48.6446 24.7101 48.6149 26.124C49.4685 25.3265 50.4396 24.6551 51.4881 24.1372C51.1619 25.3456 50.3655 26.3644 49.5892 27.3472C49.2577 27.7666 48.9252 28.186 48.5937 28.6064L48.3162 28.9114Z" fill="#98C779"/>
<path d="M36.7353 26.2264C37.4745 26.381 38.1046 26.3927 38.6659 26.3037L39.5693 25.5423L33.3431 19.7608L31.8827 23.1678C33.0064 24.7246 34.8756 25.8367 36.7353 26.2264Z" fill="#C1554D"/>
<path d="M33.3422 19.7604L38.0105 16.8004L41.9915 22.8709L39.5683 25.5419L33.3422 19.7604Z" fill="#E28D6D"/>
<path d="M39.7239 25.9823L40.6559 25.3479L41.9924 22.8708L39.5693 25.5418L38.6659 26.3032C39.0482 26.2428 39.3988 26.1338 39.7239 25.9823Z" fill="#943402"/>
<path d="M38.1026 26.3552C38.2985 26.3499 38.4849 26.3319 38.665 26.3033L39.5683 25.5419L41.9915 22.8709L39.6742 24.6649L33.3422 19.7594L38.7253 25.6912L38.1026 26.3552Z" fill="#EE9C7D"/>
<path d="M39.4366 24.8041C39.5097 25.2118 39.3191 25.5867 39.012 25.6418C38.7048 25.6969 38.3967 25.4109 38.3236 25.0032C38.2505 24.5954 38.4411 24.2205 38.7483 24.1655C39.0554 24.1104 39.3646 24.3963 39.4366 24.8041Z" fill="#FFB78F"/>
<path d="M34.8077 32.4677C34.8077 32.8182 34.5705 33.1031 34.2782 33.1031C33.9859 33.1031 33.7487 32.8193 33.7487 32.4677C33.7487 32.1172 33.9859 31.8323 34.2782 31.8323C34.5705 31.8323 34.8077 32.1172 34.8077 32.4677Z" fill="#C1554D"/>
<path d="M45.7863 34.2005C45.7863 34.514 45.4855 34.7671 45.1138 34.7671C44.742 34.7671 44.4413 34.5129 44.4413 34.2005C44.4413 33.888 44.742 33.6339 45.1138 33.6339C45.4855 33.6339 45.7863 33.887 45.7863 34.2005Z" fill="#C1554D"/>
<path d="M19.8228 30.5307C18.3719 32.1754 17.6909 34.4037 17.6432 36.5959C17.5956 38.7882 18.1399 40.9571 18.9003 43.0149C17.9154 39.0572 18.3072 34.7711 19.9943 31.0581L19.8228 30.5307Z" fill="#FFE199"/>
<path d="M44.2433 57.2197C45.3595 57.0503 46.3815 56.5102 47.3781 55.9785C48.6489 55.2997 49.9272 54.6176 51.0678 53.7376C52.2084 52.8575 53.2166 51.7624 53.7959 50.4428C52.3397 52.1108 50.4228 53.298 48.5377 54.4598C47.5475 55.0699 46.5562 55.6799 45.566 56.2909C45.1371 56.5557 44.6722 56.956 44.2433 57.2197Z" fill="#FFE199"/>
<path d="M55.6431 35.304C55.5108 32.3291 54.6487 29.3892 53.1544 26.8136C53.5918 26.7362 53.9105 27.2033 54.1043 27.6026C54.4019 28.2126 54.6985 28.8237 54.9961 29.4337C55.2163 29.8848 55.4366 30.3381 55.6061 30.8105C56.0964 32.1788 56.1377 33.7038 55.7236 35.0975L55.6431 35.304Z" fill="#FFE199"/>
</svg>
