<svg width="24" height="24" viewBox="0 0 24 24" fill="none" xmlns="http://www.w3.org/2000/svg">
<path d="M14.0281 8.52539L5.94105 22.5325" stroke="#97A2B0" stroke-width="1.25" stroke-linecap="round" stroke-linejoin="round"/>
<path d="M12.2639 20.1206C10.6716 20.4888 8.07056 19.174 8.07056 19.174C8.07056 19.174 9.59783 16.4511 11.3837 16.172C12.9607 15.9256 15.3642 17.4872 15.3642 17.4872C15.3642 17.4872 13.8562 19.7523 12.2639 20.1206Z" stroke="#97A2B0" stroke-width="1.25" stroke-linecap="round" stroke-linejoin="round"/>
<path d="M15.6703 14.2202C14.078 14.5884 11.4769 13.2736 11.4769 13.2736C11.4769 13.2736 13.0042 10.5507 14.7901 10.2716C16.3671 10.0252 18.7706 11.5868 18.7706 11.5868C18.7706 11.5868 17.2625 13.852 15.6703 14.2202Z" stroke="#97A2B0" stroke-width="1.25" stroke-linecap="round" stroke-linejoin="round"/>
<path d="M17.5099 6.36511C16.7214 7.73074 14.0283 8.52534 14.0283 8.52534C14.0283 8.52534 13.047 5.43947 14.0295 4.00817C14.8971 2.74424 17.6399 2.26984 17.6399 2.26984C17.6399 2.26984 18.2983 4.99947 17.5099 6.36511Z" stroke="#97A2B0" stroke-width="1.25" stroke-linecap="round" stroke-linejoin="round"/>
<path d="M4.75929 15.7881C5.23652 17.3512 7.67572 18.9463 7.67572 18.9463C7.67572 18.9463 9.27017 16.2623 8.61893 14.5761C8.04383 13.0871 5.48967 11.7865 5.48967 11.7865C5.48967 11.7865 4.28205 14.225 4.75929 15.7881Z" stroke="#97A2B0" stroke-width="1.25" stroke-linecap="round" stroke-linejoin="round"/>
<path d="M8.1659 9.88722C8.64314 11.4503 11.0823 13.0455 11.0823 13.0455C11.0823 13.0455 12.6768 10.3614 12.0255 8.67524C11.4504 7.18626 8.89629 5.8856 8.89629 5.8856C8.89629 5.8856 7.68866 8.32416 8.1659 9.88722Z" stroke="#97A2B0" stroke-width="1.25" stroke-linecap="round" stroke-linejoin="round"/>
</svg>
