<svg width="22" height="22" viewBox="0 0 22 22" fill="none" xmlns="http://www.w3.org/2000/svg">
<path d="M6.66016 6.66016C6.34505 6.94661 6.02995 6.94661 5.71484 6.66016C5.42839 6.34505 5.42839 6.02995 5.71484 5.71484L7.08984 4.33984C7.40495 4.05339 7.72005 4.05339 8.03516 4.33984C8.32161 4.65495 8.32161 4.97005 8.03516 5.28516L6.66016 6.66016ZM0 11C0.0286458 8.9375 0.529948 7.08984 1.50391 5.45703C2.47786 3.79557 3.79557 2.47786 5.45703 1.50391C7.08984 0.529948 8.9375 0.0286458 11 0C13.0625 0.0286458 14.9102 0.529948 16.543 1.50391C18.2044 2.47786 19.5221 3.79557 20.4961 5.45703C21.4701 7.08984 21.9714 8.9375 22 11C21.9714 13.0625 21.4701 14.9102 20.4961 16.543C19.5221 18.2044 18.2044 19.5221 16.543 20.4961C14.9102 21.4701 13.0625 21.9714 11 22C8.9375 21.9714 7.08984 21.4701 5.45703 20.4961C3.79557 19.5221 2.47786 18.2044 1.50391 16.543C0.529948 14.9102 0.0286458 13.0625 0 11ZM11 19.9375C11.2578 19.9375 11.5013 19.9232 11.7305 19.8945C11.7018 19.8086 11.6875 19.7083 11.6875 19.5938C11.6302 18.9635 11.2865 18.6198 10.6562 18.5625H9.75391C9.20964 18.5625 8.7513 18.3763 8.37891 18.0039L7.69141 17.3164C7.14714 16.7721 6.875 16.1276 6.875 15.3828V15.2109C6.90365 14.2656 7.31901 13.5065 8.12109 12.9336L9.28125 12.1602C9.73958 11.8451 10.2409 11.6875 10.7852 11.6875H11.6875C12.375 11.6875 12.9622 11.9023 13.4492 12.332L14.6523 13.3203C14.9674 13.6068 15.3398 13.75 15.7695 13.75C16.2565 13.75 16.6576 13.9076 16.9727 14.2227L17.5742 14.8242C17.7747 15.0247 18.0039 15.125 18.2617 15.125C18.4909 15.125 18.6771 15.1823 18.8203 15.2969C19.1068 14.8099 19.3216 14.2943 19.4648 13.75H19.207C18.5482 13.75 17.9896 13.5208 17.5312 13.0625L16.7578 12.2891C16.5859 12.1172 16.5 11.9167 16.5 11.6875C16.5 11.4297 16.5859 11.2292 16.7578 11.0859L17.0586 10.7852C17.0872 10.7565 17.1016 10.7279 17.1016 10.6992C17.1589 10.6419 17.1875 10.5703 17.1875 10.4844C17.1589 10.3411 17.1159 10.2409 17.0586 10.1836L16.8008 9.92578C16.6003 9.72526 16.3711 9.625 16.1133 9.625H15.5977C15.3112 9.59635 15.1536 9.4388 15.125 9.15234C15.125 9.00911 15.168 8.89453 15.2539 8.80859L15.4688 8.59375C15.6979 8.36458 15.9701 8.25 16.2852 8.25H17.1875C17.6172 8.22135 17.8464 7.99219 17.875 7.5625C17.8464 7.13281 17.6172 6.90365 17.1875 6.875H15.9414C15.4544 6.93229 15.1823 7.20443 15.125 7.69141C15.0964 8.0638 14.9102 8.30729 14.5664 8.42188L13.6641 8.72266C13.3203 8.89453 13.2201 9.15234 13.3633 9.49609L13.4062 9.625C13.5208 9.9974 13.3776 10.2266 12.9766 10.3125C12.8047 10.3125 12.6758 10.2552 12.5898 10.1406L11.8594 9.19531C11.7448 9.02344 11.5872 8.9375 11.3867 8.9375C11.1289 8.9375 10.9427 9.05208 10.8281 9.28125L10.6562 9.625C10.4271 10.0547 10.0547 10.2839 9.53906 10.3125C9.16667 10.3125 8.86589 10.1836 8.63672 9.92578C8.37891 9.69661 8.25 9.39583 8.25 9.02344V8.85156C8.25 8.45052 8.39323 8.10677 8.67969 7.82031L9.45312 7.04688C9.56771 6.93229 9.625 6.78906 9.625 6.61719C9.65365 6.33073 9.79688 6.14453 10.0547 6.05859L11.1719 5.67188C11.5156 5.52865 11.8164 5.34245 12.0742 5.11328L12.9336 4.25391C13.0195 4.16797 13.0625 4.05339 13.0625 3.91016C13.0339 3.6237 12.8763 3.46615 12.5898 3.4375H12.5469C12.4323 3.4375 12.332 3.46615 12.2461 3.52344L10.4414 4.72656C10.3555 4.78385 10.2552 4.8125 10.1406 4.8125C9.82552 4.78385 9.65365 4.61198 9.625 4.29688V3.91016C9.625 3.59505 9.75391 3.35156 10.0117 3.17969L11.4297 2.0625C11.2865 2.0625 11.1432 2.0625 11 2.0625C8.47917 2.11979 6.3737 2.99349 4.68359 4.68359C2.99349 6.3737 2.11979 8.47917 2.0625 11C2.11979 13.5208 2.99349 15.6263 4.68359 17.3164C6.3737 19.0065 8.47917 19.8802 11 19.9375Z" fill="#FF7A00"/>
</svg>
