<svg width="16" height="18" viewBox="0 0 16 18" fill="none" xmlns="http://www.w3.org/2000/svg">
<path d="M10.8856 3.2891C9.32915 2.2208 8.03203 1.33047 6.95435 0.769615C5.86818 0.204336 4.62315 -0.238075 3.30628 0.141888C2.73819 0.305804 2.20618 0.576965 1.74031 0.941737C0.650929 1.79471 0.301441 3.07237 0.149854 4.2771C-0.000109213 5.46892 -5.834e-05 7.02506 2.43459e-06 8.88414V9.11609C-5.834e-05 10.9752 -0.000109213 12.5314 0.149854 13.7232C0.301441 14.928 0.650929 16.2056 1.74031 17.0586C2.20617 17.4234 2.73819 17.6945 3.30628 17.8584C4.62315 18.2384 5.86818 17.796 6.95435 17.2307C8.032 16.6699 9.3291 15.7796 10.8855 14.7113L11.0652 14.588C12.2548 13.7715 13.2735 13.0724 14.0086 12.4241C14.7733 11.7495 15.4807 10.921 15.6819 9.7762C15.7721 9.26268 15.7721 8.73765 15.6819 8.22413C15.4807 7.0793 14.7733 6.25079 14.0086 5.57624C13.2735 4.92789 12.2548 4.2288 11.0652 3.41236L10.8856 3.2891Z" fill="white"/>
</svg>
