<svg width="65" height="65" viewBox="0 0 65 65" fill="none" xmlns="http://www.w3.org/2000/svg">
<path d="M55.481 55.481C68.173 42.7889 68.173 22.2111 55.481 9.51903C42.7889 -3.17301 22.2111 -3.17301 9.51903 9.51903C-3.17301 22.2111 -3.17301 42.7889 9.51903 55.481C22.2111 68.173 42.7889 68.173 55.481 55.481Z" fill="#3DA0A7"/>
<path d="M32.5018 63.9884C49.8923 63.9884 63.9901 49.8905 63.9901 32.5C63.9901 15.1095 49.8923 1.01166 32.5018 1.01166C15.1112 1.01166 1.01343 15.1095 1.01343 32.5C1.01343 49.8905 15.1112 63.9884 32.5018 63.9884Z" fill="#FFF6FA"/>
<path d="M54.3552 54.3551C66.4256 42.2847 66.4256 22.7147 54.3552 10.6443C42.2848 -1.42614 22.7148 -1.42614 10.6444 10.6443C-1.42605 22.7147 -1.42605 42.2847 10.6444 54.3551C22.7148 66.4255 42.2848 66.4255 54.3552 54.3551Z" fill="#BCE5E8"/>
<path d="M19.6162 60.5934C23.5391 62.3958 27.9006 63.4087 32.5018 63.4087C49.572 63.4087 63.4104 49.5703 63.4104 32.5001C63.4104 22.6276 58.7754 13.8427 51.5695 8.18393C52.2779 11.848 52.5268 15.6259 52.7592 19.3611C53.0136 23.4408 53.2643 27.5698 52.5176 31.5885C51.595 36.5516 49.1873 41.1218 46.3939 45.3265C43.3444 49.9159 39.7232 54.2409 35.0955 57.2321C30.5454 60.174 24.9103 61.7129 19.6162 60.5934Z" fill="#8FD2D7"/>
<path d="M57.965 51.3135C57.965 51.7803 57.6186 52.1587 57.191 52.1587C56.7634 52.1587 56.417 51.7803 56.417 51.3135C56.417 50.8468 56.7634 50.4684 57.191 50.4684C57.6186 50.4684 57.965 50.8468 57.965 51.3135Z" fill="white"/>
<path d="M54.797 55.08C54.797 55.41 54.5053 55.6781 54.1461 55.6781C53.7869 55.6781 53.4951 55.41 53.4951 55.08C53.4951 54.75 53.7869 54.482 54.1461 54.482C54.5053 54.482 54.797 54.75 54.797 55.08Z" fill="white"/>
<path d="M50.0409 50.0404C59.7284 40.3529 59.7284 24.6463 50.0409 14.9588C40.3533 5.27127 24.6468 5.27127 14.9592 14.9588C5.27172 24.6463 5.27172 40.3529 14.9592 50.0404C24.6468 59.7279 40.3533 59.7279 50.0409 50.0404Z" fill="#FFF6FA"/>
<path d="M32.5014 56.2418C45.6136 56.2418 56.2432 45.6122 56.2432 32.4999C56.2432 19.3876 45.6136 8.75806 32.5014 8.75806C19.3891 8.75806 8.75952 19.3876 8.75952 32.4999C8.75952 45.6122 19.3891 56.2418 32.5014 56.2418Z" fill="#ADDFE2"/>
<path d="M47.4429 47.4425C55.6956 39.1898 55.6956 25.8095 47.4429 17.5568C39.1902 9.30403 25.8099 9.30402 17.5571 17.5567C9.30442 25.8095 9.30442 39.1898 17.5571 47.4425C25.8099 55.6953 39.1902 55.6953 47.4429 47.4425Z" fill="#FFF6FA"/>
<path d="M32.5018 52.7463C43.8432 52.7463 53.0373 43.6816 53.0373 32.4998C53.0373 21.318 43.8432 12.2533 32.5018 12.2533C21.1604 12.2533 11.9663 21.318 11.9663 32.4998C11.9663 43.6816 21.1604 52.7463 32.5018 52.7463Z" fill="#BCE5E8"/>
<path d="M9.24935 12.2528C9.67683 12.2528 10.0234 11.8565 10.0234 11.3676C10.0234 10.8787 9.67683 10.4823 9.24935 10.4823C8.82188 10.4823 8.47534 10.8787 8.47534 11.3676C8.47534 11.8565 8.82188 12.2528 9.24935 12.2528Z" fill="white"/>
<path d="M12.6937 9.09742C13.1629 9.09742 13.5433 8.71945 13.5433 8.25321C13.5433 7.78696 13.1629 7.409 12.6937 7.409C12.2244 7.409 11.844 7.78696 11.844 8.25321C11.844 8.71945 12.2244 9.09742 12.6937 9.09742Z" fill="white"/>
<path d="M37.1245 34.2145C36.8955 35.6439 36.2085 36.5587 35.1779 37.1305C34.1474 37.8738 32.8306 37.8738 31.3993 37.931C30.0253 37.5879 28.823 36.8446 27.9642 36.1585C27.1627 35.1293 26.7047 34.1573 26.8765 32.7851C26.9337 32.442 27.9643 33.414 29.5673 33.1281C31.1131 33.2996 33.0024 33.6999 34.5482 33.8142C35.9795 34.1001 37.1245 34.1573 37.1245 34.2145Z" fill="#98C779"/>
<path d="M35.1194 37.1877C34.4324 37.6452 33.6309 37.8167 32.7721 37.931C32.9439 37.8739 33.1729 37.7595 33.3446 37.6452C34.4324 37.0162 35.2339 36.1014 35.6347 34.5004C35.6347 34.4432 34.4897 34.2717 33.0011 33.9858C31.9134 33.8143 30.5966 33.5284 29.3943 33.2425C29.3943 33.2425 29.3943 33.2425 29.4515 33.2425C30.9973 33.4141 32.8866 33.8143 34.4324 33.9286C35.9782 34.1574 37.1232 34.2145 37.1232 34.2717C36.8942 35.644 36.15 36.5588 35.1194 37.1877Z" fill="#7AAE56"/>
<path d="M26.8181 32.8417C26.8754 32.7277 27.0471 32.8417 27.3906 32.9558C27.1616 32.8988 26.9899 32.8988 26.8181 32.8417Z" fill="#8D9A24"/>
<path d="M31.5699 38.5033C30.8256 39.7612 29.7951 40.2758 28.5928 40.4473C27.3333 40.676 26.131 40.2186 24.8142 39.704C23.6692 38.8464 22.8677 37.6457 22.3524 36.7308C22.0089 35.4729 21.9517 34.3865 22.6387 33.1858C22.8104 32.8999 23.3829 34.215 24.9287 34.5581C26.2455 35.3586 27.8486 36.3878 29.2226 37.1311C30.5394 37.9315 31.5699 38.4461 31.5699 38.5033Z" fill="#98C779"/>
<path d="M28.5927 40.4469C27.7912 40.6185 26.9896 40.4469 26.1881 40.2182C26.4171 40.2182 26.5889 40.2182 26.8179 40.161C28.0774 39.9895 29.1652 39.4749 30.1385 38.1598C30.1957 38.1027 29.1652 37.5309 27.9057 36.6161C26.9324 36.0443 25.9019 35.2438 24.8713 34.5577C24.8713 34.5577 24.8713 34.5577 24.9286 34.5577C26.2454 35.3582 27.8484 36.3873 29.2225 37.1307C30.5392 37.9311 31.5698 38.4457 31.5125 38.5029C30.7682 39.7036 29.795 40.2754 28.5927 40.4469Z" fill="#7AAE56"/>
<path d="M22.6384 33.1281C22.6957 33.0138 22.8674 33.1853 23.0964 33.4712C22.9247 33.3568 22.8102 33.2425 22.6384 33.1281Z" fill="#8D9A24"/>
<path d="M26.3027 36.445C25.8447 37.8173 24.9859 38.5606 23.8409 39.018C22.6959 39.5326 21.3791 39.361 19.9478 39.1895C18.631 38.6177 17.6005 37.6457 16.8562 36.8453C16.2265 35.7017 15.9402 34.6725 16.341 33.3574C16.4555 33.0716 17.3142 34.1579 18.9173 34.1579C20.4058 34.6153 22.1806 35.3015 23.6691 35.6445C25.2149 36.1019 26.3027 36.3878 26.3027 36.445Z" fill="#98C779"/>
<path d="M23.898 39.0176C23.1537 39.3607 22.3522 39.4179 21.4934 39.3607C21.7224 39.3035 21.8942 39.2463 22.1232 39.132C23.3255 38.6746 24.2415 37.9313 24.9285 36.4446C24.9285 36.3875 23.8407 36.0444 22.4095 35.4726C21.3217 35.1296 20.1194 34.615 18.9744 34.1576C18.9744 34.1576 18.9744 34.1576 19.0316 34.1576C20.5201 34.615 22.2949 35.3011 23.7835 35.6442C25.272 36.1016 26.3598 36.3875 26.3598 36.4446C25.8445 37.8169 24.9858 38.5602 23.898 39.0176Z" fill="#7AAE56"/>
<path d="M16.3982 33.2999C16.4554 33.1855 16.6272 33.2999 16.9135 33.5286C16.7417 33.4714 16.5699 33.357 16.3982 33.2999Z" fill="#8D9A24"/>
<path d="M43.8789 16.6039C44.8522 16.1465 48.1728 16.4324 48.459 16.6039C48.8025 17.0613 48.7453 17.4616 48.688 17.5187C48.6308 17.6331 44.6804 17.29 43.8789 16.6039Z" fill="#F05942"/>
<path d="M43.3635 16.3183C44.5658 15.9181 48.8597 16.4898 49.2604 16.6614C49.7184 17.176 49.7184 17.519 49.6612 17.6334C49.6039 17.8049 44.4513 17.1188 43.3635 16.3183Z" fill="#EF6837"/>
<path d="M43.1343 16.3754C44.0503 17.2331 48.1724 18.5482 48.6304 18.5482C49.2602 18.2623 49.4319 17.9192 49.4319 17.8049C49.4319 17.6905 44.4511 16.0895 43.1343 16.3754Z" fill="#FF975C"/>
<path d="M43.3635 16.204C44.4513 15.6322 48.2872 15.575 48.6879 15.6894C49.1459 16.204 49.1459 16.6042 49.0887 16.7186C49.0314 16.8901 44.3368 16.8901 43.3635 16.204Z" fill="#FE804E"/>
<path d="M43.1919 16.6041C44.2797 16.6041 47.4285 18.3766 47.7148 18.6053C47.9438 19.2342 47.772 19.5773 47.7148 19.6917C47.6003 19.806 43.7644 17.6333 43.1919 16.6041Z" fill="#FE804E"/>
<path d="M43.1919 16.6617C43.6499 17.6338 46.398 20.0924 46.6842 20.2639C47.2568 20.3211 47.4285 20.0924 47.4858 20.0352C47.543 19.978 44.2224 17.0048 43.1919 16.6617Z" fill="#EA6F5E"/>
<path d="M43.4779 15.7464C43.3634 15.2889 42.8482 14.8315 42.1612 14.5456C42.0467 14.4885 41.9894 14.4885 41.8749 14.4313C41.8177 14.3741 41.7604 14.3741 41.7604 14.3169C41.5314 13.9739 41.1306 13.688 40.6154 13.4593H40.5581C40.5009 13.4021 40.3864 13.3449 40.3291 13.2877C40.1574 12.8875 39.6993 12.5444 39.1268 12.2585C39.0696 12.2585 39.0696 12.2585 39.0123 12.2014C38.7833 11.8583 38.3826 11.5152 37.8673 11.3437C37.4665 11.1722 37.123 11.115 36.7795 11.115C36.6078 10.9435 36.3215 10.8291 36.0925 10.7148C35.749 10.6004 35.4627 10.5432 35.1765 10.4861C35.1765 10.4861 35.1765 10.4861 35.1192 10.4861C34.8902 10.2002 34.5467 9.97146 34.146 9.79993C33.6307 9.57122 33.1727 9.57122 32.7719 9.6284C32.5429 9.39969 32.1994 9.17098 31.8559 8.99945C31.6841 8.94227 31.4551 8.8851 31.2834 8.82792C31.0544 8.48486 30.6536 8.19897 30.1384 8.02744C29.3941 7.74155 28.6498 7.74155 28.249 8.02744C28.0773 7.91308 27.9628 7.85591 27.7338 7.79873C27.2758 7.68437 26.7605 7.74155 26.4742 7.91308C26.417 7.91308 26.3598 7.91308 26.2452 7.8559C26.1307 7.74155 25.959 7.68437 25.8445 7.62719C25.4437 7.51284 25.043 7.62719 24.7567 7.91308C24.6422 7.97026 24.4705 8.02744 24.356 8.08461C23.6689 7.91308 22.9819 8.25615 22.8102 8.82792C22.7529 8.99945 22.7529 9.17098 22.8102 9.34251L22.7529 9.39969C22.4094 9.51404 22.0659 9.79993 22.0086 10.143C21.9514 10.3145 21.9514 10.4861 22.0086 10.6576C21.7796 10.7719 21.4934 11.115 21.3789 11.5152C21.2644 11.9155 21.2644 12.3157 21.4361 12.5444C21.4361 13.1162 22.1231 13.7452 23.0392 14.031C23.3254 14.0882 23.5544 14.1454 23.8407 14.1454C24.1842 14.4885 24.6422 14.7743 25.272 14.9459C25.6155 15.0602 25.959 15.0602 26.2452 15.0602C26.5315 15.2889 26.9323 15.4605 27.333 15.5748C27.791 15.6892 28.1918 15.7464 28.5926 15.6892C28.5926 15.6892 28.5926 15.6892 28.6498 15.6892C28.9933 15.9751 29.3941 16.2038 29.9666 16.3753C30.7109 16.604 31.3979 16.5468 31.8559 16.3753C32.3712 16.5468 32.8864 16.5468 33.2872 16.4325C33.5734 16.5468 33.9169 16.6612 34.3177 16.6612C34.7185 16.6612 35.1192 16.604 35.4055 16.4897C35.4627 16.4897 35.4627 16.4897 35.52 16.4897C35.749 16.6612 36.0925 16.8327 36.4933 16.8327C36.7795 16.8327 37.0658 16.7755 37.2948 16.6612C37.6383 16.8899 38.0963 17.0614 38.6688 17.1186C39.2413 17.1186 39.7566 17.0042 40.1001 16.7755C40.2146 16.7755 40.2719 16.7755 40.3864 16.7755C40.4436 16.7755 40.4436 16.8327 40.5009 16.8327C41.0161 17.0614 41.5314 17.1186 41.9321 17.0042C43.0772 17.2901 44.9092 17.1758 43.4779 15.7464Z" fill="#F8D581"/>
<path d="M43.9361 16.8898C43.5926 17.2329 42.6194 17.2329 41.8178 17.1185C41.4171 17.2329 40.9018 17.1757 40.3866 16.947C40.3293 16.947 40.3293 16.947 40.272 16.8898C40.2148 16.8898 40.1003 16.8898 39.9858 16.8898C39.6423 17.1185 39.127 17.2329 38.5545 17.2329C37.982 17.2329 37.4667 17.0613 37.1805 16.7755C36.9515 16.8898 36.6652 16.947 36.379 16.947C35.9782 16.947 35.6347 16.7755 35.4057 16.6039C35.4057 16.6039 35.3484 16.6039 35.2912 16.6039C35.0049 16.7183 34.6041 16.7755 34.2034 16.7755C33.8026 16.7755 33.4591 16.6611 33.1729 16.5468C32.8294 16.6611 32.3141 16.6611 31.7416 16.4896C31.2836 16.7183 30.5966 16.7183 29.8523 16.4896C29.337 16.318 28.879 16.0893 28.5355 15.8035H28.4782C28.0775 15.8606 27.6767 15.8035 27.2187 15.6891C26.818 15.5747 26.4172 15.4032 26.1309 15.1745C25.8447 15.1745 25.5012 15.1173 25.1577 15.003C24.5851 14.8314 24.0699 14.5456 23.7264 14.2025C23.4974 14.2025 23.2111 14.1453 22.9249 14.0881C22.0088 13.8023 21.3218 13.1733 21.3218 12.6015C21.2073 12.3728 21.1501 11.9726 21.2646 11.5723C21.3218 11.4008 21.3791 11.2293 21.4936 11.1149C21.4936 11.1721 21.5508 11.2293 21.5508 11.2865C21.5508 11.9154 22.2378 12.6587 23.2111 13.0018C23.4974 13.1161 23.7836 13.1733 24.0699 13.1733C24.4134 13.5735 24.9287 13.8594 25.5584 14.0881C25.9019 14.2025 26.3027 14.2597 26.6462 14.2597C26.9325 14.4884 27.3332 14.7171 27.7912 14.8314C28.2492 15.003 28.7645 15.0602 29.1653 15.003C29.1653 15.003 29.1653 15.003 29.2225 15.003C29.566 15.346 30.024 15.6319 30.5965 15.8035C31.3981 16.0322 32.1423 16.0322 32.6576 15.8606C33.2301 16.0322 33.8026 16.0893 34.2034 15.9178C34.4896 16.0893 34.8904 16.2037 35.3484 16.2037C35.8064 16.2609 36.2072 16.1465 36.5507 16.0322C36.608 16.0322 36.608 16.0322 36.6652 16.0322C36.8942 16.2609 37.295 16.4324 37.6957 16.4324C38.0392 16.4324 38.3255 16.3752 38.5545 16.2609C38.898 16.5468 39.4133 16.7755 40.043 16.7755C40.6728 16.8326 41.2453 16.6611 41.5888 16.4324C41.7033 16.4324 41.7606 16.4324 41.8751 16.4896C41.9324 16.4896 41.9323 16.5468 41.9896 16.5468C42.5621 16.8326 43.1346 16.8898 43.5926 16.7755C43.7071 16.8326 43.8216 16.8326 43.9361 16.8898Z" fill="#F4C960"/>
<path d="M26.6461 9.1714C26.5889 9.22858 26.5316 9.22858 26.4744 9.28575C26.5316 9.28575 26.5316 9.28576 26.5889 9.22858C26.9896 9.11422 27.3904 9.11422 27.7339 9.28575C27.8484 9.34293 27.9629 9.45729 28.0774 9.51446C28.5927 9.28576 29.6805 9.57164 30.0812 10.1434C30.482 10.0862 30.94 10.1434 31.2835 10.3721C31.5125 10.4865 31.6843 10.658 31.7988 10.7724C31.9705 10.4293 31.6843 10.1434 31.2835 9.85753C30.94 9.68599 30.5392 9.62882 30.1957 9.686C29.8522 9.22858 28.8789 8.94269 28.4209 9.1714C28.3064 9.05705 28.2492 8.99987 28.1347 8.94269C27.8484 8.77116 27.4476 8.82834 27.1041 8.88552C27.0469 8.88552 26.9324 8.94269 26.8751 8.94269C26.7606 9.05705 26.7034 9.11422 26.6461 9.1714Z" fill="#F4C960"/>
<path d="M41.1306 20.949C41.9894 20.3201 45.31 19.977 45.5962 20.0342C45.997 20.4344 46.0542 20.7775 45.997 20.8918C45.997 21.0634 41.9894 21.4636 41.1306 20.949Z" fill="#F05942"/>
<path d="M40.5583 20.7775C41.6461 20.2057 45.94 19.9198 46.398 19.977C46.9705 20.3772 47.0278 20.7775 46.9705 20.8918C46.9705 21.0062 41.7606 21.3492 40.5583 20.7775Z" fill="#EF6837"/>
<path d="M40.3291 20.8347C41.4169 21.5209 45.7107 21.9783 46.1115 21.9211C46.684 21.5209 46.7985 21.1778 46.7413 21.0635C46.7413 20.9491 41.5314 20.3773 40.3291 20.8347Z" fill="#FF975C"/>
<path d="M40.5007 20.6633C41.4168 19.8629 45.1954 19.1196 45.5961 19.1767C46.1114 19.577 46.2259 19.9772 46.1686 20.0916C46.2259 20.2059 41.6458 21.1779 40.5007 20.6633Z" fill="#FE804E"/>
<path d="M40.4438 21.1207C41.4744 20.892 44.9667 22.0356 45.253 22.2643C45.5965 22.8361 45.5392 23.1791 45.482 23.2935C45.4247 23.3506 41.1881 22.0356 40.4438 21.1207Z" fill="#FE804E"/>
<path d="M40.4438 21.1773C41.0736 22.0349 44.2224 23.979 44.5659 24.0361C45.1385 23.979 45.253 23.7502 45.253 23.6359C45.3102 23.5787 41.5316 21.2916 40.4438 21.1773Z" fill="#EA6F5E"/>
<path d="M40.5579 20.1491C40.3862 19.7488 39.8137 19.3486 39.0694 19.2342C38.9549 19.2342 38.8404 19.1771 38.7831 19.1771C38.7259 19.1771 38.6686 19.1199 38.6114 19.1199C38.3251 18.834 37.8671 18.6053 37.3518 18.4909H37.2946C37.1801 18.4338 37.1229 18.4338 37.0084 18.3766C36.7793 18.0335 36.2641 17.7476 35.6343 17.6333C35.5771 17.6333 35.5771 17.6333 35.5198 17.6333C35.2336 17.3474 34.7755 17.1187 34.203 17.0043C33.8023 16.9472 33.4015 16.9472 33.1152 17.0043C32.8862 16.89 32.6572 16.7756 32.371 16.7184C32.0275 16.6613 31.684 16.6613 31.455 16.6613C31.455 16.6613 31.4549 16.6613 31.3977 16.6613C31.1114 16.4326 30.7107 16.261 30.3099 16.2039C29.7947 16.0895 29.2794 16.1467 28.9359 16.261C28.6496 16.0895 28.3061 15.918 27.9054 15.8608C27.6763 15.8036 27.5046 15.8036 27.2756 15.8036C26.9893 15.5177 26.5313 15.3462 26.0161 15.2318C25.2145 15.0603 24.5275 15.2318 24.184 15.5749C24.0123 15.5177 23.8405 15.4606 23.6688 15.4606C23.1535 15.4034 22.6955 15.5749 22.4665 15.8036C22.4092 15.8036 22.352 15.8036 22.2375 15.8036C22.123 15.7464 21.9512 15.6893 21.7795 15.6321C21.3787 15.5749 20.9779 15.8036 20.8062 16.0895C20.6917 16.1467 20.5772 16.2039 20.4627 16.3182C19.7184 16.3182 19.1459 16.7756 19.0886 17.3474C19.0886 17.5189 19.0886 17.6905 19.2031 17.862L19.1459 17.9192C18.8024 18.0907 18.5734 18.4338 18.5161 18.7768C18.5161 18.9484 18.5161 19.1199 18.6306 19.2914C18.4016 19.463 18.2299 19.806 18.1726 20.2634C18.1154 20.6637 18.2299 21.0639 18.4016 21.2926C18.5161 21.8644 19.2604 22.3218 20.2337 22.4362C20.5199 22.4362 20.8062 22.4362 21.0352 22.379C21.4359 22.6077 21.9512 22.8364 22.581 22.8936C22.9245 22.9508 23.268 22.8936 23.5543 22.8364C23.8978 23.0079 24.2985 23.0651 24.6993 23.1223C25.1573 23.1795 25.6153 23.1223 25.9588 23.0079C25.9588 23.0079 25.9588 23.0079 26.0161 23.0079C26.3596 23.2366 26.8748 23.4082 27.4474 23.4082C28.1916 23.4654 28.8786 23.2938 29.2794 23.0079C29.8519 23.0651 30.3672 22.9508 30.7107 22.7792C30.9969 22.8364 31.3977 22.8936 31.7985 22.8364C32.1992 22.7792 32.5427 22.6649 32.829 22.4933C32.8862 22.4933 32.8862 22.4933 32.9435 22.4933C33.2298 22.6077 33.5733 22.6649 33.974 22.6077C34.2603 22.5505 34.5465 22.4362 34.7183 22.3218C35.0618 22.4933 35.5771 22.6077 36.1496 22.4933C36.7221 22.4362 37.1801 22.2075 37.4664 21.9216C37.5809 21.9216 37.6381 21.9216 37.7526 21.8644C37.8099 21.8644 37.8099 21.8644 37.8671 21.8644C38.4396 21.9787 38.9549 21.9216 39.2984 21.75C40.4434 21.8072 42.2755 21.2926 40.5579 20.1491Z" fill="#F8D581"/>
<path d="M41.1881 21.2352C40.9591 21.6355 39.9858 21.807 39.1843 21.8642C38.8408 22.0357 38.2682 22.0929 37.6957 21.9785C37.6385 21.9785 37.6385 21.9785 37.5812 21.9785C37.524 21.9785 37.4095 21.9785 37.295 21.9785C37.0087 22.2644 36.5507 22.4931 35.9782 22.5503C35.4057 22.6647 34.8904 22.5503 34.5469 22.3788C34.3179 22.5503 34.0889 22.6075 33.8026 22.6647C33.4019 22.7218 33.0584 22.6647 32.7721 22.5503H32.7149C32.4286 22.7218 32.0851 22.8362 31.6843 22.8934C31.2836 22.9505 30.9401 22.9505 30.5965 22.8362C30.253 23.0077 29.7378 23.1221 29.1653 23.0649C28.7645 23.3508 28.0775 23.5223 27.3332 23.4651C26.7607 23.408 26.3027 23.2364 25.9019 23.0649H25.8447C25.5012 23.1793 25.0432 23.2364 24.5851 23.1793C24.1844 23.1221 23.7836 23.0649 23.4401 22.8934C23.1539 22.9505 22.8103 22.9505 22.4668 22.9505C21.8371 22.8934 21.3218 22.7218 20.921 22.436C20.692 22.4931 20.4058 22.4931 20.1195 22.436C19.1463 22.3788 18.3447 21.8642 18.2302 21.2924C18.0585 21.0637 17.944 20.7206 18.0012 20.2632C18.0012 20.0917 18.0585 19.9202 18.1157 19.7486C18.1157 19.8058 18.173 19.863 18.173 19.863C18.2875 20.4919 19.089 21.0637 20.1768 21.2352C20.463 21.2924 20.7493 21.2924 21.0355 21.2352C21.4363 21.5211 22.0088 21.7498 22.6958 21.8642C23.0966 21.9214 23.4401 21.9214 23.7836 21.8642C24.1271 22.0357 24.5279 22.1501 25.0431 22.2072C25.5584 22.2644 26.0164 22.2072 26.4172 22.1501C26.4172 22.1501 26.4172 22.1501 26.4744 22.1501C26.8752 22.436 27.3905 22.6075 28.0202 22.6647C28.8217 22.779 29.566 22.6075 30.024 22.3216C30.6538 22.3788 31.1691 22.3216 31.5698 22.0929C31.9133 22.2072 32.3141 22.2072 32.7149 22.1501C33.1729 22.0929 33.5736 21.9785 33.8599 21.7498C33.9171 21.7498 33.9171 21.7498 33.9744 21.7498C34.2606 21.9214 34.6614 21.9785 35.0622 21.9214C35.4057 21.8642 35.6919 21.7498 35.9209 21.6355C36.3217 21.8642 36.8942 21.9785 37.4667 21.8642C38.0965 21.807 38.6118 21.5211 38.9553 21.2352C39.0698 21.2352 39.127 21.2352 39.2415 21.2352C39.2988 21.2352 39.2988 21.2352 39.356 21.2924C39.9858 21.4639 40.5583 21.4068 40.9591 21.2352C41.0163 21.2352 41.0736 21.2352 41.1881 21.2352Z" fill="#F4C960"/>
<path d="M38.9551 26.896C39.7566 27.6964 42.8482 28.3254 43.1917 28.2682C43.5924 27.8108 43.6497 27.4105 43.5925 27.239C43.5925 27.1247 39.8139 26.3814 38.9551 26.896Z" fill="#F05942"/>
<path d="M38.3826 27.0671C39.4131 27.8676 43.478 28.4394 43.8787 28.3822C44.4512 27.9248 44.5085 27.5246 44.5085 27.353C44.5085 27.2387 39.5848 26.4954 38.3826 27.0671Z" fill="#EF6837"/>
<path d="M38.2109 26.9532C39.2415 26.2671 43.3636 25.924 43.7643 26.0384C44.2796 26.553 44.3369 27.0104 44.3369 27.1248C44.2796 27.2963 39.356 27.6394 38.2109 26.9532Z" fill="#FF975C"/>
<path d="M38.3826 27.1819C39.2413 28.1539 42.7909 29.3547 43.1917 29.2975C43.707 28.8401 43.8215 28.3826 43.8215 28.2111C43.7642 28.0967 39.4131 26.7245 38.3826 27.1819Z" fill="#FE804E"/>
<path d="M38.2686 26.6673C39.2418 27.0104 42.6197 25.8669 42.9059 25.6381C43.2494 24.952 43.1922 24.5518 43.1349 24.4374C43.1349 24.3231 39.0701 25.6381 38.2686 26.6673Z" fill="#FE804E"/>
<path d="M38.325 26.6102C39.012 25.6382 42.1036 23.5798 42.4471 23.4655C42.9623 23.5798 43.0768 23.8657 43.0768 23.98C43.0768 24.0944 39.3555 26.553 38.325 26.6102Z" fill="#EA6F5E"/>
<path d="M38.2683 27.8682C38.0966 27.9826 37.9248 28.0969 37.6386 28.2685C35.8065 28.9546 34.1462 30.4412 32.0852 30.7843C31.9134 30.8414 31.6844 30.8986 31.5127 30.8986C30.5394 31.1273 29.6234 31.2417 28.6501 31.4132C28.4211 31.4132 28.1921 31.4704 27.9631 31.4704C26.131 31.4704 24.0127 32.0993 22.0662 31.985C21.8944 31.985 21.7227 31.985 21.5509 31.9278C21.3792 31.9278 21.2074 31.8706 21.0356 31.8135C20.8066 31.7563 20.5776 31.6991 20.3486 31.5848C18.5166 30.6127 17.028 28.8974 17.1998 26.6675C17.1998 26.496 17.1998 26.3244 17.1998 26.2101C17.1998 25.867 17.1998 25.5811 17.1998 25.2953C17.257 25.0094 17.3715 24.7807 17.4861 24.6663C17.6006 24.552 17.8295 24.4948 18.1731 24.3804C18.3448 24.3232 18.5738 24.3233 18.7456 24.2661C20.8066 23.8658 22.9249 23.6943 24.986 23.4084C25.215 23.4084 25.3867 23.4656 25.6157 23.4656C25.7875 23.4656 26.0165 23.5228 26.1883 23.5799C26.36 23.6371 26.589 23.6371 26.7608 23.6943C27.3333 23.8658 27.9058 23.9802 28.4783 24.0945C28.6501 24.1517 28.8791 24.1517 29.0508 24.2089C31.1119 24.0945 32.8294 25.1237 34.9477 25.4096C35.1195 25.4096 35.2913 25.4668 35.463 25.4668C36.3218 25.5811 37.2378 25.6955 38.0966 25.9242C38.3256 25.9814 38.4973 26.0957 38.6691 26.2101C39.2416 26.6675 39.2416 27.1821 38.2683 27.8682Z" fill="#F8D581"/>
<path d="M20.2338 29.6407C20.4056 28.5543 19.375 28.0969 18.5163 28.3256C18.2873 28.5543 18.1155 28.7258 17.8865 28.9546C17.4857 29.5835 17.4857 30.2124 17.8865 30.6127C18.5163 31.2416 19.7758 30.8414 20.1193 30.1553C20.2338 29.9837 20.2338 29.8122 20.2338 29.6407Z" fill="#F8D581"/>
<path d="M19.7761 27.9252C19.5471 27.0675 18.6883 26.2098 17.8868 26.6673C17.028 27.2962 17.028 28.7828 18.1158 29.4118C18.7456 29.6405 19.3753 29.0115 19.7188 28.4969C19.7761 28.2682 19.7761 28.0967 19.7761 27.9252Z" fill="#F8D581"/>
<path d="M18.2306 26.1527C18.2306 25.9812 18.2306 25.8097 18.1733 25.6382C18.0588 25.1236 17.8298 24.8377 17.5436 24.8377C17.3718 24.8377 17.2001 25.0092 17.0856 25.2379C16.9711 25.6382 16.9138 25.9812 16.9138 26.3243C16.9138 26.4958 16.9138 26.6673 16.9711 26.8389C16.8566 27.4678 17.2573 27.4678 17.7153 27.4678C17.9443 27.2391 18.1161 27.0676 18.2306 26.6673C18.2306 26.553 18.2306 26.3243 18.2306 26.1527Z" fill="#F8D581"/>
<path d="M23.2683 24.7229C22.9248 23.0647 20.8637 22.8932 19.776 23.6937C18.9172 24.3226 19.3752 25.8092 20.4057 26.0379C21.2645 26.2667 22.066 25.8092 22.982 25.3518C23.1538 25.1231 23.2683 24.9516 23.2683 24.7229Z" fill="#F8D581"/>
<path d="M21.0928 25.0663C20.4058 24.1515 19.547 23.5226 18.631 23.7513C18.4592 23.8084 18.2875 23.9228 18.1157 24.0372C18.0012 24.0943 17.8295 24.1515 17.715 24.2659C17.5432 24.3802 17.4287 24.5517 17.3142 24.7233C17.1997 24.8948 17.1997 25.0663 17.1997 25.2379C17.1997 25.6381 17.3715 25.8668 17.6005 26.0384C17.7722 26.2099 18.0012 26.3242 18.173 26.3814C18.4592 26.3814 18.7455 26.4386 19.0317 26.4386C19.2035 26.4386 19.318 26.4386 19.4898 26.3814C19.9478 26.1527 20.4058 25.924 20.8065 25.6381C21.0355 25.4666 21.0928 25.295 21.0928 25.0663Z" fill="#F8D581"/>
<path d="M25.444 24.551C25.3295 24.3795 25.215 24.208 25.1005 24.0936C24.9859 23.9793 24.8714 23.8649 24.7569 23.7505C23.3829 22.6642 20.8066 23.4647 21.6654 25.4087C22.0661 26.2663 23.1539 26.2663 24.1844 25.8661C24.4134 25.8661 24.5852 25.8089 24.7569 25.6946C24.9287 25.5802 25.0432 25.4659 25.1577 25.2943C25.3867 25.0084 25.444 24.7797 25.444 24.551Z" fill="#F8D581"/>
<path d="M28.0773 24.3803C27.8483 23.8657 27.6193 23.6942 27.3331 23.5227C27.2186 23.4083 27.0468 23.3511 26.9323 23.294C26.7605 23.2368 26.5888 23.1796 26.417 23.1796C26.2453 23.1224 26.1308 23.1224 25.959 23.0652C25.7873 23.0652 25.6728 23.0652 25.501 23.0652C25.3293 23.0652 25.1575 23.1224 24.9858 23.1796C24.1842 23.2368 23.3827 25.1236 24.6422 25.4095C24.814 25.5239 24.9858 25.6382 25.1575 25.6954C25.3293 25.7526 25.501 25.8098 25.73 25.8098C25.9018 25.8098 26.0735 25.8098 26.3025 25.7526C26.7605 25.5239 27.3903 25.2952 27.7911 25.0093C27.9628 24.8949 28.0773 24.6662 28.0773 24.3803Z" fill="#F8D581"/>
<path d="M23.2113 31.1271C22.7533 30.6125 22.5243 29.9835 21.551 30.2694C21.4937 30.3838 21.3792 30.4409 21.2647 30.4981C20.9212 30.7268 20.4632 31.0127 20.6349 31.6417C20.6922 31.8132 20.8067 31.9275 20.9212 32.0419C21.2075 32.2706 21.6082 32.2706 22.009 32.0991C22.1235 32.0419 22.2952 31.9847 22.4097 31.9275C22.7533 31.8132 22.9823 31.5845 23.154 31.5273C23.2113 31.4701 23.2113 31.2986 23.2113 31.1271Z" fill="#F8D581"/>
<path d="M25.8448 31.0702C25.2723 29.5836 23.612 29.8123 22.5242 30.6127C21.8945 31.2417 22.2952 32.0993 22.925 32.4996C23.9555 33.1285 25.0433 32.4996 25.6158 31.7563C25.7875 31.5276 25.8448 31.2989 25.8448 31.0702Z" fill="#F8D581"/>
<path d="M28.0204 30.7272C27.6196 30.041 26.9899 29.4121 26.1311 29.5836C25.1006 29.8123 23.7838 30.8415 24.6425 31.9279C25.6731 32.9571 26.9899 32.1566 27.8486 31.4133C27.9631 31.1846 28.0204 30.9559 28.0204 30.7272Z" fill="#F8D581"/>
<path d="M29.8524 30.384C29.6806 29.5835 28.8218 29.5835 28.192 29.4691C28.0203 29.4691 27.8485 29.4691 27.734 29.5263C26.9325 29.3548 26.7608 29.9837 26.5318 30.4411C26.131 31.2988 26.9325 31.699 27.6768 31.8134C27.8485 31.8134 28.0203 31.8706 28.1348 31.8134C28.3066 31.8134 28.4211 31.7562 28.5928 31.7562C28.7646 31.699 28.8791 31.6419 28.9936 31.5847C29.4516 31.4703 29.6233 31.2988 29.7378 30.8414C29.8523 30.6698 29.9096 30.4983 29.8524 30.384Z" fill="#F8D581"/>
<path d="M31.8558 29.8694C31.3978 28.7258 30.31 28.9545 29.4512 29.1833C28.8215 29.412 27.9627 29.8122 28.4207 30.6699C29.0505 31.9278 30.9398 31.5275 31.7985 30.384C31.8558 30.1553 31.8558 30.0409 31.8558 29.8694Z" fill="#F8D581"/>
<path d="M33.6309 29.6409C33.2301 29.1263 32.6004 28.726 31.9133 28.6689C31.7416 28.6689 31.5698 28.726 31.4553 28.7832C30.9973 28.9547 30.5966 29.2978 30.3103 29.8124C30.0813 30.6701 31.1691 31.4705 31.9706 31.299C32.1424 31.2418 32.3141 31.1847 32.4286 31.1275C32.8294 30.8988 33.2301 30.8988 33.5164 30.1555C33.6309 29.9839 33.6881 29.8124 33.6309 29.6409Z" fill="#F8D581"/>
<path d="M35.005 28.9543C34.318 27.868 32.8295 27.6393 31.9134 28.6684C31.7989 28.84 31.7417 28.9543 31.7417 29.1259C31.7417 29.2974 31.7417 29.4689 31.8562 29.6405C31.9135 29.812 32.0279 29.9835 32.1997 30.1551C33.2302 30.784 34.089 29.9263 34.9478 29.4118C35.005 29.2974 35.0623 29.1259 35.005 28.9543Z" fill="#F8D581"/>
<path d="M36.6652 28.0971C36.0355 26.8392 34.3179 27.0679 33.4591 27.6969C32.8294 28.5545 34.0889 29.5837 34.9477 29.5837C35.3484 29.355 35.9782 29.1835 36.4362 28.7832C36.608 28.5545 36.7225 28.3258 36.6652 28.0971Z" fill="#F8D581"/>
<path d="M38.4399 27.2966C38.4399 27.125 38.3827 27.0107 38.2682 26.8391C37.9819 26.5532 37.6384 26.3817 37.2949 26.3817C37.1231 26.3817 36.9514 26.3817 36.7796 26.3817C35.8636 26.782 34.7758 27.2394 35.1766 28.2686C35.8063 29.2977 37.0659 28.6688 38.0392 28.2114C38.1537 28.097 38.2682 27.9255 38.3827 27.754C38.4399 27.6396 38.4399 27.4681 38.4399 27.2966Z" fill="#F8D581"/>
<path d="M37.5813 26.3813C37.1805 25.4665 36.3217 25.2378 35.5775 25.4093C35.4057 25.4665 35.1767 25.5237 35.005 25.638C34.8332 25.6952 34.7187 25.8096 34.6042 25.9239C33.9172 26.7816 34.3179 28.0395 35.4057 27.8679C36.2645 27.8679 37.066 27.6392 37.524 26.8388C37.5813 26.7244 37.5813 26.5529 37.5813 26.3813Z" fill="#F8D581"/>
<path d="M35.6344 26.324C35.5772 26.0953 35.5772 25.9238 35.5199 25.8094C35.4627 25.6379 35.4054 25.5235 35.2909 25.4092C35.2337 25.2948 35.1192 25.1805 35.0047 25.1233C34.1459 24.7802 32.6573 24.3228 32.4856 25.4092C32.3711 25.8094 32.4284 26.1525 32.6001 26.3812C32.7146 26.4955 32.8291 26.6099 33.0009 26.6671C33.7451 27.2388 34.6039 27.0673 35.4627 26.7242C35.5199 26.6099 35.5772 26.4955 35.6344 26.324Z" fill="#F8D581"/>
<path d="M31.5125 25.5807C31.169 24.5515 29.9094 23.4651 28.7644 24.0369C28.5927 24.1513 28.4782 24.2656 28.3637 24.4372C28.2492 24.6087 28.1919 24.7802 28.1919 25.0089C28.2491 25.2376 28.3064 25.4663 28.4209 25.6379C28.5354 25.8094 28.7072 25.9809 28.8789 26.0953C29.6804 26.8958 30.5392 26.2668 31.2835 25.9809C31.398 25.8666 31.4552 25.7522 31.5125 25.5807Z" fill="#F8D581"/>
<path d="M29.3943 24.7235C29.4516 24.3232 29.2798 23.923 28.8218 23.8658C28.6501 23.8086 28.4783 23.7515 28.3066 23.6943C27.7913 23.5799 27.1615 23.6943 26.7608 23.8658C26.589 23.923 26.4173 24.0373 26.2455 24.1517C25.8447 24.5519 25.8447 25.0094 26.0165 25.4096C26.131 25.6383 26.3027 25.7527 26.4745 25.867C26.8753 26.0385 27.3905 26.0385 27.9058 25.867C28.0775 25.8098 28.2493 25.7527 28.4211 25.6955C28.5928 25.5811 28.8218 25.3524 29.2226 25.1237C29.3943 25.0094 29.4516 24.8378 29.3943 24.7235Z" fill="#F8D581"/>
<path d="M33.1729 25.924C33.2874 25.1807 32.6576 24.7233 32.0279 24.323C31.3981 24.0943 29.9096 24.952 30.3676 25.8096C30.4248 25.924 30.5393 26.0955 30.6538 26.2099C30.7684 26.3242 30.9401 26.4386 31.0546 26.553C31.6271 26.4386 32.0279 27.0675 32.5431 26.7245C32.7149 26.6673 32.8294 26.553 32.9439 26.3814C33.0584 26.2099 33.1157 26.0955 33.1729 25.924Z" fill="#F8D581"/>
<path d="M21.0925 30.727C20.8635 29.9837 20.4055 29.5835 19.7758 29.8122C19.375 30.0409 18.917 30.2124 18.917 30.8414C19.146 31.8705 20.8063 32.328 20.978 31.1844C21.0926 31.0129 21.0925 30.8985 21.0925 30.727Z" fill="#F8D581"/>
<path d="M17.4857 27.1819C17.3712 27.4106 17.2567 27.5822 17.2567 27.8109C17.2567 27.6965 17.1995 27.525 17.1995 27.4106C16.9705 27.3535 16.856 27.1819 16.9132 26.7817C16.9132 26.6102 16.856 26.4386 16.856 26.2671C16.856 25.9812 16.9132 25.7525 16.9705 25.4666C16.9705 25.581 16.9705 25.6953 17.0277 25.8097C16.9705 26.2099 17.085 26.6102 17.3712 26.9532C17.4285 27.0676 17.4857 27.1248 17.4857 27.1819Z" fill="#F8D581"/>
<path d="M38.3253 27.8109C38.268 27.9824 38.1535 28.0968 38.039 28.2111C37.5237 28.497 36.894 28.7829 36.3215 28.8401C36.0352 29.0688 35.6917 29.2403 35.3482 29.3547C34.8329 29.6405 34.3177 29.9264 33.8024 30.1551C33.6879 30.2123 33.5734 30.2695 33.4589 30.3267C33.1726 30.8413 32.8291 30.8413 32.4856 31.07C32.3138 31.1271 32.1993 31.1843 32.0276 31.2415C31.6841 31.3559 31.2833 31.2415 30.9971 31.0128C30.5391 31.2987 29.9665 31.413 29.5085 31.3559C29.394 31.4702 29.2795 31.5274 29.0505 31.5274C28.936 31.5846 28.7643 31.6417 28.6498 31.6989C28.478 31.7561 28.3635 31.7561 28.1917 31.7561C28.02 31.7561 27.8482 31.7561 27.7337 31.7561C27.6192 31.7561 27.562 31.6989 27.4475 31.6989C26.7605 32.1563 25.9589 32.5566 25.2147 32.2135C24.5849 32.7281 23.7834 32.9568 22.9819 32.4994C22.7529 32.385 22.5811 32.1563 22.4666 31.9848C22.4666 31.9848 22.4666 31.9848 22.4094 31.9848C22.2948 32.042 22.1231 32.0992 22.0086 32.1563C21.6078 32.2707 21.2071 32.2707 20.9208 32.0992C20.8063 32.042 20.7491 31.9276 20.6918 31.7561C20.1765 32.0992 19.2033 31.6989 19.0315 30.9556C18.6307 31.0128 18.23 30.9556 17.9437 30.6697C17.6002 30.3267 17.3712 29.8121 17.6575 29.2975C17.6002 29.2403 17.4285 29.0688 17.4285 29.0116C17.2567 28.7829 16.7987 28.0396 17.314 27.4678C17.3712 27.6393 17.4857 28.5542 17.6575 28.6685C17.8292 28.8401 18.001 28.8972 18.1727 28.9544C18.4017 29.0116 18.5735 29.0116 18.8025 29.0116C18.8597 29.1831 18.9743 29.3547 19.0888 29.5262C19.2033 29.6405 19.375 29.8121 19.5468 29.8693C19.7185 29.9264 19.8903 29.9836 20.1193 30.0408C20.2338 30.0408 20.6918 29.8121 20.9208 30.3267C21.0926 30.441 21.2643 30.4982 21.4361 30.4982C21.6078 30.4982 21.8368 30.4982 22.0658 30.441C23.4399 31.07 24.6994 31.07 26.1879 30.8413C26.4169 30.8413 26.5887 30.8413 26.8177 30.7841C26.9322 30.7269 27.104 30.7269 27.2185 30.6697C27.791 30.2695 28.1917 30.441 28.8788 30.3838C29.0505 30.3838 29.2223 30.3838 29.394 30.3267C29.5658 30.2695 29.7375 30.2123 29.852 30.1551C30.7681 29.9836 30.9398 29.9836 31.6841 30.2123C31.8558 30.2695 32.9436 30.0408 33.1154 30.0408C33.2871 29.9836 33.4589 29.9264 33.6306 29.9264C33.8024 29.8121 34.0314 29.7549 34.2031 29.6977C34.3749 29.5834 34.6039 29.469 34.7184 29.2403C34.8902 29.0116 35.3482 29.0116 35.5772 28.9544C35.7489 28.8972 35.8634 28.8401 36.0352 28.7829C36.3215 28.6685 36.6077 28.5542 36.894 28.3826C37.2375 28.2683 37.6382 28.0968 37.9817 27.9252C38.0962 27.868 38.2107 27.8109 38.3253 27.8109Z" fill="#F4C960"/>
<path d="M25.6154 29.0685C25.6726 29.0114 25.7299 28.897 25.7871 28.8398C25.7299 28.8398 25.7299 28.897 25.6726 28.897C25.2719 29.1829 24.8711 29.2972 24.5276 29.1257C24.4131 29.0685 24.2986 28.9542 24.1841 28.8398C23.7261 29.3544 22.5811 29.1829 22.123 28.4396C21.7223 28.6111 21.2643 28.6683 20.8635 28.4396C20.6345 28.3252 20.4627 28.1537 20.291 27.925C20.1765 28.4968 20.52 28.897 20.978 29.1829C21.3215 29.3544 21.7223 29.3544 22.0658 29.1829C22.4666 29.869 23.4971 29.9834 23.8978 29.5259C24.0123 29.6403 24.1268 29.7547 24.2413 29.8118C24.5848 29.9262 24.9284 29.8118 25.2719 29.5831C25.3291 29.526 25.4436 29.4688 25.5009 29.4116C25.5009 29.2972 25.5581 29.1829 25.6154 29.0685Z" fill="#F4C960"/>
<path d="M34.3749 27.9825C34.1459 28.2684 33.8596 28.3827 33.5734 28.3256C33.5161 28.4399 33.4589 28.4971 33.3444 28.4971C33.2871 28.5543 33.1726 28.6686 33.1154 28.6686C33.0581 28.7258 32.9436 28.7258 32.8864 28.783C32.8291 28.783 32.7146 28.783 32.6001 28.783C32.5429 28.783 32.4856 28.783 32.4284 28.7258C32.3139 28.8973 32.1421 29.0689 32.0276 29.2404C32.0848 29.2404 32.1993 29.2404 32.2566 29.2404C32.3138 29.2404 32.4283 29.1832 32.4856 29.1832C32.5428 29.1261 32.6001 29.0689 32.6574 29.0117C32.7719 28.9545 32.8291 28.8973 32.8864 28.8402C33.1154 28.8973 33.4016 28.783 33.5734 28.4971C33.7451 28.6686 33.9169 28.7258 34.0886 28.6115C34.1459 28.5543 34.2604 28.4971 34.3176 28.4399C34.4321 28.2684 34.5467 28.2112 34.6612 28.0397C34.6039 28.154 34.4894 28.0969 34.3749 27.9825Z" fill="#F4C960"/>
<path d="M4.26086 35.0724C4.14636 35.0152 4.08911 35.0724 4.03186 35.1867L3.97461 35.3582C3.91736 35.4726 3.97461 35.5298 4.08912 35.587L48.8025 54.8557C48.917 54.9128 48.9743 54.8557 49.0315 54.7413L49.5468 53.5978C49.604 53.4834 49.5468 53.369 49.4323 53.369L4.26086 35.0724Z" fill="#DBAC7A"/>
<path d="M49.0316 54.6268L48.9744 54.7411C48.9171 54.8555 48.8026 54.8555 48.7454 54.8555L4.03199 35.5868C3.91749 35.5296 3.91748 35.4724 3.91748 35.3581L49.0316 54.6268Z" fill="#A1764F"/>
<path d="M3.5756 36.3875C3.46109 36.3303 3.40385 36.3875 3.34659 36.5019L3.28934 36.6734C3.23209 36.7878 3.28934 36.8449 3.34659 36.9021L47.602 57.2C47.7165 57.2572 47.7737 57.2 47.831 57.0856L48.3463 55.9421C48.4035 55.8277 48.3463 55.7134 48.2317 55.7134L3.5756 36.3875Z" fill="#DBAC7A"/>
<path d="M47.8865 57.0285L47.8293 57.1429C47.772 57.2572 47.6575 57.2572 47.6003 57.2572L3.34486 36.9593C3.23036 36.9021 3.23035 36.7878 3.2876 36.7306L47.8865 57.0285Z" fill="#A1764F"/>
<path d="M56.8751 29.7548C56.8751 33.9859 53.44 37.4165 49.2034 37.4165C44.9668 37.4165 41.5317 33.9859 41.5317 29.7548C41.5317 25.5237 44.9668 22.093 49.2034 22.093C53.4973 22.1502 56.8751 25.5237 56.8751 29.7548Z" fill="#E1FDFF"/>
<path d="M55.558 29.7548C55.558 33.2426 52.7527 36.1015 49.2031 36.1015C45.7107 36.1015 42.8481 33.2998 42.8481 29.7548C42.8481 26.267 45.7107 23.4081 49.2031 23.4081C52.7527 23.4653 55.558 26.267 55.558 29.7548Z" fill="#C1554D"/>
<path opacity="0.4" d="M44.6803 31.4129C44.6803 27.9251 47.5429 25.0663 51.0352 25.0663C52.2948 25.0663 53.4398 25.4093 54.4131 26.0383C53.268 24.4373 51.3787 23.4081 49.2604 23.4081C45.7681 23.4081 42.9055 26.2098 42.9055 29.7548C42.9055 31.9847 44.0506 33.9859 45.8253 35.0723C45.0811 34.0431 44.6803 32.7852 44.6803 31.4129Z" fill="#B24D45"/>
<path d="M47.3712 33.986C48.0009 34.4435 48.8025 34.7294 49.6612 34.7294C52.0085 34.8437 53.9551 33.0712 54.0696 30.7841C54.1269 29.8121 53.7834 28.8973 53.2108 28.154C52.8673 27.6966 52.1803 27.9253 52.1803 28.497V28.5542C52.1803 30.7841 50.1765 32.671 47.8865 32.6138H47.8292C47.0849 32.5566 46.7414 33.5286 47.3712 33.986Z" fill="#C7635A"/>
<path d="M46.4345 42.5072C46.9698 39.2028 44.7214 36.0907 41.4127 35.5561C38.104 35.0216 34.9878 37.267 34.4526 40.5714C33.9173 43.8759 36.1657 46.988 39.4744 47.5225C42.7831 48.0571 45.8993 45.8117 46.4345 42.5072Z" fill="#E1FDFF"/>
<path d="M40.4437 46.9079C43.4159 46.9079 45.8253 44.5016 45.8253 41.5333C45.8253 38.5649 43.4159 36.1586 40.4437 36.1586C37.4715 36.1586 35.062 38.5649 35.062 41.5333C35.062 44.5016 37.4715 46.9079 40.4437 46.9079Z" fill="#F8D581"/>
<path d="M36.5506 42.9625C36.5506 39.9893 38.9551 37.5878 41.9322 37.5878C43.02 37.5878 43.9932 37.8737 44.7948 38.4455C43.8215 37.0732 42.2185 36.2156 40.4437 36.2156C37.4666 36.2156 35.062 38.617 35.062 41.5902C35.062 43.4771 36.0353 45.1352 37.5238 46.1072C36.9513 45.1924 36.5506 44.106 36.5506 42.9625Z" fill="#F8D581"/>
<path d="M38.8403 45.0783C39.4128 45.4786 40.0426 45.7073 40.7869 45.7073C42.7907 45.7645 44.451 44.2778 44.5082 42.391C44.5655 41.5905 44.2792 40.79 43.8212 40.1611C43.5349 39.818 42.9624 39.9896 42.9624 40.447C42.9624 40.447 42.9624 40.447 42.9624 40.5042C42.9624 42.391 41.3021 43.992 39.3556 43.9348H39.2983C38.6113 43.9348 38.3251 44.7353 38.8403 45.0783Z" fill="#FFE29C"/>
</svg>
