<svg width="20" height="20" viewBox="0 0 20 20" fill="none" xmlns="http://www.w3.org/2000/svg">
<circle cx="10" cy="10" r="9.25" fill="white" stroke="#FF7A00" stroke-width="1.5" stroke-linecap="round" stroke-linejoin="round"/>
<path d="M11.7336 7.46162C11.0418 6.98681 10.4653 6.59109 9.9863 6.34182C9.50355 6.09057 8.95018 5.89394 8.36489 6.06282C8.1124 6.13567 7.87594 6.25619 7.66888 6.41832C7.1847 6.79743 7.02936 7.3653 6.96199 7.90075C6.89534 8.43046 6.89536 9.1221 6.89539 9.94838V10.0515C6.89536 10.8778 6.89534 11.5694 6.96199 12.0992C7.02936 12.6346 7.1847 13.2025 7.66888 13.5816C7.87594 13.7437 8.1124 13.8642 8.36489 13.9371C8.95018 14.106 9.50355 13.9093 9.9863 13.6581C10.4653 13.4088 11.0418 13.0131 11.7335 12.5383L11.8134 12.4835C12.3421 12.1206 12.7949 11.8099 13.1216 11.5217C13.4615 11.2219 13.7759 10.8537 13.8653 10.3449C13.9054 10.1166 13.9054 9.88327 13.8653 9.65503C13.7759 9.14621 13.4615 8.77797 13.1216 8.47816C12.7949 8.19 12.3421 7.87928 11.8134 7.51641L11.7336 7.46162Z" fill="#FF7A00"/>
</svg>
