<svg width="12" height="12" viewBox="0 0 12 12" fill="none" xmlns="http://www.w3.org/2000/svg">
<path d="M6 1.125C5.10938 1.125 4.29688 1.34375 3.5625 1.78125C2.82812 2.20312 2.23438 2.79688 1.78125 3.5625C1.34375 4.32812 1.125 5.14062 1.125 6C1.125 6.85938 1.34375 7.67188 1.78125 8.4375C2.23438 9.20312 2.82812 9.79688 3.5625 10.2188C4.29688 10.6562 5.10938 10.875 6 10.875C6.89062 10.875 7.70312 10.6562 8.4375 10.2188C9.17188 9.79688 9.76562 9.20312 10.2188 8.4375C10.6562 7.67188 10.875 6.85938 10.875 6C10.875 5.14062 10.6562 4.32812 10.2188 3.5625C9.76562 2.79688 9.17188 2.20312 8.4375 1.78125C7.70312 1.34375 6.89062 1.125 6 1.125ZM6 12C4.90625 11.9844 3.90625 11.7188 3 11.2031C2.09375 10.6719 1.35938 9.9375 0.796875 9C0.265625 8.04688 0 7.04688 0 6C0 4.95312 0.265625 3.95312 0.796875 3C1.35938 2.0625 2.09375 1.32813 3 0.796875C3.90625 0.28125 4.90625 0.015625 6 0C7.09375 0.015625 8.09375 0.28125 9 0.796875C9.90625 1.32813 10.6406 2.0625 11.2031 3C11.7344 3.95312 12 4.95312 12 6C12 7.04688 11.7344 8.04688 11.2031 9C10.6406 9.9375 9.90625 10.6719 9 11.2031C8.09375 11.7188 7.09375 11.9844 6 12ZM4.35938 3.21094L6 5.13281L7.64062 3.21094C7.875 2.96094 8.14062 2.9375 8.4375 3.14062C8.67188 3.375 8.6875 3.64062 8.48438 3.9375L6.72656 6L8.48438 8.08594C8.6875 8.36719 8.67188 8.625 8.4375 8.85938C8.14062 9.0625 7.875 9.04688 7.64062 8.8125L6 6.86719L4.35938 8.8125C4.125 9.04688 3.86719 9.0625 3.58594 8.85938C3.33594 8.625 3.3125 8.36719 3.51562 8.08594L5.27344 6L3.51562 3.9375C3.3125 3.64062 3.33594 3.375 3.58594 3.14062C3.86719 2.9375 4.125 2.96094 4.35938 3.21094Z" fill="#BD0000"/>
</svg>
