<svg width="14" height="14" viewBox="0 0 14 14" fill="none" xmlns="http://www.w3.org/2000/svg">
<path opacity="0.8" d="M6.34375 7C6.38021 6.59896 6.59896 6.38021 7 6.34375C7.40104 6.38021 7.61979 6.59896 7.65625 7C7.61979 7.40104 7.40104 7.61979 7 7.65625C6.59896 7.61979 6.38021 7.40104 6.34375 7ZM9.54297 3.36328C9.88932 3.27214 10.181 3.34505 10.418 3.58203C10.6549 3.81901 10.7279 4.11068 10.6367 4.45703L9.29688 8.47656C9.15104 8.8776 8.8776 9.15104 8.47656 9.29688L4.45703 10.6367C4.11068 10.7279 3.81901 10.6549 3.58203 10.418C3.34505 10.181 3.27214 9.88932 3.36328 9.54297L4.70312 5.52344C4.84896 5.1224 5.1224 4.84896 5.52344 4.70312L9.54297 3.36328ZM9.81641 4.18359L5.79688 5.52344C5.66927 5.57812 5.57812 5.66927 5.52344 5.79688L4.18359 9.81641L8.20312 8.47656C8.33073 8.42188 8.42188 8.33073 8.47656 8.20312L9.81641 4.18359ZM0 7C0.0182292 5.6875 0.33724 4.51172 0.957031 3.47266C1.57682 2.41536 2.41536 1.57682 3.47266 0.957031C4.51172 0.33724 5.6875 0.0182292 7 0C8.3125 0.0182292 9.48828 0.33724 10.5273 0.957031C11.5846 1.57682 12.4232 2.41536 13.043 3.47266C13.6628 4.51172 13.9818 5.6875 14 7C13.9818 8.3125 13.6628 9.48828 13.043 10.5273C12.4232 11.5846 11.5846 12.4232 10.5273 13.043C9.48828 13.6628 8.3125 13.9818 7 14C5.6875 13.9818 4.51172 13.6628 3.47266 13.043C2.41536 12.4232 1.57682 11.5846 0.957031 10.5273C0.33724 9.48828 0.0182292 8.3125 0 7ZM7 13.125C8.14844 13.1068 9.17839 12.8242 10.0898 12.2773C11.0195 11.7487 11.7487 11.0195 12.2773 10.0898C12.8242 9.17839 13.1068 8.14844 13.125 7C13.1068 5.85156 12.8242 4.82161 12.2773 3.91016C11.7487 2.98047 11.0195 2.2513 10.0898 1.72266C9.17839 1.17578 8.14844 0.893229 7 0.875C5.85156 0.893229 4.82161 1.17578 3.91016 1.72266C2.98047 2.2513 2.2513 2.98047 1.72266 3.91016C1.17578 4.82161 0.893229 5.85156 0.875 7C0.893229 8.14844 1.17578 9.17839 1.72266 10.0898C2.2513 11.0195 2.98047 11.7487 3.91016 12.2773C4.82161 12.8242 5.85156 13.1068 7 13.125Z" fill="white"/>
</svg>
