<svg width="335" height="262" viewBox="0 0 335 262" fill="none" xmlns="http://www.w3.org/2000/svg">
<g clip-path="url(#clip0_491_4088)">
<path d="M40.7509 73.4452C40.7509 73.4452 26.6998 170.415 83.8393 196.963C140.979 223.512 172.628 171.102 179.159 159.993C185.689 148.87 179.722 107.844 179.722 107.844C179.722 107.844 163.458 106.332 136.634 143.797C109.81 181.262 79.6047 145.887 74.8201 135.933C70.0356 125.993 64.0962 104.242 64.0962 79.4671C64.0962 79.4671 46.6216 67.0796 40.7509 73.4452Z" fill="white"/>
<path d="M125.195 155.538L145.928 195.547C145.928 195.547 179.612 171.487 180.905 155.153C182.197 138.82 179.709 107.844 179.709 107.844C179.709 107.844 165.932 109.687 154.26 122.789C142.587 135.892 135.067 146.464 132.661 148.802C130.255 151.139 125.195 155.552 125.195 155.552V155.538Z" fill="#FCD9E7"/>
<path d="M40.7509 73.4452C40.7509 73.4452 26.6998 170.415 83.8393 196.963C140.979 223.512 172.628 171.102 179.159 159.993C185.689 148.87 179.722 107.844 179.722 107.844C179.722 107.844 163.458 106.332 136.634 143.797C109.81 181.262 79.6047 145.887 74.8201 135.933C70.0356 125.993 64.0962 104.242 64.0962 79.4671C64.0962 79.4671 46.6216 67.0796 40.7509 73.4452Z" stroke="#0A2533" stroke-width="1.71708" stroke-miterlimit="10"/>
<path d="M63.7251 88.1978L68.7846 88.8714C69.0734 88.0465 69.2796 87.1941 69.3896 86.3142C70.297 78.3812 63.1752 71.0394 53.5099 69.9258C43.8446 68.8121 35.2379 74.3666 34.3305 82.2996C34.248 82.9733 34.248 83.647 34.2892 84.3069L39.3075 84.9668C39.1838 84.2794 39.1425 83.5645 39.225 82.8633C39.8299 77.6388 45.9756 74.0366 52.9324 74.8341C59.8893 75.6315 65.0725 80.526 64.4676 85.7505C64.3713 86.6167 64.0963 87.4416 63.7114 88.2115L63.7251 88.1978Z" fill="#F76A59" stroke="#0A2533" stroke-width="1.71708" stroke-miterlimit="10"/>
<path d="M99.0593 93.6833C98.7293 96.983 76.484 97.4504 49.3578 94.7282C22.2455 92.006 0.536315 87.1252 0.866283 83.8255C1.19625 80.5258 23.4416 80.0584 50.5677 82.7806C77.6801 85.5028 99.403 90.3836 99.073 93.6833H99.0593Z" fill="#F76A59" stroke="#0A2533" stroke-width="1.71708" stroke-miterlimit="10"/>
<path d="M70.4345 79.6324C69.1283 81.516 66.9561 82.2721 65.5949 81.3235C64.2338 80.3748 64.1926 78.0788 65.5124 76.1952C66.8186 74.3117 68.9909 73.5555 70.352 74.5041C71.7131 75.4528 71.7543 77.7488 70.4345 79.6324Z" fill="white" stroke="#0A2533" stroke-width="1.71708" stroke-miterlimit="10"/>
<path d="M43.8034 72.9229C44.4496 76.7863 43.6109 80.1547 41.9199 80.4434C40.2288 80.7321 38.3452 77.8174 37.6853 73.954C37.0391 70.0907 37.8777 66.7222 39.5688 66.4335C41.2599 66.1448 43.1435 69.0595 43.8034 72.9229Z" fill="white" stroke="#0A2533" stroke-width="1.71708" stroke-miterlimit="10"/>
<path d="M49.9764 72.5656C50.6226 76.429 49.7839 79.7974 48.0929 80.0862C46.4018 80.3749 44.5182 77.4602 43.8583 73.5968C43.2121 69.7334 44.0507 66.365 45.7418 66.0763C47.4329 65.7876 49.3165 68.7023 49.9764 72.5656Z" fill="white" stroke="#0A2533" stroke-width="1.71708" stroke-miterlimit="10"/>
<path d="M55.7646 72.1393C56.4108 76.0026 55.5721 79.371 53.881 79.6598C52.1899 79.9485 50.3063 77.0338 49.6464 73.1704C49.0002 69.307 49.8389 65.9386 51.53 65.6499C53.2211 65.3612 55.1046 68.2759 55.7646 72.1393Z" fill="white" stroke="#0A2533" stroke-width="1.71708" stroke-miterlimit="10"/>
<path d="M61.9652 72.538C62.6114 76.4014 61.7727 79.7698 60.0816 80.0586C58.3905 80.3473 56.507 77.4326 55.847 73.5692C55.2008 69.7058 56.0395 66.3374 57.7306 66.0487C59.4217 65.7599 61.3052 68.6747 61.9652 72.538Z" fill="white" stroke="#0A2533" stroke-width="1.71708" stroke-miterlimit="10"/>
<path d="M243.228 237.838C246.115 225.836 247.737 212.568 247.737 198.613C247.737 144.966 224.035 101.465 194.805 101.465C165.575 101.465 141.873 144.966 141.873 198.613C141.873 212.582 143.495 225.836 146.382 237.838H243.242H243.228Z" fill="#FCD9E7" stroke="#0A2533" stroke-width="1.71708" stroke-miterlimit="10"/>
<path d="M239.667 152.858C239.667 152.858 251.601 159.21 258.379 168.737L294.414 158.618C294.414 158.618 282.453 139.288 261.898 126.007C241.344 112.725 223.251 107.281 217.944 105.878C212.637 104.49 201.019 99.5816 203.384 109.549C205.749 119.531 229.341 147.592 239.653 152.83L239.667 152.858Z" fill="#FCD9E7"/>
<path d="M234.772 150.616C234.772 150.616 250.515 156.501 258.228 168.765L294.07 158.054C292.448 155.483 290.729 152.995 288.956 150.616C273.09 129.306 240.176 109.824 206.863 103.238" stroke="#0A2533" stroke-width="1.71708" stroke-miterlimit="10"/>
<path d="M261.472 175.996L297.411 163.636L296.421 161.904L295.17 159.8L291.595 154.301L256.536 166.331C256.536 166.331 259.74 171.088 261.458 175.996H261.472Z" fill="#0A2533" stroke="#0A2533" stroke-width="1.71708" stroke-miterlimit="10"/>
<path d="M217.339 105.452V149.104C217.339 152.459 222.563 152.473 222.563 149.104V105.452C222.563 102.098 217.339 102.084 217.339 105.452Z" fill="white" stroke="#0A2533" stroke-width="1.71708" stroke-miterlimit="10"/>
<path d="M149.668 111.144C153.504 122.968 157.34 134.792 161.176 146.616C161.726 148.321 162.289 150.025 162.839 151.744C163.857 154.865 168.82 153.256 167.802 150.135C163.829 137.899 160.268 126.914 156.295 114.664C155.745 112.959 155.181 111.254 154.631 109.536C153.614 106.415 148.651 108.023 149.668 111.144Z" fill="white" stroke="#0A2533" stroke-width="1.71708" stroke-miterlimit="10"/>
<path d="M275.014 237.838C271.467 232.779 265.569 227.774 256.77 223.045C217.091 201.762 226.605 138.202 226.605 138.202H158.783L135.947 237.825H275.001L275.014 237.838Z" fill="white" stroke="#0A2533" stroke-width="1.71708" stroke-miterlimit="10"/>
<path d="M198.998 157.408C198.998 157.408 201.652 143.632 206.711 144.045C211.757 144.457 203.865 151.483 203.865 151.483C203.865 151.483 209.145 147.028 211.303 150.232C212.664 152.253 207.385 155.635 207.385 155.635C207.385 155.635 213.778 150.974 215.139 155.58C216.5 160.186 200.868 161.368 198.998 157.408Z" fill="#46B7A1" stroke="#0A2533" stroke-width="1.71708" stroke-miterlimit="10"/>
<path d="M190.062 174.072C180.74 180.768 170.043 181.826 168.916 180.245C168.16 179.2 172.188 168.861 181.51 162.166C190.831 155.47 200.291 152.707 202.655 155.993C205.02 159.278 199.383 167.376 190.062 174.072Z" fill="#FD8D5D" stroke="#0A2533" stroke-width="1.71708" stroke-miterlimit="10"/>
<path d="M191.808 157.945C192.316 158.66 192.839 159.375 193.347 160.09C193.43 160.2 193.512 160.282 193.65 160.323C193.774 160.351 193.939 160.337 194.049 160.268C194.269 160.131 194.406 159.801 194.227 159.567C193.719 158.852 193.196 158.137 192.688 157.422C192.605 157.312 192.523 157.23 192.385 157.189C192.261 157.161 192.096 157.175 191.986 157.244C191.766 157.381 191.629 157.711 191.808 157.945Z" fill="#0A2533"/>
<path d="M197.72 158.907C198.256 159.649 198.778 160.378 199.314 161.12C199.466 161.34 199.768 161.464 200.016 161.299C200.236 161.162 200.373 160.832 200.194 160.598C199.658 159.856 199.136 159.127 198.599 158.384C198.448 158.164 198.146 158.041 197.898 158.206C197.678 158.343 197.541 158.673 197.72 158.907Z" fill="#0A2533"/>
<path d="M191.698 164.915C192.303 165.754 192.908 166.593 193.513 167.431C193.664 167.651 193.966 167.775 194.214 167.61C194.434 167.473 194.571 167.143 194.393 166.909C193.788 166.07 193.183 165.232 192.578 164.393C192.426 164.173 192.124 164.049 191.877 164.214C191.657 164.352 191.519 164.682 191.698 164.915Z" fill="#0A2533"/>
<path d="M185.222 164.187L186.459 165.905C186.542 166.015 186.624 166.098 186.762 166.139C186.885 166.166 187.05 166.153 187.16 166.084C187.38 165.946 187.518 165.616 187.339 165.383L186.102 163.664C186.019 163.554 185.937 163.472 185.799 163.43C185.676 163.403 185.511 163.417 185.401 163.485C185.181 163.623 185.043 163.953 185.222 164.187Z" fill="#0A2533"/>
<path d="M182.775 170.868C183.215 171.487 183.655 172.092 184.095 172.711C184.177 172.821 184.26 172.903 184.397 172.944C184.521 172.972 184.686 172.958 184.796 172.889C185.016 172.752 185.153 172.422 184.975 172.188C184.535 171.57 184.095 170.965 183.655 170.346C183.572 170.236 183.49 170.153 183.352 170.112C183.229 170.085 183.064 170.098 182.954 170.167C182.734 170.305 182.596 170.635 182.775 170.868Z" fill="#0A2533"/>
<path d="M176.203 171.322C176.602 171.872 177.001 172.422 177.399 172.986C177.482 173.096 177.564 173.178 177.702 173.219C177.826 173.247 177.99 173.233 178.1 173.164C178.32 173.027 178.458 172.697 178.279 172.463C177.88 171.913 177.482 171.363 177.083 170.8C177.001 170.69 176.918 170.607 176.781 170.566C176.657 170.538 176.492 170.552 176.382 170.621C176.162 170.758 176.024 171.088 176.203 171.322Z" fill="#0A2533"/>
<path d="M175.309 178.1C175.612 178.526 175.928 178.952 176.23 179.392C176.313 179.502 176.395 179.585 176.533 179.626C176.657 179.654 176.822 179.64 176.932 179.571C177.042 179.502 177.138 179.392 177.165 179.269C177.193 179.145 177.193 178.98 177.11 178.87C176.808 178.444 176.492 178.018 176.189 177.578C176.107 177.468 176.024 177.385 175.887 177.344C175.763 177.316 175.598 177.33 175.488 177.399C175.378 177.468 175.282 177.578 175.254 177.701C175.227 177.825 175.227 177.99 175.309 178.1Z" fill="#0A2533"/>
<path d="M47.0343 237.838H335" stroke="#0A2533" stroke-width="1.71708" stroke-miterlimit="10"/>
<path d="M72.868 200.098C64.6325 200.098 57.9369 194.598 57.9369 187.847C57.9369 181.097 64.6325 175.597 72.868 175.597C81.1034 175.597 87.799 181.097 87.799 187.847C87.799 194.598 81.1034 200.098 72.868 200.098ZM72.868 179.777C66.9423 179.777 62.1165 183.393 62.1165 187.847C62.1165 192.302 66.9423 195.918 72.868 195.918C78.7936 195.918 83.6194 192.302 83.6194 187.847C83.6194 183.393 78.7936 179.777 72.868 179.777Z" fill="#F76A59" stroke="#0A2533" stroke-width="1.71708" stroke-miterlimit="10"/>
<path d="M148.046 200.098C139.81 200.098 133.114 194.598 133.114 187.847C133.114 181.097 139.81 175.597 148.046 175.597C156.281 175.597 162.977 181.097 162.977 187.847C162.977 194.598 156.281 200.098 148.046 200.098ZM148.046 179.777C142.12 179.777 137.294 183.393 137.294 187.847C137.294 192.302 142.12 195.918 148.046 195.918C153.971 195.918 158.797 192.302 158.797 187.847C158.797 183.393 153.971 179.777 148.046 179.777Z" fill="#F76A59" stroke="#0A2533" stroke-width="1.71708" stroke-miterlimit="10"/>
<path d="M68.1933 164.406H151.936V203.054C151.936 208.925 147.166 213.695 141.295 213.695H78.8348C72.9641 213.695 68.1933 208.925 68.1933 203.054V164.406Z" fill="#F76A59" stroke="#0A2533" stroke-width="1.71708" stroke-miterlimit="10"/>
<path d="M75.9889 199.823C77.3363 198.118 79.7973 197.83 81.5021 199.163C83.207 200.497 83.4957 202.972 82.1621 204.676C80.8147 206.381 78.3537 206.67 76.6488 205.336C74.944 203.989 74.6553 201.528 75.9889 199.823Z" fill="white"/>
<path d="M88.2527 186.006C89.6001 184.301 92.0611 184.012 93.7659 185.346C95.4707 186.693 95.7595 189.154 94.4258 190.859C93.0785 192.564 90.6175 192.852 88.9126 191.519C87.2078 190.171 86.9191 187.71 88.2527 186.006Z" fill="white"/>
<path d="M72.0568 175.254C73.4041 173.549 75.8651 173.26 77.57 174.594C79.2748 175.927 79.5635 178.402 78.2299 180.107C76.8963 181.812 74.4215 182.101 72.7167 180.767C71.0119 179.433 70.7231 176.959 72.0568 175.254Z" fill="white"/>
<path d="M109.343 201.858C110.691 200.153 113.152 199.864 114.856 201.198C116.561 202.531 116.85 205.006 115.516 206.711C114.183 208.416 111.708 208.704 110.003 207.371C108.298 206.023 108.01 203.562 109.343 201.858Z" fill="white"/>
<path d="M126.364 186.61C127.711 184.906 130.172 184.617 131.877 185.95C133.582 187.298 133.871 189.759 132.537 191.464C131.19 193.168 128.729 193.457 127.024 192.124C125.319 190.776 125.03 188.315 126.364 186.61Z" fill="white"/>
<path d="M106.978 177.138C108.326 175.433 110.787 175.144 112.491 176.478C114.196 177.825 114.485 180.286 113.151 181.991C111.804 183.696 109.343 183.985 107.638 182.651C105.933 181.304 105.645 178.843 106.978 177.138Z" fill="white"/>
<path d="M135.768 199.823C137.115 198.118 139.576 197.83 141.281 199.163C142.986 200.511 143.275 202.972 141.941 204.676C140.594 206.381 138.133 206.67 136.428 205.336C134.723 203.989 134.434 201.528 135.768 199.823Z" fill="white"/>
<path d="M141.666 175.254C143.013 173.549 145.474 173.26 147.179 174.594C148.884 175.927 149.173 178.402 147.839 180.107C146.492 181.812 144.031 182.101 142.326 180.767C140.621 179.42 140.332 176.959 141.666 175.254Z" fill="white"/>
<path d="M151.936 164.407C151.936 168.394 133.183 171.625 110.058 171.625C86.9327 171.625 68.1795 168.394 68.1795 164.407C68.1795 160.419 86.9327 157.188 110.058 157.188C133.183 157.188 151.936 160.419 151.936 164.407Z" fill="white" stroke="#0A2533" stroke-width="1.71708" stroke-miterlimit="10"/>
<path d="M74.8476 136.497C77.1863 136.497 79.0822 134.601 79.0822 132.262C79.0822 129.923 77.1863 128.027 74.8476 128.027C72.5089 128.027 70.613 129.923 70.613 132.262C70.613 134.601 72.5089 136.497 74.8476 136.497Z" fill="white" stroke="#0A2533" stroke-width="1.71708" stroke-miterlimit="10"/>
<path d="M104.517 123.27C106.833 123.27 108.711 121.393 108.711 119.077C108.711 116.761 106.833 114.884 104.517 114.884C102.201 114.884 100.324 116.761 100.324 119.077C100.324 121.393 102.201 123.27 104.517 123.27Z" fill="white" stroke="#0A2533" stroke-width="1.71708" stroke-miterlimit="10"/>
<path d="M122.418 127.629C122.418 129.293 121.071 130.64 119.407 130.64C117.743 130.64 116.396 129.293 116.396 127.629C116.396 125.965 117.743 124.618 119.407 124.618C121.071 124.618 122.418 125.965 122.418 127.629Z" fill="white" stroke="#0A2533" stroke-width="1.71708" stroke-miterlimit="10"/>
<path d="M93.3397 130.434C93.3397 131.767 92.2673 132.84 90.9336 132.84C89.6 132.84 88.5276 131.767 88.5276 130.434C88.5276 129.1 89.6 128.027 90.9336 128.027C92.2673 128.027 93.3397 129.1 93.3397 130.434Z" fill="white" stroke="#0A2533" stroke-width="1.71708" stroke-miterlimit="10"/>
<path d="M138.559 130.598C138.559 131.52 137.816 132.262 136.895 132.262C135.974 132.262 135.232 131.52 135.232 130.598C135.232 129.677 135.974 128.935 136.895 128.935C137.816 128.935 138.559 129.677 138.559 130.598Z" fill="white" stroke="#0A2533" stroke-width="1.71708" stroke-miterlimit="10"/>
<path d="M128.426 108.422C128.426 110.484 126.749 112.162 124.687 112.162C122.624 112.162 120.947 110.484 120.947 108.422C120.947 106.36 122.624 104.682 124.687 104.682C126.749 104.682 128.426 106.36 128.426 108.422Z" stroke="#0A2533" stroke-width="1.71708" stroke-miterlimit="10"/>
<path d="M150.466 166.29C158.261 163.664 158.577 147.826 153.147 142.821C147.702 137.817 133.651 137.404 127.299 142.532C126.612 143.096 126.007 143.701 125.484 144.32C123.037 138.669 116.946 133.252 111.433 139.054C109.013 141.611 107.542 144.004 106.717 146.08C102.978 140.718 96.0209 134.888 91.3601 138.903C88.5278 141.336 87.3317 144.444 87.098 147.276C84.4307 144.952 80.8561 143.577 77.7214 146.011C75.5491 147.702 74.3255 149.819 73.7343 151.909C72.1257 150.63 70.1596 149.861 68.2073 151.153C62.5429 154.879 68.2073 164.393 68.2073 164.393L68.6198 165.726" fill="white"/>
<path d="M150.466 166.29C158.261 163.664 158.577 147.826 153.147 142.821C147.702 137.817 133.651 137.404 127.299 142.532C126.612 143.096 126.007 143.701 125.484 144.32C123.037 138.669 116.946 133.252 111.433 139.054C109.013 141.611 107.542 144.004 106.717 146.08C102.978 140.718 96.0209 134.888 91.3601 138.903C88.5278 141.336 87.3317 144.444 87.098 147.276C84.4307 144.952 80.8561 143.577 77.7214 146.011C75.5491 147.702 74.3255 149.819 73.7343 151.909C72.1257 150.63 70.1596 149.861 68.2073 151.153C62.5429 154.879 68.2073 164.393 68.2073 164.393L68.6198 165.726" stroke="#0A2533" stroke-width="1.71708" stroke-miterlimit="10"/>
<path d="M83.6333 165.561C83.6333 165.561 77.5977 159.869 83.6333 154.329C89.669 148.788 96.6946 159.567 94.8797 162.454C93.0649 165.341 88.4316 156.501 95.1685 150.149C101.905 143.797 110.979 155.566 108.711 161.492C106.442 167.404 101.905 162.454 104.518 158.096C105.92 155.745 111.433 146.506 116.424 148.334C121.415 150.163 125.264 161.505 122.432 163.307C119.6 165.121 116.823 156.501 130.791 149.695C144.76 142.89 148.17 159.044 140.677 165.135" stroke="#0A2533" stroke-width="1.71708" stroke-miterlimit="10"/>
<path d="M151.936 164.407C151.936 168.394 133.183 171.625 110.058 171.625C86.9327 171.625 68.1795 168.394 68.1795 164.407C68.1795 160.419 86.9327 157.188 110.058 157.188C133.183 157.188 151.936 160.419 151.936 164.407Z" stroke="#0A2533" stroke-width="1.71708" stroke-miterlimit="10"/>
<path d="M128.976 213.695H91.9509C89.6686 213.695 87.8125 215.552 87.8125 217.834V219.277C87.8125 221.56 89.6686 223.416 91.9509 223.416H128.976C131.258 223.416 133.114 221.56 133.114 219.277V217.834C133.114 215.552 131.258 213.695 128.976 213.695ZM94.6593 220.24C93.6557 220.24 92.8445 219.429 92.8445 218.425C92.8445 217.421 93.6557 216.61 94.6593 216.61C95.663 216.61 96.4742 217.421 96.4742 218.425C96.4742 219.429 95.663 220.24 94.6593 220.24ZM104.366 220.364C103.362 220.364 102.551 219.552 102.551 218.549C102.551 217.545 103.362 216.734 104.366 216.734C105.37 216.734 106.181 217.545 106.181 218.549C106.181 219.552 105.37 220.364 104.366 220.364ZM114.072 220.364C113.069 220.364 112.258 219.552 112.258 218.549C112.258 217.545 113.069 216.734 114.072 216.734C115.076 216.734 115.887 217.545 115.887 218.549C115.887 219.552 115.076 220.364 114.072 220.364ZM123.779 220.364C122.775 220.364 121.964 219.552 121.964 218.549C121.964 217.545 122.775 216.734 123.779 216.734C124.783 216.734 125.594 217.545 125.594 218.549C125.594 219.552 124.783 220.364 123.779 220.364Z" fill="#0A2533"/>
<path d="M75.26 219.236H147.606C151.496 219.236 154.672 222.398 154.672 226.303V237.879C154.672 241.77 151.51 244.946 147.606 244.946H75.26C71.3691 244.946 68.1932 241.784 68.1932 237.879V226.303C68.1932 222.412 71.3554 219.236 75.26 219.236Z" fill="#AE89F0" stroke="#0A2533" stroke-width="1.71708" stroke-miterlimit="10"/>
<path d="M147.097 231.225C147.097 234.497 144.443 237.164 141.157 237.164C137.871 237.164 135.218 234.511 135.218 231.225C135.218 227.939 137.871 225.285 141.157 225.285C144.443 225.285 147.097 227.939 147.097 231.225Z" fill="white" stroke="#0A2533" stroke-width="1.71708" stroke-miterlimit="10"/>
<path d="M144.429 231.225C144.429 233.026 142.972 234.497 141.157 234.497C139.342 234.497 137.885 233.04 137.885 231.225C137.885 229.41 139.342 227.953 141.157 227.953C142.972 227.953 144.429 229.41 144.429 231.225Z" fill="white" stroke="#0A2533" stroke-width="1.71708" stroke-miterlimit="10"/>
<path d="M77.9273 228.613C79.4611 228.613 80.7045 227.369 80.7045 225.836C80.7045 224.302 79.4611 223.058 77.9273 223.058C76.3935 223.058 75.1501 224.302 75.1501 225.836C75.1501 227.369 76.3935 228.613 77.9273 228.613Z" fill="#F76A59" stroke="#0A2533" stroke-width="1.71708" stroke-miterlimit="10"/>
<path d="M176.67 105.452C176.67 110.388 183.545 114.389 192.014 114.389C200.483 114.389 207.357 110.388 207.357 105.452C207.357 100.516 200.483 96.5156 192.014 96.5156C183.545 96.5156 176.67 100.516 176.67 105.452Z" fill="#0A2533" stroke="#1C191B" stroke-width="1.71708" stroke-miterlimit="10"/>
<path d="M173.151 29.6009H186.638C195.603 29.6009 202.944 37.9601 202.944 48.1754V69.0871C202.944 69.6783 202.917 70.2557 202.862 70.8332C203.013 71.4519 203.096 72.0843 203.096 72.7442V98.9217C203.096 103.541 199.315 107.322 194.695 107.322H189.347C184.727 107.322 180.946 103.541 180.946 98.9217V87.6478H173.151C164.187 87.6478 156.845 79.2886 156.845 69.0733V48.1616C156.845 37.9463 164.187 29.5872 173.151 29.5872V29.6009Z" fill="white" stroke="black" stroke-width="1.71708" stroke-miterlimit="10"/>
<path d="M194.406 66.1858C194.406 70.3654 191.024 73.7476 186.845 73.7476C182.665 73.7476 179.283 70.3654 179.283 66.1858C179.283 62.0062 182.665 58.624 186.845 58.624C191.024 58.624 194.406 62.0062 194.406 66.1858Z" fill="#FCD9E7"/>
<path d="M158.866 61.0715C158.412 61.0715 157.958 61.1265 157.532 61.2365V69.0733C157.532 70.2419 157.573 71.383 157.807 72.4829C158.123 72.5379 158.536 72.5792 158.866 72.5792C162.042 72.5792 164.626 70.0082 164.626 66.8185C164.626 63.6288 162.055 61.0578 158.866 61.0578V61.0715Z" fill="#FCD9E7"/>
<path d="M199.411 62.3227L196.922 45.9342C196.922 45.9342 151.593 51.6124 136.896 29.6008C122.212 7.58921 137.652 -1.12745 145.117 0.109931C152.583 1.36106 161.327 12.0575 161.327 12.0575C161.327 12.0575 154.37 2.59844 161.327 1.09984C168.284 -0.39877 175.969 6.83303 179.97 14.2986C179.97 14.2986 209.846 11.5076 219.951 29.5871C230.057 47.6666 222.247 60.9478 203.769 79.6185L203.824 68.4408L199.411 62.2952V62.3227Z" fill="#FD8D5D"/>
<path d="M219.951 62.6663C219.951 68.5507 215.139 73.3215 209.214 73.3215C203.288 73.3215 198.476 68.5507 198.476 62.6663C198.476 56.7818 203.288 52.0111 209.214 52.0111C215.139 52.0111 219.951 56.7818 219.951 62.6663Z" stroke="black" stroke-width="2.74733" stroke-miterlimit="10"/>
<path d="M156.02 70.0357C156.02 70.0357 160.557 70.2556 162.977 66.8185C165.396 63.3813 174.443 60.2878 179.97 65.6911C185.497 71.0943 191.093 71.4518 193.512 69.7607C195.932 68.0696 196.798 63.0376 197.596 53.6747C198.393 44.2981 202.889 43.432 205.158 44.0369C207.426 44.6419 199.919 76.0163 198.476 79.1923C195.41 85.9154 192.151 88.5689 182.94 89.545C173.728 90.5212 165.369 89.7512 159.732 82.217C156.199 77.4874 156.034 70.0494 156.034 70.0494L156.02 70.0357Z" fill="#FD8D5D"/>
<path d="M183.834 55.0082C183.834 56.6856 182.473 58.0467 180.795 58.0467C179.118 58.0467 177.757 56.6856 177.757 55.0082C177.757 53.3309 179.118 51.9698 180.795 51.9698C182.473 51.9698 183.834 53.3309 183.834 55.0082Z" fill="#0C0C0C"/>
<path d="M163.925 54.5683C163.925 55.9981 162.757 57.1668 161.327 57.1668C159.897 57.1668 158.728 55.9981 158.728 54.5683C158.728 53.1384 159.897 51.9698 161.327 51.9698C162.757 51.9698 163.925 53.1384 163.925 54.5683Z" fill="#0C0C0C"/>
<path d="M166.373 68.551C166.373 68.551 167.899 73.0055 171.13 73.308C174.361 73.6105 176.891 70.0358 177.069 67.2448L166.373 68.551Z" fill="#FFFDFD"/>
<path d="M165.63 68.7431C166.194 70.3792 167.211 72.0016 168.586 73.0465C171.006 74.9025 174.154 73.9814 175.969 71.7403C177.014 70.448 177.715 68.8806 177.839 67.217C177.866 66.8321 177.468 66.4059 177.069 66.4471C173.948 66.8321 170.827 67.217 167.706 67.5882L166.373 67.7532C165.96 67.8082 165.616 68.0695 165.603 68.5232C165.603 68.8944 165.96 69.3343 166.373 69.2931C169.493 68.9081 172.614 68.5232 175.735 68.1519L177.069 67.987L176.299 67.217C176.134 69.3893 174.553 71.8503 172.367 72.4278C170.181 73.0052 168.71 71.3691 167.775 69.7055C167.569 69.3481 167.39 68.9906 167.239 68.6194C167.184 68.4819 167.28 68.7294 167.225 68.5782C167.211 68.5369 167.184 68.4957 167.17 68.4407C167.156 68.3857 167.142 68.3582 167.115 68.3032C166.799 67.382 165.314 67.7807 165.63 68.7156V68.7431Z" fill="#0C0C0C"/>
<path d="M170.25 51.9698L170.868 62.3225L165.919 59.3116L170.25 51.9698Z" fill="#F76A59"/>
<path d="M219.951 62.6663C219.951 68.5507 215.139 73.3215 209.214 73.3215C203.288 73.3215 198.476 68.5507 198.476 62.6663C198.476 56.7818 203.288 52.0111 209.214 52.0111C215.139 52.0111 219.951 56.7818 219.951 62.6663Z" fill="white"/>
<path d="M204.347 64.0685C204.333 63.8348 204.347 63.601 204.347 63.3811C204.347 63.2711 204.36 63.1611 204.374 63.0648C204.374 63.0098 204.374 62.9411 204.388 62.8861C204.347 63.0923 204.415 62.5974 204.388 62.8861C204.443 62.5836 204.484 62.2949 204.567 62.0062C204.608 61.855 204.649 61.7037 204.704 61.5525C204.732 61.47 204.759 61.3875 204.787 61.305C204.8 61.2638 204.814 61.2225 204.828 61.195C204.897 61.0025 204.8 61.195 204.814 61.2363C204.787 61.1813 205.02 60.8238 205.048 60.7551C205.144 60.5763 205.254 60.4113 205.364 60.2464C205.405 60.1776 205.598 59.9576 205.405 60.1776C205.46 60.1089 205.515 60.0401 205.584 59.9714C205.721 59.8201 205.873 59.6689 206.024 59.5452C206.079 59.5039 206.34 59.3114 206.106 59.4764C206.189 59.4214 206.271 59.3664 206.354 59.3114C206.546 59.1877 206.739 59.0777 206.945 58.9815C206.959 58.9815 207.151 58.8852 207.014 58.954C206.876 59.0227 207.124 58.9127 207.151 58.899C207.275 58.8577 207.413 58.8165 207.55 58.7753C207.688 58.734 207.825 58.7065 207.976 58.6653C208.031 58.6653 208.072 58.6515 208.127 58.6378C208.169 58.6378 208.499 58.5828 208.251 58.6103C208.952 58.514 209.667 58.5415 210.382 58.6103C210.891 58.6653 211.331 58.1428 211.331 57.6616C211.331 57.1117 210.891 56.7679 210.382 56.713C208.114 56.4792 205.653 56.9604 204.14 58.8027C203.123 60.0401 202.642 61.5662 202.504 63.1473C202.477 63.4635 202.463 63.7798 202.477 64.096C202.504 64.6047 202.889 65.0446 203.425 65.0446C203.907 65.0446 204.402 64.6047 204.374 64.096L204.347 64.0685Z" fill="#020202"/>
<path d="M296.751 162.468L261.541 173.975C262.105 176.505 262.586 182.541 262.215 185.731C259.493 209.571 231.83 214.561 227.527 215.015C223.224 215.469 186.707 213.888 173.563 223.856C160.406 233.837 154.893 244.561 158.302 247.063C160.337 248.562 163.376 245.62 165.493 243.035C163.307 246.307 160.667 251.119 162.386 253.264C164.091 255.395 167.871 251.229 170.47 247.82C168.284 251.284 165.933 256.11 168.586 257.65C171.267 259.203 174.292 254.68 176.189 251.037C174.677 254.776 173.316 259.808 176.616 260.372C181.551 261.224 179.022 240.643 213.49 243.131C247.957 245.62 291.939 254.02 303.956 227.719C313.071 207.756 309.029 181.826 296.765 162.482L296.751 162.468Z" fill="white"/>
<path d="M213.462 243.118C247.93 245.606 291.912 254.007 303.928 227.705C314.226 205.171 307.53 180.3 295.418 160.227L260.111 172.298C261.871 176.217 262.765 180.685 262.201 185.717C259.479 209.557 231.816 214.548 227.513 215.002C223.21 215.455 186.693 213.874 173.549 223.842C160.392 233.824 154.879 244.548 158.288 247.05C160.323 248.548 163.362 245.606 165.479 243.022C163.293 246.294 160.653 251.106 162.372 253.251C164.077 255.382 167.857 251.216 170.456 247.806C168.27 251.271 165.919 256.097 168.572 257.636C171.253 259.19 174.278 254.667 176.175 251.023C174.663 254.763 173.302 259.795 176.602 260.359C181.537 261.211 179.008 240.629 213.476 243.118H213.462Z" stroke="#0A2533" stroke-width="1.71708" stroke-miterlimit="10"/>
</g>
<defs>
<clipPath id="clip0_491_4088">
<rect width="334.707" height="261.01" fill="white" transform="scale(1.00088)"/>
</clipPath>
</defs>
</svg>
