<svg width="23" height="23" viewBox="0 0 23 23" fill="none" xmlns="http://www.w3.org/2000/svg">
<path fill-rule="evenodd" clip-rule="evenodd" d="M13.2065 3.78895L14.5268 7.41988C14.6562 7.7763 14.9541 8.04757 15.3247 8.14528L19.1036 9.14357C20.0372 9.39064 20.2817 10.5851 19.5182 11.1649L16.43 13.5133C16.1264 13.7442 15.9584 14.1073 15.9801 14.4855L16.1992 18.3313C16.2527 19.2826 15.1778 19.8791 14.3802 19.3396L11.1517 17.1606C10.8352 16.9469 10.4319 16.9002 10.074 17.0358L6.43289 18.4191C5.53312 18.762 4.62297 17.9355 4.89348 17.0218L5.98499 13.3278C6.09253 12.9645 6.01194 12.5727 5.76925 12.2785L3.29958 9.28632C2.6888 8.54737 3.19992 7.44039 4.16529 7.41329L8.07234 7.30525C8.45547 7.29484 8.80848 7.09897 9.01587 6.78155L11.1303 3.54847C11.6534 2.7491 12.8799 2.89117 13.2065 3.78895Z" fill="#FFB400"/>
<path d="M14.6273 3.27217L14.6273 3.27226L15.8845 6.7294L19.4897 7.68181L19.4904 7.68198C21.6107 8.24309 22.2236 11.008 20.4334 12.3684C20.4331 12.3686 20.4328 12.3688 20.4325 12.369L17.5009 14.5983L17.7087 18.2453L17.7088 18.2464C17.835 20.4909 15.3303 21.8071 13.5335 20.5922L13.5344 20.5928L14.3802 19.3396L13.5331 20.5919L14.6273 3.27217ZM14.6273 3.27217C13.8752 1.20421 11.0702 0.879307 9.86521 2.72058L9.86497 2.72095L7.85202 5.79886L4.1235 5.90196L4.12286 5.90198M14.6273 3.27217L4.12286 5.90198M10.6097 18.4496L10.4493 18.5106L10.3063 18.4141C10.3979 18.4756 10.5097 18.4875 10.6097 18.4496ZM10.6097 18.4496L10.6109 18.4491L10.4925 18.1374L10.4923 18.137L10.074 17.0358L10.4916 18.138L10.4918 18.1384L10.6097 18.4496ZM4.12286 5.90198C1.93039 5.96354 0.701656 8.51511 2.13356 10.2487M4.12286 5.90198L2.13356 10.2487M4.60292 13.2405L4.47871 13.09L4.53505 12.8993C4.49904 13.022 4.52859 13.1504 4.60292 13.2405ZM4.60292 13.2405L4.60323 13.2409L4.88997 13.0042L4.89055 13.0037L5.76904 12.2786L4.89013 13.0036L4.88955 13.0041L4.60292 13.2405ZM2.13356 10.2487C2.13361 10.2488 2.13367 10.2489 2.13372 10.2489M6.43289 18.4191L6.96983 19.8324L6.97081 19.8321C6.97097 19.832 6.97112 19.8319 6.97127 19.8319L6.43289 18.4191ZM3.44354 16.5933L4.89348 17.0218L3.44376 16.5926C3.44372 16.5927 3.44368 16.5929 3.44364 16.593C3.44361 16.5931 3.44358 16.5932 3.44354 16.5933Z" stroke="white" stroke-opacity="0.72" stroke-width="3" stroke-linecap="round" stroke-linejoin="round"/>
</svg>
