<svg width="24" height="24" viewBox="0 0 24 24" fill="none" xmlns="http://www.w3.org/2000/svg">
<path d="M5.80566 14.6763V16.9701C5.80566 19.1328 5.80566 20.2141 6.47752 20.886C7.14937 21.5578 8.2307 21.5578 10.3934 21.5578H13.4518C15.6145 21.5578 16.6958 21.5578 17.3677 20.886C18.0395 20.2141 18.0395 19.1328 18.0395 16.9701V14.6763" stroke="white" stroke-width="1.5" stroke-linecap="round"/>
<path d="M5.80574 14.6129C3.63598 14.2489 1.98267 12.3619 1.98267 10.0887C1.98267 7.55495 4.03664 5.50098 6.57036 5.50098C6.88518 5.50098 7.19259 5.53269 7.48957 5.59309" stroke="white" stroke-width="1.5" stroke-linecap="round"/>
<path d="M18.1941 14.6129C20.3638 14.2489 22.0172 12.3619 22.0172 10.0887C22.0172 7.55495 19.9632 5.50098 17.4295 5.50098C17.1147 5.50098 16.8072 5.53269 16.5103 5.59309" stroke="white" stroke-width="1.5" stroke-linecap="round"/>
<path d="M7.47949 8.17699C7.38514 7.81042 7.33496 7.4261 7.33496 7.03007C7.33496 4.49636 9.38894 2.44238 11.9227 2.44238C14.4564 2.44238 16.5103 4.49636 16.5103 7.03007C16.5103 7.4261 16.4602 7.81042 16.3658 8.17699" stroke="white" stroke-width="1.5" stroke-linecap="round"/>
<path d="M5.80566 18.1172H18.0395" stroke="white" stroke-width="1.5"/>
<path d="M11.8926 10.7329V13.1355" stroke="white" stroke-width="1.5" stroke-linecap="round"/>
<path d="M7.64369 10.9343C7.45162 11.3633 7.80373 12.9989 8.21988 13.267" stroke="white" stroke-width="1.5" stroke-linecap="round"/>
<path d="M16.4564 10.9343C16.6485 11.3633 16.2964 12.9989 15.8802 13.267" stroke="white" stroke-width="1.5" stroke-linecap="round"/>
</svg>
