<svg width="16" height="16" viewBox="0 0 16 16" fill="none" xmlns="http://www.w3.org/2000/svg">
<path d="M8 1.5C6.8125 1.5 5.72917 1.79167 4.75 2.375C3.77083 2.9375 2.97917 3.72917 2.375 4.75C1.79167 5.77083 1.5 6.85417 1.5 8C1.5 9.14583 1.79167 10.2292 2.375 11.25C2.97917 12.2708 3.77083 13.0625 4.75 13.625C5.72917 14.2083 6.8125 14.5 8 14.5C9.1875 14.5 10.2708 14.2083 11.25 13.625C12.2292 13.0625 13.0208 12.2708 13.625 11.25C14.2083 10.2292 14.5 9.14583 14.5 8C14.5 6.85417 14.2083 5.77083 13.625 4.75C13.0208 3.72917 12.2292 2.9375 11.25 2.375C10.2708 1.79167 9.1875 1.5 8 1.5ZM8 16C6.54167 15.9792 5.20833 15.625 4 14.9375C2.79167 14.2292 1.8125 13.25 1.0625 12C0.354167 10.7292 0 9.39583 0 8C0 6.60417 0.354167 5.27083 1.0625 4C1.8125 2.75 2.79167 1.77083 4 1.0625C5.20833 0.375 6.54167 0.0208333 8 0C9.45833 0.0208333 10.7917 0.375 12 1.0625C13.2083 1.77083 14.1875 2.75 14.9375 4C15.6458 5.27083 16 6.60417 16 8C16 9.39583 15.6458 10.7292 14.9375 12C14.1875 13.25 13.2083 14.2292 12 14.9375C10.7917 15.625 9.45833 15.9792 8 16ZM6.75 10.5H7.5V8.5H6.75C6.29167 8.45833 6.04167 8.20833 6 7.75C6.04167 7.29167 6.29167 7.04167 6.75 7H8.25C8.70833 7.04167 8.95833 7.29167 9 7.75V10.5H9.25C9.70833 10.5417 9.95833 10.7917 10 11.25C9.95833 11.7083 9.70833 11.9583 9.25 12H6.75C6.29167 11.9583 6.04167 11.7083 6 11.25C6.04167 10.7917 6.29167 10.5417 6.75 10.5ZM8 6C7.70833 6 7.46875 5.90625 7.28125 5.71875C7.09375 5.53125 7 5.29167 7 5C7 4.70833 7.09375 4.46875 7.28125 4.28125C7.46875 4.09375 7.70833 4 8 4C8.29167 4 8.53125 4.09375 8.71875 4.28125C8.90625 4.46875 9 4.70833 9 5C9 5.29167 8.90625 5.53125 8.71875 5.71875C8.53125 5.90625 8.29167 6 8 6Z" fill="#FF7A00"/>
</svg>
