<svg width="22" height="20" viewBox="0 0 22 20" fill="none" xmlns="http://www.w3.org/2000/svg">
<path d="M7.5625 1.03125C7.61979 0.401042 7.96354 0.0572917 8.59375 0H9.28125C9.91146 0.0572917 10.2552 0.401042 10.3125 1.03125C10.2552 1.66146 9.91146 2.00521 9.28125 2.0625H8.59375C7.96354 2.00521 7.61979 1.66146 7.5625 1.03125ZM9.28125 3.09375C9.91146 3.15104 10.2552 3.49479 10.3125 4.125C10.2552 4.75521 9.91146 5.09896 9.28125 5.15625H8.59375C7.96354 5.09896 7.61979 4.75521 7.5625 4.125C7.61979 3.49479 7.96354 3.15104 8.59375 3.09375H9.28125ZM3.09375 6.1875C3.72396 6.24479 4.06771 6.58854 4.125 7.21875C4.06771 7.84896 3.72396 8.19271 3.09375 8.25H2.40625C1.77604 8.19271 1.43229 7.84896 1.375 7.21875C1.43229 6.58854 1.77604 6.24479 2.40625 6.1875H3.09375ZM20.8398 9.625C21.1549 9.625 21.4271 9.73958 21.6562 9.96875C21.8854 10.1979 22 10.4701 22 10.7852C21.9714 12.2747 21.5703 13.5924 20.7969 14.7383C20.0521 15.8555 19.0352 16.7005 17.7461 17.2734C17.5742 17.8464 17.2591 18.319 16.8008 18.6914C16.3138 19.0638 15.7552 19.25 15.125 19.25H6.875C6.21615 19.25 5.65755 19.0638 5.19922 18.6914C4.74089 18.319 4.42578 17.8464 4.25391 17.2734C2.96484 16.7005 1.94792 15.8555 1.20312 14.7383C0.429688 13.5924 0.0286458 12.2747 0 10.7852C0 10.4701 0.114583 10.1979 0.34375 9.96875C0.572917 9.73958 0.845052 9.625 1.16016 9.625H20.8398ZM6.875 17.1875H15.125C15.4688 17.1589 15.6836 17.0013 15.7695 16.7148C15.9701 16.0846 16.3568 15.6406 16.9297 15.3828C17.7031 15.0391 18.3477 14.5521 18.8633 13.9219C19.3789 13.263 19.7083 12.5182 19.8516 11.6875H2.14844C2.29167 12.5182 2.62109 13.263 3.13672 13.9219C3.65234 14.5521 4.29688 15.0391 5.07031 15.3828C5.64323 15.6406 6.02995 16.0846 6.23047 16.7148C6.31641 17.0013 6.53125 17.1589 6.875 17.1875ZM9.625 7.21875C9.68229 6.58854 10.026 6.24479 10.6562 6.1875H11.3438C11.974 6.24479 12.3177 6.58854 12.375 7.21875C12.3177 7.84896 11.974 8.19271 11.3438 8.25H10.6562C10.026 8.19271 9.68229 7.84896 9.625 7.21875ZM5.5 7.21875C5.55729 6.58854 5.90104 6.24479 6.53125 6.1875H7.21875C7.84896 6.24479 8.19271 6.58854 8.25 7.21875C8.19271 7.84896 7.84896 8.19271 7.21875 8.25H6.53125C5.90104 8.19271 5.55729 7.84896 5.5 7.21875ZM5.15625 3.09375C5.78646 3.15104 6.13021 3.49479 6.1875 4.125C6.13021 4.75521 5.78646 5.09896 5.15625 5.15625H4.46875C3.83854 5.09896 3.49479 4.75521 3.4375 4.125C3.49479 3.49479 3.83854 3.15104 4.46875 3.09375H5.15625ZM13.75 7.21875C13.8073 6.58854 14.151 6.24479 14.7812 6.1875H15.4688C16.099 6.24479 16.4427 6.58854 16.5 7.21875C16.4427 7.84896 16.099 8.19271 15.4688 8.25H14.7812C14.151 8.19271 13.8073 7.84896 13.75 7.21875ZM13.4062 3.09375C14.0365 3.15104 14.3802 3.49479 14.4375 4.125C14.3802 4.75521 14.0365 5.09896 13.4062 5.15625H12.7188C12.0885 5.09896 11.7448 4.75521 11.6875 4.125C11.7448 3.49479 12.0885 3.15104 12.7188 3.09375H13.4062ZM17.875 7.21875C17.9323 6.58854 18.276 6.24479 18.9062 6.1875H19.5938C20.224 6.24479 20.5677 6.58854 20.625 7.21875C20.5677 7.84896 20.224 8.19271 19.5938 8.25H18.9062C18.276 8.19271 17.9323 7.84896 17.875 7.21875ZM17.5312 3.09375C18.1615 3.15104 18.5052 3.49479 18.5625 4.125C18.5052 4.75521 18.1615 5.09896 17.5312 5.15625H16.8438C16.2135 5.09896 15.8698 4.75521 15.8125 4.125C15.8698 3.49479 16.2135 3.15104 16.8438 3.09375H17.5312ZM13.4062 0C14.0365 0.0572917 14.3802 0.401042 14.4375 1.03125C14.3802 1.66146 14.0365 2.00521 13.4062 2.0625H12.7188C12.0885 2.00521 11.7448 1.66146 11.6875 1.03125C11.7448 0.401042 12.0885 0.0572917 12.7188 0H13.4062Z" fill="#FF7A00"/>
</svg>
