<svg width="20" height="20" viewBox="0 0 20 20" fill="none" xmlns="http://www.w3.org/2000/svg">
<path fill-rule="evenodd" clip-rule="evenodd" d="M14.3336 0.751606H5.6631C2.64465 0.751606 0.751606 2.89017 0.751606 5.91664V14.0801C0.751606 17.1065 2.63663 19.2451 5.6631 19.2451H14.3286C17.3601 19.2451 19.2441 17.1065 19.2441 14.0801V5.91664C19.2481 2.89017 17.3631 0.751606 14.3336 0.751606Z" stroke="#FA7344" stroke-width="1.5" stroke-linecap="round" stroke-linejoin="round"/>
<path fill-rule="evenodd" clip-rule="evenodd" d="M8.72199 6.79973C8.72199 7.82192 7.89422 8.64969 6.87203 8.64969C5.85085 8.64969 5.02208 7.82192 5.02208 6.79973C5.02208 5.77755 5.85085 4.94978 6.87203 4.94978C7.89321 4.95079 8.72098 5.77855 8.72199 6.79973Z" stroke="#FA7344" stroke-width="1.5" stroke-linecap="round" stroke-linejoin="round"/>
<path d="M19.2484 12.979C18.3234 12.027 16.5446 10.1039 14.6105 10.1039C12.6753 10.1039 11.5599 14.3459 9.69896 14.3459C7.83799 14.3459 6.14738 12.4278 4.65619 13.6575C3.16501 14.8861 1.75399 17.3984 1.75399 17.3984" stroke="#FA7344" stroke-width="1.5" stroke-linecap="round" stroke-linejoin="round"/>
</svg>
