<svg width="24" height="24" viewBox="0 0 24 24" fill="none" xmlns="http://www.w3.org/2000/svg">
<g clip-path="url(#clip0_395_4908)">
<circle cx="12" cy="12" r="12" fill="#BD0000"/>
<path d="M8.25 13.4509C8.46875 13.436 8.64844 13.3616 8.78906 13.2277C8.92969 13.0937 9 12.9301 9 12.7366V7.78125C9 7.5878 8.92969 7.42411 8.78906 7.29018C8.64844 7.15625 8.46875 7.08929 8.25 7.08929H6.75C6.53125 7.08929 6.35156 7.15625 6.21094 7.29018C6.07031 7.40923 6 7.57292 6 7.78125V12.7589C6 12.9524 6.07031 13.1161 6.21094 13.25C6.35156 13.3839 6.53125 13.4509 6.75 13.4509H8.25ZM18 12.6473C17.9844 12.1116 17.75 11.6949 17.2969 11.3973C17.3125 11.2783 17.3203 11.1592 17.3203 11.0402C17.3047 10.5193 17.0781 10.1101 16.6406 9.8125C16.6562 9.75298 16.6641 9.68601 16.6641 9.61161C16.6484 9.09077 16.4219 8.68155 15.9844 8.38393C15.9375 7.99702 15.7734 7.66964 15.4922 7.40179C15.1953 7.14881 14.8359 7.01488 14.4141 7H13.1953C12.3203 7.01488 11.5312 7.26042 10.8281 7.73661L9.98438 8.36161C9.82812 8.48065 9.75 8.62202 9.75 8.78571C9.78125 9.11309 9.96875 9.29167 10.3125 9.32143C10.4375 9.32143 10.5469 9.28423 10.6406 9.20982L11.5078 8.60714C12.0078 8.25 12.5703 8.07143 13.1953 8.07143H14.4141C14.6797 8.10119 14.8281 8.24256 14.8594 8.49554C14.8594 8.5253 14.8594 8.55506 14.8594 8.58482C14.8438 8.61458 14.8359 8.65179 14.8359 8.69643C14.8672 8.97917 14.9922 9.1503 15.2109 9.20982C15.3984 9.26934 15.5078 9.40327 15.5391 9.61161C15.5234 9.70089 15.5 9.7753 15.4688 9.83482C15.4219 9.89434 15.3906 9.98363 15.375 10.1027C15.3906 10.2812 15.4375 10.4003 15.5156 10.4598C15.6094 10.5342 15.7109 10.5863 15.8203 10.6161C16.0391 10.6607 16.1641 10.8021 16.1953 11.0402C16.1953 11.1741 16.1562 11.2708 16.0781 11.3304C16 11.4048 15.9531 11.5238 15.9375 11.6875C15.9688 12 16.1406 12.1786 16.4531 12.2232C16.7188 12.2679 16.8594 12.4092 16.875 12.6473C16.8438 12.9003 16.6953 13.0491 16.4297 13.0937H13.1953C12.8672 13.1086 12.6797 13.2798 12.6328 13.6071C12.6328 13.6964 12.6562 13.7857 12.7031 13.875C12.9219 14.2321 13.0781 14.567 13.1719 14.8795C13.2656 15.1771 13.3125 15.3705 13.3125 15.4598C13.3125 15.564 13.2734 15.6682 13.1953 15.7723C13.1172 15.8616 12.9844 15.9137 12.7969 15.9286C12.625 15.9286 12.5 15.869 12.4219 15.75C12.3438 15.631 12.2656 15.4673 12.1875 15.2589C12.0938 14.9911 11.9375 14.6711 11.7188 14.2991C11.5 13.942 11.1484 13.5699 10.6641 13.183C10.5547 13.1086 10.4375 13.0714 10.3125 13.0714C9.96875 13.1012 9.78125 13.2798 9.75 13.6071C9.75 13.8155 9.85156 13.9792 10.0547 14.0982C10.1953 14.1875 10.3594 14.3512 10.5469 14.5893C10.7344 14.8125 10.9375 15.1771 11.1562 15.683C11.2656 15.9955 11.4375 16.2932 11.6719 16.5759C11.8906 16.8438 12.2656 16.9851 12.7969 17C13.3125 16.9851 13.7109 16.8214 13.9922 16.5089C14.2891 16.2113 14.4375 15.8616 14.4375 15.4598C14.4375 15.1622 14.3203 14.7232 14.0859 14.1429H16.4297C16.8672 14.128 17.2344 13.9792 17.5312 13.6964C17.8281 13.4137 17.9844 13.064 18 12.6473Z" fill="white"/>
</g>
<defs>
<clipPath id="clip0_395_4908">
<rect width="24" height="24" fill="white"/>
</clipPath>
</defs>
</svg>
