<svg width="24" height="24" viewBox="0 0 24 24" fill="none" xmlns="http://www.w3.org/2000/svg">
<circle cx="12" cy="12" r="12" fill="#00939D"/>
<path d="M8.25 10.5491C8.46875 10.564 8.64844 10.6384 8.78906 10.7723C8.92969 10.9063 9 11.0699 9 11.2634V16.2188C9 16.4122 8.92969 16.5759 8.78906 16.7098C8.64844 16.8438 8.46875 16.9107 8.25 16.9107H6.75C6.53125 16.9107 6.35156 16.8438 6.21094 16.7098C6.07031 16.5908 6 16.4271 6 16.2188V11.2411C6 11.0476 6.07031 10.8839 6.21094 10.75C6.35156 10.6161 6.53125 10.5491 6.75 10.5491H8.25ZM18 11.3527C17.9844 11.8884 17.75 12.3051 17.2969 12.6027C17.3125 12.7217 17.3203 12.8408 17.3203 12.9598C17.3047 13.4807 17.0781 13.8899 16.6406 14.1875C16.6562 14.247 16.6641 14.314 16.6641 14.3884C16.6484 14.9092 16.4219 15.3185 15.9844 15.6161C15.9375 16.003 15.7734 16.3304 15.4922 16.5982C15.1953 16.8512 14.8359 16.9851 14.4141 17H13.1953C12.3203 16.9851 11.5312 16.7396 10.8281 16.2634L9.98438 15.6384C9.82812 15.5193 9.75 15.378 9.75 15.2143C9.78125 14.8869 9.96875 14.7083 10.3125 14.6786C10.4375 14.6786 10.5469 14.7158 10.6406 14.7902L11.5078 15.3929C12.0078 15.75 12.5703 15.9286 13.1953 15.9286H14.4141C14.6797 15.8988 14.8281 15.7574 14.8594 15.5045C14.8594 15.4747 14.8594 15.4449 14.8594 15.4152C14.8438 15.3854 14.8359 15.3482 14.8359 15.3036C14.8672 15.0208 14.9922 14.8497 15.2109 14.7902C15.3984 14.7307 15.5078 14.5967 15.5391 14.3884C15.5234 14.2991 15.5 14.2247 15.4688 14.1652C15.4219 14.1057 15.3906 14.0164 15.375 13.8973C15.3906 13.7188 15.4375 13.5997 15.5156 13.5402C15.6094 13.4658 15.7109 13.4137 15.8203 13.3839C16.0391 13.3393 16.1641 13.1979 16.1953 12.9598C16.1953 12.8259 16.1562 12.7292 16.0781 12.6696C16 12.5952 15.9531 12.4762 15.9375 12.3125C15.9688 12 16.1406 11.8214 16.4531 11.7768C16.7188 11.7321 16.8594 11.5908 16.875 11.3527C16.8438 11.0997 16.6953 10.9509 16.4297 10.9063H13.1953C12.8672 10.8914 12.6797 10.7202 12.6328 10.3929C12.6328 10.3036 12.6562 10.2143 12.7031 10.125C12.9219 9.76786 13.0781 9.43304 13.1719 9.12054C13.2656 8.82292 13.3125 8.62946 13.3125 8.54018C13.3125 8.43601 13.2734 8.33185 13.1953 8.22768C13.1172 8.13839 12.9844 8.08631 12.7969 8.07143C12.625 8.07143 12.5 8.13095 12.4219 8.25C12.3438 8.36905 12.2656 8.53274 12.1875 8.74107C12.0938 9.00893 11.9375 9.32887 11.7188 9.70089C11.5 10.058 11.1484 10.4301 10.6641 10.817C10.5547 10.8914 10.4375 10.9286 10.3125 10.9286C9.96875 10.8988 9.78125 10.7202 9.75 10.3929C9.75 10.1845 9.85156 10.0208 10.0547 9.90179C10.1953 9.8125 10.3594 9.64881 10.5469 9.41071C10.7344 9.1875 10.9375 8.82292 11.1562 8.31696C11.2656 8.00446 11.4375 7.70685 11.6719 7.42411C11.8906 7.15625 12.2656 7.01488 12.7969 7C13.3125 7.01488 13.7109 7.17857 13.9922 7.49107C14.2891 7.78869 14.4375 8.13839 14.4375 8.54018C14.4375 8.8378 14.3203 9.27679 14.0859 9.85714H16.4297C16.8672 9.87202 17.2344 10.0208 17.5312 10.3036C17.8281 10.5863 17.9844 10.936 18 11.3527Z" fill="white"/>
</svg>
