<svg width="309" height="308" viewBox="0 0 309 308" fill="none" xmlns="http://www.w3.org/2000/svg">
<path d="M8.35286 305.064C5.23661 308.18 0.00199864 307.998 0.00199864 307.998C0.00199864 307.998 -0.180168 302.763 2.93609 299.647C6.05234 296.531 11.2869 296.713 11.2869 296.713C11.2869 296.713 11.4691 301.948 8.35286 305.064Z" fill="#FFF1CE"/>
<circle cx="59.4291" cy="186.086" r="4.00185" fill="#FFF1CE"/>
<circle cx="217.502" cy="196.091" r="4.00185" fill="#FFF1CE"/>
<circle cx="304.543" cy="162.075" r="4.00185" fill="#FFF1CE"/>
<circle cx="232.009" cy="3.50162" r="3.50162" fill="#FFF1CE"/>
<circle cx="54.9271" cy="104.548" r="3.50162" fill="#FFF1CE"/>
<circle cx="156.474" cy="45.0209" r="3.00139" fill="#FFF1CE"/>
<path d="M260.845 183.517C261.759 187.629 264.683 191.193 268.43 193.295C271.993 195.305 275.832 195.671 279.852 195.488C280.035 195.488 280.218 195.488 280.309 195.488C280.309 195.305 280.309 195.122 280.309 194.94C279.944 189.639 278.116 184.431 275.192 180.044C272.268 175.841 268.338 172.368 264.5 169.078C261.576 173.282 259.748 178.856 260.845 183.517Z" fill="#AEDC90"/>
<path d="M260.845 183.517C261.759 187.629 264.683 191.193 268.429 193.295C271.993 195.305 275.831 195.671 279.852 195.488C280.035 195.488 280.218 195.488 280.309 195.488C262.764 185.71 264.409 169.078 264.409 169.078C261.576 173.282 259.748 178.856 260.845 183.517Z" fill="#7CA661"/>
<path d="M265.231 177.485C266.053 181.597 268.521 185.618 271.171 188.725C273.547 191.467 276.471 193.934 279.761 195.579C279.944 195.579 280.126 195.579 280.218 195.579C280.218 195.396 280.218 195.213 280.218 195.031C276.928 193.203 274.004 191.101 271.536 188.177C270.166 186.532 268.978 184.796 267.972 182.877C267.059 181.141 266.419 179.222 265.779 177.394C265.688 176.937 265.14 177.12 265.231 177.485Z" fill="#39700B"/>
</svg>
