<svg width="181" height="181" viewBox="0 0 181 181" fill="none" xmlns="http://www.w3.org/2000/svg">
<path d="M154.493 154.493C189.836 119.151 189.836 61.8493 154.493 26.5068C119.151 -8.83561 61.8493 -8.83561 26.5068 26.5068C-8.83561 61.8493 -8.83561 119.151 26.5068 154.493C61.8493 189.836 119.151 189.836 154.493 154.493Z" fill="#3DA0A7"/>
<path d="M90.5045 178.183C138.93 178.183 178.187 138.926 178.187 90.4998C178.187 42.0739 138.93 2.81686 90.5045 2.81686C42.0785 2.81686 2.82153 42.0739 2.82153 90.4998C2.82153 138.926 42.0785 178.183 90.5045 178.183Z" fill="#FFF6FA"/>
<path d="M151.359 151.358C184.97 117.747 184.97 63.2517 151.359 29.6402C117.747 -3.97126 63.2522 -3.97126 29.6407 29.6402C-3.97074 63.2517 -3.97074 117.747 29.6407 151.358C63.2522 184.97 117.747 184.97 151.359 151.358Z" fill="#BCE5E8"/>
<path d="M54.6233 168.729C65.5472 173.748 77.6921 176.569 90.5048 176.569C138.039 176.569 176.573 138.034 176.573 90.5004C176.573 63.0092 163.667 38.5466 143.601 22.7891C145.573 32.992 146.267 43.5122 146.914 53.9131C147.622 65.2736 148.32 76.7713 146.241 87.9617C143.672 101.782 136.967 114.509 129.189 126.217C120.697 138.996 110.614 151.04 97.7273 159.369C85.0568 167.562 69.3653 171.847 54.6233 168.729Z" fill="#8FD2D7"/>
<path d="M139.345 139.344C166.321 112.368 166.321 68.6308 139.345 41.6547C112.369 14.6787 68.6321 14.6787 41.6561 41.6547C14.6801 68.6308 14.6801 112.368 41.6561 139.344C68.6321 166.32 112.369 166.32 139.345 139.344Z" fill="#FFF6FA"/>
<path d="M90.504 156.612C127.017 156.612 156.616 127.012 156.616 90.4997C156.616 53.9871 127.017 24.3878 90.504 24.3878C53.9914 24.3878 24.3921 53.9871 24.3921 90.4997C24.3921 127.012 53.9914 156.612 90.504 156.612Z" fill="#ADDFE2"/>
<path d="M132.11 132.109C155.091 109.128 155.091 71.8694 132.11 48.8887C109.129 25.908 71.8704 25.908 48.8897 48.8887C25.9091 71.8694 25.9091 109.128 48.8897 132.109C71.8704 155.09 109.129 155.09 132.11 132.109Z" fill="#FFF6FA"/>
<path d="M90.5047 146.878C122.086 146.878 147.688 121.637 147.688 90.4996C147.688 59.3625 122.086 34.1209 90.5047 34.1209C58.9232 34.1209 33.3213 59.3625 33.3213 90.4996C33.3213 121.637 58.9232 146.878 90.5047 146.878Z" fill="#BCE5E8"/>
<path d="M152.415 71.08L100.928 28.3251C96.0873 24.3052 88.9259 24.8671 85.0185 29.5725L74.8715 41.7902C71.59 45.7435 71.6129 51.4052 74.5688 55.503L31.8757 106.912C29.2019 110.134 29.7224 115.018 33.036 117.77L76.0891 153.522C79.4026 156.274 84.3007 155.888 86.9744 152.667L129.518 101.436C134.251 104.275 140.431 103.42 143.965 99.166L154.112 86.9484C158.019 82.2429 157.258 75.1022 152.415 71.08Z" fill="#AF4040"/>
<path d="M149.065 71.4558L101.176 31.6865C96.672 27.9464 89.928 28.5724 86.1879 33.0761L76.4812 44.7664C73.3396 48.5477 73.2892 53.9044 76.0157 57.7408L35.1709 106.923C32.6118 110.005 33.0406 114.619 36.1202 117.178L76.167 150.433C79.249 152.992 83.8627 152.563 86.4218 149.483L127.122 100.471C131.539 103.094 137.365 102.204 140.746 98.1339L150.452 86.4436C154.195 81.9399 153.569 75.1959 149.065 71.4558Z" fill="#F4C960"/>
<path d="M146.015 72.5773L100.632 34.8901C96.3649 31.3472 89.974 31.9389 86.4288 36.2063L77.2289 47.2843C74.2524 50.8685 74.2043 55.9431 76.7886 59.5777L38.0878 106.185C35.664 109.104 36.0676 113.477 38.989 115.903L76.9377 147.417C79.8568 149.841 84.2297 149.438 86.6558 146.516L125.226 100.072C129.411 102.557 134.933 101.714 138.136 97.8588L147.336 86.7808C150.877 82.5133 150.283 76.1201 146.015 72.5773Z" fill="#F8D581"/>
<path d="M89.4786 29.7305C88.8365 30.5033 87.8826 30.767 87.346 30.3221C86.8094 29.8773 86.8943 28.8912 87.5363 28.1184C88.1784 27.3457 89.1323 27.082 89.6689 27.5268C90.2032 27.9717 90.1184 28.96 89.4786 29.7305Z" fill="#451B06"/>
<path d="M70.7142 65.7095C68.8613 68.8328 65.2612 70.4998 62.1723 72.5247C59.0835 74.5472 56.1048 77.7231 56.7033 81.2591C56.9624 82.7932 57.8728 84.1416 58.3772 85.6137C59.4137 88.636 58.5791 92.1949 56.2906 94.5156C54.1098 96.7261 50.9499 97.7053 48.1982 99.2096C45.4464 100.714 42.814 103.321 43.1625 106.339C43.5225 109.462 46.8704 111.494 47.8244 114.493C49.1498 118.657 45.5244 122.886 45.6299 127.25C45.6964 129.981 47.3658 132.616 49.8538 133.911C52.3418 135.207 55.5521 135.115 57.9782 133.68C59.7141 132.652 61.1657 130.962 63.1836 130.735C66.2793 130.389 68.4555 133.698 68.9095 136.665C69.3636 139.632 68.9714 142.861 70.5445 145.441C71.9525 147.75 74.8418 149.066 77.6233 148.871C80.4072 148.674 83.003 147.067 84.5508 144.819C85.6286 143.256 86.2225 141.43 87.236 139.827C88.2473 138.224 89.8869 136.775 91.8291 136.764C92.8129 136.759 93.7507 137.124 94.7115 137.319C99.1441 138.22 104.017 134.808 104.512 130.458C105.035 125.867 101.412 121.006 103.636 116.903C105.145 114.124 108.658 113.115 111.729 112.076C114.799 111.037 118.202 109.162 118.507 106.043C118.647 104.614 118.074 103.174 118.321 101.757C118.732 99.4205 121.222 97.9415 123.614 97.3934C126.006 96.8431 128.542 96.8935 130.842 96.0497C134.635 94.6555 137.237 90.6861 136.907 86.7993C136.478 81.7315 131.709 76.9848 133.596 72.2197C134.137 70.853 135.185 69.7156 135.76 68.3604C137.042 65.3495 135.77 61.8984 133.965 59.1719C132.89 57.5461 131.316 55.8905 129.31 55.9547C128.558 55.9776 127.806 56.2505 127.07 56.1083C125.026 55.7139 125.01 52.9874 124.566 51.0268C123.972 48.4058 121.683 46.2869 118.998 45.5761C116.313 44.8675 113.332 45.4912 111.016 47.0024C107.911 49.0295 105.06 52.7672 101.456 51.8431C100.465 51.5886 99.6188 50.9924 98.7382 50.4856C94.8216 48.2292 88.9444 48.1191 86.3577 51.7766C85.1951 53.4185 84.9269 55.4708 84.3696 57.381C83.8124 59.2911 82.7415 61.3022 80.7993 61.9626C79.0703 62.5519 77.1991 61.903 75.383 61.7081C73.5668 61.5132 71.2737 62.1461 70.9343 63.8796L70.7142 65.7095Z" fill="#7AAE56"/>
<path d="M63.0876 130.494C60.9986 129.559 58.8018 131.281 56.7242 132.244C54.6467 133.207 52.0165 133.982 50.221 132.565C48.0242 130.829 48.8497 127.419 49.4436 124.686C50.2278 121.079 50.2232 117.304 49.4275 113.702C48.6662 110.253 47.2629 106.38 49.212 103.431C50.3998 101.631 52.5325 100.744 54.2913 99.4915C57.99 96.8544 60.1547 92.2132 59.7901 87.6957C59.6159 85.5356 58.9096 83.3801 59.2765 81.2452C59.8635 77.8262 62.9799 75.4712 65.9884 73.7307C68.997 71.9903 72.3311 70.3232 73.9867 67.2733C74.8123 65.753 75.2801 63.8405 76.8119 63.0357C78.816 61.9831 81.3774 63.5035 83.4985 62.7078C87.1446 61.3388 85.8352 55.2712 88.83 52.7855C90.9764 51.006 94.2096 51.9301 96.7275 53.1272C99.2453 54.3242 102.1 55.7413 104.685 54.6865C107.28 53.627 108.351 50.552 110.454 48.6992C112.256 47.1123 114.877 46.5047 117.196 47.1398C119.514 47.775 121.456 49.6325 122.188 51.9141C122.876 54.0536 122.741 56.7778 124.621 58.0138C126.419 59.197 128.941 58.1766 130.92 59.0227C133.392 60.0776 133.832 63.4736 133.071 66.0465C132.307 68.6194 130.734 70.9721 130.498 73.6459C130.193 77.1016 132.158 80.2936 133.202 83.6025C134.243 86.9115 133.851 91.3762 130.643 92.7177C129.069 93.3758 127.283 93.0593 125.579 93.1098C121.924 93.2198 118.218 95.4029 117.017 98.8471C116.338 100.792 116.467 102.975 115.581 104.834C113.08 110.086 104.639 109.485 101.337 114.275C98.3648 118.591 101.206 124.36 101.357 129.591C101.424 131.889 100.49 134.665 98.2249 135.09C96.0831 135.491 94.2142 133.53 92.0541 133.237C88.736 132.787 86.3145 136.195 84.7987 139.174C83.283 142.152 81.0885 145.631 77.7428 145.471C75.1149 145.344 73.191 142.886 72.3128 140.414C71.4345 137.942 71.2029 135.239 70.0013 132.907C68.7998 130.575 66.0916 128.648 63.6219 129.556L63.0876 130.494Z" fill="#85BB61"/>
<path d="M64.1469 130.031C62.1243 129.125 59.8151 130.196 57.8041 131.13C55.7907 132.061 53.2431 132.815 51.5049 131.439C49.3769 129.756 50.1749 126.454 50.7505 123.808C51.5095 120.315 51.505 116.658 50.7345 113.168C49.9984 109.827 48.6385 106.077 50.5258 103.22C51.6769 101.477 53.743 100.618 55.4445 99.4045C59.0286 96.8499 61.1245 92.3555 60.7714 87.9779C60.6017 85.8866 59.9183 83.7976 60.2738 81.7292C60.8425 78.4179 63.8602 76.1363 66.777 74.4509C69.6916 72.7654 72.9203 71.1511 74.5255 68.1953C75.3258 66.7231 75.7775 64.8703 77.2634 64.0906C79.2034 63.0702 81.6868 64.5424 83.7391 63.7719C87.2705 62.4465 86.0024 56.5669 88.9032 54.1615C90.9831 52.437 94.1131 53.3336 96.553 54.4917C98.9929 55.6497 101.758 57.0233 104.26 56.0028C106.776 54.9755 107.812 51.9968 109.848 50.2036C111.593 48.6649 114.134 48.0778 116.379 48.6947C118.624 49.3092 120.505 51.1093 121.215 53.3199C121.88 55.3929 121.752 58.0299 123.573 59.2292C125.313 60.3735 127.755 59.3874 129.672 60.2061C132.066 61.2288 132.495 64.5171 131.754 67.0097C131.016 69.5023 129.491 71.7817 129.264 74.3706C128.968 77.7185 130.874 80.8097 131.883 84.0154C132.892 87.2212 132.511 91.5437 129.404 92.8462C127.881 93.4837 126.15 93.1764 124.499 93.2268C120.959 93.3346 117.37 95.4489 116.205 98.783C115.547 100.666 115.671 102.782 114.813 104.582C112.392 109.668 104.214 109.086 101.015 113.727C98.1376 117.908 100.889 123.496 101.034 128.564C101.098 130.79 100.194 133.48 98 133.891C95.9247 134.28 94.1154 132.379 92.0218 132.097C88.8069 131.662 86.4633 134.964 84.9935 137.848C83.5236 140.733 81.3979 144.102 78.1577 143.948C75.6124 143.827 73.7481 141.444 72.8973 139.05C72.0466 136.656 71.8219 134.037 70.657 131.779C69.4921 129.52 66.8688 127.653 64.4793 128.534L64.1469 130.031Z" fill="#98C779"/>
<path d="M91.9006 51.3962C93.116 53.038 93.6915 55.0514 94.2235 57.0235C95.9181 63.2997 97.3811 69.6355 98.6148 76.0173C99.3303 74.7629 99.2867 73.2334 99.2202 71.7934C99.0482 67.973 98.8762 64.1527 98.702 60.3324C98.5575 57.1404 98.3511 53.7581 96.5212 51.1393L91.9006 51.3962Z" fill="#435E18"/>
<path d="M46.5566 105.956C49.4345 105.408 52.388 104.858 55.2773 105.346C56.7862 105.601 58.2676 106.137 59.7948 106.073C61.5399 106.002 63.4339 105.184 64.9245 106.087C60.2603 104.285 55.5938 102.482 50.9296 100.68C50.3517 100.457 49.7533 100.23 49.1341 100.251C48.515 100.274 47.8614 100.611 47.6665 101.198L46.5566 105.956Z" fill="#435E18"/>
<path d="M84.3996 140.343C82.5193 133.677 80.9531 126.922 79.7034 120.109C81.6296 124.762 83.565 129.43 86.1058 133.78C86.4704 134.404 86.8464 135.021 87.1812 135.663C87.3899 136.06 87.5848 136.489 87.5641 136.936C87.5435 137.383 87.2386 137.851 86.7914 137.901L84.3996 140.343Z" fill="#435E18"/>
<path d="M59.6545 131.627C61.5234 126.34 63.6079 121.125 65.9033 116.007C65.6694 119.568 65.7794 123.152 66.2289 126.69C66.41 128.119 66.6417 129.612 66.1555 130.969C64.133 130.488 61.9109 130.919 60.2163 132.12L59.6545 131.627Z" fill="#435E18"/>
<path d="M123.802 54.4209C121.064 59.1745 117.645 63.4947 114.237 67.7966C113.488 68.7437 112.738 69.6884 111.99 70.6355C115.838 68.1589 119.447 65.3109 122.752 62.1464C123.616 61.3163 124.481 60.4403 124.972 59.3488C125.462 58.2573 125.517 56.8952 124.813 55.9275L123.802 54.4209Z" fill="#435E18"/>
<path d="M133.243 77.5627C131.83 77.3678 130.395 77.4503 128.971 77.5352C124.169 77.8172 119.367 78.097 114.565 78.379C115.59 77.3563 117.115 77.072 118.533 76.7739C122.493 75.9415 126.35 74.6252 129.993 72.8641C130.23 72.7495 130.503 72.6325 130.743 72.7357C130.92 72.8114 131.028 72.988 131.122 73.1576C131.933 74.6229 132.495 76.2281 132.773 77.8791L133.243 77.5627Z" fill="#435E18"/>
<path d="M78.1533 136.624C93.8902 136.624 106.647 123.867 106.647 108.13C106.647 92.3928 93.8902 79.6355 78.1533 79.6355C62.4164 79.6355 49.6592 92.3928 49.6592 108.13C49.6592 123.867 62.4164 136.624 78.1533 136.624Z" fill="#D34040"/>
<path d="M78.153 135.489C93.263 135.489 105.512 123.24 105.512 108.13C105.512 93.0199 93.263 80.7708 78.153 80.7708C63.043 80.7708 50.7939 93.0199 50.7939 108.13C50.7939 123.24 63.043 135.489 78.153 135.489Z" fill="#F35C53"/>
<path d="M96.9468 126.935C107.33 116.551 107.33 99.7165 96.9468 89.3331C86.5634 78.9497 69.7286 78.9497 59.3452 89.3331C48.9618 99.7165 48.9618 116.551 59.3452 126.935C69.7286 137.318 86.5634 137.318 96.9468 126.935Z" fill="#F35C53"/>
<path d="M78.1533 134.363C92.6415 134.363 104.386 122.618 104.386 108.129C104.386 93.6413 92.6415 81.8963 78.1533 81.8963C63.6651 81.8963 51.9202 93.6413 51.9202 108.129C51.9202 122.618 63.6651 134.363 78.1533 134.363Z" fill="#C02E24"/>
<path d="M96.2286 126.216C106.215 116.23 106.215 100.038 96.2286 90.0514C86.242 80.0647 70.0504 80.0647 60.0637 90.0514C50.077 100.038 50.077 116.23 60.0637 126.216C70.0504 136.203 86.242 136.203 96.2286 126.216Z" fill="#FF9D97"/>
<path d="M96.9325 124.375C105.537 114.013 104.011 98.5529 93.5239 89.8447C83.0368 81.1366 67.5598 82.4777 58.9552 92.8401C50.3506 103.203 51.8768 118.662 62.3639 127.37C72.851 136.079 88.3279 134.738 96.9325 124.375Z" fill="#DF6565"/>
<path d="M78.1528 129.942C90.1993 129.942 99.9649 120.176 99.9649 108.13C99.9649 96.0831 90.1993 86.3175 78.1528 86.3175C66.1064 86.3175 56.3408 96.0831 56.3408 108.13C56.3408 120.176 66.1064 129.942 78.1528 129.942Z" fill="#F26C6C"/>
<path d="M85.1491 127.86C96.0435 123.98 101.73 112.003 97.8496 101.108C93.9695 90.2137 81.9923 84.5275 71.0979 88.4077C60.2035 92.2878 54.5173 104.265 58.3974 115.159C62.2775 126.054 74.2546 131.74 85.1491 127.86Z" fill="#FF8585"/>
<path d="M78.1532 127.316C88.7496 127.316 97.3397 118.726 97.3397 108.13C97.3397 97.5336 88.7496 88.9436 78.1532 88.9436C67.5568 88.9436 58.9668 97.5336 58.9668 108.13C58.9668 118.726 67.5568 127.316 78.1532 127.316Z" fill="#F26C6C"/>
<path d="M78.1533 126.651C88.3824 126.651 96.6747 118.359 96.6747 108.13C96.6747 97.9006 88.3824 89.6082 78.1533 89.6082C67.9242 89.6082 59.6318 97.9006 59.6318 108.13C59.6318 118.359 67.9242 126.651 78.1533 126.651Z" fill="#FF8585"/>
<path d="M86.4612 110.162C87.577 105.562 84.7521 100.928 80.1516 99.8118C75.5511 98.696 70.9171 101.521 69.8013 106.121C68.6855 110.722 71.5104 115.356 76.1109 116.472C80.7114 117.587 85.3454 114.763 86.4612 110.162Z" fill="#DF6565"/>
<path d="M78.8572 115.889C83.1673 115.49 86.3375 111.672 85.9379 107.362C85.5384 103.052 81.7204 99.8816 77.4103 100.281C73.1002 100.681 69.9301 104.499 70.3296 108.809C70.7292 113.119 74.5471 116.289 78.8572 115.889Z" fill="#FF928A"/>
<path d="M78.8114 115.397C82.8491 115.023 85.8189 111.446 85.4447 107.409C85.0704 103.371 81.4937 100.401 77.456 100.775C73.4183 101.15 70.4484 104.726 70.8227 108.764C71.197 112.802 74.7737 115.772 78.8114 115.397Z" fill="#FF685F"/>
<path d="M87.541 89.2094C85.3282 92.9632 83.113 96.7193 80.9001 100.473C80.9896 100.806 81.439 100.923 81.7555 100.785C82.0719 100.647 82.2783 100.345 82.4687 100.056C83.7643 98.0975 85.0599 96.1392 86.2431 94.1121C87.0021 92.8119 87.7336 91.4314 87.8322 89.9295C87.8483 89.6726 87.7955 89.3447 87.5456 89.2828L87.541 89.2094Z" fill="#DF6565"/>
<path d="M79.1003 105.027C80.9165 101.762 82.7326 98.494 84.5465 95.2286C85.8765 92.8346 87.2225 90.4062 87.9265 87.7783C90.6255 88.292 93.1433 89.5761 95.1177 91.445C89.7059 96.1596 84.6221 101.266 79.9281 106.708L79.1003 105.027Z" fill="#FF685F"/>
<path d="M97.4358 117.07C96.7342 117.08 96.1013 116.683 95.4982 116.327C92.3704 114.477 88.8321 113.323 85.2136 112.975C85.1058 112.966 84.9797 112.94 84.9384 112.842C84.9086 112.771 84.9407 112.691 84.9705 112.619C85.1792 112.129 85.3856 111.638 85.5943 111.147C85.6539 111.005 85.7227 110.854 85.8602 110.78C86.1125 110.645 86.4037 110.856 86.6216 111.044C87.947 112.188 89.5957 112.872 91.1642 113.651C93.1225 114.624 94.9937 115.772 96.7502 117.08L97.4358 117.07Z" fill="#DF6565"/>
<path d="M81.925 108.155C85.4564 108.701 88.9877 109.247 92.5191 109.792C95.108 110.194 97.7313 110.595 100.336 110.329C100.71 113.021 100.327 115.814 99.2448 118.309C93.2781 114.922 87.0615 111.978 80.6592 109.513L81.925 108.155Z" fill="#DF6565"/>
<path d="M62.2278 123.241C65.1882 119.73 68.9374 116.99 72.6499 114.284C72.4206 113.899 72.1157 113.557 71.7579 113.284C69.8065 114.793 67.9514 116.424 66.2041 118.164C64.6562 119.705 63.1748 121.365 62.2324 123.335L62.2278 123.241Z" fill="#DF6565"/>
<path d="M75.3948 110.712C72.7371 113.101 70.0794 115.488 67.4239 117.878C65.4748 119.63 63.505 121.404 62.0604 123.59C59.7398 122.175 57.8182 120.111 56.573 117.694C62.9708 115.218 69.1851 112.266 75.1449 108.868L75.3948 110.712Z" fill="#DF6565"/>
<path d="M78.7192 130.171C77.8891 125.489 77.5131 120.724 77.5979 115.968C78.013 115.842 78.4464 115.784 78.8798 115.798C79.7901 120.492 79.836 125.353 79.015 130.066L78.7192 130.171Z" fill="#DF6565"/>
<path d="M79.3315 111.934C80.556 115.291 81.7782 118.648 83.0027 122.005C83.8993 124.466 84.812 126.958 86.3002 129.114C84.1217 130.74 81.4892 131.751 78.7834 132.003C78.8751 125.144 78.4555 118.277 77.5291 111.48L79.3315 111.934Z" fill="#DF6565"/>
<path d="M60.363 95.0977C61.6724 95.3729 62.5392 96.5676 63.461 97.5376C65.7472 99.9499 68.9919 101.372 70.9823 104.034C71.1818 103.791 71.3814 103.548 71.5809 103.305C71.6428 103.229 71.707 103.149 71.7139 103.053C71.7231 102.931 71.6405 102.823 71.5625 102.729C68.9254 99.5739 66.0591 96.4163 62.2938 94.7629C61.6036 94.4602 60.7413 94.2309 60.1428 94.6873C60.1382 94.779 60.1314 94.873 60.1245 94.9647L60.363 95.0977Z" fill="#F35C53"/>
<path d="M74.5987 105.678C71.7896 103.47 68.9828 101.26 66.1738 99.0514C64.1146 97.4325 62.0278 95.7952 59.627 94.7472C60.6245 92.2179 62.3283 89.973 64.4953 88.3311C68.0312 94.2106 72.0029 99.8265 76.3712 105.117L74.5987 105.678Z" fill="#DF6565"/>
<path d="M76.9379 99.1451C75.5712 98.0376 74.8695 96.1664 75.1722 94.4328C75.3143 93.6165 75.7271 92.7726 76.4907 92.4447C77.4744 92.0227 78.676 92.6809 79.1301 93.6509C79.5818 94.6208 79.4328 95.7743 79.059 96.7764C78.6852 97.783 78.0982 98.7094 77.346 99.4776C77.2497 99.4272 77.0204 99.2116 76.9379 99.1451Z" fill="#DF6565"/>
<path d="M77.19 98.244C76.0664 97.3336 75.4908 95.795 75.7385 94.3709C75.8554 93.6991 76.1949 93.0043 76.8209 92.736C77.6281 92.3874 78.6187 92.9309 78.9902 93.7289C79.3616 94.5269 79.2378 95.4739 78.9328 96.2994C78.6256 97.1273 78.1417 97.8886 77.5248 98.5215C77.4469 98.4756 77.2588 98.299 77.19 98.244Z" fill="#ED6339"/>
<path d="M78.3621 94.8184C78.0824 95.1554 77.5825 95.2013 77.2431 94.9215C76.9037 94.6418 76.8601 94.1419 77.1399 93.8025C77.4197 93.4654 77.9195 93.4196 78.2589 93.6993C78.596 93.9791 78.6419 94.4813 78.3621 94.8184Z" fill="#FFE199"/>
<path d="M77.9835 96.9302C77.7909 97.1618 77.4515 97.2007 77.2267 97.0127C77.002 96.827 76.9768 96.4853 77.1694 96.2537C77.362 96.0221 77.7014 95.9831 77.9261 96.1711C78.1509 96.3569 78.1761 96.6985 77.9835 96.9302Z" fill="#FFE199"/>
<path d="M78.2562 94.2127C78.1163 94.3824 77.8411 94.3824 77.6393 94.2173C77.4398 94.0499 77.3894 93.7793 77.5292 93.6096C77.6691 93.4399 77.9466 93.4399 78.1461 93.605C78.3479 93.7724 78.3961 94.0453 78.2562 94.2127Z" fill="#FFEAB8"/>
<path d="M86.5689 105.557C86.9839 103.848 88.3758 102.413 90.0704 101.943C90.8707 101.72 91.8086 101.734 92.4323 102.282C93.2349 102.988 93.1547 104.36 92.4713 105.183C91.788 106.006 90.6826 106.364 89.6164 106.458C88.5455 106.552 87.4563 106.417 86.4404 106.068C86.4496 105.96 86.5436 105.66 86.5689 105.557Z" fill="#DF6565"/>
<path d="M87.4909 105.401C87.8325 103.995 88.9768 102.816 90.3687 102.429C91.0269 102.248 91.7973 102.257 92.311 102.706C92.9714 103.289 92.9049 104.415 92.3431 105.091C91.7813 105.77 90.8732 106.063 89.9973 106.139C89.1167 106.217 88.2224 106.105 87.3877 105.818C87.3923 105.733 87.4702 105.485 87.4909 105.401Z" fill="#ED6339"/>
<path d="M91.0908 104.993C90.6665 104.885 90.4097 104.452 90.5175 104.027C90.6253 103.603 91.0587 103.346 91.4829 103.454C91.9071 103.562 92.1639 103.995 92.0562 104.42C91.9484 104.844 91.515 105.101 91.0908 104.993Z" fill="#FFE199"/>
<path d="M89.0178 105.554C88.7242 105.479 88.5454 105.19 88.6188 104.905C88.6921 104.621 88.9879 104.454 89.2814 104.529C89.575 104.605 89.7538 104.894 89.6804 105.178C89.6071 105.46 89.3113 105.63 89.0178 105.554Z" fill="#FFE199"/>
<path d="M91.5908 104.637C91.3776 104.582 91.2583 104.334 91.3225 104.082C91.3868 103.83 91.6115 103.669 91.8247 103.722C92.038 103.777 92.1572 104.025 92.093 104.277C92.0265 104.531 91.8041 104.692 91.5908 104.637Z" fill="#FFEAB8"/>
<path d="M69.0976 107.877C67.9075 109.173 65.995 109.755 64.2844 109.345C63.4772 109.152 62.6608 108.687 62.3811 107.905C62.021 106.898 62.7549 105.738 63.7501 105.346C64.7453 104.954 65.8872 105.176 66.8641 105.612C67.8456 106.047 68.7353 106.692 69.453 107.49C69.398 107.582 69.1687 107.797 69.0976 107.877Z" fill="#DF6565"/>
<path d="M68.2147 107.568C67.2355 108.632 65.6647 109.111 64.2568 108.777C63.594 108.618 62.9221 108.235 62.6928 107.593C62.397 106.766 63.0001 105.812 63.8187 105.491C64.6374 105.17 65.5753 105.351 66.3802 105.708C67.1873 106.066 67.9166 106.596 68.5082 107.252C68.4623 107.325 68.2743 107.504 68.2147 107.568Z" fill="#ED6339"/>
<path d="M64.8667 106.183C65.1855 106.484 65.2015 106.986 64.9011 107.305C64.6007 107.623 64.0985 107.639 63.7798 107.339C63.461 107.039 63.445 106.536 63.7454 106.218C64.0458 105.899 64.548 105.883 64.8667 106.183Z" fill="#FFE199"/>
<path d="M66.9535 106.695C67.1736 106.901 67.1896 107.243 66.9901 107.456C66.7906 107.669 66.4489 107.674 66.2288 107.465C66.0087 107.259 65.9926 106.917 66.1921 106.704C66.3916 106.491 66.7333 106.486 66.9535 106.695Z" fill="#FFE199"/>
<path d="M64.2592 106.252C64.4197 106.403 64.4036 106.679 64.2247 106.869C64.0459 107.059 63.7707 107.091 63.6125 106.94C63.452 106.789 63.468 106.514 63.6469 106.323C63.8234 106.133 64.0986 106.101 64.2592 106.252Z" fill="#FFEAB8"/>
<path d="M74.8602 116.607C75.4426 118.267 75.0574 120.228 73.8925 121.546C73.3421 122.168 72.5487 122.67 71.7277 122.548C70.6683 122.392 69.9919 121.2 70.1134 120.136C70.2373 119.072 70.9687 118.171 71.8126 117.513C72.6588 116.852 73.6448 116.371 74.6882 116.112C74.7409 116.203 74.8258 116.506 74.8602 116.607Z" fill="#DF6565"/>
<path d="M74.1719 117.24C74.6511 118.605 74.3347 120.217 73.3762 121.301C72.9244 121.813 72.2709 122.225 71.5967 122.124C70.7253 121.996 70.1681 121.017 70.2713 120.141C70.3745 119.265 70.9752 118.524 71.6678 117.983C72.3626 117.44 73.1743 117.045 74.032 116.83C74.0755 116.908 74.1421 117.158 74.1719 117.24Z" fill="#FFE199"/>
<path d="M71.3768 119.543C71.7918 119.403 72.2435 119.625 72.3834 120.04C72.5233 120.455 72.3009 120.907 71.8858 121.047C71.4708 121.187 71.019 120.964 70.8791 120.549C70.737 120.134 70.9617 119.682 71.3768 119.543Z" fill="#F4D885"/>
<path d="M72.8076 117.942C73.0942 117.845 73.4015 117.992 73.4955 118.267C73.5895 118.545 73.4336 118.847 73.1469 118.944C72.8603 119.04 72.553 118.893 72.459 118.618C72.365 118.341 72.5209 118.038 72.8076 117.942Z" fill="#F4D885"/>
<path d="M71.1498 120.111C71.3585 120.04 71.5947 120.184 71.6772 120.432C71.7598 120.68 71.6589 120.937 71.4525 121.005C71.2438 121.076 71.0076 120.932 70.9251 120.684C70.8425 120.439 70.9434 120.182 71.1498 120.111Z" fill="#FFEAB8"/>
<path d="M84.5117 114.442C86.2705 114.459 87.9858 115.486 88.8296 117.029C89.2263 117.756 89.4304 118.676 89.0383 119.405C88.5315 120.347 87.1809 120.581 86.2224 120.104C85.2639 119.627 84.6631 118.632 84.3306 117.616C83.9958 116.596 83.8788 115.504 83.9866 114.436C84.0898 114.415 84.4039 114.44 84.5117 114.442Z" fill="#DF6565"/>
<path d="M84.8744 115.302C86.3213 115.316 87.7293 116.16 88.4241 117.428C88.752 118.026 88.9171 118.781 88.5961 119.381C88.181 120.157 87.0689 120.349 86.2801 119.957C85.4935 119.565 84.9982 118.746 84.7253 117.912C84.4502 117.072 84.3538 116.176 84.4433 115.297C84.5281 115.281 84.7849 115.302 84.8744 115.302Z" fill="#ED6339"/>
<path d="M86.092 118.714C86.1011 118.276 86.4635 117.928 86.9014 117.937C87.3394 117.946 87.688 118.308 87.6788 118.746C87.6696 119.184 87.3073 119.533 86.8693 119.524C86.4313 119.515 86.0828 119.152 86.092 118.714Z" fill="#FFE199"/>
<path d="M85.0714 116.825C85.0783 116.522 85.3191 116.281 85.6126 116.288C85.9038 116.295 86.1377 116.545 86.1308 116.848C86.1239 117.15 85.8832 117.391 85.5897 117.384C85.2962 117.377 85.0646 117.127 85.0714 116.825Z" fill="#FFE199"/>
<path d="M86.5504 119.12C86.555 118.9 86.7705 118.728 87.0296 118.733C87.291 118.737 87.4974 118.921 87.4928 119.138C87.4882 119.359 87.2727 119.531 87.0136 119.526C86.7522 119.521 86.5458 119.34 86.5504 119.12Z" fill="#FFEAB8"/>
<path d="M85.3373 85.2231C85.7467 84.7301 85.5992 83.9323 85.0078 83.4412C84.4164 82.95 83.6051 82.9515 83.1957 83.4445C82.7863 83.9375 82.9338 84.7353 83.5251 85.2265C84.1165 85.7176 84.9279 85.7161 85.3373 85.2231Z" fill="#FFEAB8"/>
<path d="M79.5566 84.1229C79.2677 84.4692 78.7999 84.554 78.5087 84.3133C78.2175 84.0725 78.2152 83.5955 78.5041 83.2493C78.793 82.903 79.2608 82.8182 79.5521 83.0589C79.8433 83.2997 79.8456 83.7767 79.5566 84.1229Z" fill="#FFEAB8"/>
<path d="M125.184 95.7977C136.311 84.6701 136.311 66.6288 125.184 55.5013C114.056 44.3737 96.0148 44.3737 84.8872 55.5013C73.7597 66.6288 73.7597 84.6701 84.8872 95.7977C96.0148 106.925 114.056 106.925 125.184 95.7977Z" fill="#D34040"/>
<path d="M124.381 94.9951C135.065 84.3108 135.065 66.9882 124.381 56.3039C113.697 45.6196 96.3741 45.6196 85.6898 56.3039C75.0055 66.9882 75.0056 84.3108 85.6898 94.9951C96.3741 105.679 113.697 105.679 124.381 94.9951Z" fill="#F35C53"/>
<path d="M123.836 94.4503C134.219 84.0669 134.219 67.2321 123.836 56.8487C113.453 46.4653 96.6178 46.4653 86.2344 56.8487C75.851 67.2321 75.851 84.0669 86.2344 94.4503C96.6178 104.834 113.453 104.834 123.836 94.4503Z" fill="#F35C53"/>
<path d="M105.042 101.878C119.53 101.878 131.275 90.1334 131.275 75.6452C131.275 61.157 119.53 49.412 105.042 49.412C90.5538 49.412 78.8088 61.157 78.8088 75.6452C78.8088 90.1334 90.5538 101.878 105.042 101.878Z" fill="#C02E24"/>
<path d="M123.118 93.732C133.105 83.7453 133.105 67.5537 123.118 57.567C113.131 47.5803 96.9398 47.5803 86.9531 57.567C76.9664 67.5537 76.9664 83.7453 86.9531 93.732C96.9398 103.719 113.131 103.719 123.118 93.732Z" fill="#FF9D97"/>
<path d="M123.891 91.897C132.497 81.5346 130.972 66.0737 120.485 57.3642C109.998 48.6547 94.5197 49.9946 85.9137 60.3571C77.3078 70.7195 78.8328 86.1803 89.3199 94.8898C99.8071 103.599 115.285 102.259 123.891 91.897Z" fill="#DF6565"/>
<path d="M120.459 91.0728C128.977 82.5547 128.977 68.7442 120.459 60.2262C111.941 51.7081 98.1303 51.7082 89.6122 60.2262C81.0942 68.7443 81.0942 82.5547 89.6123 91.0728C98.1303 99.5908 111.941 99.5908 120.459 91.0728Z" fill="#FF928A"/>
<path d="M105.042 96.5858C116.607 96.5858 125.983 87.2104 125.983 75.6451C125.983 64.0799 116.607 54.7045 105.042 54.7045C93.477 54.7045 84.1016 64.0799 84.1016 75.6451C84.1016 87.2104 93.477 96.5858 105.042 96.5858Z" fill="#FF8585"/>
<path d="M105.042 94.8317C115.638 94.8317 124.228 86.2417 124.228 75.6453C124.228 65.0489 115.638 56.4589 105.042 56.4589C94.4453 56.4589 85.8552 65.0489 85.8552 75.6453C85.8552 86.2417 94.4453 94.8317 105.042 94.8317Z" fill="#FF291C"/>
<path d="M118.132 88.746C125.365 81.513 125.365 69.786 118.132 62.553C110.899 55.32 99.172 55.32 91.939 62.553C84.706 69.786 84.706 81.513 91.939 88.746C99.172 95.979 110.899 95.979 118.132 88.746Z" fill="#D11C11"/>
<path d="M113.578 76.7471C114.203 72.0543 110.905 67.7435 106.213 67.1186C101.52 66.4937 97.209 69.7914 96.5841 74.4842C95.9592 79.177 99.2569 83.4878 103.95 84.1127C108.642 84.7376 112.953 81.4399 113.578 76.7471Z" fill="#DF6565"/>
<path d="M106.08 83.3987C110.368 82.8079 113.365 78.8527 112.774 74.5647C112.184 70.2767 108.228 67.2795 103.94 67.8704C99.6524 68.4613 96.6553 72.4164 97.2461 76.7044C97.837 80.9925 101.792 83.9896 106.08 83.3987Z" fill="#FF928A"/>
<path d="M106.24 82.8794C110.239 82.2062 112.935 78.4188 112.262 74.42C111.588 70.4212 107.801 67.7253 103.802 68.3984C99.8034 69.0716 97.1075 72.859 97.7806 76.8578C98.4538 80.8566 102.241 83.5525 106.24 82.8794Z" fill="#FF685F"/>
<path d="M114.43 56.7226C112.217 60.4764 110.002 64.2325 107.789 67.9863C107.878 68.3188 108.328 68.4358 108.644 68.2982C108.961 68.1606 109.167 67.8579 109.358 67.569C110.653 65.6107 111.949 63.6524 113.132 61.6253C113.891 60.3251 114.623 58.9446 114.721 57.4426C114.737 57.1858 114.684 56.8579 114.434 56.796L114.43 56.7226Z" fill="#DF6565"/>
<path d="M105.989 72.5428C107.805 69.2774 109.621 66.0097 111.435 62.7443C112.765 60.3503 114.111 57.9219 114.815 55.294C117.514 55.8077 120.032 57.0918 122.006 58.9607C116.595 63.6753 111.511 68.7821 106.817 74.2236L105.989 72.5428Z" fill="#FF685F"/>
<path d="M124.325 84.5862C123.623 84.5954 122.99 84.1987 122.387 83.8432C119.26 81.9927 115.721 80.8393 112.103 80.4907C111.995 80.4815 111.869 80.4563 111.828 80.3577C111.798 80.2866 111.83 80.2064 111.86 80.1353C112.068 79.6446 112.275 79.1538 112.483 78.6631C112.543 78.5209 112.612 78.3696 112.749 78.2962C113.002 78.1609 113.293 78.3719 113.511 78.5599C114.836 79.7042 116.485 80.3875 118.053 81.1672C120.012 82.1395 121.883 83.2883 123.639 84.5954L124.325 84.5862Z" fill="#DF6565"/>
<path d="M108.814 75.6704C112.345 76.2162 115.877 76.762 119.408 77.3077C121.997 77.709 124.62 78.1103 127.225 77.8443C127.599 80.5364 127.216 83.3294 126.134 85.8243C120.167 82.4374 113.95 79.4931 107.548 77.028L108.814 75.6704Z" fill="#FF685F"/>
<path d="M89.1167 90.7567C92.0771 87.246 95.8263 84.5057 99.5389 81.7999C99.3095 81.4146 99.0046 81.073 98.6469 80.8001C96.6954 82.3089 94.8403 83.9393 93.093 85.6798C91.5451 87.2208 90.0638 88.881 89.1213 90.8508L89.1167 90.7567Z" fill="#DF6565"/>
<path d="M102.283 78.2273C99.6255 80.6167 96.9678 83.0039 94.3124 85.3933C92.3632 87.1452 90.3935 88.9201 88.9488 91.1054C86.6282 89.6906 84.7066 87.6268 83.4614 85.2098C89.8592 82.7333 96.0735 79.7821 102.033 76.3837L102.283 78.2273Z" fill="#FF685F"/>
<path d="M105.609 97.6844C104.779 93.0018 104.402 88.2368 104.487 83.4809C104.902 83.3547 105.336 83.2974 105.769 83.3112C106.68 88.0052 106.725 92.8666 105.904 97.5789L105.609 97.6844Z" fill="#DF6565"/>
<path d="M106.221 79.4498C107.445 82.8069 108.667 86.164 109.892 89.5211C110.788 91.9816 111.701 94.4742 113.189 96.6298C111.011 98.2556 108.378 99.2668 105.673 99.5191C105.764 92.6604 105.345 85.7925 104.418 78.9958L106.221 79.4498Z" fill="#FF685F"/>
<path d="M87.2524 62.6137C88.5618 62.8889 89.4286 64.0836 90.3504 65.0536C92.6366 67.4659 95.8813 68.8877 97.8717 71.55C98.0712 71.3069 98.2708 71.0638 98.4703 70.8208C98.5322 70.7451 98.5964 70.6648 98.6033 70.5685C98.6125 70.447 98.5299 70.3392 98.4519 70.2452C95.8148 67.0899 92.9485 63.9323 89.1832 62.2789C88.493 61.9762 87.6307 61.7446 87.0322 62.2033C87.0253 62.295 87.0208 62.389 87.0139 62.4807L87.2524 62.6137Z" fill="#DF6565"/>
<path d="M101.488 73.1915C98.6785 70.9832 95.8718 68.7727 93.0627 66.5644C91.0035 64.9455 88.9168 63.3082 86.5159 62.2603C87.5134 59.731 89.2172 57.486 91.3842 55.8441C94.9202 61.7237 98.8918 67.3395 103.26 72.6297L101.488 73.1915Z" fill="#FF685F"/>
<path d="M103.827 66.6587C102.46 65.5512 101.758 63.68 102.061 61.9464C102.203 61.1301 102.616 60.2862 103.379 59.9583C104.363 59.5364 105.565 60.1945 106.019 61.1645C106.47 62.1345 106.321 63.2879 105.948 64.29C105.574 65.2966 104.987 66.2231 104.235 66.9912C104.138 66.9408 103.909 66.7275 103.827 66.6587Z" fill="#DF6565"/>
<path d="M104.079 65.7599C102.955 64.8495 102.38 63.3109 102.627 61.8868C102.744 61.215 103.084 60.5202 103.71 60.2519C104.517 59.9033 105.507 60.4468 105.879 61.2448C106.25 62.0428 106.126 62.9898 105.822 63.8154C105.514 64.6432 105.03 65.4045 104.414 66.0374C104.336 65.9915 104.148 65.8149 104.079 65.7599Z" fill="#ED6339"/>
<path d="M105.251 62.3338C104.971 62.6709 104.471 62.7168 104.131 62.437C103.794 62.1573 103.749 61.6574 104.028 61.318C104.308 60.9786 104.808 60.9351 105.147 61.2148C105.484 61.4946 105.53 61.9945 105.251 62.3338Z" fill="#FFE199"/>
<path d="M104.872 64.4456C104.68 64.6772 104.34 64.7162 104.115 64.5282C103.891 64.3424 103.865 64.0008 104.058 63.7692C104.251 63.5376 104.59 63.4986 104.815 63.6866C105.04 63.8723 105.065 64.214 104.872 64.4456Z" fill="#FFE199"/>
<path d="M105.145 61.7287C105.005 61.8984 104.727 61.8984 104.528 61.7333C104.328 61.5659 104.278 61.2953 104.418 61.1256C104.558 60.9559 104.833 60.9559 105.035 61.121C105.237 61.2884 105.285 61.5613 105.145 61.7287Z" fill="#FFEAB8"/>
<path d="M113.458 73.0724C113.873 71.3641 115.265 69.9286 116.96 69.4585C117.76 69.2361 118.698 69.2498 119.321 69.7979C120.124 70.5042 120.044 71.8754 119.36 72.6987C118.677 73.5219 117.572 73.8796 116.506 73.9736C115.435 74.0677 114.345 73.9324 113.33 73.5838C113.339 73.476 113.433 73.1756 113.458 73.0724Z" fill="#DF6565"/>
<path d="M114.379 72.9168C114.721 71.5111 115.865 70.3325 117.257 69.9449C117.915 69.7638 118.686 69.7729 119.199 70.2224C119.86 70.8048 119.793 71.9307 119.232 72.6072C118.67 73.286 117.762 73.5795 116.886 73.6552C116.005 73.7331 115.111 73.6208 114.276 73.3341C114.281 73.247 114.359 73.0016 114.379 72.9168Z" fill="#ED6339"/>
<path d="M117.98 72.5063C117.556 72.3985 117.299 71.9652 117.407 71.5409C117.514 71.1167 117.948 70.8599 118.372 70.9677C118.796 71.0754 119.053 71.5088 118.945 71.933C118.835 72.3596 118.404 72.6164 117.98 72.5063Z" fill="#FFE199"/>
<path d="M115.907 73.0703C115.613 72.9947 115.434 72.7057 115.508 72.4214C115.581 72.137 115.877 71.9696 116.17 72.0453C116.464 72.121 116.643 72.4099 116.569 72.6943C116.496 72.9763 116.2 73.146 115.907 73.0703Z" fill="#FFE199"/>
<path d="M118.479 72.153C118.266 72.098 118.147 71.8503 118.211 71.5981C118.275 71.3459 118.5 71.1853 118.713 71.2381C118.927 71.2931 119.046 71.5408 118.982 71.793C118.917 72.0453 118.69 72.2081 118.479 72.153Z" fill="#FFEAB8"/>
<path d="M95.9863 75.3908C94.7961 76.6864 92.8837 77.2689 91.173 76.8584C90.3659 76.6658 89.5495 76.2003 89.2697 75.4184C88.9097 74.4117 89.6436 73.2514 90.6388 72.8593C91.634 72.4694 92.7759 72.6896 93.7528 73.1252C94.7342 73.5609 95.624 74.2053 96.3417 75.0033C96.2867 75.0973 96.0573 75.3129 95.9863 75.3908Z" fill="#DF6565"/>
<path d="M95.1036 75.0818C94.1244 76.1458 92.5536 76.6251 91.1457 76.2903C90.483 76.132 89.8111 75.7491 89.5818 75.107C89.2859 74.2792 89.889 73.3253 90.7076 73.0043C91.5263 72.6832 92.4642 72.8667 93.2691 73.2221C94.0763 73.5798 94.8055 74.1095 95.3971 74.7654C95.3512 74.841 95.1632 75.0176 95.1036 75.0818Z" fill="#ED6339"/>
<path d="M91.7556 73.6985C92.0744 73.9989 92.0904 74.5011 91.79 74.8198C91.4896 75.1386 90.9874 75.1546 90.6687 74.8542C90.35 74.5538 90.3339 74.0516 90.6343 73.7329C90.9347 73.4141 91.4369 73.3981 91.7556 73.6985Z" fill="#FFE199"/>
<path d="M93.8424 74.2077C94.0625 74.4141 94.0786 74.7558 93.8791 74.969C93.6796 75.1823 93.3379 75.1869 93.1177 74.9782C92.8976 74.7718 92.8816 74.4301 93.0811 74.2169C93.2806 74.0059 93.6222 74.0013 93.8424 74.2077Z" fill="#FFE199"/>
<path d="M91.1454 73.7675C91.3059 73.9188 91.2898 74.194 91.111 74.3843C90.9321 74.5746 90.6569 74.6067 90.4987 74.4554C90.3382 74.304 90.3542 74.0289 90.5331 73.8385C90.712 73.6482 90.9872 73.6161 91.1454 73.7675Z" fill="#FFEAB8"/>
<path d="M101.749 84.1207C102.332 85.7809 101.947 87.7415 100.782 89.06C100.231 89.6815 99.4378 90.1837 98.6169 90.0621C97.5575 89.9062 96.8811 88.7138 97.0026 87.6498C97.1264 86.5858 97.8579 85.6846 98.7018 85.0265C99.5479 84.3661 100.534 83.8845 101.577 83.6254C101.63 83.7171 101.713 84.0221 101.749 84.1207Z" fill="#DF6565"/>
<path d="M101.061 84.7556C101.541 86.12 101.224 87.7321 100.266 88.8167C99.8138 89.3281 99.1603 89.7408 98.4861 89.6399C97.6147 89.5115 97.0575 88.5324 97.1607 87.6564C97.2639 86.7804 97.8646 86.0398 98.5572 85.4986C99.252 84.9551 100.064 84.5607 100.921 84.3452C100.963 84.4231 101.031 84.6708 101.061 84.7556Z" fill="#ED6339"/>
<path d="M98.2659 87.0583C98.6809 86.9184 99.1327 87.1409 99.2726 87.5559C99.4125 87.971 99.19 88.4227 98.775 88.5626C98.3599 88.7025 97.9082 88.4801 97.7683 88.065C97.6261 87.6477 97.8508 87.1982 98.2659 87.0583Z" fill="#FFE199"/>
<path d="M99.697 85.4578C99.9836 85.3615 100.291 85.5082 100.385 85.7834C100.479 86.0609 100.323 86.3636 100.036 86.4599C99.7497 86.5562 99.4424 86.4094 99.3484 86.1343C99.2544 85.8568 99.4103 85.5541 99.697 85.4578Z" fill="#FFE199"/>
<path d="M98.039 87.627C98.2476 87.5559 98.4838 87.7004 98.5664 87.948C98.6489 88.1957 98.5481 88.4525 98.3417 88.5213C98.133 88.5924 97.8968 88.4479 97.8143 88.2003C97.7294 87.9549 97.8303 87.6981 98.039 87.627Z" fill="#FFEAB8"/>
<path d="M111.398 81.9561C113.157 81.9722 114.872 82.9995 115.716 84.5427C116.113 85.2696 116.317 86.1892 115.925 86.9184C115.418 87.8609 114.068 88.0948 113.109 87.6178C112.151 87.1408 111.55 86.1456 111.217 85.1298C110.883 84.1093 110.766 83.0178 110.873 81.9492C110.979 81.9309 111.293 81.9561 111.398 81.9561Z" fill="#DF6565"/>
<path d="M111.761 82.8181C113.208 82.8319 114.616 83.6757 115.311 84.9438C115.638 85.5423 115.804 86.2968 115.483 86.8976C115.067 87.6726 113.955 87.8653 113.167 87.4731C112.38 87.081 111.885 86.2624 111.612 85.4277C111.337 84.5884 111.24 83.6918 111.33 82.8135C111.417 82.7975 111.674 82.8181 111.761 82.8181Z" fill="#ED6339"/>
<path d="M112.981 86.2304C112.99 85.7924 113.352 85.4439 113.79 85.4531C114.228 85.4622 114.577 85.8245 114.568 86.2625C114.559 86.7005 114.196 87.0491 113.758 87.0399C113.318 87.0307 112.972 86.6684 112.981 86.2304Z" fill="#FFE199"/>
<path d="M111.96 84.3408C111.967 84.0381 112.208 83.7973 112.501 83.8042C112.793 83.8111 113.027 84.061 113.02 84.3637C113.013 84.6664 112.772 84.9072 112.479 84.9003C112.185 84.8934 111.953 84.6435 111.96 84.3408Z" fill="#FFE199"/>
<path d="M113.439 86.6359C113.444 86.4158 113.659 86.2438 113.919 86.2484C114.18 86.253 114.386 86.4364 114.382 86.6543C114.377 86.8744 114.162 87.0464 113.902 87.0418C113.641 87.0372 113.435 86.8538 113.439 86.6359Z" fill="#FFEAB8"/>
<path d="M103.533 101.328C103.313 101.592 102.818 101.544 102.425 101.22C102.033 100.895 101.896 100.418 102.116 100.152C102.336 99.8879 102.831 99.9361 103.223 100.259C103.616 100.585 103.753 101.064 103.533 101.328Z" fill="#FFEAB8"/>
<path d="M97.766 96.1342C97.656 96.2672 97.4496 96.2764 97.3051 96.1572C97.1607 96.0379 97.1331 95.8338 97.2432 95.7008C97.3533 95.5678 97.5597 95.5587 97.7041 95.6779C97.8486 95.7971 97.8761 96.0012 97.766 96.1342Z" fill="#FFEAB8"/>
<path d="M106.95 52.921C104.78 52.4303 103.441 55.049 101.655 56.3034C98.1784 58.7432 92.6933 55.8585 89.2055 58.28C87.7769 59.2729 86.9927 61.1005 87.2518 62.8433C87.4765 64.3705 88.4189 65.7395 88.6437 67.2667C89.155 70.7545 85.8209 73.5544 82.4982 74.6574C79.485 75.6595 76.2402 75.8888 73.2133 76.8519C70.1864 77.815 67.2123 79.7756 66.3524 82.8231C65.4282 86.0977 67.1733 89.6337 66.8087 93.0298C66.678 94.2405 66.2813 95.3985 65.8869 96.5451C63.9813 102.092 62.0734 107.641 60.1679 113.188C59.8789 114.032 59.6244 115.073 60.2367 115.748C60.7457 116.307 61.6011 116.321 62.3486 116.291C64.4629 116.206 66.5771 116.121 68.6913 116.039C70.3515 115.972 72.2411 115.995 73.3991 117.211C75.4904 119.405 73.344 123.209 74.7727 125.872C75.6326 127.472 77.6551 128.215 79.4391 127.988C81.2232 127.761 82.7917 126.741 84.1262 125.567C86.6487 123.349 88.5543 120.533 90.7442 117.99C92.9341 115.447 95.5643 113.083 98.8411 112.23C100.244 111.865 101.74 111.785 103.063 111.207C105.704 110.052 107.094 107.203 108.066 104.493C109.036 101.785 109.889 98.8566 112.047 96.9602C114.836 94.5088 118.959 94.4767 122.662 93.8782C123.4 93.759 124.217 93.5572 124.595 92.9197C124.795 92.5849 124.836 92.179 124.852 91.7869C124.928 90.0281 124.586 88.2418 123.859 86.6182C122.699 84.0202 120.522 81.3418 121.483 78.7162C121.928 77.5031 122.981 76.618 123.542 75.4577C124.705 73.0545 123.506 70.1148 121.889 67.9157C120.272 65.7166 118.19 63.756 117.282 61.1968C117.028 60.4768 116.872 59.7224 116.53 59.0367C116.092 58.1516 115.374 57.4339 114.618 56.7918C112.503 54.9986 109.99 53.6778 107.326 52.9623L106.95 52.921Z" fill="#FF7169"/>
<path d="M107.207 53.1338C105.077 52.6752 103.724 55.2825 101.949 56.546C98.4952 59.0042 93.1271 56.2158 89.6599 58.6579C88.2405 59.6577 87.4448 61.4785 87.6787 63.1983C87.8827 64.7072 88.7931 66.0509 88.9949 67.5598C89.4558 71.004 86.1354 73.8177 82.8494 74.9505C79.8683 75.9801 76.6694 76.2461 73.6769 77.2367C70.6844 78.2273 67.7287 80.204 66.8435 83.2309C65.8919 86.4848 67.5681 89.9611 67.1668 93.3274C67.0224 94.5267 66.6188 95.6802 66.2152 96.8198C64.2684 102.335 62.3215 107.85 60.3746 113.365C60.0788 114.202 59.8174 115.236 60.4113 115.896C60.9044 116.444 61.7482 116.447 62.4843 116.408C64.5687 116.297 66.6509 116.187 68.7353 116.077C70.3703 115.99 72.2323 115.99 73.3582 117.178C75.3922 119.324 73.2298 123.115 74.6034 125.731C75.4289 127.304 77.4147 128.015 79.1736 127.768C80.9347 127.52 82.4893 126.49 83.8216 125.312C86.3349 123.085 88.2451 120.276 90.435 117.731C92.6249 115.185 95.2436 112.814 98.4815 111.929C99.8688 111.551 101.341 111.454 102.653 110.865C105.269 109.689 106.675 106.852 107.665 104.158C108.656 101.466 109.532 98.5557 111.681 96.6547C114.458 94.1942 118.519 94.1094 122.174 93.4742C122.903 93.3481 123.71 93.1371 124.089 92.5019C124.288 92.1694 124.334 91.7658 124.357 91.3783C124.453 89.6378 124.139 87.8744 123.444 86.2738C122.334 83.717 120.222 81.0937 121.202 78.4819C121.653 77.2757 122.704 76.386 123.272 75.2302C124.446 72.8385 123.302 69.9423 121.736 67.7868C120.17 65.629 118.145 63.7165 117.283 61.1941C117.04 60.4856 116.895 59.7403 116.57 59.0638C116.15 58.1947 115.451 57.4908 114.714 56.867C112.655 55.1174 110.195 53.8424 107.581 53.1659L107.207 53.1338Z" fill="#C1554D"/>
<path d="M114.636 60.3117C113.985 58.5001 112.985 56.8147 111.708 55.3746C110.963 54.533 110.084 53.7534 109.011 53.4209C107.938 53.0884 106.633 53.3016 105.925 54.1753C105.104 55.1911 105.315 56.6817 104.838 57.8947C103.93 60.2062 100.846 60.8184 98.431 60.2314C96.0163 59.6467 93.8401 58.2456 91.3934 57.8168C90.4761 57.6562 89.4718 57.6517 88.6784 58.1424C86.853 59.2729 87.3002 62.1049 88.4811 63.8981C89.6621 65.6913 91.3957 67.3079 91.5745 69.4474C91.7327 71.3461 90.5404 73.1645 88.9558 74.2239C87.3713 75.2833 85.4519 75.7053 83.567 75.9759C78.8937 76.6477 73.9887 76.5491 69.696 78.5143C68.3775 79.1174 67.0544 80.0186 66.6141 81.4014C65.8207 83.894 68.1734 86.1297 69.6065 88.3174C71.0099 90.4591 71.5763 93.3806 70.2486 95.5705C69.7052 96.4648 68.882 97.1894 68.499 98.164C68.1757 98.9895 68.2055 99.9021 68.1137 100.783C67.6047 105.644 63.5207 109.201 60.5167 113.058C60.1269 113.558 59.7324 114.158 59.8723 114.775C60.0351 115.495 60.8446 115.86 61.5761 115.977C65.4033 116.589 69.1044 113.374 72.9155 114.078C75.055 114.475 76.8528 116.142 77.6324 118.171C78.4121 120.203 78.2332 122.533 77.3779 124.532C77.0385 125.326 76.5868 126.128 76.6579 126.988C76.7496 128.084 77.7288 128.965 78.8065 129.194C79.8843 129.424 81.0102 129.1 81.9802 128.58C86.5183 126.14 87.6052 120.237 90.4486 115.942C92.9688 112.136 97.3875 109.419 101.942 109.719C103.354 109.813 104.852 110.168 106.131 109.561C107.92 108.712 108.424 106.396 108.333 104.42C108.241 102.443 107.787 100.381 108.505 98.5378C108.904 97.5104 109.635 96.6528 110.353 95.8181C111.944 93.963 113.779 91.9772 116.209 91.7272C117.785 91.5667 119.321 92.179 120.86 92.5527C122.398 92.9265 124.192 93.0068 125.393 91.9726C126.927 90.6518 126.714 88.1339 125.671 86.4003C124.627 84.6667 122.965 83.4009 121.699 81.8233C120.433 80.2456 119.566 78.0282 120.458 76.2144C120.979 75.1595 121.999 74.4372 122.635 73.4466C123.907 71.4653 123.371 68.7365 121.981 66.8333C120.592 64.9323 118.516 63.6711 116.496 62.4626L114.636 60.3117Z" fill="#F4D885"/>
</svg>
