<svg width="15" height="14" viewBox="0 0 15 14" fill="none" xmlns="http://www.w3.org/2000/svg">
<path opacity="0.8" d="M6.125 3.9375C6.10677 4.55729 5.89714 5.07682 5.49609 5.49609C5.07682 5.89714 4.55729 6.10677 3.9375 6.125C3.31771 6.10677 2.79818 5.89714 2.37891 5.49609C1.97786 5.07682 1.76823 4.55729 1.75 3.9375C1.76823 3.31771 1.97786 2.79818 2.37891 2.37891C2.79818 1.97786 3.31771 1.76823 3.9375 1.75C4.55729 1.76823 5.07682 1.97786 5.49609 2.37891C5.89714 2.79818 6.10677 3.31771 6.125 3.9375ZM3.9375 2.625C3.57292 2.64323 3.26302 2.77083 3.00781 3.00781C2.77083 3.26302 2.64323 3.57292 2.625 3.9375C2.64323 4.30208 2.77083 4.61198 3.00781 4.86719C3.26302 5.10417 3.57292 5.23177 3.9375 5.25C4.30208 5.23177 4.61198 5.10417 4.86719 4.86719C5.10417 4.61198 5.23177 4.30208 5.25 3.9375C5.23177 3.57292 5.10417 3.26302 4.86719 3.00781C4.61198 2.77083 4.30208 2.64323 3.9375 2.625ZM7.84766 4.375C7.72005 5.3776 7.29167 6.20703 6.5625 6.86328C5.85156 7.51953 4.97656 7.85677 3.9375 7.875C2.82552 7.83854 1.89583 7.45573 1.14844 6.72656C0.419271 5.97917 0.0364583 5.04948 0 3.9375C0.0364583 2.82552 0.419271 1.89583 1.14844 1.14844C1.89583 0.419271 2.82552 0.0364583 3.9375 0C4.97656 0.0182292 5.85156 0.355469 6.5625 1.01172C7.29167 1.66797 7.72005 2.4974 7.84766 3.5H9.70703C9.92578 2.95312 10.3359 2.66146 10.9375 2.625H13.5625C13.9271 2.64323 14.237 2.77083 14.4922 3.00781C14.7292 3.26302 14.8568 3.57292 14.875 3.9375C14.8568 4.30208 14.7292 4.61198 14.4922 4.86719C14.237 5.10417 13.9271 5.23177 13.5625 5.25H10.9375C10.3359 5.21354 9.92578 4.92188 9.70703 4.375H7.84766ZM3.9375 7C4.8125 6.98177 5.53255 6.68099 6.09766 6.09766C6.68099 5.53255 6.98177 4.8125 7 3.9375C6.98177 3.0625 6.68099 2.34245 6.09766 1.77734C5.53255 1.19401 4.8125 0.893229 3.9375 0.875C3.0625 0.893229 2.34245 1.19401 1.77734 1.77734C1.19401 2.34245 0.893229 3.0625 0.875 3.9375C0.893229 4.8125 1.19401 5.53255 1.77734 6.09766C2.34245 6.68099 3.0625 6.98177 3.9375 7ZM13.5625 3.5H10.9375C10.6641 3.51823 10.5182 3.66406 10.5 3.9375C10.5182 4.21094 10.6641 4.35677 10.9375 4.375H13.5625C13.8359 4.35677 13.9818 4.21094 14 3.9375C13.9818 3.66406 13.8359 3.51823 13.5625 3.5ZM8.75 8.75V7.875C8.75 7.61979 8.83203 7.41016 8.99609 7.24609C9.16016 7.08203 9.36979 7 9.625 7H12.25C12.5052 7 12.7148 7.08203 12.8789 7.24609C13.043 7.41016 13.125 7.61979 13.125 7.875V8.75H14.4375C14.7109 8.76823 14.8568 8.91406 14.875 9.1875C14.8568 9.46094 14.7109 9.60677 14.4375 9.625H14V12.6875C13.9818 13.0521 13.8542 13.362 13.6172 13.6172C13.362 13.8542 13.0521 13.9818 12.6875 14H9.1875C8.82292 13.9818 8.51302 13.8542 8.25781 13.6172C8.02083 13.362 7.89323 13.0521 7.875 12.6875V9.625H7.4375C7.16406 9.60677 7.01823 9.46094 7 9.1875C7.01823 8.91406 7.16406 8.76823 7.4375 8.75H8.75ZM9.625 8.75H12.25V7.875H9.625V8.75ZM8.75 9.625V12.6875C8.76823 12.9609 8.91406 13.1068 9.1875 13.125H12.6875C12.9609 13.1068 13.1068 12.9609 13.125 12.6875V9.625H8.75ZM0 13.5625C0.0182292 13.2891 0.164062 13.1432 0.4375 13.125H5.6875C5.96094 13.1432 6.10677 13.2891 6.125 13.5625C6.10677 13.8359 5.96094 13.9818 5.6875 14H0.4375C0.164062 13.9818 0.0182292 13.8359 0 13.5625ZM4.8125 8.75C5.17708 8.76823 5.48698 8.89583 5.74219 9.13281C5.97917 9.38802 6.10677 9.69792 6.125 10.0625C6.10677 10.4271 5.97917 10.737 5.74219 10.9922C5.48698 11.2292 5.17708 11.3568 4.8125 11.375H4.375C4.375 11.6302 4.29297 11.8398 4.12891 12.0039C3.96484 12.168 3.75521 12.25 3.5 12.25H1.75C1.49479 12.25 1.28516 12.168 1.12109 12.0039C0.957031 11.8398 0.875 11.6302 0.875 11.375V9.1875C0.893229 8.91406 1.03906 8.76823 1.3125 8.75H4.8125ZM4.375 10.5H4.8125C5.08594 10.4818 5.23177 10.3359 5.25 10.0625C5.23177 9.78906 5.08594 9.64323 4.8125 9.625H4.375V10.5ZM3.5 9.625H1.75V11.375H3.5V9.625Z" fill="white"/>
</svg>
