<svg width="48" height="48" viewBox="0 0 48 48" fill="none" xmlns="http://www.w3.org/2000/svg">
<path d="M24 47.9999C37.2548 47.9999 48 37.2548 48 24C48 10.7452 37.2548 0 24 0C10.7452 0 0 10.7452 0 24C0 37.2548 10.7452 47.9999 24 47.9999Z" fill="#EBB64A"/>
<path d="M24 45.6584C35.9617 45.6584 45.6585 35.9616 45.6585 23.9999C45.6585 12.0383 35.9617 2.34142 24 2.34142C12.0383 2.34142 2.34148 12.0383 2.34148 23.9999C2.34148 35.9616 12.0383 45.6584 24 45.6584Z" fill="white"/>
<path d="M4.68291 23.3495H19.317C20.4227 23.3495 21.0081 21.9836 20.2276 21.2031L9.88615 10.7966C9.36583 10.2763 8.45527 10.3414 7.99998 10.8617C5.4634 13.9186 3.83738 17.756 3.44714 21.9186C3.3821 22.6991 3.96746 23.3495 4.68291 23.3495Z" fill="#EEC94D"/>
<path d="M19.3821 24.5853H4.68294C3.90245 24.5853 3.31709 25.2357 3.44717 26.0162C3.83741 30.1788 5.52847 34.0162 8.00001 37.0731C8.45529 37.6585 9.36586 37.7235 9.88618 37.1382L20.2276 26.7967C21.0732 25.9512 20.4878 24.5853 19.3821 24.5853Z" fill="#EEC94D"/>
<path d="M21.9187 3.44714C17.7561 3.83738 13.9187 5.52844 10.8618 7.99998C10.2764 8.45527 10.2113 9.36584 10.7967 9.88616L21.1382 20.2276C21.9186 21.0081 23.2845 20.4878 23.2845 19.317V4.68292C23.3496 3.96747 22.6991 3.3821 21.9187 3.44714Z" fill="#EEC94D"/>
<path d="M26.7967 20.2926L37.1381 9.95112C37.6585 9.4308 37.5934 8.52023 37.0731 8.06495C34.0162 5.52837 30.1788 3.90235 26.0162 3.51211C25.2357 3.44707 24.5853 4.03243 24.5853 4.74788V19.382C24.5853 20.4877 25.9512 21.0731 26.7967 20.2926Z" fill="#EEC94D"/>
<path d="M28.5528 23.3495H43.1869C43.9674 23.3495 44.5528 22.6991 44.4227 21.9187C44.0325 17.7561 42.3414 13.9187 39.8699 10.8618C39.4146 10.2764 38.504 10.2113 37.9837 10.7967L27.6422 21.1382C26.8617 21.9837 27.4471 23.3495 28.5528 23.3495Z" fill="#EEC94D"/>
<path d="M43.2519 24.5853H28.6178C27.5121 24.5853 26.9268 25.9512 27.7072 26.7317L38.0487 37.0731C38.569 37.5934 39.4796 37.5284 39.9349 37.0081C42.4715 33.9512 44.0975 30.1138 44.4877 25.9512C44.5528 25.2357 43.9674 24.5853 43.2519 24.5853Z" fill="#EEC94D"/>
<path d="M21.2032 27.6422L10.8618 37.9837C10.3415 38.504 10.4065 39.4146 10.9268 39.8698C13.9837 42.4064 17.8211 44.0324 21.9837 44.4227C22.7642 44.4877 23.4146 43.9024 23.4146 43.1869V28.5528C23.3496 27.4471 21.9837 26.8617 21.2032 27.6422Z" fill="#EEC94D"/>
<path d="M26.7967 27.6423C26.0163 26.8618 24.6504 27.3821 24.6504 28.5529V43.187C24.6504 43.9675 25.3008 44.5529 26.0813 44.4228C30.2439 44.0325 34.0813 42.3415 37.1382 39.8699C37.7236 39.4147 37.7886 38.5041 37.2032 37.9838L26.7967 27.6423Z" fill="#EEC94D"/>
</svg>
