<svg width="328" height="37" viewBox="0 0 328 37" fill="none" xmlns="http://www.w3.org/2000/svg">
<line x1="0.5" y1="37" x2="0.499998" y2="26" stroke="#0A2533"/>
<line x1="10.7188" y1="37" x2="10.7187" y2="12" stroke="#0A2533"/>
<line x1="20.9375" y1="37" x2="20.9375" y2="26" stroke="#0A2533"/>
<line x1="31.1562" y1="37" x2="31.1562" y2="26" stroke="#0A2533"/>
<line x1="41.375" y1="37" x2="41.375" y2="26" stroke="#0A2533"/>
<line x1="51.5938" y1="37" x2="51.5938" y2="26" stroke="#0A2533"/>
<line x1="61.8125" y1="37" x2="61.8125" y2="12" stroke="#0A2533"/>
<line x1="72.0312" y1="37" x2="72.0312" y2="26" stroke="#0A2533"/>
<line x1="82.25" y1="37" x2="82.25" y2="26" stroke="#0A2533"/>
<line x1="92.4688" y1="37" x2="92.4688" y2="26" stroke="#0A2533"/>
<line x1="102.688" y1="37" x2="102.688" y2="26" stroke="#0A2533"/>
<line x1="112.906" y1="37" x2="112.906" y2="12" stroke="#0A2533"/>
<line x1="123.125" y1="37" x2="123.125" y2="26" stroke="#0A2533"/>
<line x1="133.344" y1="37" x2="133.344" y2="26" stroke="#0A2533"/>
<line x1="143.562" y1="37" x2="143.562" y2="26" stroke="#0A2533"/>
<line x1="153.781" y1="37" x2="153.781" y2="26" stroke="#0A2533"/>
<path d="M164.5 8C166.709 8 168.5 6.20914 168.5 4C168.5 1.79086 166.709 -9.65645e-08 164.5 0C162.291 9.65645e-08 160.5 1.79086 160.5 4C160.5 6.20914 162.291 8 164.5 8ZM165.25 37L165.25 4L163.75 4L163.75 37L165.25 37Z" fill="#FF7A00"/>
<line x1="174.219" y1="37" x2="174.219" y2="26" stroke="#0A2533"/>
<line x1="184.438" y1="37" x2="184.438" y2="26" stroke="#0A2533"/>
<line x1="194.656" y1="37" x2="194.656" y2="26" stroke="#0A2533"/>
<line x1="204.875" y1="37" x2="204.875" y2="26" stroke="#0A2533"/>
<line x1="215.094" y1="37" x2="215.094" y2="12" stroke="#0A2533"/>
<line x1="225.312" y1="37" x2="225.312" y2="26" stroke="#0A2533"/>
<line x1="235.531" y1="37" x2="235.531" y2="26" stroke="#0A2533"/>
<line x1="245.75" y1="37" x2="245.75" y2="26" stroke="#0A2533"/>
<line x1="255.969" y1="37" x2="255.969" y2="26" stroke="#0A2533"/>
<line x1="266.188" y1="37" x2="266.188" y2="12" stroke="#0A2533"/>
<line x1="276.406" y1="37" x2="276.406" y2="26" stroke="#0A2533"/>
<line x1="286.625" y1="37" x2="286.625" y2="26" stroke="#0A2533"/>
<line x1="296.844" y1="37" x2="296.844" y2="26" stroke="#0A2533"/>
<line x1="307.062" y1="37" x2="307.062" y2="26" stroke="#0A2533"/>
<line x1="317.281" y1="37" x2="317.281" y2="12" stroke="#0A2533"/>
<line x1="327.5" y1="37" x2="327.5" y2="26" stroke="#0A2533"/>
</svg>
