<svg width="47" height="42" viewBox="0 0 47 42" fill="none" xmlns="http://www.w3.org/2000/svg">
<path d="M10.1167 19.0895C11.0202 18.9427 11.6167 19.297 11.906 20.1523C12.0931 21.0667 11.7536 21.6887 10.8875 22.0183L7.04285 23.0623C6.48344 23.2149 5.97948 23.0798 5.53099 22.6572C5.16313 22.2562 5.03466 21.768 5.14559 21.1928C5.33714 20.6392 5.71262 20.2861 6.27204 20.1335L10.1167 19.0895ZM15.3274 5.44837C15.7356 5.86022 15.8842 6.35375 15.7733 6.92898C15.5817 7.48261 15.2062 7.83571 14.6468 7.98829C14.0874 8.14087 13.6036 8.01124 13.1954 7.59939L10.3879 4.77299C9.97969 4.36115 9.83106 3.86761 9.94198 3.29238C10.1335 2.73875 10.4889 2.38025 11.008 2.21687C11.5969 2.1154 12.1008 2.25044 12.5198 2.62197L15.3274 5.44837ZM11.9584 13.4255C11.6401 14.2908 11.0267 14.645 10.1181 14.488L6.24777 13.4509C5.38242 13.1326 5.02826 12.5192 5.18529 11.6106C5.50358 10.7453 6.117 10.3911 7.02557 10.5481L10.8959 11.5852C11.7613 11.9035 12.1154 12.5169 11.9584 13.4255ZM38.1832 14.4893C37.4683 14.2545 37.1019 13.7675 37.084 13.0281C37.1063 12.2995 37.4739 11.8146 38.1867 11.5735L42.0313 10.5295C42.9348 10.3828 43.5515 10.7424 43.8811 11.6085C44.0279 12.5121 43.6682 13.1287 42.8021 13.4584L38.9575 14.5023C38.6832 14.5585 38.4251 14.5541 38.1832 14.4893ZM42.8264 20.1409C43.6917 20.4592 44.0459 21.0727 43.8889 21.9812C43.5706 22.8466 42.9571 23.2007 42.0486 23.0437L38.1782 22.0066C37.3129 21.6884 36.9587 21.0749 37.1157 20.1664C37.434 19.301 38.0475 18.9468 38.956 19.1039L42.8264 20.1409ZM38.6863 28.8188C39.2715 29.5374 39.2747 30.2512 38.6958 30.9603C37.9773 31.5456 37.2634 31.5488 36.5543 30.9699L33.7468 28.1435C33.3386 27.7316 33.2101 27.2435 33.3614 26.6791C33.5126 26.1146 33.8679 25.7561 34.4273 25.6035C34.976 25.4913 35.4597 25.6209 35.8787 25.9924L38.6863 28.8188ZM27.6483 5.18485C30.6504 6.07568 32.8745 7.77351 34.3207 10.2783C35.7963 12.8343 36.1748 15.6148 35.456 18.6198C34.6703 21.3908 33.1568 23.4915 30.9155 24.9218C30.2293 25.3861 29.4489 26.0412 28.574 26.8871C27.6481 27.7625 26.8888 28.6609 26.2963 29.5824C26.2854 29.6227 26.28 29.6428 26.28 29.6428L16.6042 27.0502C16.6042 27.0502 16.6096 27.03 16.6204 26.9897C16.5679 25.8954 16.3596 24.7377 15.9954 23.5166C15.6607 22.3467 15.3123 21.3891 14.9503 20.6439C13.7352 18.2443 13.4748 15.6682 14.1691 12.9159C14.9764 10.0643 16.6432 7.87507 19.1697 6.34828C21.645 4.85099 24.4712 4.46318 27.6483 5.18485ZM29.2407 22.4638C30.8902 21.3069 31.9944 19.7664 32.5533 17.842C33.0963 15.6541 32.8164 13.6346 31.7136 11.7835C30.6511 9.94325 29.0166 8.70588 26.81 8.07141C24.3694 7.50388 22.2786 7.80788 20.5377 8.98341C18.786 10.1993 17.6307 11.7694 17.0718 13.6937C16.5533 15.6289 16.7392 17.5152 17.6297 19.3526C17.9622 20.0466 18.2825 20.8671 18.5906 21.8138C18.8986 22.7606 19.1556 23.7368 19.3614 24.7426L25.046 26.2658C25.7271 25.4977 26.4378 24.7807 27.1779 24.1148C27.9181 23.4489 28.6057 22.8986 29.2407 22.4638ZM15.4537 31.3439L16.0694 29.0458L25.7453 31.6385L25.1296 33.9365C25.0215 34.3397 24.8235 34.6755 24.5355 34.944L23.0861 36.2409C22.5022 36.6462 21.8823 36.7826 21.2265 36.65L17.4771 35.6454C16.8428 35.4322 16.3943 35.0096 16.1316 34.3774L15.4644 32.5134C15.3492 32.1369 15.3456 31.747 15.4537 31.3439ZM25.3843 9.76353C25.9783 9.96589 26.2144 10.3748 26.0927 10.9904C25.8903 11.5843 25.4814 11.8204 24.8658 11.6987C24.0487 11.523 23.2877 11.6215 22.5828 11.9944C21.9075 12.4184 21.4416 13.0282 21.1852 13.8237C20.9829 14.4176 20.5739 14.6537 19.9584 14.532C19.3645 14.3296 19.1283 13.9207 19.2501 13.3052C19.6577 11.9452 20.4292 10.9204 21.5646 10.2308C22.7295 9.59231 24.0028 9.43655 25.3843 9.76353Z" fill="#FF7A00"/>
</svg>
