<svg width="24" height="24" viewBox="0 0 24 24" fill="none" xmlns="http://www.w3.org/2000/svg">
<path d="M20 16.375C19.9494 17.2344 19.5446 17.8203 18.7857 18.1328V20.75H19.3929C19.7723 20.776 19.9747 20.9844 20 21.375C19.9747 21.7656 19.7723 21.974 19.3929 22H5.42857C4.74554 21.974 4.17634 21.7266 3.72098 21.2578C3.26563 20.7891 3.0253 20.2031 3 19.5V5.125C3.0253 4.23958 3.31622 3.4974 3.87277 2.89844C4.45461 2.32552 5.1756 2.02604 6.03571 2H18.1786C18.6845 2.02604 19.1146 2.20833 19.4688 2.54688C19.7976 2.91146 19.9747 3.35417 20 3.875V16.375ZM4.21429 5.125V17.3516C4.56845 17.1172 4.97321 17 5.42857 17H6.64286V3.25H6.03571C5.52976 3.27604 5.0997 3.45833 4.74554 3.79688C4.41667 4.16146 4.23958 4.60417 4.21429 5.125ZM17.5714 20.75V18.25H5.42857C5.0744 18.25 4.78348 18.3672 4.5558 18.6016C4.32812 18.8359 4.21429 19.1354 4.21429 19.5C4.21429 19.8646 4.32812 20.1641 4.5558 20.3984C4.78348 20.6328 5.0744 20.75 5.42857 20.75H17.5714ZM18.1786 17C18.558 16.974 18.7604 16.7656 18.7857 16.375V3.875C18.7604 3.48438 18.558 3.27604 18.1786 3.25H7.85714V17H18.1786Z" fill="#FF7A00"/>
<path d="M15.7857 7.5C16.1205 7.52344 16.2991 7.71094 16.3214 8.0625C16.2991 8.41406 16.1205 8.60156 15.7857 8.625H10.4285C10.0937 8.60156 9.91514 8.41406 9.89282 8.0625C9.91514 7.71094 10.0937 7.52344 10.4285 7.5H15.7857ZM15.7857 10.875C16.1205 10.8984 16.2991 11.0859 16.3214 11.4375C16.2991 11.7891 16.1205 11.9766 15.7857 12H10.4285C10.0937 11.9766 9.91514 11.7891 9.89282 11.4375C9.91514 11.0859 10.0937 10.8984 10.4285 10.875H15.7857Z" fill="#C6E3E5"/>
</svg>
