<svg width="190" height="123" viewBox="0 0 190 123" fill="none" xmlns="http://www.w3.org/2000/svg">
<g clip-path="url(#clip0_457_4460)">
<path d="M88.7867 92.7371L65.3999 68.9334L73.2601 61.1101L86.9046 75.0305L115.301 30.2627L124.6 36.2484L88.7867 92.7371Z" fill="#00939D"/>
<path d="M95.0139 123C61.3038 123 33.8762 95.4099 33.8762 61.5C33.8762 27.5901 61.2761 0 95.0139 0C128.752 0 156.152 27.5901 156.152 61.5C156.152 95.4099 128.724 123 95.0139 123ZM95.0139 8.3522C65.8704 8.3522 42.1792 32.1838 42.1792 61.5C42.1792 90.8162 65.8704 114.648 95.0139 114.648C124.157 114.648 147.849 90.8162 147.849 61.5C147.849 32.1838 124.13 8.3522 95.0139 8.3522Z" fill="#00939D"/>
<path d="M18.1559 60.1079H0V62.892H18.1559V60.1079Z" fill="#00939D"/>
<path d="M11.8517 21.3712L9.89465 23.3398L22.7328 36.2541L24.6898 34.2854L11.8517 21.3712Z" fill="#00939D"/>
<path d="M22.753 86.1493L9.91492 99.0635L11.8719 101.032L24.7101 88.1179L22.753 86.1493Z" fill="#00939D"/>
<path d="M190 60.1079H171.844V62.892H190V60.1079Z" fill="#00939D"/>
<path d="M178.148 21.3597L165.31 34.2739L167.267 36.2426L180.105 23.3283L178.148 21.3597Z" fill="#00939D"/>
<path d="M167.26 86.1095L165.303 88.0781L178.141 100.992L180.098 99.0237L167.26 86.1095Z" fill="#00939D"/>
</g>
<defs>
<clipPath id="clip0_457_4460">
<rect width="190" height="123" fill="white"/>
</clipPath>
</defs>
</svg>
