<svg width="15" height="23" viewBox="0 0 15 23" fill="none" xmlns="http://www.w3.org/2000/svg">
<path d="M9.25391 2.15625C9.22396 2.75521 9.01432 3.26432 8.625 3.68359C8.20573 4.07292 7.69661 4.28255 7.09766 4.3125C6.4987 4.28255 5.98958 4.07292 5.57031 3.68359C5.18099 3.26432 4.97135 2.75521 4.94141 2.15625C4.97135 1.55729 5.18099 1.04818 5.57031 0.628906C5.98958 0.239583 6.4987 0.0299479 7.09766 0C7.69661 0.0299479 8.20573 0.239583 8.625 0.628906C9.01432 1.04818 9.22396 1.55729 9.25391 2.15625ZM11.8594 16.3066C11.9193 16.5462 11.8743 16.7559 11.7246 16.9355C11.6048 17.1452 11.4102 17.25 11.1406 17.25H9.97266V21.9219C9.91276 22.5807 9.55339 22.9401 8.89453 23C8.23568 22.9401 7.8763 22.5807 7.81641 21.9219V17.25H6.37891V21.9219C6.31901 22.5807 5.95964 22.9401 5.30078 23C4.64193 22.9401 4.28255 22.5807 4.22266 21.9219V17.25H3.05469C2.78516 17.25 2.59049 17.1452 2.4707 16.9355C2.32096 16.7559 2.27604 16.5462 2.33594 16.3066L4.44727 9.6582L2.29102 13.4766C1.90169 14.0156 1.40755 14.1504 0.808594 13.8809C0.269531 13.4915 0.134766 12.9974 0.404297 12.3984L2.74023 8.31055C3.18945 7.50195 3.80339 6.87305 4.58203 6.42383C5.33073 5.94466 6.16927 5.70508 7.09766 5.70508C8.02604 5.70508 8.86458 5.94466 9.61328 6.42383C10.3919 6.87305 11.0059 7.50195 11.4551 8.31055L13.791 12.3984C14.0605 12.9974 13.9258 13.4915 13.3867 13.8809C12.7878 14.1504 12.2936 14.0156 11.9043 13.4766L9.74805 9.6582L11.8594 16.3066ZM4.98633 15.0938H9.20898L7.09766 8.40039L4.98633 15.0938Z" fill="#0A2533"/>
</svg>
