<svg width="280" height="254" viewBox="0 0 280 254" fill="none" xmlns="http://www.w3.org/2000/svg">
<g clip-path="url(#clip0_456_4308)">
<path fill-rule="evenodd" clip-rule="evenodd" d="M188.716 90.5814C188.282 135.787 156.833 148.274 139.192 93.6369C125.366 50.7469 129.281 1.49925 145.389 0.0379479C168.043 -2.01166 188.949 67.6372 188.716 90.5625V90.5814Z" fill="#DC9120"/>
<path fill-rule="evenodd" clip-rule="evenodd" d="M150.769 106.807C150.769 106.807 159.132 110.66 170.342 99.6338C181.553 88.6076 179.221 69.1553 179.221 69.1553C179.221 69.1553 172.907 97.8688 150.753 106.807H150.769Z" fill="#EA9F34"/>
<path fill-rule="evenodd" clip-rule="evenodd" d="M143.406 79.954C143.406 79.954 153.201 81.9088 162.53 72.1541C171.858 62.3995 168.71 45.9077 168.71 45.9077C168.71 45.9077 160.264 77.8855 143.406 79.954Z" fill="#EA9F34"/>
<path fill-rule="evenodd" clip-rule="evenodd" d="M136.71 53.3659C136.71 53.3659 142.157 57.8257 153.118 47.3689C164.079 36.8931 159.215 23.0962 159.215 23.0962C159.215 23.0962 150.869 51.0127 136.71 53.3849V53.3659Z" fill="#EA9F34"/>
<path fill-rule="evenodd" clip-rule="evenodd" d="M131.063 31.2187C132.346 13.3984 137.343 0.778147 145.389 0.0380097C161.23 -1.40431 176.206 32.2245 183.718 60.4256C179.87 47.3309 168.527 24.8231 161.947 18.883C154.784 12.4116 148.287 35.7164 141.491 35.6595C134.711 35.6026 155.1 5.63648 146.955 5.84524C138.826 6.054 131.097 31.1048 131.063 31.2187ZM184.568 63.8227L184.701 64.392C184.651 64.2212 184.601 64.0504 184.568 63.8227Z" fill="#D18702"/>
<path fill-rule="evenodd" clip-rule="evenodd" d="M188.716 90.5814C188.283 135.806 156.833 148.274 139.192 93.6368C133.828 77.0312 131.146 59.4956 130.78 44.1235C130.88 44.8067 135.827 81.3581 142.141 95.6865C148.504 110.148 156.033 118.593 165.695 112.918C175.356 107.244 176.406 100.089 178.288 103.126C180.17 106.162 173.574 115.386 178.321 114.797C183.069 114.209 189.115 98.2485 186.45 72.1159C187.949 79.5173 188.749 85.9888 188.699 90.5814H188.716Z" fill="#D18702"/>
<path fill-rule="evenodd" clip-rule="evenodd" d="M179.237 68.5103C179.237 68.5103 179.237 84.205 170.958 95.4399C167.444 100.203 155.317 110.413 150.769 106.808C150.769 106.808 169.226 92.9158 179.237 68.5103Z" fill="#A86A00"/>
<path fill-rule="evenodd" clip-rule="evenodd" d="M168.71 45.9077C168.71 45.9077 168.71 59.8565 161.347 69.8388C158.215 74.0709 147.454 83.1423 143.406 79.954C143.406 79.954 159.814 67.6184 168.71 45.9077Z" fill="#A86A00"/>
<path fill-rule="evenodd" clip-rule="evenodd" d="M159.231 23.0771C159.231 23.0771 159.231 35.4887 152.685 44.3703C149.903 48.1469 140.325 56.2125 136.727 53.3659C136.727 53.3659 151.319 42.3777 159.231 23.0771Z" fill="#A86A00"/>
<path fill-rule="evenodd" clip-rule="evenodd" d="M136.16 74.9055C136.16 74.9055 134.095 83.2179 147.471 83.4266C160.847 83.6354 166.278 70.9961 169.659 73.1406C173.041 75.2851 167.194 88.3039 157.832 94.6615C148.47 101.038 143.99 101.171 143.99 101.171C143.99 101.171 133.595 81.1872 136.144 74.9055H136.16Z" fill="#D18702"/>
<path fill-rule="evenodd" clip-rule="evenodd" d="M158.415 15.5049C158.415 15.5049 167.177 22.5457 163.696 34.8054C160.214 47.0651 142.557 61.4124 142.99 64.3919C143.423 67.3904 156.649 60.862 164.745 46.4388C172.841 32.0156 168.676 23.153 168.676 23.153L158.398 15.5049H158.415Z" fill="#D18702"/>
<path fill-rule="evenodd" clip-rule="evenodd" d="M55.2039 60.5586L79.6241 174.654L246.851 205.72L280 94.3203L206.789 83.3321C205.573 88.8546 200.842 92.6122 195.779 91.8342L105.693 77.8475C100.796 77.0883 97.1814 72.3249 97.0814 66.8593L55.2039 60.5776V60.5586ZM105.444 96.4648L190.615 109.673C195.745 110.47 199.377 115.898 198.677 121.743C197.977 127.588 193.213 131.726 188.083 130.929L102.912 117.72C97.781 116.923 94.1497 111.495 94.8493 105.65C95.5489 99.8049 100.313 95.6677 105.444 96.4648Z" fill="#B47748"/>
<path fill-rule="evenodd" clip-rule="evenodd" d="M99.73 49.8552V172.813L123.317 154.575V35.5269L99.73 49.8552Z" fill="#9CCEEA"/>
<path fill-rule="evenodd" clip-rule="evenodd" d="M99.7298 75.7979V172.813L123.317 154.594V130.188C123.317 125.254 121.285 107.017 117.22 113.203C113.156 119.39 113.689 145.959 108.542 137.305C103.395 128.651 105.01 72.1162 99.7131 75.8169L99.7298 75.7979Z" fill="#CDE8F8"/>
<path fill-rule="evenodd" clip-rule="evenodd" d="M99.7299 172.813L52.272 159.225V41.8086L99.7299 49.8552V172.813Z" fill="#B4DEF6"/>
<path fill-rule="evenodd" clip-rule="evenodd" d="M99.7299 172.813L52.272 159.225V134.686C52.4552 124.211 53.6379 104.796 59.7346 103.012C68.1468 100.545 63.5326 132.675 68.6798 129.581C73.8271 126.488 67.8636 87.2606 75.4596 84.4708C83.0555 81.7 76.0093 132.048 82.5058 136.375C89.019 140.702 92.2672 114.133 93.0834 121.857C93.8997 129.581 91.8674 149.66 95.7987 139.469C99.7132 129.278 94.4161 79.5366 99.7132 75.8169V172.832L99.7299 172.813Z" fill="#E9F6FD"/>
<path fill-rule="evenodd" clip-rule="evenodd" d="M123.317 35.5266L76.9587 27.6128L52.272 41.8083L99.7299 49.8549L123.317 35.5266Z" fill="#80B4D3"/>
<path fill-rule="evenodd" clip-rule="evenodd" d="M52.272 41.8083L63.2328 20.4961L108.409 26.6829L99.7299 49.8549L52.272 41.8083Z" fill="#CEEAFB"/>
<path fill-rule="evenodd" clip-rule="evenodd" d="M108.409 26.6831L123.317 35.5268L106.193 32.6042L108.409 26.6831Z" fill="#B4DEF6"/>
<path fill-rule="evenodd" clip-rule="evenodd" d="M63.2327 20.4963V7.87598L109.325 14.8409L107.626 28.7706L63.2327 20.4963Z" fill="#B4DEF6"/>
<path fill-rule="evenodd" clip-rule="evenodd" d="M63.2327 20.4963L63.3326 7.74316L100.013 13.9489L93.8829 13.6073C81.0065 12.8862 67.1139 12.5635 71.7115 16.8715C76.309 21.1795 94.7491 26.3605 94.899 26.3984L63.2327 20.4963Z" fill="#C0E5FA"/>
<path fill-rule="evenodd" clip-rule="evenodd" d="M52.272 41.8085L99.7299 49.8362V74.2417C99.7299 74.2417 98.2473 56.1748 94.3161 53.385C90.3849 50.5953 52.272 41.7896 52.272 41.7896V41.8085Z" fill="#E2F1FC"/>
<path fill-rule="evenodd" clip-rule="evenodd" d="M109.225 15.2583C109.225 15.2583 109.541 15.2583 109.408 17.4218C109.275 19.5853 108.875 26.9677 108.875 26.9677L107.626 28.7895L109.225 15.2773V15.2583Z" fill="#80B4D3"/>
<path fill-rule="evenodd" clip-rule="evenodd" d="M63.3827 7.74316L109.291 14.8219L109.158 15.6759L63.2661 8.59717L63.3827 7.74316Z" fill="#E2F1FC"/>
<path fill-rule="evenodd" clip-rule="evenodd" d="M62.9162 20.2876L107.759 28.543L107.626 29.397L62.783 21.1416L62.9162 20.2876Z" fill="#E2F1FC"/>
<path fill-rule="evenodd" clip-rule="evenodd" d="M263.625 149.337L280 94.3202L219.982 85.3057C213.919 90.126 206.123 95.2691 196.095 100.279C190.581 103.031 183.968 105.422 176.689 107.51L190.615 109.673C195.745 110.47 199.377 115.898 198.677 121.743C197.977 127.588 193.213 131.726 188.083 130.928L109.425 118.726C87.8197 120.718 71.4285 121.136 71.4285 121.136C71.4285 121.136 78.9245 143.169 81.573 146.927C84.2383 150.684 184.818 167.138 201.376 167.138C211.054 167.138 237.573 159.908 263.642 149.318L263.625 149.337Z" fill="#B97E4E"/>
<path fill-rule="evenodd" clip-rule="evenodd" d="M63.2829 190.159C63.2829 190.159 61.4339 190.823 59.4516 192.284C57.4693 193.764 56.0534 193.84 54.8874 193.802C53.738 193.745 56.4032 178.127 57.6026 169.681C58.8019 161.217 59.8847 145.655 60.0513 144.65C60.2178 143.644 61.5505 137.4 62.7498 137.647C63.9492 137.893 66.2979 140.854 68.9798 141.784C71.6451 142.714 73.4274 142.999 76.1926 143.378C78.9578 143.758 93.2501 143.15 108.742 145.997C124.234 148.844 150.769 151.159 152.768 152.146C154.767 153.133 153.834 162.014 153.984 171.503C154.118 180.992 151.569 201.09 148.554 203.291C145.539 205.493 81.5564 194.903 76.9422 194.144C72.328 193.366 70.0293 192.227 67.5972 191.335C65.1652 190.443 63.2995 190.159 63.2995 190.159H63.2829Z" fill="#E5360D"/>
<path fill-rule="evenodd" clip-rule="evenodd" d="M141.491 186.685C139.575 190.215 135.627 188.128 115.421 186.42C95.2156 184.693 75.7094 182.491 74.7599 175.849C73.8104 169.207 75.5428 159.851 78.1581 161.995C80.7734 164.14 79.9905 169.852 99.8798 173.591C119.752 177.329 131.596 179.113 138.592 177.785C145.589 176.456 146.372 176.912 141.491 186.685Z" fill="#E95441"/>
<path fill-rule="evenodd" clip-rule="evenodd" d="M153.318 183.155C152.385 192.17 150.553 201.811 148.521 203.291C145.506 205.492 81.5231 194.903 76.9089 194.144C72.2947 193.366 69.996 192.227 67.564 191.335C66.2813 190.86 65.1652 190.576 64.3823 190.386C65.1153 181.903 69.0298 164.671 70.579 161.217C72.378 157.194 69.8461 179.739 71.1787 185.566C72.5113 191.411 106.576 193.252 128.198 193.612C149.803 193.973 153.301 183.136 153.301 183.136L153.318 183.155Z" fill="#DD330D"/>
<path fill-rule="evenodd" clip-rule="evenodd" d="M62.7332 137.628C63.9325 137.875 66.2813 140.835 68.9632 141.765C71.6284 142.695 73.4108 142.98 76.176 143.359C78.9411 143.739 93.2335 143.132 108.725 145.978C124.217 148.825 150.753 151.14 152.752 152.127C154.751 153.114 153.818 161.996 153.968 171.484C153.968 172.168 153.968 172.908 153.968 173.686C153.834 169.587 151.969 161.464 138.343 158.314C120.785 154.253 82.939 147.534 78.9911 149.736C75.0432 151.937 63.5994 145.788 62.7498 137.628H62.7332Z" fill="#DD330D"/>
<path fill-rule="evenodd" clip-rule="evenodd" d="M81.8563 143.568C88.0197 143.701 98.0976 144.024 108.742 145.979C113.789 146.908 120.019 147.781 126.183 148.56C126.183 161.635 124.45 185.965 122.018 201.052C102.745 198.414 79.6409 194.581 76.9256 194.125C76.7757 194.106 76.6091 194.069 76.4592 194.05C77.0756 185.149 78.9579 160.364 81.8397 143.568H81.8563Z" fill="#F29000"/>
<path fill-rule="evenodd" clip-rule="evenodd" d="M124.717 177.672C124.45 180.898 124.134 184.124 123.8 187.236C121.368 186.971 118.603 186.686 115.422 186.42C99.4134 185.054 83.8551 183.384 77.5918 179.455C78.0249 174.445 78.5579 168.828 79.1743 163.191C80.99 165.81 82.9556 170.422 99.8632 173.61C110.141 175.546 118.27 176.95 124.7 177.691L124.717 177.672Z" fill="#F39600"/>
<path fill-rule="evenodd" clip-rule="evenodd" d="M123.067 193.518C122.734 196.194 122.368 198.737 122.001 201.071C102.728 198.433 79.624 194.6 76.9088 194.144C76.7589 194.125 76.5923 194.087 76.4424 194.068C76.5423 192.721 76.6589 191.013 76.8089 189.039C86.5536 191.886 106.959 193.119 123.051 193.537L123.067 193.518Z" fill="#F18C00"/>
<path fill-rule="evenodd" clip-rule="evenodd" d="M81.8564 143.568C88.0197 143.701 98.0977 144.023 108.742 145.978C113.789 146.908 120.019 147.781 126.183 148.559C126.183 150.666 126.133 153.076 126.049 155.695C109.408 152.393 87.9198 148.882 80.9402 149.337C81.24 147.344 81.5399 145.39 81.8564 143.549V143.568Z" fill="#F18C00"/>
<path fill-rule="evenodd" clip-rule="evenodd" d="M57.636 193.347C57.636 193.347 60.7177 190.899 61.5339 185.737C62.3501 180.594 66.4313 142.373 67.1476 142.126C67.8638 141.879 63.1997 183.441 62.2335 186.705C61.284 189.969 57.636 193.347 57.636 193.347Z" fill="#D4320D"/>
<path fill-rule="evenodd" clip-rule="evenodd" d="M63.8491 183.517C63.8491 183.517 68.0302 142.506 68.6799 142.392C69.3462 142.278 64.8819 186.345 63.8491 183.517Z" fill="#D4320D"/>
<path fill-rule="evenodd" clip-rule="evenodd" d="M57.1694 189.741C56.3698 191.525 56.4364 186.572 57.9523 175.812C59.4681 165.032 60.5176 158.978 61.1006 151.842C61.6669 144.707 63.0995 140.19 64.0157 141.955C64.9485 143.739 63.8824 146.624 63.0829 158.769C62.2833 170.934 59.8179 186.287 57.1694 189.741Z" fill="#E42E0E"/>
<path fill-rule="evenodd" clip-rule="evenodd" d="M58.7352 179.341C60.3844 179.778 64.3489 147.003 63.0663 146.718C61.767 146.414 58.6353 176.532 58.7352 179.341Z" fill="#E95441"/>
<path fill-rule="evenodd" clip-rule="evenodd" d="M80.2572 177.918C78.7913 175.716 87.0536 176.096 93.3835 177.88C99.7135 179.664 136.011 183.231 137.377 184.769C138.726 186.306 83.2723 181.315 80.2572 177.918Z" fill="#F9CFCB"/>
<path fill-rule="evenodd" clip-rule="evenodd" d="M10.8109 86.5014L55.2038 60.5586L72.4279 117.037L10.8109 86.5014Z" fill="#AB7042"/>
<path fill-rule="evenodd" clip-rule="evenodd" d="M11.6771 85.989L55.2038 60.5586L55.5203 61.6214L13.4595 86.3495L11.6771 85.989Z" fill="#F3BA90"/>
<path fill-rule="evenodd" clip-rule="evenodd" d="M55.5202 61.6214L96.4482 67.7702C96.5482 73.2358 100.163 77.9993 105.06 78.7584L195.145 92.7451C198.977 93.3334 202.625 91.3217 204.69 87.9247C202.558 90.7714 199.243 92.3655 195.762 91.8152L105.677 77.8285C100.779 77.0694 97.1645 72.3059 97.0646 66.8403L55.187 60.5586L55.5202 61.6403V61.6214Z" fill="#F3BA90"/>
<path fill-rule="evenodd" clip-rule="evenodd" d="M206.789 83.313C206.723 83.6546 206.623 83.9772 206.539 84.2998L278.617 95.1172L280.017 94.3012L206.806 83.313H206.789Z" fill="#F3BA90"/>
<path fill-rule="evenodd" clip-rule="evenodd" d="M8.64558 78.7014C8.64558 78.7014 6.82989 77.9233 4.46449 77.7145C2.09909 77.5058 0.933045 76.5759 0.0501844 75.7408C-0.832676 74.8868 9.6617 64.3921 15.1421 58.5279C20.6225 52.6637 29.8342 41.1062 30.5005 40.423C31.1668 39.7398 35.5812 35.7165 36.3974 36.7603C37.2136 37.804 37.4968 41.7704 39.1126 44.3704C40.7284 46.9704 41.9944 48.4317 43.96 50.671C45.9423 52.8915 57.586 62.3614 68.3136 75.4182C79.0412 88.456 98.7973 108.762 99.8467 110.945C100.896 113.108 95.3991 119.504 90.4184 127.114C85.4378 134.724 72.628 148.844 69.0632 148.483C65.4985 148.141 20.5392 95.1932 17.3076 91.3786C14.076 87.5641 12.86 85.04 11.4108 82.6488C9.96154 80.2576 8.64558 78.7204 8.64558 78.7204V78.7014Z" fill="#E5360D"/>
<path fill-rule="evenodd" clip-rule="evenodd" d="M72.4112 130.416C68.9964 131.877 66.9974 127.494 51.9222 112.046C36.8469 96.6165 22.6046 81.2824 25.4031 75.3613C28.2182 69.4402 34.5981 63.2534 35.531 66.7643C36.4471 70.2752 32.7658 74.2606 46.4918 91.056C60.2177 107.851 68.6299 117.511 74.8766 121.326C81.1232 125.14 81.5063 126.051 72.3945 130.378L72.4112 130.416Z" fill="#E95441"/>
<path fill-rule="evenodd" clip-rule="evenodd" d="M83.6719 135.863C78.0916 142.353 71.4784 148.692 69.0797 148.464C65.515 148.122 20.5557 95.1741 17.3241 91.3595C14.0925 87.545 12.8765 85.0209 11.4273 82.6297C10.661 81.3772 9.94473 80.3524 9.42834 79.6692C14.5589 73.4634 26.9023 62.5701 29.984 60.9C33.5654 58.9643 19.4563 75.0386 17.3907 80.5991C15.3252 86.1596 41.2779 111.324 58.2022 126.677C75.1098 142.031 83.6886 135.882 83.6886 135.863H83.6719Z" fill="#DD330D"/>
<path fill-rule="evenodd" clip-rule="evenodd" d="M36.4138 36.7603C37.23 37.804 37.5132 41.7704 39.129 44.3704C40.7448 46.9704 42.0108 48.4317 43.9764 50.671C45.9586 52.8915 57.6024 62.3614 68.33 75.4182C79.0576 88.456 98.8137 108.762 99.8631 110.945C100.913 113.108 95.4155 119.504 90.4348 127.114C90.085 127.664 89.6852 128.234 89.2521 128.841C91.351 125.501 94.2328 117.777 85.1377 105.802C73.4273 90.3538 47.0747 58.6797 42.7604 57.6739C38.446 56.6681 32.6991 43.82 36.4138 36.7792V36.7603Z" fill="#DD330D"/>
<path fill-rule="evenodd" clip-rule="evenodd" d="M48.3408 54.7705C53.1382 59.1734 60.9507 66.4419 68.3301 75.3995C71.8282 79.6505 76.2758 84.6797 80.7401 89.5949C73.7272 99.9379 59.3016 117.986 49.2903 128.234C35.4643 112.729 19.223 93.5993 17.3241 91.3599C17.2075 91.227 17.1075 91.0942 17.0076 90.9803C22.2714 84.357 37.0468 66.0623 48.3574 54.7895L48.3408 54.7705Z" fill="#F29000"/>
<path fill-rule="evenodd" clip-rule="evenodd" d="M63.9659 111.59C62.017 113.962 60.0513 116.296 58.119 118.536C56.3367 116.638 54.2878 114.474 51.9224 112.064C39.9788 99.8425 28.5682 87.6777 25.7197 80.2194C28.7514 76.5567 32.1829 72.4954 35.7144 68.4531C35.7477 71.7932 34.8149 76.8034 46.4919 91.0937C53.5881 99.7856 59.2684 106.561 63.9659 111.609V111.59Z" fill="#F39600"/>
<path fill-rule="evenodd" clip-rule="evenodd" d="M54.171 122.996C52.472 124.894 50.8228 126.64 49.2737 128.215C35.4477 112.71 19.2064 93.5803 17.3075 91.3409C17.1909 91.208 17.0909 91.0752 16.991 90.9613C17.7905 89.9555 18.8067 88.7029 19.9894 87.2227C26.1694 96.2561 41.6611 111.438 54.171 122.996Z" fill="#F18C00"/>
<path fill-rule="evenodd" clip-rule="evenodd" d="M48.3407 54.7705C53.1382 59.1734 60.9507 66.4419 68.33 75.3995C71.8282 79.6505 76.2758 84.6796 80.7401 89.5949C79.6073 91.265 78.2747 93.1438 76.8088 95.1554C65.4149 80.96 50.2897 63.2157 44.5261 58.7179C45.8254 57.3325 47.1081 56.023 48.3574 54.7895L48.3407 54.7705Z" fill="#F18C00"/>
<path fill-rule="evenodd" clip-rule="evenodd" d="M2.48211 77.2968C2.48211 77.2968 6.2301 77.5056 9.64494 73.9947C13.0598 70.4838 36.7804 43.0797 37.48 43.3834C38.1797 43.687 12.1936 73.3305 9.67826 75.2472C7.16294 77.164 2.46545 77.2968 2.46545 77.2968H2.48211Z" fill="#D4320D"/>
<path fill-rule="evenodd" clip-rule="evenodd" d="M12.6766 73.8431C12.6766 73.8431 37.9797 44.2945 38.5794 44.6551C39.1624 45.0157 11.9936 76.8037 12.6766 73.8431Z" fill="#D4320D"/>
<path fill-rule="evenodd" clip-rule="evenodd" d="M4.04785 74.109C2.46537 74.963 5.16392 71.0915 12.1435 63.6332C19.1231 56.1559 23.2043 52.0946 27.4853 46.8567C31.7663 41.5998 35.3144 39.0189 35.0979 41.0685C34.8813 43.1181 32.4993 44.6743 25.3364 53.7267C18.1736 62.7792 7.99574 73.236 4.0312 74.1279L4.04785 74.109Z" fill="#E42E0E"/>
<path fill-rule="evenodd" clip-rule="evenodd" d="M10.8608 66.9729C11.9269 68.4722 32.6492 45.3002 31.7996 44.1615C30.9334 43.0228 12.2934 64.6766 10.8608 66.9729Z" fill="#E95441"/>
<path fill-rule="evenodd" clip-rule="evenodd" d="M28.6514 80.8268C28.6847 78.0561 34.998 84.11 39.0625 89.9362C43.1269 95.7624 69.9293 123.869 70.1791 126.032C70.429 128.196 29.2177 85.6282 28.6514 80.8458V80.8268Z" fill="#F9CFCB"/>
<path fill-rule="evenodd" clip-rule="evenodd" d="M161.863 143.207L229.96 170.706L248.3 155.543L278.467 58.5655L212.253 31.8257L194.829 35.5074L161.863 143.207Z" fill="#E39323"/>
<path fill-rule="evenodd" clip-rule="evenodd" d="M278.468 58.5655L212.253 31.8257L194.946 35.4884L194.696 35.9059L264.342 63.5757L278.468 58.5655Z" fill="#FAC47E"/>
<path fill-rule="evenodd" clip-rule="evenodd" d="M161.863 143.207L229.96 170.706L264.342 63.5756L194.829 35.5073L161.863 143.207Z" fill="#F8B153"/>
<path fill-rule="evenodd" clip-rule="evenodd" d="M264.342 63.5756L194.812 35.5073L168.51 121.458C168.51 121.458 191.364 55.2443 264.342 63.5566V63.5756Z" fill="#EEA54A"/>
<path fill-rule="evenodd" clip-rule="evenodd" d="M168.11 145.731L229.96 170.706L259.078 79.9914C198.827 59.5712 168.11 145.731 168.11 145.731Z" fill="#B56E00"/>
<path fill-rule="evenodd" clip-rule="evenodd" d="M212.503 31.9395L201.159 34.1788L269.656 61.6968L278.468 58.5654L212.503 31.9395Z" fill="#FBCC93"/>
<path fill-rule="evenodd" clip-rule="evenodd" d="M201.159 34.1787L269.656 61.6966L268.839 61.9813L200.293 34.3495L201.159 34.1787Z" fill="#E39323"/>
<path fill-rule="evenodd" clip-rule="evenodd" d="M245.202 87.5256C237.09 90.3153 172.991 136.242 188.249 138.519C203.508 140.796 224.58 117.53 220.482 128.005C216.367 138.481 205.856 153.151 214.085 146.528C222.314 139.905 259.078 79.9914 245.202 87.5256Z" fill="#BF7500"/>
<path fill-rule="evenodd" clip-rule="evenodd" d="M237.823 157.82L260.61 84.5273L270.222 79.6689L248.134 149.356L237.823 157.82Z" fill="#B56E00"/>
<path fill-rule="evenodd" clip-rule="evenodd" d="M193.796 46.2109L192.13 51.9043C192.13 51.9043 196.828 58.6035 198.394 65.7582C199.96 72.9128 199.393 77.5624 195.795 83.6923C192.197 89.8221 187.566 94.0162 187.45 96.6542C187.333 99.3111 192.164 108.098 189.282 118.479C186.4 128.86 165.278 188.071 165.278 188.071C165.278 188.071 160.064 202.323 154.184 201.526C148.287 200.729 148.137 195.567 145.072 194.371C142.007 193.176 137.61 197.882 135.294 195.833C132.379 195.529 131.946 188.678 128.998 187.179C126.033 185.66 122.834 189.342 118.037 185.338C113.239 181.352 117.937 166.872 117.937 166.872C117.937 166.872 137.843 107.111 141.924 97.2804C146.005 87.4499 154.8 84.736 156.3 82.7054C157.799 80.6748 156.916 74.0135 157.932 66.726C158.948 59.4385 161.33 55.586 166.744 51.5627C172.158 47.5394 179.604 46.2679 179.604 46.2679L181.786 40.8022L188.049 42.6811H188.066L193.78 46.154L193.796 46.2109Z" fill="#8DC8EB"/>
<path fill-rule="evenodd" clip-rule="evenodd" d="M192.564 52.5683C193.78 54.4281 197.111 59.9507 198.377 65.7579C199.943 72.9126 199.377 77.5622 195.778 83.692C192.18 89.8219 187.55 94.016 187.433 96.6539C187.433 96.8057 187.433 96.9765 187.466 97.1663C185.068 96.2933 182.785 94.7371 180.603 92.5737C180.603 92.5737 192.83 90.3533 195.762 78.1125C198.41 67.0864 193.097 56.4588 192.564 52.5493V52.5683Z" fill="#70ABCC"/>
<path fill-rule="evenodd" clip-rule="evenodd" d="M155.983 83.0658C156.1 82.952 156.216 82.8381 156.3 82.7242C157.799 80.6936 156.916 74.0324 157.932 66.7448C158.948 59.4573 161.33 55.6048 166.744 51.5815C171.708 47.8998 178.371 46.5144 179.454 46.3057C177.205 48.7538 166.394 52.3406 161.58 62.8164C156.416 74.0513 164.062 85.1724 164.062 85.1724C161.047 85.0585 158.349 84.3943 156 83.0658H155.983Z" fill="#70ABCC"/>
<path fill-rule="evenodd" clip-rule="evenodd" d="M198.144 78.7393C197.894 79.4604 197.594 80.2006 197.244 80.9407C197.527 80.1246 197.827 79.4035 198.144 78.7393ZM192.847 88.1143C190.065 91.9099 187.516 94.7186 187.433 96.6734C187.316 99.3303 192.147 108.117 189.265 118.498C186.383 128.879 165.261 188.09 165.261 188.09C165.261 188.09 160.048 202.342 154.167 201.545C148.271 200.748 148.121 195.586 145.056 194.39C141.991 193.195 137.593 197.901 135.277 195.852C135.194 195.852 135.111 195.833 135.028 195.814C135.311 195.814 137.826 195.814 139.625 193.84C141.541 191.753 143.49 189.798 146.372 190.538C149.253 191.278 152.718 196.687 157.366 192.758C160.697 189.931 175.023 153.322 181.986 130.568C192.563 96.0661 182.236 99.7478 168.46 91.4734C164.062 88.8355 183.019 97.2427 192.88 88.1333L192.847 88.1143Z" fill="#70ABCC"/>
<path fill-rule="evenodd" clip-rule="evenodd" d="M135.511 196.042C135.427 195.985 135.344 195.928 135.261 195.852C132.346 195.548 131.913 188.697 128.964 187.198C125.999 185.68 122.801 189.361 118.003 185.357C113.206 181.372 117.903 166.891 117.903 166.891C117.903 166.891 137.809 107.13 141.891 97.2996C145.972 87.469 154.767 84.7552 156.266 82.7246C157.382 81.2063 157.166 77.0881 157.416 72.078C159.065 86.5201 178.155 95.1361 173.34 93.6558C158.298 89.0252 152.935 78.3407 140.075 111.799C131.596 133.87 120.202 171.788 120.968 176.456C122.018 182.947 127.798 181.656 130.347 183.345C132.895 185.034 133.162 187.976 133.312 190.993C133.462 193.935 135.427 195.928 135.511 196.023V196.042ZM158.415 63.9365C158.648 62.9117 158.915 61.9628 159.231 61.0708C159.048 61.9628 158.782 62.9117 158.415 63.9365Z" fill="#70ABCC"/>
<path fill-rule="evenodd" clip-rule="evenodd" d="M193.796 46.2111L192.38 51.0694C192.23 46.9133 187.899 44.8826 184.634 43.9147C181.353 42.9469 179.804 45.8125 179.804 45.8125L181.786 40.8403L188.049 42.7191H188.066L193.78 46.1921L193.796 46.2111Z" fill="#73AECF"/>
<path fill-rule="evenodd" clip-rule="evenodd" d="M185.95 30.2885L197.228 35.3366C198.66 35.9819 199.376 37.8417 198.81 39.4738L196.245 46.9321C196.078 47.4065 195.612 47.6343 195.195 47.4635L180.037 40.6694C179.62 40.4796 179.42 39.9482 179.57 39.4738L182.069 32.2432C182.669 30.4972 184.418 29.6243 185.967 30.3075L185.95 30.2885Z" fill="#015272"/>
<path fill-rule="evenodd" clip-rule="evenodd" d="M198.144 41.3717L196.228 46.9133C196.062 47.3877 195.595 47.6155 195.179 47.4447L180.02 40.6506C179.604 40.4608 179.404 39.9294 179.554 39.455L181.386 34.1412C181.986 32.3952 183.735 31.5222 185.284 32.2054L196.561 37.2535C197.994 37.8988 198.71 39.7586 198.144 41.3907V41.3717Z" fill="#195F80"/>
<mask id="mask0_456_4308" style="mask-type:luminance" maskUnits="userSpaceOnUse" x="179" y="31" width="20" height="17">
<path d="M198.144 41.3717L196.228 46.9133C196.062 47.3877 195.595 47.6155 195.179 47.4447L180.02 40.6506C179.604 40.4608 179.404 39.9294 179.554 39.455L181.386 34.1412C181.986 32.3952 183.735 31.5222 185.284 32.2054L196.561 37.2535C197.994 37.8988 198.71 39.7586 198.144 41.3907V41.3717Z" fill="white"/>
</mask>
<g mask="url(#mask0_456_4308)">
<path fill-rule="evenodd" clip-rule="evenodd" d="M183.885 32.7368C184.135 32.8506 184.268 33.1732 184.168 33.4769L180.87 43.0417C180.77 43.3264 180.487 43.4782 180.22 43.3644C179.97 43.2505 179.837 42.9279 179.937 42.6242L183.235 33.0594C183.335 32.7747 183.618 32.6229 183.868 32.7368H183.885Z" fill="#015272"/>
<path fill-rule="evenodd" clip-rule="evenodd" d="M185.784 33.5908C186.034 33.7046 186.167 34.0272 186.067 34.3309C184.967 37.5192 183.868 40.7075 182.769 43.8957C182.669 44.1804 182.386 44.3322 182.136 44.2184C181.886 44.1045 181.753 43.7819 181.852 43.4782C182.952 40.29 184.051 37.1017 185.151 33.9134C185.251 33.6287 185.534 33.4769 185.8 33.5908H185.784Z" fill="#015272"/>
<path fill-rule="evenodd" clip-rule="evenodd" d="M187.666 34.4448C187.916 34.5586 188.049 34.8813 187.949 35.1849C186.85 38.3732 185.75 41.5615 184.651 44.7498C184.551 45.0344 184.268 45.1862 184.001 45.0724C183.752 44.9585 183.618 44.6359 183.718 44.3322C184.818 41.144 185.917 37.9557 187.016 34.7674C187.116 34.4827 187.4 34.3309 187.666 34.4448Z" fill="#015272"/>
<path fill-rule="evenodd" clip-rule="evenodd" d="M189.565 35.2797C189.815 35.3936 189.948 35.7162 189.848 36.0199C188.749 39.2081 187.649 42.3964 186.55 45.5847C186.45 45.8694 186.167 46.0212 185.9 45.9073C185.65 45.7935 185.517 45.4708 185.617 45.1672C186.717 41.9789 187.816 38.7906 188.915 35.6023C189.015 35.3177 189.298 35.1659 189.548 35.2797H189.565Z" fill="#015272"/>
<path fill-rule="evenodd" clip-rule="evenodd" d="M191.464 36.1337C191.714 36.2476 191.847 36.5702 191.747 36.8739C190.648 40.0621 189.548 43.2504 188.449 46.4387C188.349 46.7234 188.066 46.8752 187.799 46.7613C187.549 46.6475 187.416 46.3249 187.516 46.0212C188.615 42.8329 189.715 39.6446 190.814 36.4563C190.914 36.1717 191.197 36.0199 191.464 36.1337Z" fill="#015272"/>
<path fill-rule="evenodd" clip-rule="evenodd" d="M193.346 36.9877C193.596 37.1015 193.729 37.4242 193.629 37.7088C192.53 40.8971 191.431 44.0854 190.331 47.2737C190.231 47.5584 189.948 47.7102 189.682 47.5963C189.432 47.4824 189.298 47.1598 189.398 46.8562C190.498 43.6679 191.597 40.4796 192.697 37.2913C192.797 37.0066 193.08 36.8548 193.346 36.9687V36.9877Z" fill="#015272"/>
<path fill-rule="evenodd" clip-rule="evenodd" d="M195.245 37.8227C195.495 37.9366 195.628 38.2592 195.528 38.5628C194.429 41.7511 193.33 44.9394 192.23 48.1277C192.13 48.4124 191.847 48.5642 191.58 48.4503C191.331 48.3364 191.197 48.0138 191.297 47.7102C192.397 44.5219 193.496 41.3336 194.596 38.1453C194.695 37.8606 194.979 37.7088 195.245 37.8227Z" fill="#015272"/>
<path fill-rule="evenodd" clip-rule="evenodd" d="M197.144 38.6767C197.394 38.7906 197.527 39.1132 197.428 39.4168L194.129 48.9817C194.029 49.2664 193.746 49.4182 193.48 49.3043C193.23 49.1904 193.097 48.8678 193.196 48.5642L196.495 38.9993C196.595 38.7147 196.878 38.5628 197.144 38.6767Z" fill="#015272"/>
</g>
<path fill-rule="evenodd" clip-rule="evenodd" d="M191.847 62.8737C193.529 66.2707 181.02 63.8036 175.622 66.6123C170.225 69.421 171.441 84.8311 167.693 83.5216C163.945 82.2121 159.898 69.6677 164.645 61.3934C171.641 49.1906 188.882 56.9146 191.847 62.8737Z" fill="#9BD3F2"/>
<path fill-rule="evenodd" clip-rule="evenodd" d="M170.809 58.6792C174.09 59.1726 175.356 61.8865 171.858 63.4426C168.36 64.9988 168.227 69.7433 166.544 69.971C164.845 70.1988 163.562 59.3055 170.809 58.6792Z" fill="#C0E5FA"/>
<path fill-rule="evenodd" clip-rule="evenodd" d="M160.814 93.9405C166.561 96.028 169.976 98.647 164.712 110.167C159.448 121.686 136.377 170.44 137.077 176.532C137.776 182.624 134.261 182.51 129.647 180.575C125.033 178.639 124.933 167.651 129.697 153.208C134.461 138.766 147.188 89.5186 160.814 93.9215V93.9405Z" fill="#9BD3F2"/>
<path fill-rule="evenodd" clip-rule="evenodd" d="M157.815 97.6411C160.914 99.2732 159.714 101.19 154.184 110.375C148.637 119.561 139.309 137.248 134.744 151.424C130.18 165.601 131.729 146.395 138.442 129.752C145.155 113.108 153.118 94.0733 157.815 97.6411Z" fill="#C0E5FA"/>
<path fill-rule="evenodd" clip-rule="evenodd" d="M145.522 180.195C145.522 180.195 153.251 183.421 160.281 160.515C167.327 137.627 176.172 106.94 179.67 108.022C183.185 109.104 164.445 166.55 157.715 177.31C150.986 188.052 145.505 180.195 145.505 180.195H145.522Z" fill="#C0E5FA"/>
<path fill-rule="evenodd" clip-rule="evenodd" d="M138.359 34.5778C144.606 35.2989 149.62 41.239 149.82 48.5645L152.185 134.041C152.385 141.366 147.738 147.629 141.558 148.825C141.724 149.299 142.441 151.178 143.257 152.449C144.206 153.911 143.207 154.044 141.324 155.372C139.459 156.701 136.794 154.841 135.844 153.398C134.895 151.937 137.243 148.692 137.143 149.356C137.21 149.166 137.31 148.995 137.41 148.844C131.513 147.762 126.899 142.012 126.699 134.971L124.334 49.4944C124.134 42.4157 128.465 36.3238 134.328 34.8625C134.178 34.7106 134.062 34.5209 133.945 34.2931C134.078 34.9384 131.563 31.864 132.429 30.3457C133.295 28.8275 135.844 26.7969 137.793 27.9735C139.725 29.1691 140.741 29.245 139.875 30.7632C139.009 32.2815 138.343 34.5968 138.343 34.5968L138.359 34.5778Z" fill="#C05602"/>
<path fill-rule="evenodd" clip-rule="evenodd" d="M151.486 108.572L152.185 134.041C152.385 141.366 147.738 147.629 141.558 148.824C141.724 149.299 142.44 151.178 143.257 152.449C144.206 153.911 143.207 154.043 141.324 155.372C139.459 156.7 136.794 154.84 135.844 153.398C134.895 151.937 137.243 148.692 137.143 149.356C137.21 149.166 137.31 148.995 137.41 148.843C131.513 147.762 126.899 142.011 126.699 134.971L125.05 75.5509C127.065 63.424 128.498 54.5044 128.498 54.5044C128.498 54.5044 129.281 110.983 133.212 122.73C137.16 134.477 151.086 131.46 151.469 108.572H151.486Z" fill="#B14F03"/>
<path fill-rule="evenodd" clip-rule="evenodd" d="M137.726 155.125C136.943 154.651 136.26 153.987 135.877 153.379C134.928 151.918 137.276 148.673 137.177 149.337C137.243 149.147 137.343 148.977 137.443 148.825C131.546 147.743 126.932 141.993 126.732 134.952L124.367 49.4755C124.167 42.3967 128.498 36.3048 134.361 34.8435C134.211 34.6917 134.095 34.5019 133.978 34.2742C134.112 34.9194 131.596 31.845 132.462 30.3268C132.912 29.5487 133.795 28.6188 134.828 28.0874C134.795 28.1064 132.629 30.0611 133.312 31.5034C134.012 32.9647 136.893 34.2362 136.227 34.9954C135.544 35.7545 127.998 38.772 128.448 51.1266C128.898 63.4812 129.197 132.485 129.98 136.679C130.747 140.892 135.361 147.06 138.592 148.198C141.807 149.356 134.661 151.197 137.76 155.125H137.726Z" fill="#A34801"/>
<path fill-rule="evenodd" clip-rule="evenodd" d="M147.138 43.3457C148.737 46.496 145.106 47.7676 141.441 47.9573C121.635 48.9821 141.041 31.2948 147.138 43.3457Z" fill="#D05E04"/>
<path fill-rule="evenodd" clip-rule="evenodd" d="M146.122 60.9949C146.305 67.751 147.771 101.076 146.955 116.771C146.155 132.2 137.876 125.14 137.693 119.067C137.56 114.38 135.911 84.6603 136.144 66.9729C136.444 43.8958 145.922 53.6125 146.122 60.9949Z" fill="#C75B03"/>
<path fill-rule="evenodd" clip-rule="evenodd" d="M123.817 45.9077C124.184 45.4712 124.783 45.4522 125.15 45.8507C125.533 46.2493 125.549 46.9515 125.2 47.369C125.2 47.369 125.2 47.6726 125.233 48.204C125.3 49.6463 125.749 51.9426 126.765 54.5236C127.798 57.1236 129.397 59.9893 131.746 62.4944C135.627 66.6505 141.574 69.8388 150.386 69.3454C150.903 69.3264 151.352 69.7819 151.369 70.3702C151.386 70.9585 150.986 71.4709 150.469 71.4899C141.041 72.0212 134.645 68.5483 130.447 64.0505C127.898 61.3367 126.166 58.2243 125.05 55.3776C123.917 52.531 123.417 49.931 123.351 48.2799C123.301 47.1412 123.484 46.2872 123.834 45.8697L123.817 45.9077Z" fill="#F49F6C"/>
<path fill-rule="evenodd" clip-rule="evenodd" d="M124.567 72.4384C124.933 72.0019 125.533 71.983 125.899 72.3815C126.282 72.799 126.299 73.4822 125.949 73.8997C125.949 73.8997 125.949 74.2034 125.982 74.7348C126.049 76.1771 126.499 78.4734 127.515 81.0544C128.548 83.6544 130.147 86.52 132.496 89.0251C136.377 93.1813 142.324 96.3696 151.136 95.8761C151.652 95.8572 152.102 96.3126 152.118 96.9009C152.135 97.4893 151.735 98.0017 151.219 98.0206C141.791 98.552 135.394 95.0791 131.196 90.5813C128.648 87.8675 126.915 84.7551 125.799 81.9084C124.667 79.0617 124.167 76.4618 124.1 74.8107C124.05 73.672 124.233 72.818 124.583 72.4005L124.567 72.4384Z" fill="#F49F6C"/>
<path fill-rule="evenodd" clip-rule="evenodd" d="M125.433 103.601C125.799 103.164 126.399 103.145 126.765 103.544C127.149 103.961 127.165 104.644 126.815 105.062C126.815 105.062 126.815 105.365 126.849 105.897C126.915 107.339 127.365 109.636 128.381 112.217C129.414 114.816 131.013 117.682 133.362 120.187C137.243 124.343 143.19 127.532 152.002 127.038C152.518 127.019 152.968 127.475 152.985 128.063C153.001 128.651 152.602 129.164 152.085 129.183C142.657 129.714 136.26 126.241 132.063 121.743C129.514 119.03 127.782 115.917 126.665 113.071C125.533 110.224 125.033 107.624 124.966 105.973C124.916 104.834 125.1 103.98 125.449 103.563L125.433 103.601Z" fill="#F49F6C"/>
<path fill-rule="evenodd" clip-rule="evenodd" d="M150.686 53.5936C150.303 53.176 149.703 53.214 149.353 53.6505C149.004 54.087 149.02 54.7702 149.403 55.1687C149.403 55.1687 149.403 55.4724 149.42 56.0037C149.437 57.4461 149.12 59.7803 148.237 62.4373C147.355 65.1131 145.922 68.0737 143.706 70.7496C140.058 75.1714 134.311 78.7962 125.483 78.929C124.967 78.929 124.55 79.4225 124.55 80.0297C124.55 80.6181 124.983 81.0925 125.516 81.0925C134.961 80.9407 141.141 77.0312 145.089 72.2298C147.488 69.3262 149.037 66.1 150.003 63.1964C150.969 60.2738 151.319 57.6358 151.302 55.9848C151.302 54.8461 151.069 53.9921 150.686 53.6125V53.5936Z" fill="#F49F6C"/>
<path fill-rule="evenodd" clip-rule="evenodd" d="M151.419 80.1058C151.036 79.6882 150.436 79.7262 150.086 80.1627C149.72 80.5992 149.753 81.2824 150.136 81.6809C150.136 81.6809 150.136 81.9846 150.153 82.516C150.17 83.9583 149.853 86.2925 148.97 88.9495C148.087 91.6253 146.655 94.5859 144.439 97.2618C140.791 101.684 135.044 105.308 126.216 105.441C125.699 105.441 125.283 105.935 125.283 106.542C125.283 107.13 125.716 107.605 126.249 107.605C135.694 107.453 141.874 103.543 145.822 98.742C148.221 95.8384 149.77 92.6122 150.736 89.7086C151.702 86.786 152.052 84.1481 152.035 82.497C152.035 81.3583 151.802 80.5043 151.419 80.1247V80.1058Z" fill="#F49F6C"/>
<path fill-rule="evenodd" clip-rule="evenodd" d="M152.285 111.286C151.902 110.869 151.302 110.907 150.953 111.343C150.586 111.78 150.619 112.463 151.003 112.862C151.003 112.862 151.003 113.165 151.019 113.697C151.036 115.139 150.719 117.473 149.836 120.13C148.954 122.806 147.521 125.767 145.306 128.442C141.658 132.864 135.911 136.489 127.082 136.622C126.566 136.622 126.149 137.115 126.149 137.723C126.149 138.311 126.582 138.785 127.115 138.785C136.56 138.634 142.74 134.724 146.688 129.923C149.087 127.019 150.636 123.793 151.602 120.889C152.568 117.967 152.918 115.329 152.902 113.678C152.902 112.539 152.668 111.685 152.285 111.305V111.286Z" fill="#F49F6C"/>
<path fill-rule="evenodd" clip-rule="evenodd" d="M218.133 147.648C217.15 147.686 217.733 145.94 214.718 146.623C211.703 147.306 211.004 148.103 210.404 150.286C209.804 152.449 206.089 154.859 201.675 154.745C197.261 154.631 193.446 151.538 193.546 147.78C193.646 144.004 196.961 141.84 195.045 141.157C193.146 140.474 186.717 137.722 186.916 127.208C187.116 116.695 192.63 114.284 196.744 114.74C200.859 115.195 203.474 115.082 203.874 113.032C204.274 110.982 198.56 108.117 199.36 102.632C200.159 97.1474 203.574 96.4642 203.574 96.4642C203.574 96.4642 205.79 85.6089 213.502 85.1534C221.231 84.698 220.432 87.5636 222.731 87.9052C225.046 88.2468 228.044 85.6279 232.459 88.2468C236.873 90.8847 234.458 101.854 234.458 101.854C234.458 101.854 245.102 99.5766 248.5 105.061C251.915 110.546 247.401 117.53 246.185 119.807C244.969 122.084 247.484 123.811 249.799 122.445C252.115 121.079 258.328 128.841 258.128 139.373C257.928 149.887 247.384 153.208 242.97 152.753C238.555 152.297 238.056 145.086 235.44 147.04C232.825 148.995 233.741 152.297 230.426 152.411C227.112 152.525 224.396 137.096 218.083 147.723L218.133 147.648Z" fill="#6F800E"/>
<path fill-rule="evenodd" clip-rule="evenodd" d="M206.822 132.826C206.822 132.826 209.138 137.817 211.237 138.159C213.352 138.501 212.686 134.667 214.002 131.707C215.318 128.746 219.816 126.051 220.582 128.955C221.331 131.877 223.697 133.775 222.997 137.172C222.298 140.569 221.032 144.744 218.283 144.441C215.534 144.137 205.19 139.867 206.839 132.826H206.822Z" fill="#65750C"/>
<path fill-rule="evenodd" clip-rule="evenodd" d="M243.769 101.835C245.702 102.347 247.467 103.296 248.533 105.004C251.948 110.489 247.434 117.473 246.218 119.75C245.002 122.027 247.517 123.754 249.833 122.388C252.148 121.022 258.361 128.784 258.162 139.316C257.995 147.78 251.149 151.576 246.185 152.506C253.081 149.052 249.816 143.264 249.816 143.264C249.816 143.264 245.202 142.353 245.702 138.918C246.201 135.483 251.315 130.226 251.315 130.226C251.315 130.226 248.1 132.978 246.001 130.226C243.886 127.474 248.517 125.766 245.202 126.335C241.887 126.905 236.373 124.855 237.673 120.965C238.972 117.074 244.502 118.915 247.001 111.703C249.5 104.511 243.753 101.854 243.753 101.835H243.769Z" fill="#65750C"/>
<path fill-rule="evenodd" clip-rule="evenodd" d="M217.117 147.306C217.117 147.306 217.217 150.628 217.417 152.108C217.617 153.588 218.516 153.816 218.416 155.657C218.316 157.498 218.016 167.309 218.116 171.541C218.216 175.773 218.716 185.604 219.416 188.356C220.115 191.107 221.415 192.36 223.63 190.747C225.846 189.153 228.744 187.995 231.959 187.426C235.174 186.856 236.873 188.678 235.674 185.034C234.474 181.372 232.958 169.833 230.959 164.462C228.961 159.092 228.544 157.953 227.145 152.449C226.412 149.565 225.779 146.965 225.063 144.763C226.612 141.917 230.726 140.076 234.774 138.861C239.688 137.381 240.888 138.634 240.888 136.337C240.888 134.041 239.188 131.194 237.173 133.472C235.157 135.749 231.659 138.387 226.945 138.273C224.779 138.216 223.464 137.495 222.481 136.869C221.814 134.42 220.382 131.327 219.016 130.966C216.917 130.397 216.101 133.13 216.101 135.882C216.101 137.571 216.467 139.146 217.15 140.512C217.05 141.006 216.984 141.575 216.95 142.22C215.501 142.315 213.002 141.025 210.687 139.639C207.572 137.818 207.472 131.631 206.473 133.016C205.473 134.383 203.158 134.952 203.358 137.134C203.558 139.298 205.057 141.025 207.372 142.847C209.688 144.669 213.486 143.53 216.567 146.547C216.767 146.737 216.934 146.927 217.1 147.136V147.306H217.117Z" fill="#809711"/>
<path fill-rule="evenodd" clip-rule="evenodd" d="M217.117 147.307C217.117 147.307 217.217 150.628 217.417 152.108C217.617 153.588 218.516 153.816 218.416 155.657C218.316 157.498 218.016 167.309 218.116 171.541C218.216 175.773 218.716 185.604 219.416 188.356C220.115 191.107 221.415 192.36 223.63 190.747C225.846 189.153 228.744 187.995 231.959 187.426C234.274 187.008 235.807 187.843 236.023 186.97C235.191 182.454 224.613 185.775 223.114 182.795C221.615 179.816 223.014 178.791 223.713 172.737C224.413 166.683 224.413 164.842 224.313 162.223C224.213 159.585 222.614 165.886 222.114 161.16C221.614 156.435 221.814 150.438 221.015 147.022C220.215 143.587 217.533 144.327 211.387 142.904C205.24 141.499 203.574 135.901 203.574 135.882C203.408 136.242 203.324 136.641 203.374 137.134C203.574 139.298 205.073 141.025 207.389 142.847C209.704 144.669 213.502 143.53 216.584 146.547C216.784 146.737 216.95 146.927 217.117 147.136V147.307Z" fill="#90AB13"/>
<path fill-rule="evenodd" clip-rule="evenodd" d="M205.09 103.979C205.19 100.658 206.289 101.474 208.705 99.178C211.12 96.9006 209.205 95.2875 211.82 93.8072C214.435 92.327 215.135 94.1488 217.234 95.743C219.332 97.3371 223.763 96.54 224.363 99.2918C224.963 102.044 221.948 101.341 220.648 104.89C219.349 108.439 221.548 110.83 219.849 114.265C218.15 117.7 218.15 120.205 214.335 120.319C210.52 120.433 207.006 124.096 203.791 123.413C200.576 122.73 197.461 123.185 196.261 125.804C195.062 128.423 195.262 134.724 193.246 134.382C191.247 134.04 187.733 121.003 191.747 119.067C195.762 117.131 203.408 118.592 205.29 116.201C207.172 113.81 206.889 110.603 205.89 108.876C204.89 107.168 201.875 106.238 205.09 103.96V103.979Z" fill="#788C0F"/>
<path fill-rule="evenodd" clip-rule="evenodd" d="M208.671 101.683C209.571 101.569 211.187 100.943 211.337 99.8612C211.486 98.7795 211.586 95.5722 213.652 95.6861C215.701 95.7999 215.867 98.5517 215.551 99.3488C215.251 100.146 216.55 98.7225 216.95 100.943C217.35 103.163 217.35 104.492 215.951 104.435C214.552 104.378 213.236 102.442 212.436 104.264C211.636 106.086 212.236 107.984 209.921 107.927C207.605 107.87 205.406 106.731 206.356 105.593C207.305 104.454 206.423 100.905 208.671 101.702V101.683Z" fill="#819811"/>
<path fill-rule="evenodd" clip-rule="evenodd" d="M225.129 125.52C225.129 125.52 221.015 119.238 223.53 114.55C226.045 109.863 231.159 113.867 231.159 113.867C231.159 113.867 231.959 106.086 237.589 107.016C243.203 107.927 243.503 111.704 243.503 111.704C243.503 111.704 237.589 108.952 234.674 113.526C231.759 118.099 233.275 120.604 233.275 120.604C233.275 120.604 222.731 118.08 225.146 125.52H225.129Z" fill="#65750C"/>
<path fill-rule="evenodd" clip-rule="evenodd" d="M203.574 96.4264C203.574 96.4264 203.658 87.2221 210.687 84.2426C217.717 81.2631 222.381 87.7725 222.381 87.7725C222.381 87.7725 231.06 82.9901 234.857 88.2469C238.672 93.5038 234.774 100.108 234.774 100.108C234.774 100.108 233.658 90.4294 228.544 90.6571C223.43 90.8849 222.731 94.6615 222.731 94.6615C222.731 94.6615 209.588 81.1682 203.574 96.4264Z" fill="#65750C"/>
<path fill-rule="evenodd" clip-rule="evenodd" d="M90.0683 83.1989C90.0683 83.1989 92.0672 157.934 91.4842 162.697C90.9012 167.461 90.6513 174.122 90.7346 176.21C90.8179 178.297 92.9001 183.345 105.027 182.017C117.137 180.688 150.902 166.303 153.085 162.697C155.25 159.073 162.113 137.95 160.614 134.136C159.115 130.321 93.7663 81.4909 91.5842 81.2063C89.4187 80.9216 90.085 83.1989 90.085 83.1989H90.0683Z" fill="#FCC400"/>
<path fill-rule="evenodd" clip-rule="evenodd" d="M93 89.5757C93 89.5757 122.168 129.562 126.682 136.413C131.196 143.264 122.501 141.366 116.154 151.842C109.808 162.318 107.459 146.13 106.793 141.177C106.126 136.223 100.596 131.46 95.9318 132.618C91.2676 133.775 94.3659 96.18 93 89.5757Z" fill="#FCC000"/>
<path fill-rule="evenodd" clip-rule="evenodd" d="M144.056 168.201C148.937 165.829 152.435 163.779 153.085 162.697C155.25 159.073 162.113 137.95 160.614 134.136C159.531 131.403 125.383 105.327 105.51 90.8281C101.546 91.1318 98.5471 91.3975 98.5471 91.3975C98.5471 91.3975 143.49 148.806 148.004 156.795C151.735 163.4 146.138 167.119 144.073 168.201H144.056Z" fill="#FDCD3D"/>
<path fill-rule="evenodd" clip-rule="evenodd" d="M91.4343 143.416C91.5176 148.065 91.5676 152.202 91.5842 155.467C92.8336 156.7 94.466 157.459 96.2484 157.459C100.163 157.459 103.345 153.834 103.345 149.375C103.345 144.915 100.163 141.29 96.2484 141.29C94.3827 141.29 92.7003 142.106 91.4343 143.435V143.416Z" fill="#FBBD00"/>
<path fill-rule="evenodd" clip-rule="evenodd" d="M120.485 177.898C127.832 175.355 135.894 172.053 142.174 169.112C142.257 168.428 142.307 167.745 142.307 167.043C142.307 158.864 136.494 152.24 129.314 152.24C122.135 152.24 116.321 158.864 116.321 167.043C116.321 171.332 117.92 175.203 120.485 177.898Z" fill="#FBBD00"/>
<path fill-rule="evenodd" clip-rule="evenodd" d="M151.102 164.367C152.135 163.684 152.818 163.115 153.068 162.697C155.233 159.073 162.096 137.95 160.597 134.136C159.098 130.321 93.7497 81.4909 91.5676 81.2062C90.6514 81.0924 90.2349 81.434 90.0684 81.8515C101.579 94.0922 142.857 144.763 149.053 152.506C155.617 160.705 151.635 163.969 151.086 164.367H151.102Z" fill="#FBBD00"/>
<path fill-rule="evenodd" clip-rule="evenodd" d="M151.102 164.367C152.135 163.684 152.818 163.115 153.068 162.697C155.233 159.073 162.096 137.95 160.597 134.136C160.181 133.073 154.734 128.461 147.088 122.388C152.785 130.815 151.752 141.385 140.225 135.483C135.028 132.826 126.349 123.964 118.386 115.044C132.029 131.517 145.705 148.331 149.07 152.525C155.633 160.724 151.652 163.988 151.102 164.386V164.367Z" fill="#FAB700"/>
<path fill-rule="evenodd" clip-rule="evenodd" d="M138.859 115.936C134.395 112.482 129.597 108.819 124.833 105.213C124.4 106.371 124.167 107.662 124.167 109.009C124.167 114.418 128.015 118.821 132.779 118.821C135.161 118.821 137.31 117.72 138.859 115.955V115.936Z" fill="#F7B200"/>
<path fill-rule="evenodd" clip-rule="evenodd" d="M106.743 131.953C109.025 131.953 110.874 129.828 110.874 127.247C110.874 124.666 109.008 122.54 106.743 122.54C104.477 122.54 102.612 124.666 102.612 127.247C102.612 129.828 104.477 131.953 106.743 131.953Z" fill="#FBBD00"/>
<path fill-rule="evenodd" clip-rule="evenodd" d="M175.473 120.149C175.473 120.149 171.458 118.156 171.225 115.575C170.992 112.975 175.856 113.165 176.006 109.882C176.156 106.599 179.57 95.1172 194.879 93.9026C210.187 92.688 215.268 105.137 217.4 107.035C219.516 108.933 221.715 109.882 221.115 111.951C220.515 114.019 218.383 113.943 218.166 115.917C217.933 117.91 215.901 129.296 202.175 131.631C188.449 133.965 177.238 128.082 175.489 120.149H175.473Z" fill="#FFD400"/>
<path fill-rule="evenodd" clip-rule="evenodd" d="M175.473 120.149C175.473 120.149 171.458 118.156 171.225 115.575C171.175 115.006 171.375 114.57 171.708 114.19C171.708 114.247 171.475 116.145 174.257 116.657C177.055 117.17 177.522 109.749 179.487 110.603C181.453 111.476 179.254 119.751 187.983 124.419C196.695 129.088 207.705 128.765 216.651 121.06C214.802 125.102 210.804 130.15 202.158 131.631C188.432 133.965 177.222 128.082 175.473 120.149Z" fill="#FACC00"/>
<path fill-rule="evenodd" clip-rule="evenodd" d="M175.473 120.149C175.473 120.149 173.89 119.371 172.657 118.137C173.39 118.536 174.606 118.991 175.639 118.384C177.272 117.435 177.455 114.797 178.071 115.139C178.671 115.48 177.205 130.321 196.678 132.143C185.551 132.314 176.988 127 175.489 120.149H175.473Z" fill="#EEC200"/>
<path fill-rule="evenodd" clip-rule="evenodd" d="M199.96 96.1038C209.288 97.1476 215.568 106.731 212.47 113.108C209.355 119.503 205.123 115.006 196.212 112.975C173.524 107.813 181.853 94.0731 199.96 96.0848V96.1038Z" fill="#FFDB37"/>
<path fill-rule="evenodd" clip-rule="evenodd" d="M199.91 96.8064C206.723 97.3947 211.304 102.917 209.038 106.599C206.773 110.281 203.674 107.7 197.178 106.523C180.62 103.544 186.7 95.6487 199.91 96.8064Z" fill="#FFE05C"/>
<path fill-rule="evenodd" clip-rule="evenodd" d="M199.493 97.3757C202.425 97.6414 204.39 100.014 203.424 101.589C202.442 103.164 201.126 102.063 198.327 101.551C191.214 100.279 193.829 96.8633 199.51 97.3757H199.493Z" fill="#FFEB95"/>
<path fill-rule="evenodd" clip-rule="evenodd" d="M204.757 102.898C205.956 103.012 206.773 103.98 206.373 104.644C205.973 105.289 205.423 104.834 204.274 104.644C201.342 104.113 202.408 102.708 204.757 102.917V102.898Z" fill="#FFEB95"/>
<path fill-rule="evenodd" clip-rule="evenodd" d="M174.573 112.937C173.624 113.544 172.224 115.006 173.657 115.234C175.089 115.442 178.321 111.134 174.573 112.937Z" fill="#FFEB95"/>
<path fill-rule="evenodd" clip-rule="evenodd" d="M216.051 107.206C215.968 108.193 216.467 111.286 217.167 112.008C217.867 112.729 218.466 111.267 219.599 111.362C220.715 111.457 220.548 110.224 219.782 109.445C219.016 108.667 215.918 106.523 216.051 107.225V107.206Z" fill="#FACC00"/>
<path fill-rule="evenodd" clip-rule="evenodd" d="M248.95 222.649L205.124 254L235.607 120.244L280 94.3013L248.95 222.649Z" fill="#BC7B4A"/>
<path fill-rule="evenodd" clip-rule="evenodd" d="M248.95 222.649L205.14 254.019L222.431 178.127C231.426 166.569 245.352 154.974 266.107 151.729L248.95 222.649Z" fill="#B47748"/>
<path fill-rule="evenodd" clip-rule="evenodd" d="M236.973 119.447L237.39 119.2L181.32 110.717L179.87 111.856L192.014 121.8L235.607 120.225L236.973 119.428V119.447ZM176.222 123.793L181.336 129.885C181.336 129.885 54.221 130.378 52.6052 128.746L10.8109 86.5014L12.5267 85.4956L71.4284 94.2444L70.8954 98.7422C70.1624 104.929 73.9937 110.679 79.4242 111.514L169.509 125.501C171.941 125.881 174.29 125.216 176.222 123.793Z" fill="#F3BA90"/>
<path fill-rule="evenodd" clip-rule="evenodd" d="M10.8109 86.501L40.3784 220.257L205.123 254L235.607 120.244L179.87 111.874L179.271 116.923C178.538 123.109 173.49 127.474 168.06 126.639L77.9749 112.652C72.5445 111.817 68.7132 106.067 69.4462 99.8804L69.9792 95.3826L10.8109 86.501ZM83.6719 132.484L168.843 145.693C173.973 146.49 177.605 151.918 176.905 157.763C176.206 163.608 171.442 167.745 166.311 166.948L81.1399 153.74C76.0093 152.943 72.3779 147.515 73.0775 141.67C73.7772 135.824 78.5413 131.687 83.6719 132.484Z" fill="#D89565"/>
<path fill-rule="evenodd" clip-rule="evenodd" d="M10.8108 86.501L40.3783 220.257L205.123 254L206.839 246.504C185.967 239.501 158.332 225.761 128.365 198.888C111.74 183.971 98.2307 168.884 87.3365 154.689L81.1232 153.721C75.9926 152.924 72.3612 147.496 73.0608 141.651C73.2607 139.905 73.8438 138.33 74.66 136.982C62.25 118.251 54.6873 102.348 50.5895 92.479L10.7942 86.501H10.8108Z" fill="#E4A87D"/>
<path fill-rule="evenodd" clip-rule="evenodd" d="M235.107 118.858L277.285 94.5667L279.65 94.5098L236.64 119.636L235.107 118.858Z" fill="#F3BA90"/>
<path fill-rule="evenodd" clip-rule="evenodd" d="M81.8229 152.791C76.6923 151.994 73.0609 146.566 73.7606 140.721C73.9771 138.861 74.6268 137.153 75.5596 135.749C74.2436 137.324 73.3441 139.355 73.0776 141.651C72.9943 142.353 72.9776 143.056 73.011 143.739C73.0776 145.029 73.3608 146.282 73.7939 147.42C75.0765 150.723 77.7917 153.209 81.1399 153.721L166.311 166.93C169.792 167.48 173.124 165.734 175.106 162.736C173.091 165.165 170.109 166.493 166.994 166L81.8229 152.791Z" fill="#F3BA90"/>
<path fill-rule="evenodd" clip-rule="evenodd" d="M107.542 124.001L165.362 133.585C165.362 133.585 176.056 136.527 182.819 130.131C189.565 123.736 189.399 119.693 189.399 119.693L230.593 126.165L202.875 218.91C202.875 218.91 195.595 148.027 179.038 144.308C162.48 140.588 107.542 124.02 107.542 124.02V124.001Z" fill="#E4A87D"/>
</g>
<defs>
<clipPath id="clip0_456_4308">
<rect width="280" height="254" fill="white"/>
</clipPath>
</defs>
</svg>
